<?xml version="1.0" encoding="UTF-8" standalone="no"?>
<!-- Created with Inkscape (http://www.inkscape.org/) -->

<svg
   xmlns:ns0="http://www.iki.fi/pav/software/textext/"
   xmlns:dc="http://purl.org/dc/elements/1.1/"
   xmlns:cc="http://creativecommons.org/ns#"
   xmlns:rdf="http://www.w3.org/1999/02/22-rdf-syntax-ns#"
   xmlns:svg="http://www.w3.org/2000/svg"
   xmlns="http://www.w3.org/2000/svg"
   xmlns:xlink="http://www.w3.org/1999/xlink"
   xmlns:sodipodi="http://sodipodi.sourceforge.net/DTD/sodipodi-0.dtd"
   xmlns:inkscape="http://www.inkscape.org/namespaces/inkscape"
   width="74.420998"
   height="74.420998"
   id="svg4946"
   version="1.1"
   inkscape:version="0.48.4 r9939"
   sodipodi:docname="air.svg">
  <defs
     id="defs4948">
    <marker
       style="overflow:visible"
       id="Arrow1Mend"
       refX="0"
       refY="0"
       orient="auto"
       inkscape:stockid="Arrow1Mend">
      <path
         inkscape:connector-curvature="0"
         transform="matrix(-0.4,0,0,-0.4,-4,0)"
         style="fill-rule:evenodd;stroke:#000000;stroke-width:1pt"
         d="M 0,0 5,-5 -12.5,0 5,5 0,0 z"
         id="path103113" />
    </marker>
    <marker
       style="overflow:visible"
       id="Arrow1Mend-3"
       refX="0"
       refY="0"
       orient="auto"
       inkscape:stockid="Arrow1Mend">
      <path
         inkscape:connector-curvature="0"
         transform="matrix(-0.4,0,0,-0.4,-4,0)"
         style="fill-rule:evenodd;stroke:#000000;stroke-width:1pt"
         d="M 0,0 5,-5 -12.5,0 5,5 0,0 z"
         id="path103113-5" />
    </marker>
  </defs>
  <sodipodi:namedview
     id="base"
     pagecolor="#ffffff"
     bordercolor="#666666"
     borderopacity="1.0"
     inkscape:pageopacity="0.0"
     inkscape:pageshadow="2"
     inkscape:zoom="3.959798"
     inkscape:cx="29.582952"
     inkscape:cy="31.824299"
     inkscape:document-units="px"
     inkscape:current-layer="layer1"
     showgrid="false"
     inkscape:window-width="769"
     inkscape:window-height="558"
     inkscape:window-x="512"
     inkscape:window-y="94"
     inkscape:window-maximized="0"
     fit-margin-top="0"
     fit-margin-left="0"
     fit-margin-right="0"
     fit-margin-bottom="0"
     inkscape:snap-bbox="true"
     inkscape:bbox-paths="true"
     inkscape:bbox-nodes="true"
     inkscape:snap-bbox-edge-midpoints="true"
     inkscape:snap-bbox-midpoints="true" />
  <metadata
     id="metadata4951">
    <rdf:RDF>
      <cc:Work
         rdf:about="">
        <dc:format>image/svg+xml</dc:format>
        <dc:type
           rdf:resource="http://purl.org/dc/dcmitype/StillImage" />
        <dc:title />
      </cc:Work>
    </rdf:RDF>
  </metadata>
  <g
     inkscape:label="Layer 1"
     inkscape:groupmode="layer"
     id="layer1"
     transform="translate(-145.64664,-532.29456)">
    <g
       id="g3346"
       transform="translate(114.04264,501.49454)">
      <g
         id="g3348">
        <line
           style="fill:none;stroke:#010202;stroke-width:0.80000001;stroke-miterlimit:10"
           stroke-miterlimit="10"
           x1="42.193001"
           y1="89.316002"
           x2="48.433998"
           y2="89.316002"
           id="line3350" />
        <g
           id="g3352">
          <path
             style="fill:#010202"
             inkscape:connector-curvature="0"
             d="m 47.714,89.316 -0.876,-1.44 0.05,-0.033 2.35,0.934 c 0.818,0.18 1.637,0.359 2.456,0.541 -0.819,0.18 -1.638,0.359 -2.456,0.541 l -2.35,0.934 -0.05,-0.025 0.876,-1.452 z"
             id="path3354" />
        </g>
      </g>
    </g>
    <g
       id="g3356"
       transform="translate(114.04264,501.49454)">
      <g
         id="g3358">
        <line
           style="fill:none;stroke:#010202;stroke-width:0.80000001;stroke-miterlimit:10"
           stroke-miterlimit="10"
           x1="64.870003"
           y1="89.316002"
           x2="71.110001"
           y2="89.316002"
           id="line3360" />
        <g
           id="g3362">
          <path
             style="fill:#010202"
             inkscape:connector-curvature="0"
             d="m 70.393,89.316 -0.876,-1.44 0.049,-0.033 2.35,0.934 c 0.818,0.18 1.637,0.359 2.456,0.541 -0.819,0.18 -1.638,0.359 -2.456,0.541 l -2.35,0.934 -0.049,-0.025 0.876,-1.452 z"
             id="path3364" />
        </g>
      </g>
    </g>
    <g
       id="g3366"
       transform="translate(114.04264,501.49454)">
      <g
         id="g3368">
        <line
           style="fill:none;stroke:#010202;stroke-width:0.80000001;stroke-miterlimit:10"
           stroke-miterlimit="10"
           x1="87.546997"
           y1="89.316002"
           x2="93.787003"
           y2="89.316002"
           id="line3370" />
        <g
           id="g3372">
          <path
             style="fill:#010202"
             inkscape:connector-curvature="0"
             d="m 93.069,89.316 -0.876,-1.44 0.049,-0.033 2.35,0.934 c 0.818,0.18 1.638,0.359 2.456,0.541 -0.818,0.18 -1.638,0.359 -2.456,0.541 l -2.35,0.934 -0.049,-0.025 0.876,-1.452 z"
             id="path3374" />
        </g>
      </g>
    </g>
    <g
       id="g3426"
       transform="translate(114.04264,501.49454)">
      <g
         id="g3428">
        <line
           style="fill:none;stroke:#010202;stroke-width:0.80000001;stroke-miterlimit:10"
           stroke-miterlimit="10"
           x1="94.610001"
           y1="99.967003"
           x2="88.370003"
           y2="99.967003"
           id="line3430" />
        <g
           id="g3432">
          <path
             style="fill:#010202"
             inkscape:connector-curvature="0"
             d="m 89.088,99.967 0.876,1.44 -0.049,0.032 -2.35,-0.934 c -0.818,-0.18 -1.637,-0.359 -2.456,-0.541 0.819,-0.18 1.638,-0.359 2.456,-0.541 l 2.35,-0.933 0.049,0.024 -0.876,1.453 z"
             id="path3434" />
        </g>
      </g>
    </g>
    <g
       id="g3436"
       transform="translate(114.04264,501.49454)">
      <g
         id="g3438">
        <line
           style="fill:none;stroke:#010202;stroke-width:0.80000001;stroke-miterlimit:10"
           stroke-miterlimit="10"
           x1="71.933998"
           y1="99.967003"
           x2="65.693001"
           y2="99.967003"
           id="line3440" />
        <g
           id="g3442">
          <path
             style="fill:#010202"
             inkscape:connector-curvature="0"
             d="m 66.411,99.967 0.876,1.44 -0.049,0.032 -2.35,-0.934 c -0.818,-0.18 -1.638,-0.359 -2.456,-0.541 0.818,-0.18 1.638,-0.359 2.456,-0.541 l 2.35,-0.933 0.049,0.024 -0.876,1.453 z"
             id="path3444" />
        </g>
      </g>
    </g>
    <g
       id="g3446"
       transform="translate(114.04264,501.49454)">
      <g
         id="g3448">
        <line
           style="fill:none;stroke:#010202;stroke-width:0.80000001;stroke-miterlimit:10"
           stroke-miterlimit="10"
           x1="49.255001"
           y1="99.967003"
           x2="43.016998"
           y2="99.967003"
           id="line3450" />
        <g
           id="g3452">
          <path
             style="fill:#010202"
             inkscape:connector-curvature="0"
             d="m 43.734,99.967 0.876,1.44 -0.049,0.032 -2.351,-0.934 c -0.817,-0.18 -1.637,-0.359 -2.456,-0.541 0.819,-0.18 1.639,-0.359 2.456,-0.541 l 2.351,-0.933 0.049,0.024 -0.876,1.453 z"
             id="path3454" />
        </g>
      </g>
    </g>
    <rect
       style="fill:none;stroke:#010202;stroke-width:0.39889905;stroke-miterlimit:10"
       x="146.14665"
       y="586.37354"
       stroke-miterlimit="10"
       width="73.521286"
       height="19.841999"
       id="rect3488" />
    <rect
       y="532.69427"
       x="146.04636"
       height="73.621567"
       width="73.621567"
       id="rect5196"
       style="fill:none;stroke:#000000;stroke-width:0.79943168;stroke-miterlimit:4;stroke-opacity:1;stroke-dasharray:none" />
    <g
       id="g3106"
       transform="translate(6,-10)">
      <g
         id="g100529"
         transform="matrix(0.75,0,0,0.75,100.3654,491.36307)"
         ns0:preamble="/home/awebster/yuki/qcmproposal/proposal/myinc.tex"
         ns0:text="$F_\\mathrm{c}$">
        <defs
           id="defs100531">
          <g
             id="g100533">
            <symbol
               id="textext-dcd27174-0"
               overflow="visible"
               style="overflow:visible">
              <path
                 id="path100536"
                 d=""
                 style="stroke:none"
                 inkscape:connector-curvature="0" />
            </symbol>
            <symbol
               id="textext-dcd27174-1"
               overflow="visible"
               style="overflow:visible">
              <path
                 id="path100539"
                 d="m 3.015625,-3.234375 0.96875,0 c 0.75,0 0.828125,0.15625 0.828125,0.4375 0,0.078125 0,0.1875 -0.0625,0.5 C 4.71875,-2.25 4.71875,-2.21875 4.71875,-2.1875 c 0,0.078125 0.0625,0.109375 0.109375,0.109375 0.109375,0 0.109375,-0.03125 0.15625,-0.203125 L 5.53125,-4.453125 C 5.5625,-4.5625 5.5625,-4.578125 5.5625,-4.609375 5.5625,-4.625 5.546875,-4.71875 5.4375,-4.71875 5.34375,-4.71875 5.328125,-4.671875 5.296875,-4.5 5.078125,-3.734375 4.859375,-3.546875 4,-3.546875 l -0.90625,0 0.640625,-2.53125 C 3.828125,-6.4375 3.84375,-6.46875 4.28125,-6.46875 l 1.3125,0 c 1.21875,0 1.453125,0.328125 1.453125,1.09375 0,0.234375 0,0.265625 -0.03125,0.546875 C 7,-4.703125 7,-4.6875 7,-4.65625 c 0,0.046875 0.03125,0.125 0.125,0.125 0.109375,0 0.109375,-0.0625 0.125,-0.25 L 7.453125,-6.515625 C 7.484375,-6.78125 7.4375,-6.78125 7.1875,-6.78125 l -4.890625,0 c -0.1875,0 -0.296875,0 -0.296875,0.203125 0,0.109375 0.09375,0.109375 0.28125,0.109375 0.375,0 0.65625,0 0.65625,0.171875 0,0.046875 0,0.0625 -0.0625,0.25 L 1.5625,-0.78125 c -0.09375,0.390625 -0.109375,0.46875 -0.90625,0.46875 -0.171875,0 -0.28125,0 -0.28125,0.1875 C 0.375,0 0.5,0 0.53125,0 0.8125,0 1.5625,-0.03125 1.84375,-0.03125 2.171875,-0.03125 3,0 3.328125,0 3.421875,0 3.53125,0 3.53125,-0.1875 3.53125,-0.265625 3.484375,-0.296875 3.484375,-0.296875 3.453125,-0.3125 3.421875,-0.3125 3.203125,-0.3125 c -0.21875,0 -0.265625,0 -0.515625,-0.015625 -0.296875,-0.03125 -0.328125,-0.078125 -0.328125,-0.203125 0,-0.015625 0,-0.078125 0.046875,-0.21875 z"
                 style="stroke:none"
                 inkscape:connector-curvature="0" />
            </symbol>
            <symbol
               id="textext-dcd27174-2"
               overflow="visible"
               style="overflow:visible">
              <path
                 id="path100542"
                 d=""
                 style="stroke:none"
                 inkscape:connector-curvature="0" />
            </symbol>
            <symbol
               id="textext-dcd27174-3"
               overflow="visible"
               style="overflow:visible">
              <path
                 id="path100545"
                 d="m 2.703125,-2.78125 c -0.125,0.0625 -0.1875,0.171875 -0.1875,0.3125 0,0.1875 0.125,0.328125 0.328125,0.328125 0.1875,0 0.328125,-0.125 0.328125,-0.34375 0,-0.625 -0.96875,-0.625 -1.15625,-0.625 -1.046875,0 -1.6875,0.796875 -1.6875,1.609375 0,0.875 0.734375,1.5625 1.65625,1.5625 1.03125,0 1.28125,-0.8125 1.28125,-0.90625 0,-0.078125 -0.09375,-0.078125 -0.125,-0.078125 -0.09375,0 -0.09375,0.015625 -0.125,0.125 C 2.859375,-0.375 2.484375,-0.15625 2.0625,-0.15625 c -0.484375,0 -1.109375,-0.359375 -1.109375,-1.359375 0,-0.875 0.4375,-1.375 1.078125,-1.375 0.09375,0 0.421875,0 0.671875,0.109375 z"
                 style="stroke:none"
                 inkscape:connector-curvature="0" />
            </symbol>
          </g>
        </defs>
        <g
           id="textext-dcd27174-4">
          <g
             id="g100548"
             style="fill:#000000;fill-opacity:1">
            <use
               id="use100550"
               y="81.962997"
               x="72"
               xlink:href="#textext-dcd27174-1"
               width="234.024"
               height="149.843" />
          </g>
          <g
             id="g100552"
             style="fill:#000000;fill-opacity:1">
            <use
               id="use100554"
               y="83.457001"
               x="78.406998"
               xlink:href="#textext-dcd27174-3"
               width="234.024"
               height="149.843" />
          </g>
        </g>
      </g>
      <path
         style="fill:none;stroke:#000000;stroke-width:1px;stroke-linecap:butt;stroke-linejoin:miter;stroke-opacity:1;marker-end:url(#Arrow1Mend)"
         d="m 152.39665,548.24938 0,21.92031"
         id="path103098"
         inkscape:connector-curvature="0" />
      <path
         style="fill:none;stroke:#000000;stroke-width:1px;stroke-linecap:butt;stroke-linejoin:miter;stroke-opacity:1;marker-end:url(#Arrow1Mend)"
         d="m 146.39665,570.91969 0,-21.92031"
         id="path103098-2"
         inkscape:connector-curvature="0" />
    </g>
  </g>
</svg>
