<?xml version="1.0" encoding="UTF-8" standalone="no"?>
<!-- Created with Inkscape (http://www.inkscape.org/) -->

<svg
   xmlns:ns0="http://www.iki.fi/pav/software/textext/"
   xmlns:dc="http://purl.org/dc/elements/1.1/"
   xmlns:cc="http://creativecommons.org/ns#"
   xmlns:rdf="http://www.w3.org/1999/02/22-rdf-syntax-ns#"
   xmlns:svg="http://www.w3.org/2000/svg"
   xmlns="http://www.w3.org/2000/svg"
   xmlns:xlink="http://www.w3.org/1999/xlink"
   xmlns:sodipodi="http://sodipodi.sourceforge.net/DTD/sodipodi-0.dtd"
   xmlns:inkscape="http://www.inkscape.org/namespaces/inkscape"
   width="99.0625"
   height="99.0625"
   id="svg4946"
   version="1.1"
   inkscape:version="0.48.4 r9939"
   sodipodi:docname="cell.svg">
  <defs
     id="defs4948">
    <marker
       style="overflow:visible"
       id="Arrow1Mend"
       refX="0"
       refY="0"
       orient="auto"
       inkscape:stockid="Arrow1Mend">
      <path
         inkscape:connector-curvature="0"
         transform="matrix(-0.4,0,0,-0.4,-4,0)"
         style="fill-rule:evenodd;stroke:#000000;stroke-width:1pt"
         d="M 0,0 5,-5 -12.5,0 5,5 0,0 z"
         id="path103113" />
    </marker>
    <marker
       style="overflow:visible"
       id="Arrow1Mend-3"
       refX="0"
       refY="0"
       orient="auto"
       inkscape:stockid="Arrow1Mend">
      <path
         inkscape:connector-curvature="0"
         transform="matrix(-0.4,0,0,-0.4,-4,0)"
         style="fill-rule:evenodd;stroke:#000000;stroke-width:1pt"
         d="M 0,0 5,-5 -12.5,0 5,5 0,0 z"
         id="path103113-5" />
    </marker>
    <marker
       inkscape:stockid="Arrow1Mend"
       orient="auto"
       refY="0"
       refX="0"
       id="Arrow1Mend-7"
       style="overflow:visible">
      <path
         id="path103113-4"
         d="M 0,0 5,-5 -12.5,0 5,5 0,0 z"
         style="fill-rule:evenodd;stroke:#000000;stroke-width:1pt"
         transform="matrix(-0.4,0,0,-0.4,-4,0)"
         inkscape:connector-curvature="0" />
    </marker>
  </defs>
  <sodipodi:namedview
     id="base"
     pagecolor="#ffffff"
     bordercolor="#666666"
     borderopacity="1.0"
     inkscape:pageopacity="0.0"
     inkscape:pageshadow="2"
     inkscape:zoom="3.959798"
     inkscape:cx="38.48621"
     inkscape:cy="35.251394"
     inkscape:document-units="px"
     inkscape:current-layer="layer1"
     showgrid="false"
     inkscape:window-width="1280"
     inkscape:window-height="1000"
     inkscape:window-x="1280"
     inkscape:window-y="0"
     inkscape:window-maximized="1"
     fit-margin-top="0"
     fit-margin-left="0"
     fit-margin-right="0"
     fit-margin-bottom="0"
     inkscape:snap-bbox="true"
     inkscape:bbox-paths="true"
     inkscape:bbox-nodes="true"
     inkscape:snap-bbox-edge-midpoints="true"
     inkscape:snap-bbox-midpoints="true" />
  <metadata
     id="metadata4951">
    <rdf:RDF>
      <cc:Work
         rdf:about="">
        <dc:format>image/svg+xml</dc:format>
        <dc:type
           rdf:resource="http://purl.org/dc/dcmitype/StillImage" />
        <dc:title></dc:title>
      </cc:Work>
    </rdf:RDF>
  </metadata>
  <g
     inkscape:label="Layer 1"
     inkscape:groupmode="layer"
     id="layer1"
     transform="translate(-150.40625,-513.5)">
    <rect
       id="rect3344"
       height="71.31498"
       width="97.856834"
       y="514.16473"
       x="151.08067"
       style="fill:#d2eafa" />
    <g
       transform="matrix(3.4522713,0,0,3.4522713,-2136.6639,-1021.5466)"
       id="g7393">
      <path
         id="path3253"
         style="fill:#8ae234;fill-opacity:1;fill-rule:nonzero;stroke:#4e9a06;stroke-width:0.700014;stroke-linecap:butt;stroke-linejoin:round;stroke-miterlimit:4;stroke-opacity:1;stroke-dasharray:none"
         d="m 672.70671,460.06955 c -1.11377,1.00127 -1.78576,3.10334 0.0975,4.67759 0.78247,0.57716 7.37265,0.88877 8.34017,-0.385 0.70251,-1.19628 2.10379,-2.04629 -1.69004,-4.6001 -1.78753,-2.02629 -4.96135,-1.34252 -6.74763,0.30751 z"
         inkscape:connector-curvature="0"
         sodipodi:nodetypes="ccccc" />
      <path
         id="path3257"
         style="fill:#ef2929;fill-opacity:1;fill-rule:nonzero;stroke:#a40000;stroke-width:0.69999999;stroke-linecap:round;stroke-linejoin:round;stroke-miterlimit:4;stroke-opacity:1;stroke-dasharray:none"
         d="m 676.27553,462.12084 c -0.54867,0.0722 -1.63503,-0.56126 -1.40128,0.78627 0.14125,0.93752 0.61207,1.06645 1.60012,1.2027 0.74072,-0.0872 0.91993,0.53108 1.62245,-1.66146 -1.13163,-0.86029 -1.15253,-0.24001 -1.82129,-0.32751 z"
         inkscape:connector-curvature="0"
         sodipodi:nodetypes="ccccc" />
    </g>
    <rect
       style="fill:none;stroke:#000000;stroke-width:1.06404352;stroke-miterlimit:4;stroke-opacity:1;stroke-dasharray:none"
       id="rect5196"
       width="97.990303"
       height="97.990303"
       x="150.94719"
       y="514.03131" />
    <g
       id="g11532"
       transform="translate(-443.89695,124.86067)">
      <g
         ns0:text="$F_\\mathrm{c}$"
         ns0:preamble="/home/awebster/yuki/qcmproposal/proposal/myinc.tex"
         transform="matrix(0.99825,0,0,0.99825,532.02879,320.84876)"
         id="g100529">
        <defs
           id="defs100531">
          <g
             id="g100533">
            <symbol
               style="overflow:visible"
               overflow="visible"
               id="textext-dcd27174-0">
              <path
                 inkscape:connector-curvature="0"
                 style="stroke:none"
                 d=""
                 id="path100536" />
            </symbol>
            <symbol
               style="overflow:visible"
               overflow="visible"
               id="textext-dcd27174-1">
              <path
                 inkscape:connector-curvature="0"
                 style="stroke:none"
                 d="m 3.015625,-3.234375 0.96875,0 c 0.75,0 0.828125,0.15625 0.828125,0.4375 0,0.078125 0,0.1875 -0.0625,0.5 C 4.71875,-2.25 4.71875,-2.21875 4.71875,-2.1875 c 0,0.078125 0.0625,0.109375 0.109375,0.109375 0.109375,0 0.109375,-0.03125 0.15625,-0.203125 L 5.53125,-4.453125 C 5.5625,-4.5625 5.5625,-4.578125 5.5625,-4.609375 5.5625,-4.625 5.546875,-4.71875 5.4375,-4.71875 5.34375,-4.71875 5.328125,-4.671875 5.296875,-4.5 5.078125,-3.734375 4.859375,-3.546875 4,-3.546875 l -0.90625,0 0.640625,-2.53125 C 3.828125,-6.4375 3.84375,-6.46875 4.28125,-6.46875 l 1.3125,0 c 1.21875,0 1.453125,0.328125 1.453125,1.09375 0,0.234375 0,0.265625 -0.03125,0.546875 C 7,-4.703125 7,-4.6875 7,-4.65625 c 0,0.046875 0.03125,0.125 0.125,0.125 0.109375,0 0.109375,-0.0625 0.125,-0.25 L 7.453125,-6.515625 C 7.484375,-6.78125 7.4375,-6.78125 7.1875,-6.78125 l -4.890625,0 c -0.1875,0 -0.296875,0 -0.296875,0.203125 0,0.109375 0.09375,0.109375 0.28125,0.109375 0.375,0 0.65625,0 0.65625,0.171875 0,0.046875 0,0.0625 -0.0625,0.25 L 1.5625,-0.78125 c -0.09375,0.390625 -0.109375,0.46875 -0.90625,0.46875 -0.171875,0 -0.28125,0 -0.28125,0.1875 C 0.375,0 0.5,0 0.53125,0 0.8125,0 1.5625,-0.03125 1.84375,-0.03125 2.171875,-0.03125 3,0 3.328125,0 3.421875,0 3.53125,0 3.53125,-0.1875 3.53125,-0.265625 3.484375,-0.296875 3.484375,-0.296875 3.453125,-0.3125 3.421875,-0.3125 3.203125,-0.3125 c -0.21875,0 -0.265625,0 -0.515625,-0.015625 -0.296875,-0.03125 -0.328125,-0.078125 -0.328125,-0.203125 0,-0.015625 0,-0.078125 0.046875,-0.21875 z"
                 id="path100539" />
            </symbol>
            <symbol
               style="overflow:visible"
               overflow="visible"
               id="textext-dcd27174-2">
              <path
                 inkscape:connector-curvature="0"
                 style="stroke:none"
                 d=""
                 id="path100542" />
            </symbol>
            <symbol
               style="overflow:visible"
               overflow="visible"
               id="textext-dcd27174-3">
              <path
                 inkscape:connector-curvature="0"
                 style="stroke:none"
                 d="m 2.703125,-2.78125 c -0.125,0.0625 -0.1875,0.171875 -0.1875,0.3125 0,0.1875 0.125,0.328125 0.328125,0.328125 0.1875,0 0.328125,-0.125 0.328125,-0.34375 0,-0.625 -0.96875,-0.625 -1.15625,-0.625 -1.046875,0 -1.6875,0.796875 -1.6875,1.609375 0,0.875 0.734375,1.5625 1.65625,1.5625 1.03125,0 1.28125,-0.8125 1.28125,-0.90625 0,-0.078125 -0.09375,-0.078125 -0.125,-0.078125 -0.09375,0 -0.09375,0.015625 -0.125,0.125 C 2.859375,-0.375 2.484375,-0.15625 2.0625,-0.15625 c -0.484375,0 -1.109375,-0.359375 -1.109375,-1.359375 0,-0.875 0.4375,-1.375 1.078125,-1.375 0.09375,0 0.421875,0 0.671875,0.109375 z"
                 id="path100545" />
            </symbol>
          </g>
        </defs>
        <g
           id="textext-dcd27174-4">
          <g
             style="fill:#000000;fill-opacity:1"
             id="g100548">
            <use
               height="149.843"
               width="234.024"
               xlink:href="#textext-dcd27174-1"
               x="72"
               y="81.962997"
               id="use100550" />
          </g>
          <g
             style="fill:#000000;fill-opacity:1"
             id="g100552">
            <use
               height="149.843"
               width="234.024"
               xlink:href="#textext-dcd27174-3"
               x="78.406998"
               y="83.457001"
               id="use100554" />
          </g>
        </g>
      </g>
      <path
         inkscape:connector-curvature="0"
         id="path103098"
         d="m 601.28238,396.56443 0,29.17594"
         style="fill:none;stroke:#000000;stroke-width:1.33099997px;stroke-linecap:butt;stroke-linejoin:miter;stroke-opacity:1;marker-end:url(#Arrow1Mend)" />
    </g>
    <rect
       id="rect3488"
       height="26.4097"
       width="97.856834"
       stroke-miterlimit="10"
       y="585.47839"
       x="151.08067"
       style="fill:#ffffff;fill-opacity:1;stroke:#010202;stroke-width:0.53093463;stroke-miterlimit:10" />
    <g
       transform="matrix(1.331,0,0,1.331,108.35025,472.50441)"
       id="g3346">
      <g
         id="g3348">
        <line
           id="line3350"
           y2="89.316002"
           x2="48.433998"
           y1="89.316002"
           x1="42.193001"
           stroke-miterlimit="10"
           style="fill:none;stroke:#010202;stroke-width:0.80000001;stroke-miterlimit:10" />
        <g
           id="g3352">
          <path
             id="path3354"
             d="m 47.714,89.316 -0.876,-1.44 0.05,-0.033 2.35,0.934 c 0.818,0.18 1.637,0.359 2.456,0.541 -0.819,0.18 -1.638,0.359 -2.456,0.541 l -2.35,0.934 -0.05,-0.025 0.876,-1.452 z"
             inkscape:connector-curvature="0"
             style="fill:#010202" />
        </g>
      </g>
    </g>
    <g
       transform="matrix(1.331,0,0,1.331,108.35025,472.50441)"
       id="g3356">
      <g
         id="g3358">
        <line
           id="line3360"
           y2="89.316002"
           x2="71.110001"
           y1="89.316002"
           x1="64.870003"
           stroke-miterlimit="10"
           style="fill:none;stroke:#010202;stroke-width:0.80000001;stroke-miterlimit:10" />
        <g
           id="g3362">
          <path
             id="path3364"
             d="m 70.393,89.316 -0.876,-1.44 0.049,-0.033 2.35,0.934 c 0.818,0.18 1.637,0.359 2.456,0.541 -0.819,0.18 -1.638,0.359 -2.456,0.541 l -2.35,0.934 -0.049,-0.025 0.876,-1.452 z"
             inkscape:connector-curvature="0"
             style="fill:#010202" />
        </g>
      </g>
    </g>
    <g
       transform="matrix(1.331,0,0,1.331,108.35025,472.50441)"
       id="g3366">
      <g
         id="g3368">
        <line
           id="line3370"
           y2="89.316002"
           x2="93.787003"
           y1="89.316002"
           x1="87.546997"
           stroke-miterlimit="10"
           style="fill:none;stroke:#010202;stroke-width:0.80000001;stroke-miterlimit:10" />
        <g
           id="g3372">
          <path
             id="path3374"
             d="m 93.069,89.316 -0.876,-1.44 0.049,-0.033 2.35,0.934 c 0.818,0.18 1.638,0.359 2.456,0.541 -0.818,0.18 -1.638,0.359 -2.456,0.541 l -2.35,0.934 -0.049,-0.025 0.876,-1.452 z"
             inkscape:connector-curvature="0"
             style="fill:#010202" />
        </g>
      </g>
    </g>
    <g
       transform="matrix(1.331,0,0,1.331,108.35025,472.50441)"
       id="g3426">
      <g
         id="g3428">
        <line
           id="line3430"
           y2="99.967003"
           x2="88.370003"
           y1="99.967003"
           x1="94.610001"
           stroke-miterlimit="10"
           style="fill:none;stroke:#010202;stroke-width:0.80000001;stroke-miterlimit:10" />
        <g
           id="g3432">
          <path
             id="path3434"
             d="m 89.088,99.967 0.876,1.44 -0.049,0.032 -2.35,-0.934 c -0.818,-0.18 -1.637,-0.359 -2.456,-0.541 0.819,-0.18 1.638,-0.359 2.456,-0.541 l 2.35,-0.933 0.049,0.024 -0.876,1.453 z"
             inkscape:connector-curvature="0"
             style="fill:#010202" />
        </g>
      </g>
    </g>
    <g
       transform="matrix(1.331,0,0,1.331,108.35025,472.50441)"
       id="g3436">
      <g
         id="g3438">
        <line
           id="line3440"
           y2="99.967003"
           x2="65.693001"
           y1="99.967003"
           x1="71.933998"
           stroke-miterlimit="10"
           style="fill:none;stroke:#010202;stroke-width:0.80000001;stroke-miterlimit:10" />
        <g
           id="g3442">
          <path
             id="path3444"
             d="m 66.411,99.967 0.876,1.44 -0.049,0.032 -2.35,-0.934 c -0.818,-0.18 -1.638,-0.359 -2.456,-0.541 0.818,-0.18 1.638,-0.359 2.456,-0.541 l 2.35,-0.933 0.049,0.024 -0.876,1.453 z"
             inkscape:connector-curvature="0"
             style="fill:#010202" />
        </g>
      </g>
    </g>
    <g
       transform="matrix(1.331,0,0,1.331,108.35025,472.50441)"
       id="g3446">
      <g
         id="g3448">
        <line
           id="line3450"
           y2="99.967003"
           x2="43.016998"
           y1="99.967003"
           x1="49.255001"
           stroke-miterlimit="10"
           style="fill:none;stroke:#010202;stroke-width:0.80000001;stroke-miterlimit:10" />
        <g
           id="g3452">
          <path
             id="path3454"
             d="m 43.734,99.967 0.876,1.44 -0.049,0.032 -2.351,-0.934 c -0.817,-0.18 -1.637,-0.359 -2.456,-0.541 0.819,-0.18 1.639,-0.359 2.456,-0.541 l 2.351,-0.933 0.049,0.024 -0.876,1.453 z"
             inkscape:connector-curvature="0"
             style="fill:#010202" />
        </g>
      </g>
    </g>
    <g
       ns0:text="\\textbf{cells}"
       ns0:preamble="/home/awebster/qcm_manuscript/naturecomm/figures/figure-preamble.tex"
       transform="translate(-0.54089776,391.82586)"
       id="g8905">
      <defs
         id="defs8907">
        <g
           id="g8909">
          <symbol
             style="overflow:visible"
             overflow="visible"
             id="textext-15f0aad1-0">
            <path
               inkscape:connector-curvature="0"
               style="stroke:none"
               d=""
               id="path8912" />
          </symbol>
          <symbol
             style="overflow:visible"
             overflow="visible"
             id="textext-15f0aad1-1">
            <path
               inkscape:connector-curvature="0"
               style="stroke:none"
               d="m 3.59375,-4.0625 c -0.1875,0.171875 -0.203125,0.375 -0.203125,0.46875 0,0.4375 0.34375,0.625 0.609375,0.625 0.3125,0 0.640625,-0.21875 0.640625,-0.625 0,-0.859375 -1.15625,-0.921875 -1.734375,-0.921875 -1.796875,0 -2.53125,1.140625 -2.53125,2.296875 0,1.328125 0.9375,2.28125 2.46875,2.28125 1.625,0 1.921875,-1.15625 1.921875,-1.234375 C 4.765625,-1.3125 4.625,-1.3125 4.53125,-1.3125 c -0.1875,0 -0.1875,0.03125 -0.25,0.15625 -0.25,0.625 -0.734375,0.8125 -1.234375,0.8125 -1.390625,0 -1.390625,-1.453125 -1.390625,-1.921875 0,-0.5625 0,-1.84375 1.28125,-1.84375 0.359375,0 0.515625,0.015625 0.65625,0.046875 z"
               id="path8915" />
          </symbol>
          <symbol
             style="overflow:visible"
             overflow="visible"
             id="textext-15f0aad1-2">
            <path
               inkscape:connector-curvature="0"
               style="stroke:none"
               d="m 4.609375,-2.171875 c 0.21875,0 0.3125,0 0.3125,-0.265625 0,-0.3125 -0.0625,-1.046875 -0.5625,-1.546875 C 4,-4.34375 3.46875,-4.515625 2.78125,-4.515625 c -1.59375,0 -2.46875,1.03125 -2.46875,2.265625 0,1.34375 1,2.3125 2.609375,2.3125 1.578125,0 2,-1.0625 2,-1.234375 0,-0.171875 -0.1875,-0.171875 -0.234375,-0.171875 -0.171875,0 -0.1875,0.046875 -0.25,0.203125 -0.203125,0.484375 -0.78125,0.796875 -1.421875,0.796875 -1.40625,0 -1.421875,-1.328125 -1.421875,-1.828125 z M 1.59375,-2.5 C 1.609375,-2.890625 1.625,-3.3125 1.828125,-3.640625 2.09375,-4.03125 2.5,-4.15625 2.78125,-4.15625 c 1.171875,0 1.1875,1.3125 1.203125,1.65625 z"
               id="path8918" />
          </symbol>
          <symbol
             style="overflow:visible"
             overflow="visible"
             id="textext-15f0aad1-3">
            <path
               inkscape:connector-curvature="0"
               style="stroke:none"
               d="m 2.234375,-6.921875 -1.765625,0.078125 0,0.46875 c 0.625,0 0.6875,0 0.6875,0.390625 l 0,5.515625 -0.6875,0 0,0.46875 c 0.3125,-0.015625 0.796875,-0.03125 1.21875,-0.03125 0.4375,0 0.890625,0.015625 1.234375,0.03125 l 0,-0.46875 -0.6875,0 z"
               id="path8921" />
          </symbol>
          <symbol
             style="overflow:visible"
             overflow="visible"
             id="textext-15f0aad1-4">
            <path
               inkscape:connector-curvature="0"
               style="stroke:none"
               d="M 2.109375,-2.9375 C 1.734375,-3 1.09375,-3.109375 1.09375,-3.578125 c 0,-0.625 0.921875,-0.625 1.109375,-0.625 0.75,0 1.125,0.296875 1.171875,0.84375 0.015625,0.15625 0.03125,0.203125 0.234375,0.203125 0.234375,0 0.234375,-0.046875 0.234375,-0.28125 l 0,-0.796875 c 0,-0.1875 0,-0.28125 -0.171875,-0.28125 -0.046875,0 -0.0625,0 -0.453125,0.1875 -0.265625,-0.125 -0.609375,-0.1875 -1,-0.1875 -0.3125,0 -1.84375,0 -1.84375,1.3125 0,0.390625 0.203125,0.65625 0.40625,0.828125 0.390625,0.34375 0.78125,0.40625 1.546875,0.546875 0.359375,0.0625 1.09375,0.1875 1.09375,0.78125 0,0.75 -0.90625,0.75 -1.125,0.75 -1.0625,0 -1.3125,-0.734375 -1.4375,-1.15625 C 0.8125,-1.59375 0.75,-1.59375 0.625,-1.59375 c -0.25,0 -0.25,0.0625 -0.25,0.28125 l 0,1.09375 c 0,0.1875 0,0.28125 0.1875,0.28125 0.0625,0 0.078125,0 0.296875,-0.15625 0.015625,0 0.234375,-0.140625 0.25,-0.171875 0.46875,0.328125 0.984375,0.328125 1.1875,0.328125 0.3125,0 1.84375,0 1.84375,-1.453125 0,-0.4375 -0.203125,-0.78125 -0.546875,-1.0625 C 3.203125,-2.734375 2.875,-2.796875 2.109375,-2.9375 z"
               id="path8924" />
          </symbol>
        </g>
      </defs>
      <g
         id="textext-15f0aad1-5">
        <g
           style="fill:#000000;fill-opacity:1"
           id="g8927">
          <use
             height="1052.3622"
             width="744.09448"
             xlink:href="#textext-15f0aad1-1"
             x="223.43201"
             y="134.765"
             id="use8929" />
          <use
             height="1052.3622"
             width="744.09448"
             xlink:href="#textext-15f0aad1-2"
             x="228.52388"
             y="134.765"
             id="use8931" />
          <use
             height="1052.3622"
             width="744.09448"
             xlink:href="#textext-15f0aad1-3"
             x="233.77518"
             y="134.765"
             id="use8933" />
          <use
             height="1052.3622"
             width="744.09448"
             xlink:href="#textext-15f0aad1-3"
             x="236.95723"
             y="134.765"
             id="use8935" />
          <use
             height="1052.3622"
             width="744.09448"
             xlink:href="#textext-15f0aad1-4"
             x="240.13928"
             y="134.765"
             id="use8937" />
        </g>
      </g>
    </g>
  </g>
</svg>
