<?xml version="1.0" encoding="UTF-8" standalone="no"?>
<!-- Created with Inkscape (http://www.inkscape.org/) -->

<svg
   xmlns:ns0="http://www.iki.fi/pav/software/textext/"
   xmlns:dc="http://purl.org/dc/elements/1.1/"
   xmlns:cc="http://creativecommons.org/ns#"
   xmlns:rdf="http://www.w3.org/1999/02/22-rdf-syntax-ns#"
   xmlns:svg="http://www.w3.org/2000/svg"
   xmlns="http://www.w3.org/2000/svg"
   xmlns:xlink="http://www.w3.org/1999/xlink"
   xmlns:sodipodi="http://sodipodi.sourceforge.net/DTD/sodipodi-0.dtd"
   xmlns:inkscape="http://www.inkscape.org/namespaces/inkscape"
   width="74.420998"
   height="74.420998"
   id="svg4946"
   version="1.1"
   inkscape:version="0.48.4 r9939"
   sodipodi:docname="beads.svg">
  <defs
     id="defs4948">
    <marker
       style="overflow:visible"
       id="Arrow1Mend"
       refX="0"
       refY="0"
       orient="auto"
       inkscape:stockid="Arrow1Mend">
      <path
         inkscape:connector-curvature="0"
         transform="matrix(-0.4,0,0,-0.4,-4,0)"
         style="fill-rule:evenodd;stroke:#000000;stroke-width:1pt"
         d="M 0,0 5,-5 -12.5,0 5,5 0,0 z"
         id="path103113" />
    </marker>
    <marker
       style="overflow:visible"
       id="Arrow1Mend-3"
       refX="0"
       refY="0"
       orient="auto"
       inkscape:stockid="Arrow1Mend">
      <path
         inkscape:connector-curvature="0"
         transform="matrix(-0.4,0,0,-0.4,-4,0)"
         style="fill-rule:evenodd;stroke:#000000;stroke-width:1pt"
         d="M 0,0 5,-5 -12.5,0 5,5 0,0 z"
         id="path103113-5" />
    </marker>
  </defs>
  <sodipodi:namedview
     id="base"
     pagecolor="#ffffff"
     bordercolor="#666666"
     borderopacity="1.0"
     inkscape:pageopacity="0.0"
     inkscape:pageshadow="2"
     inkscape:zoom="7.919596"
     inkscape:cx="40.854254"
     inkscape:cy="26.753729"
     inkscape:document-units="px"
     inkscape:current-layer="layer1"
     showgrid="false"
     inkscape:window-width="1920"
     inkscape:window-height="1032"
     inkscape:window-x="0"
     inkscape:window-y="26"
     inkscape:window-maximized="1"
     fit-margin-top="0"
     fit-margin-left="0"
     fit-margin-right="0"
     fit-margin-bottom="0"
     inkscape:snap-bbox="true"
     inkscape:bbox-paths="true"
     inkscape:bbox-nodes="true"
     inkscape:snap-bbox-edge-midpoints="true"
     inkscape:snap-bbox-midpoints="true" />
  <metadata
     id="metadata4951">
    <rdf:RDF>
      <cc:Work
         rdf:about="">
        <dc:format>image/svg+xml</dc:format>
        <dc:type
           rdf:resource="http://purl.org/dc/dcmitype/StillImage" />
        <dc:title></dc:title>
      </cc:Work>
    </rdf:RDF>
  </metadata>
  <g
     inkscape:label="Layer 1"
     inkscape:groupmode="layer"
     id="layer1"
     transform="translate(-145.64664,-532.29456)">
    <rect
       style="fill:#d2eafa"
       x="146.14665"
       y="532.79456"
       width="73.521286"
       height="53.580002"
       id="rect3344" />
    <g
       id="g3346"
       transform="translate(114.04264,501.49454)">
      <g
         id="g3348">
        <line
           style="fill:none;stroke:#010202;stroke-width:0.80000001;stroke-miterlimit:10"
           stroke-miterlimit="10"
           x1="42.193001"
           y1="89.316002"
           x2="48.433998"
           y2="89.316002"
           id="line3350" />
        <g
           id="g3352">
          <path
             style="fill:#010202"
             inkscape:connector-curvature="0"
             d="m 47.714,89.316 -0.876,-1.44 0.05,-0.033 2.35,0.934 c 0.818,0.18 1.637,0.359 2.456,0.541 -0.819,0.18 -1.638,0.359 -2.456,0.541 l -2.35,0.934 -0.05,-0.025 0.876,-1.452 z"
             id="path3354" />
        </g>
      </g>
    </g>
    <g
       id="g3356"
       transform="translate(114.04264,501.49454)">
      <g
         id="g3358">
        <line
           style="fill:none;stroke:#010202;stroke-width:0.80000001;stroke-miterlimit:10"
           stroke-miterlimit="10"
           x1="64.870003"
           y1="89.316002"
           x2="71.110001"
           y2="89.316002"
           id="line3360" />
        <g
           id="g3362">
          <path
             style="fill:#010202"
             inkscape:connector-curvature="0"
             d="m 70.393,89.316 -0.876,-1.44 0.049,-0.033 2.35,0.934 c 0.818,0.18 1.637,0.359 2.456,0.541 -0.819,0.18 -1.638,0.359 -2.456,0.541 l -2.35,0.934 -0.049,-0.025 0.876,-1.452 z"
             id="path3364" />
        </g>
      </g>
    </g>
    <g
       id="g3366"
       transform="translate(114.04264,501.49454)">
      <g
         id="g3368">
        <line
           style="fill:none;stroke:#010202;stroke-width:0.80000001;stroke-miterlimit:10"
           stroke-miterlimit="10"
           x1="87.546997"
           y1="89.316002"
           x2="93.787003"
           y2="89.316002"
           id="line3370" />
        <g
           id="g3372">
          <path
             style="fill:#010202"
             inkscape:connector-curvature="0"
             d="m 93.069,89.316 -0.876,-1.44 0.049,-0.033 2.35,0.934 c 0.818,0.18 1.638,0.359 2.456,0.541 -0.818,0.18 -1.638,0.359 -2.456,0.541 l -2.35,0.934 -0.049,-0.025 0.876,-1.452 z"
             id="path3374" />
        </g>
      </g>
    </g>
    <g
       id="g3426"
       transform="translate(114.04264,501.49454)">
      <g
         id="g3428">
        <line
           style="fill:none;stroke:#010202;stroke-width:0.80000001;stroke-miterlimit:10"
           stroke-miterlimit="10"
           x1="94.610001"
           y1="99.967003"
           x2="88.370003"
           y2="99.967003"
           id="line3430" />
        <g
           id="g3432">
          <path
             style="fill:#010202"
             inkscape:connector-curvature="0"
             d="m 89.088,99.967 0.876,1.44 -0.049,0.032 -2.35,-0.934 c -0.818,-0.18 -1.637,-0.359 -2.456,-0.541 0.819,-0.18 1.638,-0.359 2.456,-0.541 l 2.35,-0.933 0.049,0.024 -0.876,1.453 z"
             id="path3434" />
        </g>
      </g>
    </g>
    <g
       id="g3436"
       transform="translate(114.04264,501.49454)">
      <g
         id="g3438">
        <line
           style="fill:none;stroke:#010202;stroke-width:0.80000001;stroke-miterlimit:10"
           stroke-miterlimit="10"
           x1="71.933998"
           y1="99.967003"
           x2="65.693001"
           y2="99.967003"
           id="line3440" />
        <g
           id="g3442">
          <path
             style="fill:#010202"
             inkscape:connector-curvature="0"
             d="m 66.411,99.967 0.876,1.44 -0.049,0.032 -2.35,-0.934 c -0.818,-0.18 -1.638,-0.359 -2.456,-0.541 0.818,-0.18 1.638,-0.359 2.456,-0.541 l 2.35,-0.933 0.049,0.024 -0.876,1.453 z"
             id="path3444" />
        </g>
      </g>
    </g>
    <g
       id="g3446"
       transform="translate(114.04264,501.49454)">
      <g
         id="g3448">
        <line
           style="fill:none;stroke:#010202;stroke-width:0.80000001;stroke-miterlimit:10"
           stroke-miterlimit="10"
           x1="49.255001"
           y1="99.967003"
           x2="43.016998"
           y2="99.967003"
           id="line3450" />
        <g
           id="g3452">
          <path
             style="fill:#010202"
             inkscape:connector-curvature="0"
             d="m 43.734,99.967 0.876,1.44 -0.049,0.032 -2.351,-0.934 c -0.817,-0.18 -1.637,-0.359 -2.456,-0.541 0.819,-0.18 1.639,-0.359 2.456,-0.541 l 2.351,-0.933 0.049,0.024 -0.876,1.453 z"
             id="path3454" />
        </g>
      </g>
    </g>
    <rect
       y="532.69427"
       x="146.04636"
       height="73.621567"
       width="73.621567"
       id="rect5196"
       style="fill:none;stroke:#000000;stroke-width:0.79943168;stroke-miterlimit:4;stroke-opacity:1;stroke-dasharray:none" />
    <g
       id="g3106"
       transform="translate(6,-10)">
      <g
         id="g100529"
         transform="matrix(0.75,0,0,0.75,100.3654,491.36307)"
         ns0:preamble="/home/awebster/yuki/qcmproposal/proposal/myinc.tex"
         ns0:text="$F_\\mathrm{c}$">
        <defs
           id="defs100531">
          <g
             id="g100533">
            <symbol
               id="textext-dcd27174-0"
               overflow="visible"
               style="overflow:visible">
              <path
                 id="path100536"
                 d=""
                 style="stroke:none"
                 inkscape:connector-curvature="0" />
            </symbol>
            <symbol
               id="textext-dcd27174-1"
               overflow="visible"
               style="overflow:visible">
              <path
                 id="path100539"
                 d="m 3.015625,-3.234375 0.96875,0 c 0.75,0 0.828125,0.15625 0.828125,0.4375 0,0.078125 0,0.1875 -0.0625,0.5 C 4.71875,-2.25 4.71875,-2.21875 4.71875,-2.1875 c 0,0.078125 0.0625,0.109375 0.109375,0.109375 0.109375,0 0.109375,-0.03125 0.15625,-0.203125 L 5.53125,-4.453125 C 5.5625,-4.5625 5.5625,-4.578125 5.5625,-4.609375 5.5625,-4.625 5.546875,-4.71875 5.4375,-4.71875 5.34375,-4.71875 5.328125,-4.671875 5.296875,-4.5 5.078125,-3.734375 4.859375,-3.546875 4,-3.546875 l -0.90625,0 0.640625,-2.53125 C 3.828125,-6.4375 3.84375,-6.46875 4.28125,-6.46875 l 1.3125,0 c 1.21875,0 1.453125,0.328125 1.453125,1.09375 0,0.234375 0,0.265625 -0.03125,0.546875 C 7,-4.703125 7,-4.6875 7,-4.65625 c 0,0.046875 0.03125,0.125 0.125,0.125 0.109375,0 0.109375,-0.0625 0.125,-0.25 L 7.453125,-6.515625 C 7.484375,-6.78125 7.4375,-6.78125 7.1875,-6.78125 l -4.890625,0 c -0.1875,0 -0.296875,0 -0.296875,0.203125 0,0.109375 0.09375,0.109375 0.28125,0.109375 0.375,0 0.65625,0 0.65625,0.171875 0,0.046875 0,0.0625 -0.0625,0.25 L 1.5625,-0.78125 c -0.09375,0.390625 -0.109375,0.46875 -0.90625,0.46875 -0.171875,0 -0.28125,0 -0.28125,0.1875 C 0.375,0 0.5,0 0.53125,0 0.8125,0 1.5625,-0.03125 1.84375,-0.03125 2.171875,-0.03125 3,0 3.328125,0 3.421875,0 3.53125,0 3.53125,-0.1875 3.53125,-0.265625 3.484375,-0.296875 3.484375,-0.296875 3.453125,-0.3125 3.421875,-0.3125 3.203125,-0.3125 c -0.21875,0 -0.265625,0 -0.515625,-0.015625 -0.296875,-0.03125 -0.328125,-0.078125 -0.328125,-0.203125 0,-0.015625 0,-0.078125 0.046875,-0.21875 z"
                 style="stroke:none"
                 inkscape:connector-curvature="0" />
            </symbol>
            <symbol
               id="textext-dcd27174-2"
               overflow="visible"
               style="overflow:visible">
              <path
                 id="path100542"
                 d=""
                 style="stroke:none"
                 inkscape:connector-curvature="0" />
            </symbol>
            <symbol
               id="textext-dcd27174-3"
               overflow="visible"
               style="overflow:visible">
              <path
                 id="path100545"
                 d="m 2.703125,-2.78125 c -0.125,0.0625 -0.1875,0.171875 -0.1875,0.3125 0,0.1875 0.125,0.328125 0.328125,0.328125 0.1875,0 0.328125,-0.125 0.328125,-0.34375 0,-0.625 -0.96875,-0.625 -1.15625,-0.625 -1.046875,0 -1.6875,0.796875 -1.6875,1.609375 0,0.875 0.734375,1.5625 1.65625,1.5625 1.03125,0 1.28125,-0.8125 1.28125,-0.90625 0,-0.078125 -0.09375,-0.078125 -0.125,-0.078125 -0.09375,0 -0.09375,0.015625 -0.125,0.125 C 2.859375,-0.375 2.484375,-0.15625 2.0625,-0.15625 c -0.484375,0 -1.109375,-0.359375 -1.109375,-1.359375 0,-0.875 0.4375,-1.375 1.078125,-1.375 0.09375,0 0.421875,0 0.671875,0.109375 z"
                 style="stroke:none"
                 inkscape:connector-curvature="0" />
            </symbol>
          </g>
        </defs>
        <g
           id="textext-dcd27174-4">
          <g
             id="g100548"
             style="fill:#000000;fill-opacity:1">
            <use
               id="use100550"
               y="81.962997"
               x="72"
               xlink:href="#textext-dcd27174-1"
               width="234.024"
               height="149.843" />
          </g>
          <g
             id="g100552"
             style="fill:#000000;fill-opacity:1">
            <use
               id="use100554"
               y="83.457001"
               x="78.406998"
               xlink:href="#textext-dcd27174-3"
               width="234.024"
               height="149.843" />
          </g>
        </g>
      </g>
      <path
         style="fill:none;stroke:#000000;stroke-width:1px;stroke-linecap:butt;stroke-linejoin:miter;stroke-opacity:1;marker-end:url(#Arrow1Mend)"
         d="m 152.39665,548.24938 0,21.92031"
         id="path103098"
         inkscape:connector-curvature="0" />
      <path
         style="fill:none;stroke:#000000;stroke-width:1px;stroke-linecap:butt;stroke-linejoin:miter;stroke-opacity:1;marker-end:url(#Arrow1Mend)"
         d="m 146.39665,570.91969 0,-21.92031"
         id="path103098-2"
         inkscape:connector-curvature="0" />
    </g>
    <line
       style="fill:none;stroke:#2d2e83;stroke-width:2;stroke-linecap:square;stroke-miterlimit:10"
       stroke-miterlimit="10"
       x1="186.49135"
       y1="574.75507"
       x2="186.49135"
       y2="585.17407"
       id="line3667" />
    <rect
       style="fill:none;stroke:#010202;stroke-width:0.39889905;stroke-miterlimit:10"
       x="146.14665"
       y="586.37354"
       stroke-miterlimit="10"
       width="73.521286"
       height="19.841999"
       id="rect3488" />
    <line
       style="fill:none;stroke:#2d2e83;stroke-width:2;stroke-linecap:square;stroke-miterlimit:10"
       stroke-miterlimit="10"
       x1="181.90729"
       y1="574.75507"
       x2="181.90729"
       y2="585.17407"
       id="line3667-6-9" />
    <line
       style="fill:none;stroke:#2d2e83;stroke-width:2;stroke-linecap:square;stroke-miterlimit:10"
       stroke-miterlimit="10"
       x1="190.95914"
       y1="574.75507"
       x2="190.95914"
       y2="585.17407"
       id="line3667-6" />
    <g
       transform="translate(128.83891,547.3127)"
       id="g4583">
      <g
         id="g7"
         transform="translate(0.249994,75.922007)">
        <path
           style="fill:none;stroke:#f08c8b;stroke-width:3;stroke-miterlimit:10"
           inkscape:connector-curvature="0"
           id="path9"
           d="m 73.16,-55.946 c 0,0.538 -0.138,1.093 -0.192,1.617 -0.055,0.534 -0.466,1.015 -0.575,1.532 -0.112,0.524 0.218,1.179 0.055,1.682 -0.165,0.509 -0.947,0.787 -1.164,1.27 -0.217,0.487 0.079,1.243 -0.187,1.703 -0.267,0.461 -0.458,1.028 -0.771,1.456 -0.314,0.432 -0.661,0.906 -1.017,1.301 -0.356,0.396 -0.853,0.723 -1.249,1.079 -0.395,0.354 -1.254,0.153 -1.684,0.468 -0.43,0.311 -0.46,1.264 -0.921,1.531 -0.458,0.266 -0.984,0.521 -1.472,0.74 -0.483,0.215 -1.103,0.198 -1.611,0.363 -0.502,0.163 -0.998,0.527 -1.521,0.639 -0.516,0.109 -1.083,0.273 -1.618,0.328 -0.523,0.055 -1.114,0.134 -1.652,0.134 -0.537,0 -1.074,-0.589 -1.598,-0.644 -0.534,-0.055 -1.108,0.065 -1.624,-0.045 -0.524,-0.111 -0.916,-0.715 -1.419,-0.879 -0.508,-0.166 -0.98,-0.352 -1.464,-0.566 -0.487,-0.219 -1.171,-0.05 -1.63,-0.315 -0.462,-0.267 -0.849,-0.679 -1.278,-0.991 -0.43,-0.313 -0.69,-0.834 -1.084,-1.191 -0.395,-0.355 -1.09,-0.424 -1.447,-0.818 -0.356,-0.395 -0.932,-0.672 -1.245,-1.102 -0.313,-0.43 -0.408,-1.058 -0.675,-1.52 -0.266,-0.46 -0.533,-0.957 -0.75,-1.444 -0.216,-0.483 -0.432,-1.008 -0.597,-1.517 -0.163,-0.501 0.073,-1.131 -0.037,-1.655 -0.109,-0.516 -0.298,-1.024 -0.353,-1.558 -0.054,-0.523 0.53,-1.06 0.53,-1.599 0,-0.539 -0.333,-1.049 -0.279,-1.572 0.055,-0.533 -0.284,-1.127 -0.173,-1.643 0.111,-0.524 0.137,-1.1 0.3,-1.603 0.166,-0.508 0.422,-1.016 0.638,-1.5 0.217,-0.487 0.421,-1.018 0.686,-1.477 0.267,-0.462 1.275,-0.432 1.587,-0.86 0.313,-0.431 0.422,-0.977 0.778,-1.371 0.356,-0.396 0.467,-1.026 0.863,-1.383 0.395,-0.355 0.992,-0.459 1.422,-0.772 0.43,-0.312 0.604,-1.034 1.066,-1.301 0.458,-0.266 0.923,-0.615 1.41,-0.832 0.484,-0.216 1.133,-0.084 1.641,-0.25 0.502,-0.163 0.941,-0.697 1.465,-0.807 0.517,-0.109 1.118,0.055 1.652,0 0.522,-0.055 1.077,0.715 1.615,0.715 0.539,0 1.087,-0.717 1.611,-0.662 0.533,0.055 1.036,0.333 1.552,0.443 0.524,0.111 0.902,0.655 1.405,0.818 0.509,0.166 1.069,0.094 1.553,0.311 0.487,0.217 0.772,0.745 1.232,1.01 0.462,0.267 1.275,-0.042 1.705,0.271 0.431,0.313 0.914,0.599 1.308,0.954 0.395,0.356 0.227,1.259 0.583,1.654 0.355,0.396 1.438,0.2 1.751,0.631 0.312,0.429 0.468,1.008 0.735,1.47 0.266,0.458 0.619,0.915 0.836,1.402 0.216,0.483 -0.188,1.216 -0.023,1.725 0.163,0.502 0.4,0.968 0.51,1.492 0.109,0.516 -0.03,1.049 0.026,1.583 0.055,0.523 0.795,1.016 0.795,1.555 z"
           stroke-miterlimit="10" />
      </g>
      <circle
         style="fill:#ffffff;stroke:#000000;stroke-width:0.5;stroke-miterlimit:10"
         sodipodi:ry="14.416"
         sodipodi:rx="14.416"
         sodipodi:cy="-55.948002"
         sodipodi:cx="57.581001"
         d="m 71.997002,-55.948002 c 0,7.961737 -6.454264,14.416001 -14.416001,14.416001 -7.961737,0 -14.416,-6.454264 -14.416,-14.416001 0,-7.961737 6.454263,-14.416 14.416,-14.416 7.961737,0 14.416001,6.454263 14.416001,14.416 z"
         id="circle11"
         r="14.416"
         cy="-55.948002"
         cx="57.581001"
         stroke-miterlimit="10"
         transform="translate(0.249994,75.922007)" />
    </g>
  </g>
</svg>
