<?xml version="1.0" encoding="utf-8" standalone="no"?><!DOCTYPE svg PUBLIC "-//W3C//DTD SVG 1.1//EN" "http://www.w3.org/Graphics/SVG/1.1/DTD/svg11.dtd">
<svg preserveAspectRatio="xMinYMin meet" width="100%" height="100%" viewBox="0 0 560.000 420.000"  version="1.1" xmlns="http://www.w3.org/2000/svg" xmlns:xlink="http://www.w3.org/1999/xlink">
  <desc>Matlab Figure Converted by PLOT2SVG written by Juerg Schwizer</desc>
  <g id="topgroup">
  <rect x="0" y="0" width="560.000" height="420.000" fill="#ffffff" stroke="none" />
  <g id ="ID000000">
  <clipPath id="ID000001">
    <rect x="72.800" y="31.500" width="434.000" height="342.300"/>
  </clipPath>
    <g>
<g id="ID000002" clip-path="url(#ID000001)" >
<image x="118.650" y="31.842" width="342.300" height="342.300" image-rendering="optimizeSpeed" preserveAspectRatio="none" xlink:href="pu2001.png" />
</g>
<g id="ID000003" clip-path="url(#ID000001)" >
<g id="ID000004" clip-path="url(#ID000001)" >
      <polyline fill="none" fill-opacity="1.00" stroke="#934406" stroke-width="0.5pt" stroke-opacity="1.00" stroke-dasharray="none" points="294.765,32.185 294.803,32.869 294.935,33.028 295.320,32.869 294.964,32.185 "/>
</g>
<g id="ID000005" clip-path="url(#ID000001)" >
      <polyline fill="none" fill-opacity="1.00" stroke="#9f4b06" stroke-width="0.5pt" stroke-opacity="1.00" stroke-dasharray="none" points="294.494,32.185 294.672,32.869 294.935,33.188 295.619,32.916 295.668,32.869 295.619,32.857 295.012,32.185 "/>
</g>
<g id="ID000006" clip-path="url(#ID000001)" >
      <polyline fill="none" fill-opacity="1.00" stroke="#ab5306" stroke-width="0.5pt" stroke-opacity="1.00" stroke-dasharray="none" points="294.236,32.185 294.250,32.213 294.540,32.869 294.935,33.347 295.619,33.123 295.884,32.869 295.619,32.804 295.060,32.185 "/>
</g>
<g id="ID000007" clip-path="url(#ID000001)" >
      <polyline fill="none" fill-opacity="1.00" stroke="#b75b06" stroke-width="0.5pt" stroke-opacity="1.00" stroke-dasharray="none" points="294.096,32.185 294.250,32.510 294.409,32.869 294.935,33.506 295.619,33.331 296.100,32.869 295.619,32.752 295.107,32.185 "/>
</g>
<g id="ID000008" clip-path="url(#ID000001)" >
      <polyline fill="none" fill-opacity="1.00" stroke="#c36408" stroke-width="0.5pt" stroke-opacity="1.00" stroke-dasharray="none" points="293.956,32.185 294.250,32.807 294.278,32.869 294.787,33.554 294.935,33.656 295.552,33.554 295.619,33.538 296.304,32.889 296.308,32.869 296.304,32.866 295.619,32.699 295.155,32.185 "/>
</g>
<g id="ID000009" clip-path="url(#ID000001)" >
      <polyline fill="none" fill-opacity="1.00" stroke="#cf6f0b" stroke-width="0.5pt" stroke-opacity="1.00" stroke-dasharray="none" points="293.816,32.185 294.097,32.869 294.250,33.099 294.578,33.554 294.935,33.801 295.619,33.703 295.969,33.554 296.304,33.242 296.382,32.869 296.304,32.816 295.619,32.646 295.203,32.185 "/>
</g>
<g id="ID000010" clip-path="url(#ID000001)" >
      <polyline fill="none" fill-opacity="1.00" stroke="#dd7e12" stroke-width="0.5pt" stroke-opacity="1.00" stroke-dasharray="none" points="293.676,32.185 293.904,32.869 294.250,33.390 294.368,33.554 294.935,33.946 295.619,33.865 296.304,33.577 296.319,33.554 296.457,32.869 296.304,32.765 295.619,32.593 295.251,32.185 "/>
</g>
<g id="ID000011" clip-path="url(#ID000001)" >
      <polyline fill="none" fill-opacity="1.00" stroke="#e68a1a" stroke-width="0.5pt" stroke-opacity="1.00" stroke-dasharray="none" points="293.525,32.185 293.565,32.332 293.710,32.869 294.144,33.554 294.250,33.679 294.935,34.091 295.619,34.026 296.304,33.776 296.452,33.554 296.531,32.869 296.304,32.714 295.619,32.540 295.298,32.185 "/>
</g>
<g id="ID000012" clip-path="url(#ID000001)" >
      <polyline fill="none" fill-opacity="1.00" stroke="#ef972a" stroke-width="0.5pt" stroke-opacity="1.00" stroke-dasharray="none" points="293.330,32.185 293.509,32.869 293.565,32.974 293.901,33.554 294.250,33.964 294.935,34.236 295.619,34.187 296.304,33.976 296.585,33.554 296.605,32.869 296.304,32.663 295.619,32.487 295.346,32.185 "/>
</g>
<g id="ID000013" clip-path="url(#ID000001)" >
      <polyline fill="none" fill-opacity="1.00" stroke="#f6a43f" stroke-width="0.5pt" stroke-opacity="1.00" stroke-dasharray="none" points="293.135,32.185 293.281,32.869 293.565,33.393 293.658,33.554 294.235,34.238 294.250,34.252 294.935,34.507 295.619,34.439 296.087,34.238 296.304,34.175 296.717,33.554 296.680,32.869 296.304,32.613 295.619,32.435 295.394,32.185 "/>
</g>
<g id="ID000014" clip-path="url(#ID000001)" >
      <polyline fill="none" fill-opacity="1.00" stroke="#fcb056" stroke-width="0.5pt" stroke-opacity="1.00" stroke-dasharray="none" points="292.941,32.185 293.053,32.869 293.362,33.554 293.565,33.918 293.801,34.238 294.250,34.622 294.935,34.779 295.619,34.733 296.304,34.489 296.547,34.238 296.850,33.554 296.754,32.869 296.304,32.562 295.619,32.382 295.441,32.185 "/>
</g>
<g id="ID000015" clip-path="url(#ID000001)" >
      <polyline fill="none" fill-opacity="1.00" stroke="#fdbc69" stroke-width="0.5pt" stroke-opacity="1.00" stroke-dasharray="none" points="292.689,32.185 292.810,32.869 292.881,33.105 293.033,33.554 293.409,34.238 293.565,34.443 294.147,34.923 294.250,34.994 294.935,35.112 295.619,35.074 296.071,34.923 296.304,34.856 296.904,34.238 296.983,33.554 296.828,32.869 296.304,32.511 295.619,32.329 295.489,32.185 "/>
</g>
<g id="ID000016" clip-path="url(#ID000001)" >
      <polyline fill="none" fill-opacity="1.00" stroke="#fec984" stroke-width="0.5pt" stroke-opacity="1.00" stroke-dasharray="none" points="292.412,32.185 292.520,32.869 292.707,33.554 292.881,33.896 293.065,34.238 293.565,34.892 293.603,34.923 294.250,35.374 294.935,35.514 295.619,35.500 296.304,35.311 296.860,34.923 296.988,34.787 297.196,34.238 297.208,33.554 296.988,33.242 296.903,32.869 296.304,32.460 295.619,32.276 295.537,32.185 "/>
</g>
<g id="ID000017" clip-path="url(#ID000001)" >
      <polyline fill="none" fill-opacity="1.00" stroke="#fed397" stroke-width="0.5pt" stroke-opacity="1.00" stroke-dasharray="none" points="292.128,32.185 292.196,32.632 292.230,32.869 292.383,33.554 292.682,34.238 292.881,34.619 293.075,34.923 293.565,35.440 293.867,35.608 294.250,35.831 294.935,36.007 295.619,36.013 296.304,35.846 296.737,35.608 296.988,35.462 297.364,34.923 297.467,34.238 297.437,33.554 296.988,32.919 296.977,32.869 296.304,32.410 295.619,32.223 295.584,32.185 "/>
</g>
<g id="ID000018" clip-path="url(#ID000001)" >
      <polyline fill="none" fill-opacity="1.00" stroke="#fedbaa" stroke-width="0.5pt" stroke-opacity="1.00" stroke-dasharray="none" points="291.819,32.185 291.891,32.869 292.037,33.554 292.196,34.081 292.250,34.238 292.578,34.923 292.881,35.396 293.077,35.608 293.565,36.089 293.965,36.292 294.250,36.440 294.935,36.618 295.619,36.604 296.304,36.513 296.873,36.292 296.988,36.243 297.604,35.608 297.673,35.465 297.850,34.923 297.798,34.238 297.673,33.625 297.666,33.554 297.236,32.869 296.988,32.761 296.304,32.359 295.669,32.185 "/>
</g>
<g id="ID000019" clip-path="url(#ID000001)" >
      <polyline fill="none" fill-opacity="1.00" stroke="#fee2bc" stroke-width="0.5pt" stroke-opacity="1.00" stroke-dasharray="none" points="291.510,32.185 291.512,32.209 291.546,32.869 291.659,33.554 291.832,34.238 292.093,34.923 292.196,35.162 292.435,35.608 292.881,36.242 292.932,36.292 293.565,36.880 293.793,36.977 294.250,37.183 294.935,37.376 295.619,37.359 296.304,37.338 296.988,37.213 297.330,36.977 297.673,36.681 298.022,36.292 298.341,35.608 298.358,35.360 298.390,34.923 298.358,34.704 298.313,34.238 298.121,33.554 297.673,33.101 297.528,32.869 296.988,32.634 296.304,32.308 295.854,32.185 "/>
</g>
<g id="ID000020" clip-path="url(#ID000001)" >
      <polyline fill="none" fill-opacity="1.00" stroke="#fde9cf" stroke-width="0.5pt" stroke-opacity="1.00" stroke-dasharray="none" points="291.140,32.185 291.181,32.869 291.263,33.554 291.409,34.238 291.512,34.639 291.593,34.923 291.858,35.608 292.196,36.262 292.216,36.292 292.716,36.977 292.881,37.191 293.364,37.661 293.565,37.858 294.250,38.146 294.935,38.318 295.050,38.346 295.619,38.536 296.304,38.657 296.988,38.443 297.234,38.346 297.673,38.189 298.330,37.661 298.358,37.641 298.955,36.977 299.042,36.693 299.176,36.292 299.260,35.608 299.209,34.923 299.042,34.319 299.024,34.238 298.702,33.554 298.358,33.303 297.929,32.869 297.673,32.769 296.988,32.507 296.304,32.257 296.039,32.185 "/>
</g>
<g id="ID000021" clip-path="url(#ID000001)" >
      <polyline fill="none" fill-opacity="1.00" stroke="#fcf0e3" stroke-width="0.5pt" stroke-opacity="1.00" stroke-dasharray="none" points="290.767,32.185 290.812,32.869 290.827,33.113 290.854,33.554 290.962,34.238 291.114,34.923 291.285,35.608 291.495,36.292 291.512,36.353 291.764,36.977 292.141,37.661 292.196,37.757 292.648,38.346 292.881,38.623 293.336,39.031 293.565,39.317 294.130,39.715 294.250,39.793 294.935,40.078 295.619,40.247 296.304,40.314 296.988,40.267 297.673,40.249 298.358,39.811 299.042,39.898 299.236,39.715 299.727,39.090 299.793,39.031 300.247,38.346 300.411,38.091 300.639,37.661 300.659,36.977 300.677,36.292 300.618,35.608 300.411,35.092 300.354,34.923 300.054,34.238 299.727,33.767 299.601,33.554 299.042,33.259 298.487,32.869 298.358,32.822 297.673,32.571 296.988,32.379 296.304,32.207 296.223,32.185 "/>
</g>
<g id="ID000022" clip-path="url(#ID000001)" >
      <polyline fill="none" fill-opacity="1.00" stroke="#faf5f1" stroke-width="0.5pt" stroke-opacity="1.00" stroke-dasharray="none" points="290.385,32.185 290.404,32.869 290.443,33.554 290.511,34.238 290.606,34.923 290.682,35.608 290.812,36.292 290.827,36.366 290.969,36.977 291.117,37.661 291.380,38.346 291.512,38.688 291.678,39.031 292.103,39.715 292.196,39.828 292.606,40.400 292.881,40.784 293.153,41.084 293.565,41.588 293.801,41.769 294.250,42.192 294.730,42.454 294.935,42.600 295.619,42.992 296.141,43.138 296.304,43.200 296.988,43.334 297.673,43.495 298.358,43.633 299.042,43.678 299.727,43.540 300.411,43.288 300.750,43.138 301.096,42.931 301.553,42.454 301.781,42.273 302.397,41.769 302.465,41.708 303.067,41.084 303.150,40.931 303.454,40.400 303.598,39.715 303.782,39.031 303.834,38.634 303.873,38.346 303.834,37.751 303.829,37.661 303.711,36.977 303.516,36.292 303.179,35.608 303.150,35.567 302.768,34.923 302.465,34.577 302.185,34.238 301.781,33.829 301.522,33.554 301.096,33.477 300.411,33.289 299.727,33.033 299.403,32.869 299.042,32.733 298.358,32.524 297.673,32.373 296.988,32.252 296.657,32.185 "/>
</g>
<g id="ID000023" clip-path="url(#ID000001)" >
      <polyline fill="none" fill-opacity="1.00" stroke="#f6f7f7" stroke-width="0.5pt" stroke-opacity="1.00" stroke-dasharray="none" points="289.996,32.185 289.998,32.869 290.021,33.554 290.052,34.238 290.053,34.923 290.098,35.608 290.142,36.106 290.160,36.292 290.145,36.977 290.183,37.661 290.266,38.346 290.366,39.031 290.459,39.715 290.632,40.400 290.812,41.084 290.827,41.148 291.002,41.769 291.214,42.454 291.400,43.138 291.512,43.733 291.533,43.823 291.736,44.507 292.165,45.192 292.196,45.242 292.647,45.877 292.881,46.446 292.928,46.561 293.220,47.246 293.546,47.930 293.565,47.988 293.854,48.615 294.250,49.067 294.557,49.300 294.935,49.617 295.257,49.984 295.613,50.669 295.619,50.680 296.304,51.154 296.523,51.353 296.988,51.734 297.282,52.038 297.673,52.360 298.230,52.723 298.358,52.815 299.042,53.312 299.164,53.407 299.727,53.804 300.238,54.092 300.411,54.170 301.096,54.401 301.781,54.680 302.465,54.736 303.150,54.717 303.834,54.697 304.315,54.776 304.519,54.840 305.204,55.046 305.888,55.246 306.573,55.144 307.257,54.969 307.767,54.776 307.942,54.698 308.627,54.630 309.311,54.438 309.996,54.225 310.327,54.092 310.680,53.929 311.365,53.552 311.597,53.407 312.050,53.126 312.540,52.723 312.734,52.547 313.243,52.038 313.419,51.886 313.973,51.353 314.103,51.211 314.723,50.669 314.788,50.596 315.300,49.984 315.473,49.715 315.733,49.300 316.157,48.629 316.165,48.615 316.469,47.930 316.757,47.246 316.842,47.012 316.987,46.561 317.136,45.877 317.279,45.192 317.359,44.507 317.368,43.823 317.364,43.138 317.308,42.454 317.178,41.769 317.013,41.084 316.842,40.550 316.793,40.400 316.638,39.715 316.596,39.031 316.530,38.346 316.157,38.244 315.700,37.661 315.473,37.575 314.788,37.395 314.300,36.977 314.103,36.900 313.419,36.687 312.734,36.304 312.723,36.292 312.050,36.034 311.365,35.821 310.960,35.608 310.680,35.516 309.996,35.262 309.311,35.071 309.023,34.923 308.627,34.792 307.942,34.579 307.257,34.410 306.829,34.238 306.573,34.152 305.888,33.991 305.204,33.808 304.519,33.641 304.242,33.554 303.834,33.411 303.150,33.246 302.465,33.134 301.781,33.044 301.096,32.899 300.992,32.869 300.411,32.561 299.727,32.390 299.042,32.293 298.358,32.227 297.851,32.185 "/>
</g>
<g id="ID000024" clip-path="url(#ID000001)" >
      <polyline fill="none" fill-opacity="1.00" stroke="#f0f2f5" stroke-width="0.5pt" stroke-opacity="1.00" stroke-dasharray="none" points="281.761,32.185 281.242,32.229 280.558,32.296 279.873,32.397 279.189,32.572 278.623,32.869 278.504,32.903 277.820,33.048 277.135,33.134 276.450,33.248 275.766,33.418 275.382,33.554 275.081,33.651 274.397,33.818 273.712,34.003 273.027,34.168 272.819,34.238 272.343,34.430 271.658,34.598 270.974,34.813 270.644,34.923 270.289,35.103 269.604,35.289 268.920,35.545 268.729,35.608 268.235,35.866 267.550,36.071 266.976,36.292 266.866,36.407 266.181,36.737 265.497,36.944 265.412,36.977 264.812,37.482 264.127,37.624 264.030,37.661 263.637,38.346 263.582,39.031 263.501,39.715 263.443,39.910 263.270,40.400 263.033,41.084 262.845,41.769 262.758,42.386 262.748,42.454 262.689,43.138 262.668,43.823 262.693,44.507 262.758,45.009 262.783,45.192 262.900,45.877 263.058,46.561 263.294,47.246 263.443,47.637 263.553,47.930 263.873,48.615 264.127,49.038 264.286,49.300 264.733,49.984 264.812,50.096 265.250,50.669 265.497,50.933 265.851,51.353 266.181,51.726 266.518,52.038 266.866,52.320 267.350,52.723 267.550,52.874 268.235,53.279 268.465,53.407 268.920,53.658 269.604,53.942 270.289,53.968 270.974,54.008 271.249,54.092 271.658,54.243 272.343,54.542 273.027,54.713 273.712,54.618 274.397,54.542 275.081,54.564 275.766,54.633 276.450,54.697 277.135,54.619 277.820,54.489 278.504,54.288 278.795,54.092 279.189,53.711 279.679,53.407 279.873,53.341 280.558,53.242 281.242,52.927 281.518,52.723 281.927,52.399 282.421,52.038 282.612,51.900 283.296,51.397 283.344,51.353 283.871,50.669 283.981,50.502 284.310,49.984 284.666,49.500 284.813,49.300 285.334,48.615 285.350,48.603 285.994,47.930 286.035,47.883 286.452,47.246 286.719,46.661 286.751,46.561 286.989,45.877 287.345,45.192 287.404,45.108 287.690,44.507 287.906,43.823 288.089,43.381 288.181,43.138 288.446,42.454 288.737,41.769 288.773,41.520 288.822,41.084 288.908,40.400 289.046,39.715 289.149,39.031 289.228,38.346 289.289,37.661 289.362,36.977 289.422,36.292 289.458,35.922 289.485,35.608 289.547,34.923 289.569,34.238 289.568,33.554 289.596,32.869 289.596,32.185 "/>
</g>
<g id="ID000025" clip-path="url(#ID000001)" >
      <polyline fill="none" fill-opacity="1.00" stroke="#e7eaf2" stroke-width="0.5pt" stroke-opacity="1.00" stroke-dasharray="none" points="282.945,32.185 282.612,32.254 281.927,32.374 281.242,32.527 280.558,32.740 280.217,32.869 279.873,33.040 279.189,33.295 278.504,33.480 278.108,33.554 277.820,33.865 277.452,34.238 277.135,34.634 276.881,34.923 276.479,35.608 276.450,35.678 276.143,36.292 275.922,36.977 275.794,37.661 275.766,38.260 275.761,38.346 275.766,38.383 275.845,39.031 276.008,39.715 276.278,40.400 276.450,40.703 276.701,41.084 277.135,41.642 277.254,41.769 277.820,42.270 278.138,42.454 278.504,42.702 279.011,43.138 279.189,43.232 279.873,43.463 280.558,43.502 281.242,43.476 281.927,43.471 282.612,43.378 283.296,43.336 283.981,43.361 284.413,43.138 284.666,42.904 285.114,42.454 285.350,42.306 285.965,41.769 286.035,41.718 286.665,41.084 286.719,41.010 287.029,40.400 287.404,39.985 287.569,39.715 287.923,39.031 288.089,38.733 288.241,38.346 288.450,37.661 288.615,36.977 288.749,36.292 288.773,36.194 288.902,35.608 289.010,34.923 289.100,34.238 289.150,33.554 289.191,32.869 289.208,32.185 "/>
</g>
<g id="ID000026" clip-path="url(#ID000001)" >
      <polyline fill="none" fill-opacity="1.00" stroke="#dee0ee" stroke-width="0.5pt" stroke-opacity="1.00" stroke-dasharray="none" points="283.378,32.185 283.296,32.207 282.612,32.385 281.927,32.573 281.242,32.826 281.126,32.869 280.558,33.263 279.998,33.554 279.873,33.780 279.539,34.238 279.286,34.923 279.189,35.277 279.053,35.608 278.904,36.292 278.894,36.977 279.034,37.661 279.189,38.056 279.340,38.346 279.873,39.027 279.877,39.031 280.558,39.624 280.774,39.715 281.242,39.871 281.927,40.060 282.612,40.193 283.296,40.132 283.981,40.046 284.666,39.931 285.261,39.715 285.350,39.688 286.035,39.196 286.208,39.031 286.719,38.614 286.953,38.346 287.404,37.763 287.458,37.661 287.817,36.977 288.089,36.297 288.090,36.292 288.304,35.608 288.496,34.923 288.643,34.238 288.744,33.554 288.773,33.083 288.786,32.869 288.826,32.185 "/>
</g>
<g id="ID000027" clip-path="url(#ID000001)" >
      <polyline fill="none" fill-opacity="1.00" stroke="#d5d7ea" stroke-width="0.5pt" stroke-opacity="1.00" stroke-dasharray="none" points="283.561,32.185 283.296,32.257 282.612,32.516 281.927,32.771 281.677,32.869 281.242,33.307 280.899,33.554 280.609,34.238 280.558,34.490 280.429,34.923 280.389,35.608 280.466,36.292 280.558,36.610 280.683,36.977 281.163,37.661 281.242,37.741 281.927,38.185 282.370,38.346 282.612,38.444 283.296,38.567 283.981,38.615 284.666,38.460 284.910,38.346 285.350,38.171 286.035,37.778 286.174,37.661 286.719,37.232 286.919,36.977 287.394,36.292 287.404,36.278 287.734,35.608 288.005,34.923 288.089,34.658 288.206,34.238 288.333,33.554 288.418,32.869 288.455,32.185 "/>
</g>
<g id="ID000028" clip-path="url(#ID000001)" >
      <polyline fill="none" fill-opacity="1.00" stroke="#cdcde5" stroke-width="0.5pt" stroke-opacity="1.00" stroke-dasharray="none" points="283.745,32.185 283.296,32.306 282.612,32.647 282.085,32.869 281.927,33.104 281.481,33.554 281.288,34.238 281.242,34.804 281.227,34.923 281.242,35.038 281.316,35.608 281.606,36.292 281.927,36.695 282.250,36.977 282.612,37.206 283.296,37.416 283.981,37.546 284.666,37.438 285.350,37.178 285.694,36.977 286.035,36.792 286.616,36.292 286.719,36.197 287.142,35.608 287.404,35.163 287.511,34.923 287.778,34.238 287.940,33.554 288.053,32.869 288.086,32.185 "/>
</g>
<g id="ID000029" clip-path="url(#ID000001)" >
      <polyline fill="none" fill-opacity="1.00" stroke="#c5c2df" stroke-width="0.5pt" stroke-opacity="1.00" stroke-dasharray="none" points="283.929,32.185 283.296,32.356 282.612,32.778 282.395,32.869 281.934,33.554 281.927,33.611 281.768,34.238 281.755,34.923 281.927,35.375 282.064,35.608 282.612,36.159 282.885,36.292 283.296,36.499 283.981,36.591 284.666,36.584 285.350,36.413 285.548,36.292 286.035,36.037 286.488,35.608 286.719,35.366 287.028,34.923 287.355,34.238 287.404,34.098 287.575,33.554 287.708,32.869 287.778,32.185 "/>
</g>
<g id="ID000030" clip-path="url(#ID000001)" >
      <polyline fill="none" fill-opacity="1.00" stroke="#b8b3d7" stroke-width="0.5pt" stroke-opacity="1.00" stroke-dasharray="none" points="284.015,32.185 283.981,32.221 283.296,32.406 282.633,32.869 282.612,32.956 282.154,33.554 282.104,34.238 282.247,34.923 282.612,35.405 283.032,35.608 283.296,35.752 283.981,35.931 284.666,35.978 285.350,35.842 285.748,35.608 286.035,35.439 286.533,34.923 286.719,34.660 286.950,34.238 287.228,33.554 287.370,32.869 287.404,32.625 287.470,32.185 "/>
</g>
<g id="ID000031" clip-path="url(#ID000001)" >
      <polyline fill="none" fill-opacity="1.00" stroke="#afa7d0" stroke-width="0.5pt" stroke-opacity="1.00" stroke-dasharray="none" points="284.062,32.185 283.981,32.272 283.296,32.456 282.705,32.869 282.612,33.244 282.374,33.554 282.368,34.238 282.612,34.782 282.788,34.923 283.296,35.240 283.981,35.421 284.666,35.506 285.350,35.384 286.008,34.923 286.035,34.901 286.564,34.238 286.719,33.933 286.896,33.554 287.083,32.869 287.186,32.185 "/>
</g>
<g id="ID000032" clip-path="url(#ID000001)" >
      <polyline fill="none" fill-opacity="1.00" stroke="#a49bc7" stroke-width="0.5pt" stroke-opacity="1.00" stroke-dasharray="none" points="284.109,32.185 283.981,32.323 283.296,32.506 282.776,32.869 282.612,33.531 282.594,33.554 282.612,33.894 282.645,34.238 283.296,34.809 283.761,34.923 283.981,34.987 284.666,35.121 285.350,34.990 285.446,34.923 286.035,34.450 286.203,34.238 286.573,33.554 286.719,33.119 286.796,32.869 286.909,32.185 "/>
</g>
<g id="ID000033" clip-path="url(#ID000001)" >
      <polyline fill="none" fill-opacity="1.00" stroke="#988fbf" stroke-width="0.5pt" stroke-opacity="1.00" stroke-dasharray="none" points="284.156,32.185 283.981,32.374 283.296,32.556 282.848,32.869 282.745,33.554 283.061,34.238 283.296,34.445 283.981,34.689 284.666,34.793 285.350,34.612 285.796,34.238 286.035,33.947 286.260,33.554 286.550,32.869 286.657,32.185 "/>
</g>
<g id="ID000034" clip-path="url(#ID000001)" >
      <polyline fill="none" fill-opacity="1.00" stroke="#8c82b5" stroke-width="0.5pt" stroke-opacity="1.00" stroke-dasharray="none" points="284.203,32.185 283.981,32.425 283.296,32.606 282.919,32.869 282.889,33.554 283.296,34.147 283.572,34.238 283.981,34.414 284.666,34.525 285.346,34.238 285.350,34.237 285.966,33.554 286.035,33.427 286.319,32.869 286.462,32.185 "/>
</g>
<g id="ID000035" clip-path="url(#ID000001)" >
      <polyline fill="none" fill-opacity="1.00" stroke="#8073ac" stroke-width="0.5pt" stroke-opacity="1.00" stroke-dasharray="none" points="284.250,32.185 283.981,32.476 283.296,32.656 282.991,32.869 283.034,33.554 283.296,33.937 283.981,34.180 284.552,34.238 284.666,34.258 284.711,34.238 285.350,33.964 285.720,33.554 286.035,32.975 286.089,32.869 286.266,32.185 "/>
</g>
<g id="ID000036" clip-path="url(#ID000001)" >
      <polyline fill="none" fill-opacity="1.00" stroke="#7561a3" stroke-width="0.5pt" stroke-opacity="1.00" stroke-dasharray="none" points="284.297,32.185 283.981,32.527 283.296,32.706 283.062,32.869 283.178,33.554 283.296,33.726 283.981,34.016 284.666,34.098 285.350,33.692 285.475,33.554 285.884,32.869 286.035,32.315 286.070,32.185 "/>
</g>
<g id="ID000037" clip-path="url(#ID000001)" >
      <polyline fill="none" fill-opacity="1.00" stroke="#664498" stroke-width="0.5pt" stroke-opacity="1.00" stroke-dasharray="none" points="284.344,32.185 283.981,32.578 283.296,32.755 283.133,32.869 283.296,33.503 283.358,33.554 283.981,33.852 284.666,33.946 285.241,33.554 285.350,33.401 285.688,32.869 285.922,32.185 "/>
</g>
<g id="ID000038" clip-path="url(#ID000001)" >
      <polyline fill="none" fill-opacity="1.00" stroke="#5b318f" stroke-width="0.5pt" stroke-opacity="1.00" stroke-dasharray="none" points="284.391,32.185 283.981,32.629 283.296,32.805 283.205,32.869 283.296,33.225 283.699,33.554 283.981,33.689 284.666,33.795 285.019,33.554 285.350,33.092 285.492,32.869 285.785,32.185 "/>
</g>
<g id="ID000039" clip-path="url(#ID000001)" >
      <polyline fill="none" fill-opacity="1.00" stroke="#512384" stroke-width="0.5pt" stroke-opacity="1.00" stroke-dasharray="none" points="284.439,32.185 283.981,32.680 283.296,32.855 283.276,32.869 283.296,32.947 283.981,33.523 284.137,33.554 284.666,33.643 284.797,33.554 285.314,32.869 285.350,32.791 285.648,32.185 "/>
</g>
<g id="ID000040" clip-path="url(#ID000001)" >
      <polyline fill="none" fill-opacity="1.00" stroke="#471778" stroke-width="0.5pt" stroke-opacity="1.00" stroke-dasharray="none" points="284.486,32.185 283.981,32.731 283.440,32.869 283.981,33.347 284.666,33.490 285.184,32.869 285.350,32.511 285.511,32.185 "/>
</g>
<g id="ID000041" clip-path="url(#ID000001)" >
      <polyline fill="none" fill-opacity="1.00" stroke="#3e0d6a" stroke-width="0.5pt" stroke-opacity="1.00" stroke-dasharray="none" points="284.533,32.185 283.981,32.782 283.640,32.869 283.981,33.171 284.666,33.335 285.055,32.869 285.350,32.232 285.373,32.185 "/>
</g>
<g id="ID000042" clip-path="url(#ID000001)" >
      <polyline fill="none" fill-opacity="1.00" stroke="#35055b" stroke-width="0.5pt" stroke-opacity="1.00" stroke-dasharray="none" points="284.580,32.185 283.981,32.833 283.839,32.869 283.981,32.994 284.666,33.180 284.925,32.869 285.135,32.185 "/>
</g>
<g id="ID000043" clip-path="url(#ID000001)" >
      <polyline fill="none" fill-opacity="1.00" stroke="#2d004b" stroke-width="0.5pt" stroke-opacity="1.00" stroke-dasharray="none" points="284.627,32.185 284.135,32.869 284.666,33.025 284.795,32.869 284.877,32.185 "/>
</g>
</g><g id="ID000044" clip-path="url(#ID000001)" >
<rect x="203.883" y="32.730" width="171.150" height="171.150" rx="85.575" ry="85.575" fill="none" stroke="#000000" stroke-width="0.5pt" stroke-dasharray="none" />
</g>
<g id="ID000045" >
</g>
    </g>
  </g>
  </g>
</svg>
