<?xml version="1.0" encoding="utf-8" standalone="no"?><!DOCTYPE svg PUBLIC "-//W3C//DTD SVG 1.1//EN" "http://www.w3.org/Graphics/SVG/1.1/DTD/svg11.dtd">
<svg preserveAspectRatio="xMinYMin meet" width="100%" height="100%" viewBox="0 0 560.000 420.000"  version="1.1" xmlns="http://www.w3.org/2000/svg" xmlns:xlink="http://www.w3.org/1999/xlink">
  <desc>Matlab Figure Converted by PLOT2SVG written by Juerg Schwizer</desc>
  <g id="topgroup">
  <rect x="0" y="0" width="560.000" height="420.000" fill="#ffffff" stroke="none" />
  <g id ="ID000000">
  <clipPath id="ID000001">
    <rect x="72.800" y="31.500" width="434.000" height="342.300"/>
  </clipPath>
    <g>
<g id="ID000002" clip-path="url(#ID000001)" >
<image x="118.650" y="31.842" width="342.300" height="342.300" image-rendering="optimizeSpeed" preserveAspectRatio="none" xlink:href="pu3001.png" />
</g>
<g id="ID000003" clip-path="url(#ID000001)" >
<g id="ID000004" clip-path="url(#ID000001)" >
      <polyline fill="none" fill-opacity="1.00" stroke="#934406" stroke-width="0.5pt" stroke-opacity="1.00" stroke-dasharray="none" points="309.062,32.185 309.311,32.746 309.455,32.869 309.678,33.554 309.996,33.944 310.162,33.554 310.057,32.869 309.996,32.703 309.502,32.185 "/>
</g>
<g id="ID000005" clip-path="url(#ID000001)" >
      <polyline fill="none" fill-opacity="1.00" stroke="#9f4b06" stroke-width="0.5pt" stroke-opacity="1.00" stroke-dasharray="none" points="308.748,32.185 309.051,32.869 309.311,33.446 309.360,33.554 309.918,34.238 309.996,34.280 310.680,34.265 311.365,34.313 311.468,34.238 311.365,34.186 310.680,34.188 310.328,33.554 310.150,32.869 309.996,32.450 309.744,32.185 "/>
</g>
<g id="ID000006" clip-path="url(#ID000001)" >
      <polyline fill="none" fill-opacity="1.00" stroke="#ab5306" stroke-width="0.5pt" stroke-opacity="1.00" stroke-dasharray="none" points="308.435,32.185 308.627,32.621 308.736,32.869 309.042,33.554 309.311,33.886 309.598,34.238 309.996,34.451 310.680,34.420 311.365,34.478 311.694,34.238 311.365,34.071 310.680,33.889 310.494,33.554 310.243,32.869 309.996,32.196 309.985,32.185 "/>
</g>
<g id="ID000007" clip-path="url(#ID000001)" >
      <polyline fill="none" fill-opacity="1.00" stroke="#b75b06" stroke-width="0.5pt" stroke-opacity="1.00" stroke-dasharray="none" points="308.121,32.185 308.421,32.869 308.627,33.335 308.724,33.554 309.279,34.238 309.311,34.267 309.996,34.622 310.680,34.576 311.365,34.643 311.921,34.238 311.365,33.956 310.680,33.590 310.660,33.554 310.337,32.869 310.085,32.185 "/>
</g>
<g id="ID000008" clip-path="url(#ID000001)" >
      <polyline fill="none" fill-opacity="1.00" stroke="#c36408" stroke-width="0.5pt" stroke-opacity="1.00" stroke-dasharray="none" points="307.789,32.185 307.942,32.492 308.108,32.869 308.371,33.554 308.627,33.827 308.960,34.238 309.311,34.556 309.996,34.792 310.680,34.731 311.365,34.808 312.050,34.668 312.122,34.238 312.050,34.187 311.365,33.840 310.859,33.554 310.680,33.384 310.430,32.869 310.178,32.185 "/>
</g>
<g id="ID000009" clip-path="url(#ID000001)" >
      <polyline fill="none" fill-opacity="1.00" stroke="#cf6f0b" stroke-width="0.5pt" stroke-opacity="1.00" stroke-dasharray="none" points="307.434,32.185 307.712,32.869 307.942,33.376 308.003,33.554 308.627,34.221 308.641,34.238 309.311,34.845 309.678,34.923 309.996,34.985 310.337,34.923 310.680,34.887 310.981,34.923 311.365,34.990 312.050,35.064 312.207,34.923 312.291,34.238 312.050,34.068 311.365,33.725 311.063,33.554 310.680,33.192 310.524,32.869 310.272,32.185 "/>
</g>
<g id="ID000010" clip-path="url(#ID000001)" >
      <polyline fill="none" fill-opacity="1.00" stroke="#dd7e12" stroke-width="0.5pt" stroke-opacity="1.00" stroke-dasharray="none" points="306.971,32.185 307.220,32.869 307.257,32.973 307.467,33.554 307.841,34.238 307.942,34.349 308.627,34.726 308.863,34.923 309.311,35.190 309.996,35.251 310.680,35.147 311.365,35.214 312.050,35.252 312.418,34.923 312.460,34.238 312.050,33.948 311.365,33.610 311.266,33.554 310.680,33.000 310.617,32.869 310.365,32.185 "/>
</g>
<g id="ID000011" clip-path="url(#ID000001)" >
      <polyline fill="none" fill-opacity="1.00" stroke="#e68a1a" stroke-width="0.5pt" stroke-opacity="1.00" stroke-dasharray="none" points="306.400,32.185 306.573,32.658 306.650,32.869 306.898,33.554 307.254,34.238 307.257,34.242 307.864,34.923 307.942,34.985 308.627,35.273 309.311,35.555 309.996,35.517 310.680,35.441 311.365,35.437 312.050,35.441 312.629,34.923 312.629,34.238 312.050,33.829 311.489,33.554 311.365,33.495 310.718,32.869 310.680,32.788 310.458,32.185 "/>
</g>
<g id="ID000012" clip-path="url(#ID000001)" >
      <polyline fill="none" fill-opacity="1.00" stroke="#ef972a" stroke-width="0.5pt" stroke-opacity="1.00" stroke-dasharray="none" points="305.829,32.185 305.888,32.346 306.079,32.869 306.329,33.554 306.573,34.051 306.667,34.238 307.182,34.923 307.257,35.008 307.942,35.534 308.110,35.608 308.627,35.880 309.311,36.061 309.996,35.966 310.680,35.846 311.365,35.724 312.050,35.649 312.122,35.608 312.734,35.151 312.814,34.923 312.791,34.238 312.734,34.156 312.050,33.709 311.733,33.554 311.365,33.381 310.836,32.869 310.680,32.534 310.552,32.185 "/>
</g>
<g id="ID000013" clip-path="url(#ID000001)" >
      <polyline fill="none" fill-opacity="1.00" stroke="#f6a43f" stroke-width="0.5pt" stroke-opacity="1.00" stroke-dasharray="none" points="305.258,32.185 305.445,32.869 305.680,33.554 305.888,34.194 305.901,34.238 306.443,34.923 306.573,35.078 307.008,35.608 307.257,35.840 307.942,36.179 308.156,36.292 308.627,36.540 309.311,36.597 309.996,36.542 310.680,36.413 311.049,36.292 311.365,36.211 312.050,36.001 312.733,35.608 312.734,35.607 312.973,34.923 312.943,34.238 312.734,33.940 312.050,33.590 311.976,33.554 311.365,33.266 310.955,32.869 310.680,32.280 310.645,32.185 "/>
</g>
<g id="ID000014" clip-path="url(#ID000001)" >
      <polyline fill="none" fill-opacity="1.00" stroke="#fcb056" stroke-width="0.5pt" stroke-opacity="1.00" stroke-dasharray="none" points="304.435,32.185 304.519,32.519 304.604,32.869 304.755,33.554 304.945,34.238 305.204,34.678 305.356,34.923 305.845,35.608 305.888,35.657 306.484,36.292 306.573,36.379 307.257,36.841 307.792,36.977 307.942,37.016 308.627,37.267 309.311,37.203 309.996,37.202 310.680,37.042 310.790,36.977 311.365,36.729 312.050,36.391 312.210,36.292 312.734,36.047 312.965,35.608 313.132,34.923 313.094,34.238 312.734,33.724 312.371,33.554 312.050,33.471 311.365,33.152 311.073,32.869 310.738,32.185 "/>
</g>
<g id="ID000015" clip-path="url(#ID000001)" >
      <polyline fill="none" fill-opacity="1.00" stroke="#fdbc69" stroke-width="0.5pt" stroke-opacity="1.00" stroke-dasharray="none" points="303.463,32.185 303.635,32.869 303.804,33.554 303.834,33.660 303.987,34.238 304.360,34.923 304.519,35.183 304.751,35.608 305.204,36.209 305.275,36.292 305.888,36.884 305.983,36.977 306.573,37.550 306.856,37.661 307.257,37.808 307.942,38.036 308.627,38.219 309.311,38.076 309.996,38.000 310.680,37.790 310.897,37.661 311.365,37.411 312.035,36.977 312.050,36.970 312.734,36.623 312.953,36.292 313.197,35.608 313.291,34.923 313.245,34.238 312.768,33.554 312.734,33.528 312.050,33.351 311.365,33.038 311.191,32.869 310.832,32.185 "/>
</g>
<g id="ID000016" clip-path="url(#ID000001)" >
      <polyline fill="none" fill-opacity="1.00" stroke="#fec984" stroke-width="0.5pt" stroke-opacity="1.00" stroke-dasharray="none" points="302.491,32.185 302.581,32.869 302.689,33.554 302.783,34.238 303.072,34.923 303.150,35.091 303.410,35.608 303.771,36.292 303.834,36.379 304.283,36.977 304.519,37.274 304.932,37.661 305.204,37.892 305.754,38.346 305.888,38.448 306.573,38.814 307.257,38.959 307.535,39.031 307.942,39.136 308.627,39.262 309.311,39.129 309.996,39.051 310.067,39.031 310.680,38.846 311.365,38.451 311.551,38.346 312.050,38.077 312.485,37.661 312.734,37.472 313.089,36.977 313.419,36.371 313.443,36.292 313.434,35.608 313.469,34.923 313.419,34.533 313.396,34.238 312.925,33.554 312.734,33.409 312.050,33.232 311.365,32.923 311.309,32.869 310.925,32.185 "/>
</g>
<g id="ID000017" clip-path="url(#ID000001)" >
      <polyline fill="none" fill-opacity="1.00" stroke="#fed397" stroke-width="0.5pt" stroke-opacity="1.00" stroke-dasharray="none" points="301.149,32.185 301.277,32.869 301.400,33.554 301.510,34.238 301.766,34.923 301.781,34.955 302.058,35.608 302.350,36.292 302.465,36.507 302.739,36.977 303.150,37.494 303.273,37.661 303.826,38.346 303.834,38.356 304.519,38.961 304.609,39.031 305.204,39.484 305.507,39.715 305.888,39.984 306.573,40.184 307.257,40.387 307.296,40.400 307.942,40.628 308.627,40.624 309.311,40.506 309.768,40.400 309.996,40.355 310.680,40.203 311.365,39.762 311.445,39.715 312.050,39.380 312.426,39.031 312.734,38.747 313.159,38.346 313.419,38.078 313.600,37.661 313.704,36.977 313.830,36.292 313.775,35.608 313.728,34.923 313.592,34.238 313.419,34.044 313.082,33.554 312.734,33.290 312.050,33.113 311.506,32.869 311.365,32.784 311.018,32.185 "/>
</g>
<g id="ID000018" clip-path="url(#ID000001)" >
      <polyline fill="none" fill-opacity="1.00" stroke="#fedbaa" stroke-width="0.5pt" stroke-opacity="1.00" stroke-dasharray="none" points="299.795,32.185 299.875,32.869 299.954,33.554 300.019,34.238 300.179,34.923 300.403,35.608 300.411,35.631 300.650,36.292 300.931,36.977 301.096,37.270 301.316,37.661 301.707,38.346 301.781,38.461 302.217,39.031 302.465,39.307 302.835,39.715 303.150,40.062 303.531,40.400 303.834,40.641 304.487,41.084 304.519,41.108 305.204,41.617 305.583,41.769 305.888,41.877 306.573,42.050 307.257,42.249 307.942,42.262 308.627,42.224 309.311,42.183 309.996,42.061 310.680,41.918 311.275,41.769 311.365,41.739 312.050,41.179 312.133,41.084 312.734,40.421 312.750,40.400 313.348,39.715 313.419,39.641 313.897,39.031 314.103,38.529 314.154,38.346 314.322,37.661 314.319,36.977 314.316,36.292 314.129,35.608 314.103,35.552 313.986,34.923 313.796,34.238 313.419,33.815 313.239,33.554 312.734,33.170 312.050,32.993 311.772,32.869 311.365,32.623 311.112,32.185 "/>
</g>
<g id="ID000019" clip-path="url(#ID000001)" >
      <polyline fill="none" fill-opacity="1.00" stroke="#fee2bc" stroke-width="0.5pt" stroke-opacity="1.00" stroke-dasharray="none" points="298.120,32.185 298.207,32.869 298.293,33.554 298.358,34.064 298.379,34.238 298.507,34.923 298.698,35.608 298.901,36.292 299.042,36.862 299.070,36.977 299.345,37.661 299.665,38.346 299.727,38.471 300.007,39.031 300.387,39.715 300.411,39.753 300.844,40.400 301.096,40.736 301.413,41.084 301.781,41.486 302.042,41.769 302.465,42.216 302.726,42.454 303.150,42.809 303.634,43.138 303.834,43.273 304.519,43.728 304.730,43.823 305.204,44.017 305.888,44.170 306.573,44.346 307.257,44.397 307.942,44.335 308.627,44.285 309.311,44.171 309.996,44.102 310.680,44.051 311.365,43.985 312.050,43.907 312.148,43.823 312.734,43.370 312.969,43.138 313.419,42.643 313.573,42.454 314.030,41.769 314.103,41.655 314.419,41.084 314.746,40.400 314.788,40.333 315.057,39.715 315.032,39.031 315.080,38.346 315.140,37.661 315.119,36.977 315.058,36.292 314.788,35.625 314.782,35.608 314.517,34.923 314.103,34.568 314.000,34.238 313.419,33.587 313.396,33.554 312.734,33.051 312.050,32.874 312.039,32.869 311.365,32.461 311.205,32.185 "/>
</g>
<g id="ID000020" clip-path="url(#ID000001)" >
      <polyline fill="none" fill-opacity="1.00" stroke="#fde9cf" stroke-width="0.5pt" stroke-opacity="1.00" stroke-dasharray="none" points="296.368,32.185 296.420,32.869 296.460,33.554 296.501,34.238 296.566,34.923 296.720,35.608 296.875,36.292 296.988,36.784 297.034,36.977 297.250,37.661 297.510,38.346 297.673,38.760 297.775,39.031 298.007,39.715 298.310,40.400 298.358,40.493 298.697,41.084 299.042,41.687 299.089,41.769 299.489,42.454 299.727,42.832 299.944,43.138 300.411,43.735 300.492,43.823 301.096,44.480 301.122,44.507 301.781,45.140 301.842,45.192 302.465,45.685 302.784,45.877 303.150,46.103 303.834,46.553 303.848,46.561 304.519,46.944 305.204,47.126 305.657,47.246 305.888,47.310 306.573,47.515 307.257,47.561 307.942,47.639 308.627,47.717 309.311,47.633 309.996,47.548 310.680,47.462 311.365,47.295 311.466,47.246 312.050,47.009 312.734,46.716 312.939,46.561 313.419,46.054 313.622,45.877 314.103,45.443 314.395,45.192 314.788,44.875 315.201,44.507 315.408,43.823 315.473,43.206 315.482,43.138 315.783,42.454 316.157,41.897 316.246,41.769 316.502,41.084 316.587,40.400 316.619,39.715 316.477,39.031 316.257,38.346 316.157,37.720 316.151,37.661 316.106,36.977 315.911,36.292 315.574,35.608 315.473,35.449 315.243,34.923 314.788,34.554 314.427,34.238 314.103,34.074 313.661,33.554 313.419,33.358 312.734,32.931 312.493,32.869 312.050,32.733 311.365,32.299 311.299,32.185 "/>
</g>
<g id="ID000021" clip-path="url(#ID000001)" >
      <polyline fill="none" fill-opacity="1.00" stroke="#fcf0e3" stroke-width="0.5pt" stroke-opacity="1.00" stroke-dasharray="none" points="294.376,32.185 294.427,32.869 294.478,33.554 294.514,34.238 294.550,34.923 294.644,35.608 294.745,36.292 294.850,36.977 294.935,37.517 294.958,37.661 295.128,38.346 295.299,39.031 295.475,39.715 295.619,40.207 295.682,40.400 295.983,41.084 296.300,41.769 296.304,41.782 296.505,42.454 296.729,43.138 296.981,43.823 296.988,43.840 297.300,44.507 297.625,45.192 297.673,45.292 297.973,45.877 298.358,46.429 298.449,46.561 298.926,47.246 299.042,47.415 299.467,47.930 299.727,48.244 300.105,48.615 300.411,48.932 300.786,49.300 301.096,49.621 301.508,49.984 301.781,50.208 302.465,50.587 302.613,50.669 303.150,50.981 303.834,51.342 303.863,51.353 304.519,51.635 305.204,51.897 305.561,52.038 305.888,52.168 306.573,52.421 307.257,52.600 307.813,52.723 307.942,52.750 308.627,52.895 309.311,52.851 309.620,52.723 309.996,52.566 310.680,52.311 311.365,52.115 311.720,52.038 312.050,51.976 312.734,51.850 313.419,51.683 314.095,51.353 314.103,51.349 314.788,51.022 315.473,50.694 315.501,50.669 316.032,49.984 316.157,49.824 316.565,49.300 316.842,48.915 317.018,48.615 317.391,47.930 317.526,47.681 317.754,47.246 318.125,46.561 318.211,46.312 318.407,45.877 318.701,45.192 318.842,44.507 318.895,44.203 318.973,43.823 319.107,43.138 319.132,42.454 319.048,41.769 318.963,41.084 318.895,40.448 318.892,40.400 318.699,39.715 318.505,39.031 318.232,38.346 318.211,38.309 317.873,37.661 317.526,37.139 317.458,36.977 317.119,36.292 316.842,35.804 316.737,35.608 316.157,35.044 316.074,34.923 315.473,34.599 315.045,34.238 314.788,34.042 314.103,33.741 313.944,33.554 313.419,33.130 312.937,32.869 312.734,32.769 312.050,32.592 311.427,32.185 "/>
</g>
<g id="ID000022" clip-path="url(#ID000001)" >
      <polyline fill="none" fill-opacity="1.00" stroke="#faf5f1" stroke-width="0.5pt" stroke-opacity="1.00" stroke-dasharray="none" points="292.280,32.185 292.299,32.869 292.318,33.554 292.336,34.238 292.353,34.923 292.433,35.608 292.509,36.292 292.567,36.977 292.616,37.661 292.656,38.346 292.728,39.031 292.811,39.715 292.881,40.230 292.904,40.400 293.005,41.084 293.145,41.769 293.285,42.454 293.414,43.138 293.501,43.823 293.565,44.210 293.622,44.507 293.776,45.192 293.974,45.877 294.194,46.561 294.250,46.738 294.411,47.246 294.628,47.930 294.845,48.615 294.935,48.832 295.216,49.300 295.619,49.936 295.650,49.984 296.052,50.669 296.304,51.097 296.444,51.353 296.806,52.038 296.988,52.338 297.227,52.723 297.647,53.407 297.673,53.461 297.987,54.092 298.333,54.776 298.358,54.821 298.844,55.461 299.042,55.703 299.425,56.146 299.727,56.495 300.017,56.830 300.411,57.288 300.628,57.515 301.096,57.985 301.490,58.199 301.781,58.357 302.465,58.728 302.752,58.884 303.150,59.164 303.612,59.569 303.834,59.770 304.385,60.253 304.519,60.371 305.165,60.938 305.204,60.968 305.888,61.396 306.297,61.622 306.573,61.775 307.257,62.143 307.942,62.292 308.627,62.178 309.311,62.045 309.996,61.902 310.680,61.766 311.365,61.845 312.050,61.925 312.734,62.002 313.419,62.088 314.103,62.039 314.788,61.866 315.473,61.715 315.891,61.622 316.157,61.564 316.842,61.412 317.526,61.126 317.687,60.938 318.211,60.322 318.270,60.253 318.852,59.569 318.895,59.529 319.580,58.936 319.642,58.884 320.265,58.367 320.489,58.199 320.949,57.857 321.409,57.515 321.634,56.989 321.673,56.830 321.738,56.146 322.318,55.572 322.408,55.461 323.003,54.884 323.134,54.776 323.688,54.217 323.809,54.092 323.920,53.407 324.037,52.723 324.156,52.038 324.317,51.353 324.372,51.131 324.476,50.669 324.567,49.984 324.650,49.300 324.658,48.615 324.661,47.930 324.623,47.246 324.505,46.561 324.372,45.963 324.358,45.877 324.277,45.192 324.189,44.507 324.013,43.823 323.777,43.138 323.688,42.888 323.519,42.454 323.143,41.769 323.003,41.516 322.825,41.084 322.491,40.400 322.318,40.162 322.041,39.715 321.634,39.098 321.584,39.031 320.949,38.382 320.926,38.346 320.473,37.661 320.265,37.425 319.830,36.977 319.580,36.804 319.083,36.292 318.895,36.191 318.211,35.645 318.177,35.608 317.526,35.195 317.108,34.923 316.842,34.784 316.157,34.321 315.929,34.238 315.473,34.103 314.788,33.605 314.642,33.554 314.103,33.407 313.419,32.901 313.359,32.869 312.734,32.558 312.050,32.451 311.643,32.185 "/>
</g>
<g id="ID000023" clip-path="url(#ID000001)" >
      <polyline fill="none" fill-opacity="1.00" stroke="#f6f7f7" stroke-width="0.5pt" stroke-opacity="1.00" stroke-dasharray="none" points="219.400,32.185 219.417,32.869 219.433,33.554 219.447,34.238 219.455,34.923 219.462,35.608 219.497,36.292 219.532,36.977 219.562,37.661 219.590,38.346 219.619,39.031 219.629,39.144 219.677,39.715 219.737,40.400 219.792,41.084 219.840,41.769 219.883,42.454 219.942,43.138 220.000,43.823 220.058,44.507 220.115,45.192 220.190,45.877 220.268,46.561 220.313,46.959 220.346,47.246 220.425,47.930 220.515,48.615 220.615,49.300 220.717,49.984 220.817,50.669 220.920,51.353 220.998,51.883 221.020,52.038 221.117,52.723 221.225,53.407 221.337,54.092 221.450,54.776 221.562,55.461 221.675,56.146 221.682,56.192 221.786,56.830 221.899,57.515 222.019,58.199 222.143,58.884 222.266,59.569 222.367,60.128 222.390,60.253 222.505,60.938 223.052,61.055 223.104,60.938 223.736,60.369 223.812,60.253 224.421,59.682 224.518,59.569 225.105,59.011 225.216,58.884 225.790,58.335 225.911,58.199 226.475,57.604 226.549,57.515 227.159,56.871 227.198,56.830 227.844,56.179 227.877,56.146 228.528,55.488 228.555,55.461 229.213,54.798 229.233,54.776 229.898,54.100 229.905,54.092 230.582,53.472 230.653,53.407 231.267,52.846 231.401,52.723 231.951,52.219 232.149,52.038 232.636,51.592 232.869,51.353 233.321,50.952 233.665,50.669 234.005,50.341 234.456,49.984 234.690,49.760 235.307,49.300 235.374,49.235 236.059,48.664 236.112,48.615 236.744,48.138 237.019,47.930 237.428,47.590 237.900,47.246 238.113,47.041 238.797,46.588 238.828,46.561 239.482,46.053 239.723,45.877 240.167,45.535 240.693,45.192 240.851,45.040 241.536,44.629 241.697,44.507 242.220,44.144 242.667,43.823 242.905,43.592 243.590,43.244 243.758,43.138 244.274,42.792 244.815,42.454 244.959,42.314 245.643,41.927 245.917,41.769 246.328,41.459 247.013,41.137 247.100,41.084 247.697,40.715 248.213,40.400 248.382,40.237 249.066,39.958 249.524,39.715 249.751,39.509 250.436,39.208 250.745,39.031 251.120,38.733 251.805,38.514 252.149,38.346 252.489,38.079 253.174,37.815 253.501,37.661 253.859,37.375 254.543,37.194 254.919,36.977 255.228,36.691 255.912,36.513 256.540,36.292 256.597,36.238 257.281,35.859 257.966,35.678 258.151,35.608 258.651,35.266 259.335,35.101 259.826,34.923 260.020,34.742 260.704,34.490 261.389,34.341 261.680,34.238 262.074,33.913 262.758,33.730 263.443,33.623 263.674,33.554 264.127,33.205 264.812,32.995 265.497,32.974 265.641,32.869 266.181,32.350 266.866,32.280 267.550,32.261 267.686,32.185 "/>
</g>
<g id="ID000024" clip-path="url(#ID000001)" >
      <polyline fill="none" fill-opacity="1.00" stroke="#f6f7f7" stroke-width="0.5pt" stroke-opacity="1.00" stroke-dasharray="none" points="290.075,32.185 290.088,32.869 290.088,33.554 290.088,34.238 290.088,34.923 290.075,35.608 290.062,36.292 290.048,36.977 290.064,37.661 290.096,38.346 290.136,39.031 290.140,39.715 290.142,40.141 290.144,40.400 290.147,41.084 290.142,41.257 290.128,41.769 290.106,42.454 290.142,42.824 290.178,43.138 290.264,43.823 290.345,44.507 290.392,45.192 290.440,45.877 290.499,46.561 290.563,47.246 290.617,47.930 290.663,48.615 290.619,49.300 290.555,49.984 290.509,50.669 290.548,51.353 290.586,52.038 290.624,52.723 290.698,53.407 290.776,54.092 290.765,54.776 290.693,55.461 290.622,56.146 290.550,56.830 290.583,57.515 290.693,58.199 290.801,58.884 290.827,59.103 290.881,59.569 290.942,60.253 291.004,60.938 291.078,61.622 291.161,62.307 291.254,62.992 291.358,63.676 291.512,64.308 291.525,64.361 291.719,65.045 291.828,65.730 291.879,66.415 291.930,67.099 291.981,67.784 292.037,68.468 292.093,69.153 292.149,69.838 292.196,70.185 292.240,70.522 292.376,71.207 292.473,71.891 292.559,72.576 292.648,73.261 292.756,73.945 292.881,74.590 292.894,74.630 293.167,75.314 293.439,75.999 293.565,76.316 293.711,76.684 293.984,77.368 294.242,78.053 294.250,78.079 294.457,78.737 294.673,79.422 294.888,80.107 294.935,80.254 295.188,80.791 295.493,81.476 295.619,81.921 295.687,82.160 295.724,82.845 295.702,83.530 295.674,84.214 295.741,84.899 296.037,85.583 296.304,86.200 296.333,86.268 296.629,86.953 296.926,87.637 296.988,87.779 297.238,88.322 297.403,89.006 297.673,89.599 297.735,89.691 298.254,90.376 298.358,90.513 298.767,91.060 299.042,91.427 299.195,91.745 299.727,92.191 299.923,92.429 300.411,92.907 300.594,93.114 301.096,93.684 301.197,93.799 301.781,94.462 301.803,94.483 302.465,95.059 302.593,95.168 302.941,95.852 303.150,96.280 303.276,96.537 303.653,97.222 303.834,97.486 304.143,97.906 304.519,98.419 304.645,98.591 305.171,99.275 305.204,99.327 305.593,99.960 305.888,100.521 305.998,100.645 306.573,101.292 306.606,101.329 307.213,102.014 307.257,102.058 307.942,102.592 308.223,102.698 308.627,102.827 309.311,102.857 309.996,102.944 310.680,103.071 311.365,103.156 312.050,103.198 312.504,103.383 312.734,103.540 313.419,104.007 313.508,104.068 314.103,104.474 314.338,104.752 314.788,105.116 315.304,105.437 315.473,105.568 316.157,106.011 316.337,106.121 316.842,106.512 317.309,106.806 317.526,106.956 318.211,106.940 318.649,106.806 318.895,106.733 319.580,106.529 320.265,106.326 320.949,106.123 321.634,106.298 322.318,106.473 323.003,106.648 323.560,106.806 323.688,106.846 324.372,107.090 325.057,106.858 325.177,106.806 325.741,106.565 326.426,106.279 326.804,106.121 327.111,105.994 327.795,105.729 328.480,105.736 329.164,105.744 329.849,105.751 330.534,105.757 331.218,105.763 331.903,105.726 332.588,105.705 333.272,105.693 333.957,105.694 334.641,105.694 335.326,105.619 335.909,105.437 336.011,105.405 336.695,105.191 337.380,104.953 337.919,104.752 338.064,104.691 338.749,104.171 338.862,104.068 339.433,103.452 339.512,103.383 340.069,102.698 340.118,102.636 340.601,102.014 340.803,101.768 341.172,101.329 341.487,100.955 341.717,100.645 342.172,100.055 342.240,99.960 342.727,99.275 342.856,99.097 343.229,98.591 343.541,98.166 343.733,97.906 344.226,97.265 344.258,97.222 344.841,96.537 344.910,96.441 345.291,95.852 345.595,95.366 345.715,95.168 346.130,94.483 346.279,94.237 346.546,93.799 346.964,93.131 346.975,93.114 347.423,92.429 347.649,92.084 347.871,91.745 348.306,91.060 348.333,91.015 348.721,90.376 349.018,89.849 349.100,89.691 349.450,89.006 349.702,88.500 349.789,88.322 350.120,87.637 350.312,86.953 350.328,86.268 350.348,85.583 350.366,84.899 350.387,84.819 350.550,84.214 350.814,83.530 351.072,82.892 351.092,82.845 351.367,82.160 351.644,81.476 351.732,80.791 351.747,80.107 351.756,79.732 351.764,79.422 351.793,78.737 351.820,78.053 351.811,77.368 351.803,76.684 351.854,75.999 351.899,75.314 351.916,74.630 351.853,73.945 351.791,73.261 351.756,72.967 351.709,72.576 351.624,71.891 351.492,71.207 351.355,70.522 351.244,69.838 351.155,69.153 351.072,68.478 351.070,68.468 350.897,67.784 350.694,67.099 350.490,66.415 350.387,66.068 350.289,65.730 350.130,65.045 349.909,64.361 349.732,63.676 349.702,63.559 349.558,62.992 349.383,62.307 349.193,61.622 349.018,61.230 348.886,60.938 348.577,60.253 348.333,59.678 348.297,59.569 348.100,58.884 347.858,58.199 347.649,57.789 347.509,57.515 347.114,56.830 346.964,56.572 346.705,56.146 346.295,55.461 346.279,55.444 345.688,54.776 345.595,54.675 345.075,54.092 344.910,53.907 344.464,53.407 344.226,53.140 343.853,52.723 343.541,52.413 343.180,52.038 342.856,51.726 342.504,51.353 342.172,51.002 341.857,50.669 341.487,50.278 341.210,49.984 340.803,49.610 340.455,49.300 340.118,49.021 339.706,48.615 339.433,48.347 339.011,47.930 338.749,47.672 338.312,47.246 338.064,47.054 337.380,46.567 337.374,46.561 336.695,45.944 336.621,45.877 336.011,45.321 335.869,45.192 335.326,44.787 334.891,44.507 334.641,44.350 334.034,43.823 333.957,43.755 333.272,43.160 333.245,43.138 332.588,42.710 332.161,42.454 331.903,42.298 331.258,41.769 331.218,41.737 330.534,41.227 330.299,41.084 329.849,40.846 329.164,40.417 329.143,40.400 328.480,39.883 328.217,39.715 327.795,39.501 327.111,39.167 326.922,39.031 326.426,38.676 325.901,38.346 325.741,38.267 325.057,37.960 324.564,37.661 324.372,37.548 323.688,37.152 323.289,36.977 323.003,36.858 322.318,36.482 322.018,36.292 321.634,36.107 320.949,35.845 320.528,35.608 320.265,35.478 319.580,35.172 318.895,34.930 318.886,34.923 318.211,34.562 317.526,34.316 317.360,34.238 316.842,33.966 316.157,33.761 315.473,33.558 315.467,33.554 314.788,33.130 314.103,33.072 313.821,32.869 313.419,32.485 312.734,32.348 312.050,32.310 311.859,32.185 "/>
</g>
<g id="ID000025" clip-path="url(#ID000001)" >
      <polyline fill="none" fill-opacity="1.00" stroke="#f0f2f5" stroke-width="0.5pt" stroke-opacity="1.00" stroke-dasharray="none" points="267.898,32.185 267.550,32.380 266.866,32.457 266.181,32.733 266.039,32.869 265.497,33.266 264.812,33.412 264.597,33.554 264.127,33.935 263.443,34.139 263.243,34.238 262.758,34.592 262.140,34.923 262.074,34.968 261.389,35.354 261.059,35.608 260.704,35.889 260.020,36.247 259.951,36.292 259.335,36.764 258.998,36.977 258.651,37.374 258.211,37.661 257.966,37.898 257.504,38.346 257.281,38.618 256.970,39.031 256.597,39.571 256.447,39.715 255.912,40.317 255.850,40.400 255.408,41.084 255.228,41.385 254.970,41.769 254.646,42.454 254.543,42.689 254.282,43.138 253.884,43.823 253.859,43.882 253.614,44.507 253.365,45.192 253.174,45.734 253.114,45.877 252.958,46.561 252.822,47.246 252.657,47.930 252.490,48.615 252.489,48.619 252.420,49.300 252.355,49.984 252.373,50.669 252.409,51.353 252.419,52.038 252.426,52.723 252.434,53.407 252.447,54.092 252.489,54.215 252.697,54.776 253.053,55.461 253.174,55.724 253.329,56.146 253.663,56.830 253.859,57.275 253.964,57.515 254.211,58.199 254.458,58.884 254.543,59.118 254.706,59.569 254.954,60.253 255.228,60.914 255.244,60.938 255.912,61.539 256.018,61.622 256.597,62.115 256.850,62.307 257.281,62.644 257.787,62.992 257.966,63.090 258.651,63.421 259.219,63.676 259.335,63.722 260.020,63.991 260.506,64.361 260.704,64.521 261.357,65.045 261.389,65.068 262.074,65.454 262.663,65.730 262.758,65.775 263.443,65.881 264.127,65.986 264.812,66.087 265.497,66.161 266.181,66.232 266.866,66.251 267.550,66.265 268.235,66.279 268.920,66.294 269.604,66.281 270.289,66.221 270.974,66.189 271.658,66.163 272.343,66.136 272.705,65.730 273.027,65.216 273.120,65.045 273.547,64.361 273.712,64.244 274.397,63.862 274.729,63.676 275.081,63.485 275.766,63.194 276.247,62.992 276.450,62.906 277.135,62.625 277.820,62.319 277.832,62.307 278.504,61.628 278.510,61.622 279.189,60.969 279.221,60.938 279.873,60.310 279.916,60.253 280.300,59.569 280.558,59.065 280.650,58.884 281.173,58.199 281.242,58.119 281.703,57.515 281.927,57.032 282.012,56.830 282.307,56.146 282.612,55.463 282.613,55.461 282.976,54.776 283.296,54.205 283.356,54.092 283.766,53.407 283.981,53.052 284.183,52.723 284.620,52.038 284.666,51.967 284.944,51.353 285.243,50.669 285.350,50.401 285.492,49.984 285.603,49.300 285.749,48.615 285.894,47.930 286.035,47.453 286.098,47.246 286.301,46.561 286.488,45.877 286.654,45.192 286.719,44.897 286.805,44.507 286.954,43.823 287.015,43.138 287.070,42.454 287.137,41.769 287.218,41.084 287.331,40.400 287.404,39.760 287.409,39.715 287.479,39.031 287.549,38.346 287.614,37.661 287.653,36.977 287.691,36.292 287.740,35.608 287.793,34.923 287.813,34.238 287.836,33.554 287.858,32.869 287.880,32.185 "/>
</g>
<g id="ID000026" clip-path="url(#ID000001)" >
      <polyline fill="none" fill-opacity="1.00" stroke="#e7eaf2" stroke-width="0.5pt" stroke-opacity="1.00" stroke-dasharray="none" points="268.110,32.185 267.550,32.499 266.866,32.634 266.405,32.869 266.181,33.001 265.499,33.554 265.497,33.557 264.812,33.832 264.332,34.238 264.127,34.428 263.443,34.777 263.251,34.923 262.758,35.457 262.536,35.608 262.166,36.292 262.074,36.484 261.710,36.977 261.389,37.446 261.247,37.661 260.846,38.346 260.704,38.698 260.555,39.031 260.279,39.715 260.020,40.399 260.020,40.400 259.850,41.084 259.757,41.769 259.672,42.454 259.598,43.138 259.597,43.823 259.667,44.507 259.744,45.192 259.853,45.877 260.020,46.420 260.068,46.561 260.361,47.246 260.664,47.930 260.704,48.001 261.110,48.615 261.369,49.300 261.389,49.360 261.657,49.984 262.074,50.515 262.198,50.669 262.741,51.353 262.758,51.372 263.443,51.899 263.637,52.038 264.127,52.389 264.592,52.723 264.812,52.856 265.497,53.197 265.936,53.407 266.181,53.524 266.866,53.851 267.444,54.092 267.550,54.131 268.235,54.296 268.920,54.328 269.604,54.332 270.289,54.328 270.974,54.170 271.237,54.092 271.658,53.973 272.343,53.829 273.027,53.628 273.712,53.439 273.861,53.407 274.397,53.299 275.081,53.161 275.766,52.913 276.224,52.723 276.450,52.628 277.135,52.335 277.772,52.038 277.820,52.015 278.504,51.386 278.540,51.353 279.189,50.758 279.285,50.669 279.873,50.121 279.982,49.984 280.539,49.300 280.558,49.276 281.012,48.615 281.242,48.232 281.414,47.930 281.808,47.246 281.927,47.059 282.242,46.561 282.612,45.932 282.642,45.877 282.965,45.192 283.263,44.507 283.296,44.426 283.535,43.823 283.800,43.138 283.981,42.593 284.027,42.454 284.253,41.769 284.476,41.084 284.645,40.400 284.666,40.288 284.766,39.715 284.918,39.031 285.071,38.346 285.230,37.661 285.336,36.977 285.350,36.881 285.434,36.292 285.519,35.608 285.601,34.923 285.626,34.238 285.651,33.554 285.691,32.869 285.738,32.185 "/>
</g>
<g id="ID000027" clip-path="url(#ID000001)" >
      <polyline fill="none" fill-opacity="1.00" stroke="#dee0ee" stroke-width="0.5pt" stroke-opacity="1.00" stroke-dasharray="none" points="268.273,32.185 268.235,32.244 267.550,32.619 266.866,32.812 266.753,32.869 266.181,33.206 265.752,33.554 265.497,33.846 264.828,34.238 264.812,34.258 264.127,34.889 264.069,34.923 263.755,35.608 263.510,36.292 263.443,36.548 263.263,36.977 263.141,37.661 262.981,38.346 262.758,38.944 262.726,39.031 262.564,39.715 262.516,40.400 262.500,41.084 262.734,41.769 262.758,41.846 262.944,42.454 263.242,43.138 263.443,43.435 263.701,43.823 264.010,44.507 264.127,44.835 264.242,45.192 264.481,45.877 264.812,46.393 264.974,46.561 265.497,47.045 265.750,47.246 266.181,47.490 266.866,47.780 267.225,47.930 267.550,48.066 268.235,48.339 268.920,48.495 269.604,48.536 270.289,48.577 270.974,48.565 271.658,48.552 272.343,48.547 273.027,48.499 273.712,48.271 274.397,48.078 275.060,47.930 275.081,47.926 275.766,47.543 276.243,47.246 276.450,47.117 277.135,46.699 277.311,46.561 277.820,46.176 278.125,45.877 278.504,45.506 278.825,45.192 279.189,44.832 279.511,44.507 279.873,44.100 280.063,43.823 280.518,43.138 280.558,43.079 280.966,42.454 281.242,41.941 281.334,41.769 281.680,41.084 281.927,40.546 281.988,40.400 282.258,39.715 282.475,39.031 282.612,38.600 282.692,38.346 282.915,37.661 283.085,36.977 283.228,36.292 283.296,35.978 283.377,35.608 283.526,34.923 283.589,34.238 283.633,33.554 283.681,32.869 283.735,32.185 "/>
</g>
<g id="ID000028" clip-path="url(#ID000001)" >
      <polyline fill="none" fill-opacity="1.00" stroke="#d5d7ea" stroke-width="0.5pt" stroke-opacity="1.00" stroke-dasharray="none" points="268.364,32.185 268.235,32.389 267.550,32.738 267.126,32.869 266.866,32.937 266.181,33.411 266.005,33.554 265.497,34.136 265.322,34.238 264.812,34.866 264.749,34.923 264.580,35.608 264.360,36.292 264.332,36.977 264.296,37.661 264.284,38.346 264.293,39.031 264.195,39.715 264.256,40.400 264.524,41.084 264.781,41.769 264.812,41.815 265.421,42.454 265.497,42.539 266.121,43.138 266.181,43.218 266.866,43.770 266.999,43.823 267.550,44.042 268.235,44.308 268.650,44.507 268.920,44.619 269.604,44.857 270.289,45.096 270.974,45.144 271.658,45.126 272.343,45.134 273.027,45.031 273.712,44.849 274.397,44.694 274.896,44.507 275.081,44.433 275.766,43.999 276.043,43.823 276.450,43.568 277.050,43.138 277.135,43.072 277.740,42.454 277.820,42.373 278.410,41.769 278.504,41.661 278.950,41.084 279.189,40.737 279.391,40.400 279.801,39.715 279.873,39.582 280.166,39.031 280.506,38.346 280.558,38.229 280.786,37.661 281.039,36.977 281.212,36.292 281.242,36.170 281.385,35.608 281.562,34.923 281.668,34.238 281.741,33.554 281.828,32.869 281.914,32.185 "/>
</g>
<g id="ID000029" clip-path="url(#ID000001)" >
      <polyline fill="none" fill-opacity="1.00" stroke="#cdcde5" stroke-width="0.5pt" stroke-opacity="1.00" stroke-dasharray="none" points="268.456,32.185 268.235,32.534 267.550,32.857 267.511,32.869 266.866,33.038 266.220,33.554 266.181,33.616 265.617,34.238 265.497,34.819 265.419,34.923 265.229,35.608 265.106,36.292 265.144,36.977 265.165,37.661 265.252,38.346 265.360,39.031 265.497,39.420 265.664,39.715 266.181,40.395 266.185,40.400 266.822,41.084 266.866,41.118 267.550,41.557 268.182,41.769 268.235,41.783 268.920,41.981 269.604,42.280 269.929,42.454 270.289,42.665 270.974,42.760 271.658,42.835 272.343,42.875 273.027,42.650 273.712,42.454 273.712,42.454 274.397,42.255 275.081,41.776 275.091,41.769 275.766,41.297 276.054,41.084 276.450,40.745 276.748,40.400 277.135,39.950 277.343,39.715 277.820,39.153 277.916,39.031 278.339,38.346 278.504,38.052 278.722,37.661 279.104,36.977 279.189,36.768 279.374,36.292 279.615,35.608 279.843,34.923 279.873,34.786 279.992,34.238 280.060,33.554 280.130,32.869 280.214,32.185 "/>
</g>
<g id="ID000030" clip-path="url(#ID000001)" >
      <polyline fill="none" fill-opacity="1.00" stroke="#c5c2df" stroke-width="0.5pt" stroke-opacity="1.00" stroke-dasharray="none" points="268.548,32.185 268.235,32.679 267.829,32.869 267.550,32.959 266.866,33.139 266.346,33.554 266.181,33.821 265.803,34.238 265.798,34.923 265.703,35.608 265.697,36.292 265.819,36.977 265.927,37.661 266.112,38.346 266.181,38.500 266.530,39.031 266.866,39.487 267.102,39.715 267.550,40.016 268.235,40.248 268.774,40.400 268.920,40.443 269.604,40.675 270.289,40.858 270.974,40.988 271.457,41.084 271.658,41.125 271.955,41.084 272.343,41.023 273.027,40.769 273.712,40.532 273.932,40.400 274.397,40.081 274.876,39.715 275.081,39.553 275.736,39.031 275.766,39.001 276.288,38.346 276.450,38.131 276.803,37.661 277.135,37.220 277.292,36.977 277.636,36.292 277.820,35.764 277.879,35.608 278.205,34.923 278.415,34.238 278.504,33.739 278.539,33.554 278.667,32.869 278.795,32.185 "/>
</g>
<g id="ID000031" clip-path="url(#ID000001)" >
      <polyline fill="none" fill-opacity="1.00" stroke="#b8b3d7" stroke-width="0.5pt" stroke-opacity="1.00" stroke-dasharray="none" points="268.639,32.185 268.235,32.824 268.139,32.869 267.550,33.058 266.866,33.240 266.472,33.554 266.181,34.026 265.989,34.238 266.138,34.923 266.068,35.608 266.105,36.292 266.181,36.516 266.420,36.977 266.866,37.654 266.876,37.661 267.325,38.346 267.550,38.685 268.235,38.969 268.478,39.031 268.920,39.146 269.604,39.357 270.289,39.496 270.974,39.606 271.658,39.674 272.343,39.437 273.027,39.228 273.418,39.031 273.712,38.857 274.326,38.346 274.397,38.288 275.081,37.726 275.138,37.661 275.662,36.977 275.766,36.833 276.146,36.292 276.450,35.766 276.534,35.608 276.856,34.923 277.123,34.238 277.135,34.156 277.223,33.554 277.327,32.869 277.440,32.185 "/>
</g>
<g id="ID000032" clip-path="url(#ID000001)" >
      <polyline fill="none" fill-opacity="1.00" stroke="#afa7d0" stroke-width="0.5pt" stroke-opacity="1.00" stroke-dasharray="none" points="268.731,32.185 268.311,32.869 268.235,32.937 267.550,33.158 266.866,33.340 266.598,33.554 266.181,34.231 266.175,34.238 266.181,34.266 266.323,34.923 266.367,35.608 266.583,36.292 266.866,36.750 267.294,36.977 267.550,37.167 268.150,37.661 268.235,37.738 268.920,37.939 269.604,38.201 269.984,38.346 270.289,38.450 270.974,38.595 271.658,38.400 271.783,38.346 272.343,38.139 273.027,37.853 273.260,37.661 273.712,37.228 274.006,36.977 274.397,36.604 274.680,36.292 275.071,35.608 275.081,35.590 275.528,34.923 275.766,34.445 275.873,34.238 276.044,33.554 276.209,32.869 276.389,32.185 "/>
</g>
<g id="ID000033" clip-path="url(#ID000001)" >
      <polyline fill="none" fill-opacity="1.00" stroke="#a49bc7" stroke-width="0.5pt" stroke-opacity="1.00" stroke-dasharray="none" points="268.823,32.185 268.421,32.869 268.235,33.035 267.550,33.257 266.866,33.441 266.725,33.554 266.319,34.238 266.486,34.923 266.636,35.608 266.866,36.063 267.431,36.292 267.550,36.360 268.235,36.774 268.737,36.977 268.920,37.078 269.604,37.321 270.289,37.500 270.974,37.525 271.658,37.318 272.343,37.139 272.613,36.977 273.027,36.661 273.410,36.292 273.712,35.972 274.021,35.608 274.397,35.078 274.492,34.923 274.910,34.238 275.076,33.554 275.081,33.531 275.246,32.869 275.426,32.185 "/>
</g>
<g id="ID000034" clip-path="url(#ID000001)" >
      <polyline fill="none" fill-opacity="1.00" stroke="#988fbf" stroke-width="0.5pt" stroke-opacity="1.00" stroke-dasharray="none" points="268.915,32.185 268.531,32.869 268.235,33.133 267.550,33.357 266.866,33.542 266.851,33.554 266.462,34.238 266.648,34.923 266.866,35.540 267.088,35.608 267.550,35.780 268.235,36.211 268.415,36.292 268.920,36.510 269.604,36.734 270.289,36.936 270.974,36.770 271.658,36.448 272.059,36.292 272.343,36.131 272.846,35.608 273.027,35.402 273.464,34.923 273.712,34.616 273.953,34.238 274.143,33.554 274.331,32.869 274.397,32.632 274.552,32.185 "/>
</g>
<g id="ID000035" clip-path="url(#ID000001)" >
      <polyline fill="none" fill-opacity="1.00" stroke="#8c82b5" stroke-width="0.5pt" stroke-opacity="1.00" stroke-dasharray="none" points="269.006,32.185 268.920,32.370 268.641,32.869 268.235,33.231 267.550,33.457 267.191,33.554 266.866,33.776 266.605,34.238 266.810,34.923 266.866,35.080 267.550,35.409 268.171,35.608 268.235,35.648 268.920,35.955 269.604,36.216 269.916,36.292 270.289,36.385 270.524,36.292 270.974,36.085 271.658,35.791 271.893,35.608 272.343,35.188 272.590,34.923 273.027,34.344 273.120,34.238 273.416,33.554 273.682,32.869 273.712,32.792 273.948,32.185 "/>
</g>
<g id="ID000036" clip-path="url(#ID000001)" >
      <polyline fill="none" fill-opacity="1.00" stroke="#8073ac" stroke-width="0.5pt" stroke-opacity="1.00" stroke-dasharray="none" points="269.098,32.185 268.920,32.567 268.751,32.869 268.235,33.329 267.558,33.554 267.550,33.559 266.866,34.029 266.747,34.238 266.866,34.620 267.199,34.923 267.550,35.122 268.235,35.335 268.920,35.520 269.439,35.608 269.604,35.674 270.289,35.731 270.572,35.608 270.974,35.472 271.658,35.220 271.971,34.923 272.343,34.454 272.513,34.238 272.859,33.554 273.027,33.131 273.129,32.869 273.395,32.185 "/>
</g>
<g id="ID000037" clip-path="url(#ID000001)" >
      <polyline fill="none" fill-opacity="1.00" stroke="#7561a3" stroke-width="0.5pt" stroke-opacity="1.00" stroke-dasharray="none" points="269.190,32.185 268.920,32.764 268.861,32.869 268.235,33.427 267.852,33.554 267.550,33.760 266.912,34.238 267.550,34.845 267.844,34.923 268.235,35.042 268.920,35.294 269.604,35.440 270.289,35.270 270.974,34.949 271.040,34.923 271.658,34.584 271.931,34.238 272.291,33.554 272.343,33.429 272.571,32.869 272.842,32.185 "/>
</g>
<g id="ID000038" clip-path="url(#ID000001)" >
      <polyline fill="none" fill-opacity="1.00" stroke="#664498" stroke-width="0.5pt" stroke-opacity="1.00" stroke-dasharray="none" points="269.281,32.185 268.962,32.869 268.920,32.961 268.235,33.525 268.147,33.554 267.550,33.962 267.181,34.238 267.550,34.590 268.235,34.806 268.564,34.923 268.920,35.068 269.604,35.248 270.229,34.923 270.289,34.874 270.974,34.426 271.250,34.238 271.658,33.675 271.723,33.554 272.046,32.869 272.309,32.185 "/>
</g>
<g id="ID000039" clip-path="url(#ID000001)" >
      <polyline fill="none" fill-opacity="1.00" stroke="#5b318f" stroke-width="0.5pt" stroke-opacity="1.00" stroke-dasharray="none" points="269.373,32.185 269.054,32.869 268.920,33.157 268.412,33.554 268.235,33.740 267.550,34.163 267.450,34.238 267.550,34.334 268.235,34.609 268.920,34.857 269.153,34.923 269.604,35.057 269.861,34.923 270.289,34.574 270.724,34.238 270.974,33.954 271.319,33.554 271.589,32.869 271.658,32.730 271.965,32.185 "/>
</g>
<g id="ID000040" clip-path="url(#ID000001)" >
      <polyline fill="none" fill-opacity="1.00" stroke="#512384" stroke-width="0.5pt" stroke-opacity="1.00" stroke-dasharray="none" points="269.465,32.185 269.146,32.869 268.920,33.354 268.664,33.554 268.235,34.006 267.835,34.238 268.235,34.411 268.920,34.673 269.604,34.832 270.289,34.274 270.335,34.238 270.940,33.554 270.974,33.494 271.285,32.869 271.626,32.185 "/>
</g>
<g id="ID000041" clip-path="url(#ID000001)" >
      <polyline fill="none" fill-opacity="1.00" stroke="#471778" stroke-width="0.5pt" stroke-opacity="1.00" stroke-dasharray="none" points="269.557,32.185 269.237,32.869 268.920,33.551 268.916,33.554 268.292,34.238 268.920,34.489 269.604,34.532 269.965,34.238 270.289,33.895 270.592,33.554 270.974,32.883 270.980,32.869 271.321,32.185 "/>
</g>
<g id="ID000042" clip-path="url(#ID000001)" >
      <polyline fill="none" fill-opacity="1.00" stroke="#3e0d6a" stroke-width="0.5pt" stroke-opacity="1.00" stroke-dasharray="none" points="269.719,32.185 269.604,32.279 269.329,32.869 269.164,33.554 268.920,34.055 268.754,34.238 268.920,34.305 269.568,34.238 269.604,34.231 270.244,33.554 270.289,33.490 270.668,32.869 270.974,32.272 271.017,32.185 "/>
</g>
<g id="ID000043" clip-path="url(#ID000001)" >
      <polyline fill="none" fill-opacity="1.00" stroke="#35055b" stroke-width="0.5pt" stroke-opacity="1.00" stroke-dasharray="none" points="269.957,32.185 269.604,32.476 269.421,32.869 269.412,33.554 269.604,33.850 269.884,33.554 270.289,32.979 270.356,32.869 270.713,32.185 "/>
</g>
<g id="ID000044" clip-path="url(#ID000001)" >
      <polyline fill="none" fill-opacity="1.00" stroke="#2d004b" stroke-width="0.5pt" stroke-opacity="1.00" stroke-dasharray="none" points="270.195,32.185 270.289,32.413 270.408,32.185 "/>
</g>
<g id="ID000045" clip-path="url(#ID000001)" >
      <polyline fill="none" fill-opacity="1.00" stroke="#2d004b" stroke-width="0.5pt" stroke-opacity="1.00" stroke-dasharray="none" points="269.604,33.429 269.988,32.869 269.604,32.672 269.513,32.869 269.604,33.429 "/>
</g>
</g><g id="ID000046" clip-path="url(#ID000001)" >
<rect x="203.883" y="28.648" width="171.150" height="171.150" rx="85.575" ry="85.575" fill="none" stroke="#000000" stroke-width="0.5pt" stroke-dasharray="none" />
</g>
<g id="ID000047" >
</g>
    </g>
  </g>
  </g>
</svg>
