<?xml version="1.0" encoding="utf-8" standalone="no"?><!DOCTYPE svg PUBLIC "-//W3C//DTD SVG 1.1//EN" "http://www.w3.org/Graphics/SVG/1.1/DTD/svg11.dtd">
<svg preserveAspectRatio="xMinYMin meet" width="100%" height="100%" viewBox="0 0 560.000 420.000"  version="1.1" xmlns="http://www.w3.org/2000/svg" xmlns:xlink="http://www.w3.org/1999/xlink">
  <desc>Matlab Figure Converted by PLOT2SVG written by Juerg Schwizer</desc>
  <g id="topgroup">
  <rect x="0" y="0" width="560.000" height="420.000" fill="#ffffff" stroke="none" />
  <g id ="ID000000">
  <clipPath id="ID000001">
    <rect x="72.800" y="31.500" width="434.000" height="342.300"/>
  </clipPath>
    <g>
<g id="ID000002" clip-path="url(#ID000001)" >
<image x="118.650" y="31.842" width="342.300" height="342.300" image-rendering="optimizeSpeed" preserveAspectRatio="none" xlink:href="pu4001.png" />
</g>
<g id="ID000003" clip-path="url(#ID000001)" >
<g id="ID000004" clip-path="url(#ID000001)" >
      <polyline fill="none" fill-opacity="1.00" stroke="#934406" stroke-width="0.5pt" stroke-opacity="1.00" stroke-dasharray="none" points="242.421,32.185 242.220,32.387 242.095,32.869 241.989,33.554 241.966,34.238 241.791,34.923 241.536,35.030 241.279,35.608 241.536,35.951 242.113,35.608 242.220,35.352 242.354,34.923 242.568,34.238 242.782,33.554 242.905,33.161 243.008,32.869 243.329,32.185 "/>
</g>
<g id="ID000005" clip-path="url(#ID000001)" >
      <polyline fill="none" fill-opacity="1.00" stroke="#9f4b06" stroke-width="0.5pt" stroke-opacity="1.00" stroke-dasharray="none" points="242.077,32.185 241.900,32.869 241.757,33.554 241.555,34.238 241.536,34.275 241.368,34.923 240.943,35.608 241.110,36.292 241.536,36.364 241.831,36.292 242.220,36.106 242.702,35.608 242.905,34.959 242.916,34.923 243.130,34.238 243.346,33.554 243.590,32.985 243.647,32.869 243.988,32.185 "/>
</g>
<g id="ID000006" clip-path="url(#ID000001)" >
      <polyline fill="none" fill-opacity="1.00" stroke="#ab5306" stroke-width="0.5pt" stroke-opacity="1.00" stroke-dasharray="none" points="241.881,32.185 241.704,32.869 241.536,33.519 241.527,33.554 241.349,34.238 241.172,34.923 240.851,35.397 240.545,35.608 240.167,36.049 239.482,36.279 239.462,36.292 239.482,36.307 240.167,36.437 240.851,36.541 241.536,36.661 242.220,36.646 242.576,36.292 242.905,35.953 243.253,35.608 243.478,34.923 243.590,34.566 243.696,34.238 243.965,33.554 244.274,32.932 244.305,32.869 244.646,32.185 "/>
</g>
<g id="ID000007" clip-path="url(#ID000001)" >
      <polyline fill="none" fill-opacity="1.00" stroke="#b75b06" stroke-width="0.5pt" stroke-opacity="1.00" stroke-dasharray="none" points="241.686,32.185 241.536,32.763 241.508,32.869 241.331,33.554 241.154,34.238 240.976,34.923 240.851,35.108 240.167,35.581 240.124,35.608 239.482,36.014 239.041,36.292 239.482,36.610 240.167,36.728 240.851,36.832 241.536,36.959 241.634,36.977 242.220,37.087 242.410,36.977 242.905,36.486 243.100,36.292 243.590,35.806 243.790,35.608 244.040,34.923 244.274,34.258 244.282,34.238 244.623,33.554 244.959,32.880 244.964,32.869 245.305,32.185 "/>
</g>
<g id="ID000008" clip-path="url(#ID000001)" >
      <polyline fill="none" fill-opacity="1.00" stroke="#c36408" stroke-width="0.5pt" stroke-opacity="1.00" stroke-dasharray="none" points="241.490,32.185 241.313,32.869 241.135,33.554 240.958,34.238 240.851,34.651 240.717,34.923 240.167,35.315 239.704,35.608 239.482,35.748 238.797,36.180 238.623,36.292 238.797,36.585 239.482,36.914 239.882,36.977 240.167,37.020 240.851,37.125 241.536,37.256 242.220,37.389 242.905,37.005 242.934,36.977 243.590,36.326 243.623,36.292 244.274,35.646 244.315,35.608 244.628,34.923 244.941,34.238 244.959,34.202 245.281,33.554 245.622,32.869 245.643,32.827 245.963,32.185 "/>
</g>
<g id="ID000009" clip-path="url(#ID000001)" >
      <polyline fill="none" fill-opacity="1.00" stroke="#cf6f0b" stroke-width="0.5pt" stroke-opacity="1.00" stroke-dasharray="none" points="241.294,32.185 241.117,32.869 240.940,33.554 240.851,33.895 240.762,34.238 240.344,34.923 240.167,35.049 239.482,35.482 239.283,35.608 238.797,35.915 238.209,36.292 238.113,36.545 237.994,36.977 238.113,37.146 238.797,37.147 239.482,37.208 240.167,37.311 240.851,37.418 241.536,37.553 242.073,37.661 242.220,37.691 242.409,37.661 242.905,37.525 243.457,36.977 243.590,36.846 244.147,36.292 244.274,36.166 244.860,35.608 244.959,35.413 245.344,34.923 245.599,34.238 245.643,34.150 246.006,33.554 246.281,32.869 246.328,32.774 246.668,32.185 "/>
</g>
<g id="ID000010" clip-path="url(#ID000001)" >
      <polyline fill="none" fill-opacity="1.00" stroke="#dd7e12" stroke-width="0.5pt" stroke-opacity="1.00" stroke-dasharray="none" points="241.098,32.185 240.921,32.869 240.851,33.140 240.744,33.554 240.566,34.238 240.167,34.783 239.946,34.923 239.482,35.216 238.863,35.608 238.797,35.649 238.113,36.090 237.876,36.292 237.693,36.977 238.113,37.574 238.797,37.537 239.482,37.499 240.167,37.603 240.537,37.661 240.851,37.712 241.536,37.850 242.220,37.988 242.905,38.003 243.291,37.661 243.590,37.365 244.002,36.977 244.274,36.707 244.959,36.401 245.264,36.292 245.643,36.092 246.043,35.608 246.328,35.067 246.403,34.923 246.717,34.238 247.013,33.595 247.032,33.554 247.341,32.869 247.642,32.185 "/>
</g>
<g id="ID000011" clip-path="url(#ID000001)" >
      <polyline fill="none" fill-opacity="1.00" stroke="#e68a1a" stroke-width="0.5pt" stroke-opacity="1.00" stroke-dasharray="none" points="240.903,32.185 240.851,32.384 240.725,32.869 240.548,33.554 240.371,34.238 240.167,34.517 239.525,34.923 239.482,34.950 238.797,35.383 238.451,35.608 238.113,35.826 237.567,36.292 237.428,36.834 237.403,36.977 237.428,37.093 237.716,37.661 238.113,38.001 238.797,37.975 239.482,37.851 240.167,37.900 240.851,38.009 241.536,38.147 242.220,38.285 242.521,38.346 242.905,38.445 243.073,38.346 243.590,37.900 244.057,37.661 244.274,37.468 244.959,37.370 245.643,37.271 246.064,36.977 246.328,36.703 246.667,36.292 247.013,35.874 247.233,35.608 247.577,34.923 247.697,34.662 247.890,34.238 248.195,33.554 248.382,33.125 248.493,32.869 248.792,32.185 "/>
</g>
<g id="ID000012" clip-path="url(#ID000001)" >
      <polyline fill="none" fill-opacity="1.00" stroke="#ef972a" stroke-width="0.5pt" stroke-opacity="1.00" stroke-dasharray="none" points="240.707,32.185 240.530,32.869 240.352,33.554 240.175,34.238 240.167,34.250 239.482,34.685 239.105,34.923 238.797,35.117 238.113,35.562 238.055,35.608 237.428,36.137 237.311,36.292 237.192,36.977 237.281,37.661 237.428,37.842 238.016,38.346 238.113,38.429 238.797,38.435 239.179,38.346 239.482,38.281 240.167,38.198 240.851,38.306 241.048,38.346 241.536,38.520 242.220,38.698 242.905,38.827 243.590,38.547 244.274,38.439 244.903,38.346 244.959,38.338 245.643,38.239 246.328,38.081 246.726,37.661 247.013,37.314 247.291,36.977 247.697,36.486 247.857,36.292 248.382,35.657 248.425,35.608 248.746,34.923 249.046,34.238 249.066,34.192 249.344,33.554 249.643,32.869 249.751,32.621 249.941,32.185 "/>
</g>
<g id="ID000013" clip-path="url(#ID000001)" >
      <polyline fill="none" fill-opacity="1.00" stroke="#f6a43f" stroke-width="0.5pt" stroke-opacity="1.00" stroke-dasharray="none" points="240.511,32.185 240.334,32.869 240.167,33.516 240.156,33.554 239.766,34.238 239.482,34.419 238.797,34.851 238.688,34.923 238.113,35.298 237.722,35.608 237.428,35.856 237.100,36.292 236.980,36.977 236.935,37.661 237.428,38.270 237.517,38.346 238.113,38.856 238.797,38.894 239.482,38.738 240.167,38.722 240.851,38.906 241.451,39.031 241.536,39.068 242.220,39.373 242.905,39.642 243.189,39.715 243.590,39.823 244.010,39.715 244.274,39.641 244.959,39.454 245.643,39.289 246.328,39.140 246.538,39.031 247.013,38.762 247.448,38.346 247.697,38.025 248.083,37.661 248.382,37.347 248.778,36.977 249.066,36.708 249.456,36.292 249.751,35.925 249.980,35.608 250.203,34.923 250.425,34.238 250.436,34.204 250.646,33.554 250.911,32.869 251.100,32.185 "/>
</g>
<g id="ID000014" clip-path="url(#ID000001)" >
      <polyline fill="none" fill-opacity="1.00" stroke="#fcb056" stroke-width="0.5pt" stroke-opacity="1.00" stroke-dasharray="none" points="240.316,32.185 240.167,32.760 240.138,32.869 239.949,33.554 239.482,34.153 239.347,34.238 238.797,34.586 238.283,34.923 238.113,35.034 237.428,35.577 237.389,35.608 236.888,36.292 236.769,36.977 236.744,37.120 236.649,37.661 236.744,37.969 237.018,38.346 237.428,38.697 237.817,39.031 238.113,39.311 238.797,39.489 239.482,39.539 239.872,39.715 240.167,39.848 240.851,40.155 241.401,40.400 241.536,40.457 242.220,40.701 242.905,40.924 243.396,41.084 243.590,41.147 244.274,41.157 244.532,41.084 244.959,40.965 245.643,40.775 246.328,40.605 247.013,40.446 247.142,40.400 247.697,40.142 248.182,39.715 248.382,39.536 248.949,39.031 249.066,38.921 249.682,38.346 249.751,38.281 250.354,37.661 250.436,37.564 250.859,36.977 251.120,36.616 251.354,36.292 251.805,35.655 251.838,35.608 252.059,34.923 252.282,34.238 252.489,33.618 252.511,33.554 252.743,32.869 252.975,32.185 "/>
</g>
<g id="ID000015" clip-path="url(#ID000001)" >
      <polyline fill="none" fill-opacity="1.00" stroke="#fdbc69" stroke-width="0.5pt" stroke-opacity="1.00" stroke-dasharray="none" points="240.120,32.185 239.943,32.869 239.742,33.554 239.482,33.887 238.926,34.238 238.797,34.320 238.113,34.770 237.920,34.923 237.428,35.313 237.056,35.608 236.744,36.120 236.677,36.292 236.557,36.977 236.437,37.661 236.559,38.346 236.744,38.538 237.318,39.031 237.428,39.159 238.022,39.715 238.113,39.920 238.723,40.400 238.797,40.440 239.482,40.794 239.982,41.084 240.167,41.188 240.851,41.528 241.536,41.758 241.569,41.769 242.220,41.983 242.905,42.206 243.590,42.427 243.674,42.454 244.274,42.673 244.959,42.514 245.178,42.454 245.643,42.345 246.328,42.186 247.013,42.027 247.697,41.867 248.016,41.769 248.382,41.621 248.991,41.084 249.066,41.018 249.751,40.416 249.773,40.400 250.436,39.832 250.602,39.715 251.120,39.253 251.336,39.031 251.805,38.431 251.871,38.346 252.416,37.661 252.489,37.555 252.941,36.977 253.174,36.679 253.458,36.292 253.859,35.629 253.870,35.608 254.029,34.923 254.230,34.238 254.400,33.554 254.543,33.130 254.641,32.869 254.863,32.185 "/>
</g>
<g id="ID000016" clip-path="url(#ID000001)" >
      <polyline fill="none" fill-opacity="1.00" stroke="#fec984" stroke-width="0.5pt" stroke-opacity="1.00" stroke-dasharray="none" points="239.924,32.185 239.747,32.869 239.535,33.554 239.482,33.622 238.797,34.054 238.520,34.238 238.113,34.506 237.587,34.923 237.428,35.049 236.744,35.592 236.727,35.608 236.465,36.292 236.345,36.977 236.226,37.661 236.150,38.346 236.744,38.966 236.819,39.031 237.401,39.715 237.428,39.791 237.663,40.400 238.113,41.037 238.201,41.084 238.797,41.409 239.460,41.769 239.482,41.784 240.167,42.315 240.348,42.454 240.851,42.833 241.536,43.056 241.789,43.138 242.220,43.279 242.905,43.555 243.397,43.823 243.590,43.951 244.274,44.274 244.959,44.325 245.643,44.346 246.328,44.182 247.013,43.974 247.509,43.823 247.697,43.766 248.382,43.602 249.066,43.517 249.751,43.144 249.759,43.138 250.436,42.637 250.683,42.454 251.120,42.170 251.736,41.769 251.805,41.724 252.489,41.198 252.593,41.084 253.174,40.419 253.191,40.400 253.789,39.715 253.859,39.634 254.376,39.031 254.543,38.817 254.880,38.346 255.228,37.781 255.297,37.661 255.690,36.977 255.912,36.589 256.083,36.292 256.452,35.608 256.597,34.985 256.612,34.923 256.779,34.238 256.965,33.554 257.153,32.869 257.281,32.401 257.341,32.185 "/>
</g>
<g id="ID000017" clip-path="url(#ID000001)" >
      <polyline fill="none" fill-opacity="1.00" stroke="#fed397" stroke-width="0.5pt" stroke-opacity="1.00" stroke-dasharray="none" points="239.728,32.185 239.551,32.869 239.482,33.090 239.169,33.554 238.797,33.788 238.119,34.238 238.113,34.242 237.428,34.785 237.254,34.923 236.744,35.328 236.459,35.608 236.254,36.292 236.134,36.977 236.059,37.405 236.014,37.661 235.894,38.346 236.059,38.755 236.320,39.031 236.744,39.670 236.781,39.715 237.021,40.400 237.261,41.084 237.428,41.534 237.678,41.769 238.113,42.013 238.790,42.454 238.797,42.460 239.482,43.044 239.593,43.138 240.167,43.628 240.430,43.823 240.851,44.131 241.536,44.425 241.688,44.507 242.220,44.863 242.713,45.192 242.905,45.325 243.590,45.778 244.092,45.877 244.274,45.916 244.959,45.984 245.643,46.057 246.328,46.138 247.013,46.224 247.697,46.178 248.382,46.073 249.066,45.971 249.720,45.877 249.751,45.873 250.436,45.789 251.120,45.484 251.540,45.192 251.805,44.994 252.489,44.553 252.562,44.507 253.174,44.125 253.644,43.823 253.859,43.660 254.362,43.138 254.543,42.952 255.026,42.454 255.228,42.247 255.695,41.769 255.912,41.546 256.350,41.084 256.597,40.784 256.864,40.400 257.281,39.798 257.339,39.715 257.793,39.031 257.966,38.718 258.173,38.346 258.552,37.661 258.651,37.467 258.878,36.977 259.190,36.292 259.335,35.950 259.480,35.608 259.611,34.923 259.742,34.238 259.873,33.554 260.004,32.869 260.020,32.794 260.154,32.185 "/>
</g>
<g id="ID000018" clip-path="url(#ID000001)" >
      <polyline fill="none" fill-opacity="1.00" stroke="#fedbaa" stroke-width="0.5pt" stroke-opacity="1.00" stroke-dasharray="none" points="239.533,32.185 239.482,32.381 239.339,32.869 238.797,33.523 238.751,33.554 238.113,33.979 237.785,34.238 237.428,34.521 236.921,34.923 236.744,35.064 236.190,35.608 236.059,36.197 236.042,36.292 235.922,36.977 235.803,37.661 235.683,38.346 235.817,39.031 236.059,39.540 236.160,39.715 236.401,40.400 236.618,41.084 236.744,41.378 236.883,41.769 237.269,42.454 237.428,42.677 238.038,43.138 238.113,43.247 238.687,43.823 238.797,44.024 239.063,44.507 239.439,45.192 239.482,45.262 239.909,45.877 240.167,46.203 240.449,46.561 240.851,47.070 241.017,47.246 241.536,47.860 241.691,47.930 242.220,48.079 242.905,48.124 243.590,48.181 244.274,48.239 244.959,48.324 245.643,48.445 246.328,48.591 246.441,48.615 247.013,48.738 247.697,48.884 248.382,49.031 249.066,49.010 249.751,48.905 250.436,48.809 251.120,48.712 251.805,48.615 251.806,48.615 252.489,48.493 253.174,48.061 253.380,47.930 253.859,47.627 254.460,47.246 254.543,47.193 255.228,46.819 255.635,46.561 255.912,46.349 256.428,45.877 256.597,45.723 257.178,45.192 257.281,45.097 257.927,44.507 257.966,44.472 258.571,43.823 258.651,43.724 259.101,43.138 259.335,42.826 259.614,42.454 260.020,41.890 260.107,41.769 260.600,41.084 260.704,40.923 260.999,40.400 261.376,39.715 261.389,39.689 261.725,39.031 262.007,38.346 262.074,38.184 262.289,37.661 262.564,36.977 262.758,36.460 262.819,36.292 263.047,35.608 263.155,34.923 263.264,34.238 263.379,33.554 263.443,33.188 263.502,32.869 263.657,32.185 "/>
</g>
<g id="ID000019" clip-path="url(#ID000001)" >
      <polyline fill="none" fill-opacity="1.00" stroke="#fee2bc" stroke-width="0.5pt" stroke-opacity="1.00" stroke-dasharray="none" points="239.337,32.185 239.119,32.869 238.797,33.257 238.354,33.554 238.113,33.715 237.452,34.238 237.428,34.257 236.744,34.800 236.588,34.923 236.059,35.441 235.951,35.608 235.831,36.292 235.711,36.977 235.591,37.661 235.471,38.346 235.374,38.880 235.274,39.031 235.334,39.715 235.374,39.899 235.471,40.400 235.649,41.084 235.808,41.769 235.965,42.454 235.994,43.138 236.059,43.737 236.072,43.823 236.413,44.507 236.744,45.170 236.754,45.192 237.095,45.877 237.428,46.545 237.437,46.561 237.805,47.246 238.113,47.702 238.277,47.930 238.772,48.615 238.797,48.651 239.265,49.300 239.482,49.601 239.845,49.984 240.167,50.222 240.805,50.669 240.851,50.703 241.536,51.180 241.783,51.353 242.220,51.711 242.905,51.993 243.137,52.038 243.590,52.117 244.274,52.210 244.959,52.321 245.643,52.415 246.328,52.548 247.013,52.690 247.697,52.718 247.806,52.723 248.382,52.745 249.066,52.772 249.751,52.798 250.436,52.824 251.120,52.734 251.184,52.723 251.805,52.608 252.489,52.494 253.174,52.381 253.859,52.268 254.543,52.149 254.777,52.038 255.228,51.781 255.912,51.392 255.980,51.353 256.597,51.002 257.238,50.669 257.281,50.645 257.966,50.256 258.280,49.984 258.651,49.683 259.125,49.300 259.335,49.132 259.986,48.615 260.020,48.588 260.704,48.031 260.800,47.930 261.366,47.246 261.389,47.217 261.931,46.561 262.074,46.387 262.491,45.877 262.758,45.548 263.036,45.192 263.443,44.592 263.494,44.507 263.908,43.823 264.127,43.459 264.321,43.138 264.713,42.454 264.812,42.268 265.080,41.769 265.412,41.084 265.497,40.896 265.713,40.400 266.012,39.715 266.181,39.289 266.284,39.031 266.497,38.346 266.710,37.661 266.866,37.158 266.921,36.977 267.116,36.292 267.295,35.608 267.384,34.923 267.477,34.238 267.550,33.659 267.564,33.554 267.687,32.869 267.806,32.185 "/>
</g>
<g id="ID000020" clip-path="url(#ID000001)" >
      <polyline fill="none" fill-opacity="1.00" stroke="#fde9cf" stroke-width="0.5pt" stroke-opacity="1.00" stroke-dasharray="none" points="239.141,32.185 238.898,32.869 238.797,32.991 238.113,33.451 237.983,33.554 237.428,33.993 237.119,34.238 236.744,34.536 236.255,34.923 236.059,35.115 235.739,35.608 235.619,36.292 235.499,36.977 235.379,37.661 235.374,37.691 234.959,38.346 234.690,38.746 234.496,39.031 234.247,39.715 234.005,40.381 233.998,40.400 234.005,40.500 234.086,41.084 234.245,41.769 234.334,42.454 234.350,43.138 234.366,43.823 234.381,44.507 234.439,45.192 234.690,45.854 234.701,45.877 234.980,46.561 235.252,47.246 235.374,47.555 235.523,47.930 235.795,48.615 236.059,49.095 236.196,49.300 236.660,49.984 236.744,50.162 236.990,50.669 237.300,51.353 237.428,51.637 237.680,52.038 238.113,52.438 238.460,52.723 238.797,52.999 239.294,53.407 239.482,53.566 240.144,54.092 240.167,54.116 240.851,54.705 240.950,54.776 241.536,55.334 241.669,55.461 242.220,55.960 242.514,56.146 242.905,56.366 243.590,56.753 243.727,56.830 244.274,57.156 244.879,57.515 244.959,57.570 245.643,57.690 246.328,57.760 247.013,57.829 247.697,57.899 248.382,57.969 249.066,58.014 249.751,58.056 250.436,58.121 251.120,58.185 251.269,58.199 251.805,58.250 252.489,58.311 253.174,58.329 253.859,58.341 254.451,58.199 254.543,58.173 255.228,57.970 255.912,57.768 256.597,57.565 256.764,57.515 257.281,57.371 257.966,57.061 258.355,56.830 258.651,56.671 259.335,56.301 259.623,56.146 260.020,55.931 260.704,55.562 260.848,55.461 261.389,55.021 261.666,54.776 262.074,54.416 262.440,54.092 262.758,53.812 263.218,53.407 263.443,53.228 263.955,52.723 264.127,52.525 264.539,52.038 264.812,51.715 265.139,51.353 265.497,50.925 265.726,50.669 266.181,50.137 266.295,49.984 266.747,49.300 266.866,49.102 267.180,48.615 267.550,48.036 267.618,47.930 268.067,47.246 268.235,46.972 268.475,46.561 268.815,45.877 268.920,45.633 269.121,45.192 269.444,44.507 269.604,44.148 269.759,43.823 270.076,43.138 270.289,42.634 270.364,42.454 270.591,41.769 270.824,41.084 270.974,40.643 271.056,40.400 271.288,39.715 271.498,39.031 271.658,38.352 271.659,38.346 271.816,37.661 271.965,36.977 272.113,36.292 272.250,35.608 272.322,34.923 272.343,34.725 272.393,34.238 272.465,33.554 272.537,32.869 272.625,32.185 "/>
</g>
<g id="ID000021" clip-path="url(#ID000001)" >
      <polyline fill="none" fill-opacity="1.00" stroke="#fcf0e3" stroke-width="0.5pt" stroke-opacity="1.00" stroke-dasharray="none" points="238.946,32.185 238.797,32.584 238.585,32.869 238.113,33.187 237.650,33.554 237.428,33.729 236.786,34.238 236.744,34.272 236.059,34.815 235.922,34.923 235.527,35.608 235.408,36.292 235.374,36.483 235.167,36.977 234.778,37.661 234.690,37.787 234.047,38.346 234.005,38.417 233.718,39.031 233.469,39.715 233.321,40.123 233.220,40.400 232.971,41.084 232.683,41.769 232.636,42.077 232.558,42.454 232.467,43.138 232.389,43.823 232.310,44.507 232.232,45.192 232.223,45.877 232.232,46.561 232.249,47.246 232.384,47.930 232.636,48.513 232.680,48.615 232.944,49.300 233.105,49.984 233.265,50.669 233.321,50.905 233.438,51.353 233.713,52.038 234.005,52.625 234.054,52.723 234.327,53.407 234.585,54.092 234.690,54.368 234.854,54.776 235.273,55.461 235.374,55.582 235.846,56.146 236.059,56.464 236.318,56.830 236.688,57.515 236.744,57.616 237.098,58.199 237.428,58.675 237.573,58.884 238.049,59.569 238.113,59.665 238.505,60.253 238.797,60.698 239.009,60.938 239.482,61.369 239.757,61.622 240.167,61.996 240.482,62.307 240.851,62.650 241.329,62.992 241.536,63.111 242.220,63.356 242.905,63.578 243.200,63.676 243.590,63.843 244.274,64.154 244.587,64.361 244.959,64.636 245.457,65.045 245.643,65.198 246.291,65.730 246.328,65.756 247.013,65.889 247.697,65.893 248.382,65.861 248.886,65.730 249.066,65.673 249.751,65.600 250.266,65.730 250.436,65.773 251.120,65.979 251.805,66.267 252.129,66.415 252.489,66.579 253.174,66.608 253.859,66.496 254.355,66.415 254.543,66.385 255.228,66.292 255.912,66.199 256.597,66.110 257.281,66.037 257.966,65.967 258.651,65.864 259.001,65.730 259.335,65.585 260.020,65.289 260.583,65.045 260.704,64.993 261.389,64.697 262.074,64.384 262.110,64.361 262.758,63.940 263.166,63.676 263.443,63.504 264.127,63.077 264.265,62.992 264.812,62.651 265.265,62.307 265.497,62.105 266.001,61.622 266.181,61.450 266.716,60.938 266.866,60.802 267.472,60.253 267.550,60.187 268.155,59.569 268.235,59.474 268.710,58.884 268.920,58.623 269.260,58.199 269.604,57.772 269.818,57.515 270.289,56.935 270.365,56.830 270.796,56.146 270.974,55.860 271.235,55.461 271.646,54.776 271.658,54.757 272.085,54.092 272.343,53.671 272.498,53.407 272.840,52.723 273.027,52.333 273.177,52.038 273.499,51.353 273.712,50.911 273.831,50.669 274.158,49.984 274.397,49.478 274.472,49.300 274.722,48.615 274.971,47.930 275.081,47.629 275.221,47.246 275.470,46.561 275.704,45.877 275.766,45.688 275.925,45.192 276.127,44.507 276.308,43.823 276.450,43.282 276.488,43.138 276.652,42.454 276.798,41.769 276.945,41.084 277.091,40.400 277.135,40.196 277.233,39.715 277.343,39.031 277.438,38.346 277.532,37.661 277.640,36.977 277.748,36.292 277.820,35.801 277.848,35.608 277.901,34.923 277.955,34.238 278.009,33.554 278.065,32.869 278.121,32.185 "/>
</g>
<g id="ID000022" clip-path="url(#ID000001)" >
      <polyline fill="none" fill-opacity="1.00" stroke="#faf5f1" stroke-width="0.5pt" stroke-opacity="1.00" stroke-dasharray="none" points="238.728,32.185 238.193,32.869 238.113,32.923 237.428,33.461 237.317,33.554 236.744,34.008 236.453,34.238 236.059,34.551 235.589,34.923 235.374,35.403 235.270,35.608 235.009,36.292 234.690,36.925 234.630,36.977 234.005,37.521 233.844,37.661 233.321,38.179 233.188,38.346 232.939,39.031 232.691,39.715 232.636,39.866 232.312,40.400 231.951,40.845 231.701,41.084 231.267,41.678 231.208,41.769 230.900,42.454 230.592,43.138 230.582,43.159 230.283,43.823 229.999,44.507 229.898,44.842 229.747,45.192 229.599,45.877 229.499,46.561 229.399,47.246 229.299,47.930 229.218,48.615 229.213,48.700 229.176,49.300 229.133,49.984 229.091,50.669 229.075,51.353 229.164,52.038 229.213,52.370 229.261,52.723 229.335,53.407 229.381,54.092 229.436,54.776 229.472,55.461 229.524,56.146 229.624,56.830 229.773,57.515 229.898,58.045 229.934,58.199 230.095,58.884 230.252,59.569 230.410,60.253 230.568,60.938 230.582,60.982 230.831,61.622 231.124,62.307 231.267,62.671 231.393,62.992 231.661,63.676 231.930,64.361 231.951,64.414 232.238,65.045 232.619,65.730 232.636,65.762 232.990,66.415 233.321,67.024 233.362,67.099 233.733,67.784 234.005,68.261 234.151,68.468 234.662,69.153 234.690,69.189 235.167,69.838 235.374,70.119 235.671,70.522 236.059,71.050 236.206,71.207 236.744,71.685 236.975,71.891 237.428,72.283 237.768,72.576 238.113,72.874 238.585,73.261 238.797,73.426 239.482,73.922 239.514,73.945 240.152,74.630 240.167,74.649 240.700,75.314 240.851,75.497 241.274,75.999 241.536,76.310 241.851,76.684 242.220,77.106 242.506,77.368 242.905,77.590 243.590,77.813 244.231,78.053 244.274,78.068 244.959,78.306 245.643,78.544 246.098,78.737 246.328,78.848 247.013,79.133 247.697,79.410 247.720,79.422 248.382,79.693 249.066,79.924 249.443,80.107 249.751,80.264 250.436,80.349 251.120,80.399 251.805,80.450 252.489,80.500 253.174,80.551 253.859,80.602 254.543,80.737 255.228,80.567 255.912,80.380 256.597,80.282 257.281,80.185 257.829,80.107 257.966,80.087 258.651,79.999 259.335,79.917 260.020,79.823 260.704,79.723 261.389,79.623 262.074,79.524 262.758,79.426 262.772,79.422 263.443,79.219 264.127,78.902 264.485,78.737 264.812,78.581 265.497,78.253 265.916,78.053 266.181,77.914 266.866,77.474 267.030,77.368 267.550,77.026 268.082,76.684 268.235,76.585 268.920,76.144 269.109,75.999 269.604,75.559 269.847,75.314 270.289,74.890 270.560,74.630 270.974,74.290 271.393,73.945 271.658,73.727 272.112,73.261 272.343,72.979 272.659,72.576 273.027,72.106 273.196,71.891 273.712,71.233 273.733,71.207 274.369,70.522 274.397,70.487 274.795,69.838 275.081,69.372 275.216,69.153 275.636,68.468 275.766,68.258 276.057,67.784 276.450,67.208 276.514,67.099 276.862,66.415 277.135,65.842 277.188,65.730 277.515,65.045 277.820,64.406 277.841,64.361 278.189,63.676 278.504,63.048 278.528,62.992 278.777,62.307 279.026,61.622 279.189,61.176 279.275,60.938 279.532,60.253 279.799,59.569 279.873,59.379 280.054,58.884 280.267,58.199 280.449,57.515 280.558,57.110 280.633,56.830 280.823,56.146 281.012,55.461 281.202,54.776 281.242,54.629 281.383,54.092 281.538,53.407 281.678,52.723 281.813,52.038 281.927,51.528 281.967,51.353 282.120,50.669 282.274,49.984 282.421,49.300 282.564,48.615 282.612,48.318 282.669,47.930 282.771,47.246 282.873,46.561 282.967,45.877 283.057,45.192 283.147,44.507 283.237,43.823 283.296,43.367 283.325,43.138 283.407,42.454 283.474,41.769 283.544,41.084 283.616,40.400 283.687,39.715 283.751,39.031 283.800,38.346 283.848,37.661 283.896,36.977 283.936,36.292 283.969,35.608 283.981,35.157 283.987,34.923 284.014,34.238 284.047,33.554 284.080,32.869 284.113,32.185 "/>
</g>
<g id="ID000023" clip-path="url(#ID000001)" >
      <polyline fill="none" fill-opacity="1.00" stroke="#faf5f1" stroke-width="0.5pt" stroke-opacity="1.00" stroke-dasharray="none" points="341.401,32.185 341.487,32.293 342.066,32.869 342.172,32.952 342.856,33.360 343.053,33.554 343.541,33.763 344.020,34.238 344.226,34.369 344.782,34.923 344.910,35.251 345.271,35.608 345.595,35.883 346.009,36.292 346.279,36.527 346.782,36.977 346.964,37.135 347.568,37.661 347.649,37.817 348.108,38.346 348.333,38.561 348.824,39.031 349.018,39.217 349.539,39.715 349.702,39.872 350.254,40.400 350.387,40.558 350.847,41.084 351.072,41.426 351.398,41.769 351.756,42.146 352.048,42.454 352.441,42.867 352.699,43.138 353.125,43.587 353.350,43.823 353.770,44.507 353.810,44.576 354.343,45.192 354.495,45.367 354.936,45.877 355.179,46.157 355.529,46.561 355.864,46.948 356.122,47.246 356.501,47.930 356.549,48.012 357.024,48.615 357.233,48.880 357.564,49.300 357.918,49.749 358.103,49.984 358.602,50.617 358.644,50.669 359.043,51.353 359.287,51.773 359.477,52.038 359.967,52.723 359.971,52.729 360.457,53.407 360.656,53.685 360.947,54.092 361.341,54.745 361.361,54.776 361.730,55.461 362.025,55.917 362.174,56.146 362.617,56.830 362.710,56.973 363.061,57.515 363.394,58.030 363.504,58.199 363.826,58.884 364.079,59.354 364.204,59.569 364.603,60.253 364.764,60.528 365.003,60.938 365.402,61.622 365.448,61.711 365.764,62.307 366.076,62.992 366.133,63.103 366.432,63.676 366.789,64.361 366.818,64.415 367.147,65.045 367.502,65.726 367.506,65.730 367.826,66.415 368.115,67.099 368.187,67.254 368.508,67.784 368.749,68.468 368.871,68.733 369.223,69.153 369.383,69.838 369.556,70.279 369.907,70.522 370.105,71.207 370.219,71.891 370.240,71.945 370.747,71.891 370.919,71.207 370.925,71.114 370.967,70.522 371.005,69.838 371.043,69.153 371.080,68.468 371.114,67.784 371.146,67.099 371.176,66.415 371.200,65.730 371.225,65.045 371.253,64.361 371.281,63.676 371.312,62.992 371.337,62.307 371.359,61.622 371.381,60.938 371.400,60.253 371.419,59.569 371.438,58.884 371.451,58.199 371.463,57.515 371.476,56.830 371.492,56.146 371.509,55.461 371.527,54.776 371.539,54.092 371.549,53.407 371.560,52.723 371.570,52.038 371.579,51.353 371.589,50.669 371.592,49.984 371.598,49.300 371.606,48.615 371.610,48.334 371.614,47.930 371.622,47.246 371.631,46.561 371.635,45.877 371.638,45.192 371.642,44.507 371.647,43.823 371.653,43.138 371.657,42.454 371.660,41.769 371.663,41.084 371.665,40.400 371.668,39.715 371.670,39.031 371.671,38.346 371.673,37.661 371.675,36.977 371.677,36.292 371.678,35.608 371.679,34.923 371.679,34.238 371.679,33.554 371.680,32.869 371.680,32.185 "/>
</g>
<g id="ID000024" clip-path="url(#ID000001)" >
      <polyline fill="none" fill-opacity="1.00" stroke="#f6f7f7" stroke-width="0.5pt" stroke-opacity="1.00" stroke-dasharray="none" points="128.118,32.185 128.119,32.869 128.119,33.554 128.119,34.238 128.120,34.923 128.120,35.608 128.121,36.292 128.122,36.977 128.123,37.661 128.124,38.346 128.125,39.031 128.127,39.715 128.130,40.400 128.132,41.084 128.134,41.769 128.136,42.454 128.139,43.138 128.142,43.823 128.145,44.507 128.149,45.192 128.154,45.877 128.159,46.561 128.163,47.246 128.167,47.930 128.171,48.615 128.176,49.300 128.183,49.984 128.190,50.669 128.196,51.353 128.201,52.038 128.206,52.723 128.212,53.407 128.221,54.092 128.229,54.776 128.238,55.461 128.244,56.146 128.251,56.830 128.257,57.515 128.267,58.199 128.277,58.884 128.288,59.569 128.297,60.253 128.305,60.938 128.313,61.622 128.323,62.307 128.335,62.992 128.348,63.676 128.360,64.361 128.370,65.045 128.379,65.730 128.389,66.415 128.403,67.099 128.418,67.784 128.432,68.468 128.446,69.153 128.457,69.838 128.467,70.522 128.482,71.207 128.499,71.891 128.516,72.576 128.532,73.261 128.546,73.945 128.558,74.630 128.573,75.314 128.577,75.454 128.592,75.999 128.611,76.684 128.630,77.368 128.649,78.053 128.662,78.737 128.676,79.422 128.698,80.107 128.719,80.791 128.741,81.476 128.762,82.160 128.781,82.845 128.796,83.530 128.817,84.214 128.841,84.899 128.865,85.583 128.889,86.268 128.913,86.953 128.932,87.637 128.952,88.322 128.979,89.006 129.005,89.691 129.032,90.376 129.059,91.060 129.084,91.745 129.104,92.429 129.132,93.114 129.162,93.799 129.191,94.483 129.221,95.168 129.251,95.852 129.261,96.152 129.275,96.537 129.304,97.222 129.336,97.906 129.369,98.591 129.401,99.275 129.434,99.960 129.466,100.645 129.495,101.329 129.530,102.014 129.566,102.698 129.602,103.383 129.637,104.068 129.673,104.752 129.709,105.437 129.746,106.121 129.785,106.806 129.823,107.491 129.862,108.175 129.901,108.860 129.939,109.544 129.946,109.646 129.985,110.229 130.026,110.914 130.068,111.598 130.110,112.283 130.152,112.967 130.194,113.652 130.245,114.337 130.293,115.021 130.339,115.706 130.384,116.390 130.429,117.075 130.474,117.760 130.526,118.444 130.588,119.129 130.631,119.724 130.637,119.813 130.685,120.498 130.734,121.183 130.782,121.867 130.835,122.552 130.902,123.236 130.965,123.921 131.018,124.606 131.070,125.290 131.121,125.975 131.176,126.659 131.246,127.344 131.315,128.001 131.318,128.029 131.383,128.713 131.439,129.398 131.494,130.082 131.552,130.767 131.624,131.452 131.701,132.136 131.777,132.821 131.845,133.505 131.903,134.190 131.962,134.875 132.000,135.209 132.040,135.559 132.121,136.244 132.202,136.928 132.282,137.613 132.353,138.298 132.415,138.982 132.496,139.667 132.581,140.351 132.667,141.036 132.684,141.178 132.752,141.721 132.838,142.405 132.913,143.090 132.996,143.774 133.086,144.459 133.176,145.144 133.266,145.828 133.356,146.513 133.369,146.611 133.447,147.197 133.544,147.882 133.639,148.567 133.733,149.251 133.828,149.936 133.922,150.620 134.017,151.305 134.054,151.523 134.133,151.990 134.245,152.674 134.344,153.359 134.443,154.043 134.542,154.728 134.642,155.413 134.738,155.948 134.766,156.097 134.893,156.782 135.013,157.466 135.118,158.151 135.221,158.836 135.327,159.520 135.423,160.023 135.458,160.205 135.591,160.889 135.723,161.574 135.852,162.259 135.964,162.943 136.078,163.628 136.107,163.774 136.216,164.312 136.354,164.997 136.492,165.682 136.630,166.366 136.768,167.051 136.792,167.178 136.903,167.735 137.046,168.420 137.190,169.105 137.334,169.789 137.477,170.469 137.477,170.474 137.622,171.158 137.788,171.843 137.958,172.528 138.108,173.212 138.161,173.456 138.257,173.897 138.406,174.581 138.560,175.266 138.738,175.951 138.846,176.354 138.921,176.635 139.103,177.320 139.269,178.004 139.423,178.689 139.530,179.131 139.591,179.374 139.779,180.058 139.967,180.743 140.155,181.427 140.215,181.644 140.344,182.112 140.532,182.797 140.727,183.481 140.900,184.086 140.922,184.166 141.118,184.850 141.313,185.535 141.509,186.220 141.584,186.469 141.718,186.904 141.950,187.589 142.179,188.273 142.269,188.572 142.386,188.958 142.587,189.643 142.790,190.327 142.953,190.807 143.024,191.012 143.262,191.696 143.500,192.381 143.638,192.777 143.738,193.066 143.974,193.750 144.214,194.435 144.323,194.737 144.461,195.119 144.709,195.804 144.957,196.489 145.007,196.628 145.205,197.173 145.465,197.858 145.692,198.401 145.751,198.542 146.037,199.227 146.312,199.912 146.376,200.085 146.566,200.596 146.828,201.281 147.061,201.833 147.118,201.965 147.410,202.650 147.703,203.335 147.746,203.434 148.001,204.019 148.303,204.704 148.430,204.966 148.639,205.388 148.959,206.073 149.115,206.421 149.265,206.758 149.571,207.442 149.799,207.952 149.879,208.127 150.222,208.811 150.484,209.331 150.567,209.496 150.913,210.181 151.169,210.687 151.261,210.865 151.619,211.550 151.853,211.981 151.997,212.234 152.364,212.919 152.538,213.247 152.727,213.604 153.090,214.288 153.222,214.537 153.461,214.973 153.864,215.657 153.907,215.730 154.268,216.342 154.591,216.891 154.673,217.027 155.084,217.711 155.276,218.022 155.517,218.396 155.961,219.068 155.969,219.080 156.396,219.765 156.645,220.165 156.823,220.450 157.250,221.134 157.330,221.256 157.709,221.819 158.015,222.266 158.179,222.503 158.652,223.188 158.699,223.256 159.139,223.873 159.384,224.212 159.639,224.557 160.068,225.112 160.169,225.242 160.698,225.926 160.753,226.000 161.221,226.611 161.438,226.905 161.733,227.296 162.122,227.799 162.273,227.980 162.807,228.622 162.842,228.665 163.411,229.349 163.491,229.446 163.980,230.034 164.176,230.264 164.572,230.719 164.861,231.043 165.181,231.403 165.545,231.812 165.803,232.088 166.230,232.545 166.446,232.772 166.914,233.257 167.112,233.457 167.599,233.942 167.800,234.142 168.284,234.623 168.488,234.826 168.968,235.304 169.184,235.511 169.653,235.952 169.925,236.195 170.337,236.566 170.696,236.880 171.022,237.177 171.466,237.565 171.707,237.782 172.222,238.249 172.391,238.400 173.016,238.934 173.076,238.984 173.760,239.525 173.879,239.618 174.445,240.065 174.746,240.303 175.130,240.606 175.615,240.988 175.814,241.141 176.499,241.660 176.517,241.672 177.183,242.128 177.518,242.357 177.868,242.596 178.518,243.041 178.553,243.065 179.237,243.528 179.533,243.726 179.922,243.985 180.606,244.397 180.629,244.411 181.291,244.799 181.794,245.095 181.976,245.202 182.660,245.602 182.966,245.780 183.345,245.999 184.029,246.363 184.233,246.464 184.714,246.704 185.399,247.044 185.609,247.149 186.083,247.385 186.768,247.725 187.000,247.834 187.452,248.044 188.137,248.328 188.598,248.518 188.822,248.611 189.506,248.894 190.191,249.178 190.252,249.203 190.875,249.461 191.560,249.693 192.121,249.887 192.245,249.931 192.929,250.171 193.614,250.412 194.069,250.572 194.298,250.653 194.983,250.843 195.668,251.030 196.352,251.221 196.481,251.257 197.037,251.411 197.721,251.602 198.406,251.753 199.091,251.882 199.403,251.941 199.775,252.011 200.460,252.142 201.144,252.276 201.829,252.417 202.514,252.503 203.198,252.585 203.499,252.626 203.883,252.677 204.567,252.769 205.252,252.861 205.937,252.912 206.621,252.947 207.306,252.982 207.990,253.022 208.675,253.065 209.360,253.065 210.044,253.064 210.729,253.070 211.413,253.080 212.098,253.087 212.782,253.048 213.467,253.009 214.152,252.970 214.836,252.930 215.521,252.883 216.206,252.797 216.890,252.710 217.554,252.626 217.575,252.623 218.259,252.537 218.944,252.431 219.629,252.303 220.313,252.178 220.998,252.058 221.681,251.941 221.682,251.941 222.367,251.787 223.052,251.621 223.736,251.457 224.421,251.293 224.569,251.257 225.105,251.122 225.790,250.904 226.475,250.685 226.830,250.572 227.159,250.471 227.844,250.264 228.528,250.029 228.919,249.887 229.213,249.781 229.898,249.536 230.582,249.290 230.819,249.203 231.267,249.035 231.951,248.729 232.422,248.518 232.636,248.422 233.321,248.116 233.966,247.834 234.005,247.817 234.690,247.489 235.374,247.155 235.387,247.149 236.059,246.822 236.744,246.488 236.787,246.464 237.428,246.107 237.991,245.780 238.113,245.709 238.797,245.314 239.182,245.095 239.482,244.934 240.167,244.525 240.350,244.411 240.851,244.099 241.449,243.726 241.536,243.672 242.220,243.230 242.483,243.041 242.905,242.736 243.428,242.357 243.590,242.248 244.274,241.787 244.445,241.672 244.959,241.315 245.376,240.988 245.643,240.778 246.250,240.303 246.328,240.242 247.013,239.707 247.126,239.618 247.697,239.161 247.948,238.934 248.382,238.568 248.760,238.249 249.066,237.991 249.572,237.565 249.751,237.413 250.380,236.880 250.436,236.830 251.068,236.195 251.120,236.144 251.769,235.511 251.805,235.478 252.489,234.851 252.516,234.826 253.174,234.213 253.242,234.142 253.859,233.469 253.870,233.457 254.497,232.772 254.543,232.724 255.149,232.088 255.228,232.009 255.813,231.403 255.912,231.295 256.399,230.719 256.597,230.484 256.977,230.034 257.281,229.674 257.556,229.349 257.966,228.886 258.150,228.665 258.651,228.051 258.706,227.980 259.238,227.296 259.335,227.170 259.770,226.611 260.020,226.290 260.304,225.926 260.704,225.420 260.832,225.242 261.319,224.557 261.389,224.458 261.808,223.873 262.074,223.500 262.299,223.188 262.758,222.540 262.783,222.503 263.251,221.819 263.443,221.525 263.701,221.134 264.127,220.475 264.144,220.450 264.590,219.765 264.812,219.431 265.036,219.080 265.463,218.396 265.497,218.339 265.869,217.711 266.181,217.184 266.276,217.027 266.680,216.342 266.866,216.038 267.090,215.657 267.490,214.973 267.550,214.864 267.866,214.288 268.235,213.616 268.242,213.604 268.617,212.919 268.920,212.377 268.997,212.234 269.365,211.550 269.604,211.092 269.716,210.865 270.053,210.181 270.289,209.701 270.390,209.496 270.729,208.811 270.974,208.319 271.069,208.127 271.401,207.442 271.658,206.886 271.713,206.758 272.012,206.073 272.322,205.388 272.343,205.342 272.631,204.704 272.946,204.019 273.027,203.836 273.242,203.335 273.541,202.650 273.712,202.262 273.841,201.965 274.141,201.281 274.397,200.624 274.406,200.596 274.648,199.912 274.897,199.227 275.081,198.710 275.142,198.542 275.415,197.858 275.688,197.173 275.766,196.981 275.964,196.489 276.247,195.804 276.450,195.321 276.527,195.119 276.763,194.435 276.985,193.750 277.135,193.289 277.207,193.066 277.430,192.381 277.659,191.696 277.820,191.218 277.889,191.012 278.119,190.327 278.350,189.643 278.504,189.184 278.572,188.958 278.761,188.273 278.953,187.589 279.162,186.904 279.189,186.815 279.370,186.220 279.578,185.535 279.637,184.850 279.460,184.166 279.284,183.481 279.189,183.113 279.107,182.797 278.919,182.112 278.699,181.427 278.603,180.743 278.569,180.058 278.536,179.374 278.504,178.712 278.503,178.689 278.474,178.004 278.439,177.320 278.392,176.635 278.335,175.951 278.277,175.266 278.219,174.581 278.161,173.897 278.103,173.212 278.045,172.528 277.984,171.843 277.915,171.158 277.842,170.474 277.820,170.266 277.768,169.789 277.694,169.105 277.619,168.420 277.545,167.735 277.464,167.051 277.381,166.366 277.298,165.682 277.214,164.997 277.135,164.345 277.131,164.312 277.048,163.628 276.958,162.943 276.840,162.259 276.717,161.574 276.594,160.889 276.471,160.205 276.450,160.148 276.261,159.520 276.121,158.836 276.077,158.151 276.034,157.466 275.989,156.782 275.893,156.097 275.793,155.413 275.766,155.327 275.504,154.728 275.176,154.043 275.081,153.580 275.037,153.359 275.081,153.115 275.161,152.674 275.281,151.990 275.351,151.305 275.355,150.620 275.147,149.936 275.081,149.735 274.581,149.251 274.397,149.132 273.712,148.744 273.398,148.567 273.153,147.882 273.172,147.197 273.192,146.513 273.149,145.828 273.027,145.339 272.979,145.144 272.809,144.459 272.343,143.866 272.182,143.774 271.658,143.508 270.974,143.121 270.941,143.090 270.289,142.452 270.241,142.405 269.604,141.784 269.545,141.721 269.008,141.036 268.920,140.922 268.480,140.351 268.235,140.034 267.952,139.667 267.550,139.141 267.445,138.982 266.866,138.361 266.793,138.298 266.181,137.899 265.743,137.613 265.497,137.452 264.812,137.005 264.712,136.928 264.127,136.461 263.895,136.244 263.443,135.579 263.432,135.559 263.146,134.875 262.864,134.190 262.758,133.923 262.593,133.505 262.327,132.821 262.074,132.339 261.957,132.136 261.526,131.452 261.389,131.229 261.104,130.767 260.704,130.118 260.682,130.082 260.072,129.398 260.020,129.336 259.509,128.713 259.335,128.500 258.933,128.029 258.651,127.680 258.363,127.344 257.966,126.878 257.579,126.659 257.281,126.570 256.597,126.342 255.912,126.076 255.678,125.975 255.228,125.846 254.543,125.650 254.009,125.290 253.859,125.114 253.174,124.734 252.868,124.606 252.489,124.447 251.805,124.090 251.276,123.921 251.120,123.855 250.506,123.236 250.436,123.194 249.984,122.552 249.751,122.220 249.503,121.867 249.066,121.296 248.964,121.183 248.382,120.585 248.297,120.498 247.697,119.883 247.630,119.813 247.252,119.129 247.013,118.677 246.763,118.444 246.328,118.226 245.643,117.866 245.501,117.760 244.959,117.355 244.585,117.075 244.274,116.839 243.918,116.390 243.590,115.942 243.388,115.706 242.905,115.287 242.597,115.021 242.220,114.695 241.806,114.337 241.536,114.090 241.223,113.652 240.983,112.967 240.851,112.686 240.666,112.283 240.337,111.598 240.167,111.319 239.872,110.914 239.482,110.498 238.797,110.253 238.727,110.229 238.113,110.014 237.428,109.750 237.097,109.544 236.744,109.184 236.547,108.860 236.133,108.175 236.059,108.052 235.720,107.491 235.374,106.846 235.349,106.806 234.822,106.121 234.690,105.985 234.108,105.437 234.005,105.328 233.500,104.752 233.321,104.515 233.015,104.068 232.662,103.383 232.636,103.324 232.359,102.698 231.951,102.352 231.522,102.014 231.267,101.812 230.881,101.329 230.582,100.881 230.451,100.645 230.124,99.960 229.898,99.409 229.839,99.275 229.583,98.591 229.213,98.036 229.119,97.906 228.632,97.222 228.528,97.072 228.187,96.537 227.844,95.923 227.807,95.852 227.533,95.168 227.262,94.483 227.159,94.219 226.995,93.799 226.705,93.114 226.475,92.637 226.378,92.429 226.068,91.745 225.790,91.109 225.770,91.060 225.515,90.376 225.290,89.691 225.105,89.195 225.037,89.006 224.772,88.322 224.516,87.637 224.421,87.355 224.285,86.953 224.054,86.268 223.833,85.583 223.736,85.272 223.630,84.899 223.468,84.214 223.283,83.530 223.083,82.845 223.052,82.737 222.884,82.160 222.718,81.476 222.577,80.791 222.437,80.107 222.367,79.764 222.299,79.422 222.158,78.737 222.052,78.053 221.941,77.368 221.830,76.684 221.719,75.999 221.682,75.720 221.629,75.314 221.588,74.630 221.546,73.945 221.505,73.261 221.410,72.576 221.334,71.891 221.304,71.207 221.277,70.522 221.259,69.838 221.244,69.153 221.277,68.468 221.351,67.784 221.376,67.099 221.378,66.415 221.364,65.730 221.393,65.045 221.464,64.361 221.534,63.676 221.607,62.992 221.676,62.307 221.682,62.275 221.794,61.622 221.896,60.938 221.987,60.253 222.078,59.569 222.169,58.884 222.291,58.199 222.367,57.963 222.510,57.515 222.729,56.830 222.893,56.146 223.003,55.461 223.052,55.113 223.098,54.776 223.306,54.092 223.515,53.407 223.726,52.723 223.736,52.696 224.011,52.038 224.255,51.353 224.421,51.095 224.632,50.669 224.927,49.984 225.105,49.583 225.231,49.300 225.536,48.615 225.790,48.044 225.840,47.930 226.373,47.246 226.475,47.129 226.815,46.561 227.131,45.877 227.159,45.809 227.419,45.192 227.707,44.507 227.844,44.331 228.278,43.823 228.528,43.559 228.929,43.138 229.213,42.836 229.428,42.454 229.736,41.769 229.898,41.411 230.056,41.084 230.582,40.551 230.740,40.400 231.267,39.896 231.456,39.715 231.951,39.241 232.073,39.031 232.402,38.346 232.636,37.957 232.855,37.661 233.321,37.256 233.641,36.977 234.005,36.659 234.427,36.292 234.690,36.063 234.890,35.608 235.209,34.923 235.374,34.758 236.059,34.287 236.120,34.238 236.744,33.744 236.984,33.554 237.428,33.184 237.831,32.869 238.113,32.588 238.441,32.185 "/>
</g>
<g id="ID000025" clip-path="url(#ID000001)" >
      <polyline fill="none" fill-opacity="1.00" stroke="#f6f7f7" stroke-width="0.5pt" stroke-opacity="1.00" stroke-dasharray="none" points="290.375,32.185 290.385,32.869 290.389,33.554 290.391,34.238 290.391,34.923 290.390,35.608 290.390,36.292 290.390,36.977 290.392,37.661 290.397,38.346 290.408,39.031 290.429,39.715 290.442,40.400 290.451,41.084 290.450,41.769 290.450,42.454 290.450,43.138 290.450,43.823 290.449,44.507 290.460,45.192 290.476,45.877 290.507,46.561 290.533,47.246 290.553,47.930 290.556,48.615 290.556,49.300 290.555,49.984 290.555,50.669 290.554,51.353 290.565,52.038 290.589,52.723 290.627,53.407 290.666,54.092 290.700,54.776 290.718,55.461 290.717,56.146 290.717,56.830 290.717,57.515 290.716,58.199 290.720,58.884 290.761,59.569 290.809,60.253 290.827,60.515 290.857,60.938 290.903,61.622 290.945,62.307 290.953,62.992 290.958,63.676 290.957,64.361 290.961,65.045 290.971,65.730 291.019,66.415 291.077,67.099 291.133,67.784 291.183,68.468 291.233,69.153 291.270,69.838 291.306,70.522 291.304,71.207 291.306,71.891 291.344,72.576 291.397,73.261 291.457,73.945 291.512,74.565 291.517,74.630 291.553,75.314 291.587,75.999 291.620,76.684 291.653,77.368 291.691,78.053 291.716,78.737 291.829,79.422 291.928,80.107 292.027,80.791 292.125,81.476 292.164,82.160 292.122,82.845 292.079,83.530 292.036,84.214 292.014,84.899 292.002,85.583 292.160,86.268 292.196,86.367 292.401,86.953 292.584,87.637 292.796,88.322 292.881,88.856 292.903,89.006 293.235,89.691 293.565,90.316 293.593,90.376 293.936,91.060 294.250,91.652 294.293,91.745 294.608,92.429 294.915,93.114 294.935,93.139 295.188,93.799 295.414,94.483 295.619,94.894 295.726,95.168 295.968,95.852 296.105,96.537 296.134,97.222 296.122,97.906 296.021,98.591 295.920,99.275 295.853,99.960 296.072,100.645 296.290,101.329 296.304,101.369 296.666,102.014 296.988,102.384 297.263,102.698 297.673,103.170 297.858,103.383 298.358,103.987 298.421,104.068 298.887,104.752 299.042,105.023 299.255,105.437 299.607,106.121 299.727,106.354 299.960,106.806 300.316,107.491 300.411,107.674 301.096,107.932 301.781,107.741 302.299,107.491 302.465,107.389 303.150,106.877 303.245,106.806 303.834,106.366 304.313,106.121 304.519,106.067 304.582,106.121 304.884,106.806 305.204,107.447 305.223,107.491 305.532,108.175 305.888,108.479 306.573,108.810 306.690,108.860 307.257,109.092 307.942,109.373 308.296,109.544 308.627,109.720 309.311,110.067 309.967,110.229 309.996,110.237 310.680,110.319 311.365,110.540 312.050,110.802 312.345,110.914 312.734,111.048 313.419,111.263 314.103,111.479 314.788,111.546 315.473,111.497 316.157,111.444 316.842,111.373 317.526,111.289 318.211,110.943 318.265,110.914 318.895,110.576 319.580,110.475 320.265,110.518 320.949,110.732 321.382,110.914 321.634,111.019 322.318,111.127 323.003,110.965 323.103,110.914 323.688,110.613 324.372,110.260 324.435,110.229 325.057,109.926 325.741,109.634 326.062,109.544 326.426,109.473 327.111,109.321 327.795,109.036 328.219,108.860 328.480,108.742 329.164,108.350 329.426,108.175 329.849,107.893 330.338,107.491 330.534,107.340 331.098,106.806 331.218,106.676 331.705,106.121 331.903,105.894 332.301,105.437 332.588,105.108 332.951,104.752 333.272,104.530 333.957,104.266 334.471,104.068 334.641,104.002 335.326,103.755 336.011,103.602 336.695,103.476 336.820,103.383 337.380,102.836 337.519,102.698 338.064,102.335 338.617,102.014 338.749,101.937 339.433,101.540 339.715,101.329 340.118,101.033 340.519,100.645 340.803,100.325 341.115,99.960 341.487,99.413 341.594,99.275 341.999,98.591 342.172,98.298 342.418,97.906 342.856,97.336 342.951,97.222 343.513,96.537 343.541,96.507 344.090,95.852 344.226,95.726 344.770,95.168 344.910,94.997 345.306,94.483 345.595,94.103 345.844,93.799 346.279,93.221 346.366,93.114 346.897,92.429 346.964,92.340 347.386,91.745 347.649,91.420 347.961,91.060 348.333,90.590 348.517,90.376 349.018,89.728 349.046,89.691 349.376,89.006 349.601,88.322 349.702,87.982 349.788,87.637 349.959,86.953 350.318,86.268 350.387,86.160 350.753,85.583 351.072,85.107 351.207,84.899 351.705,84.214 351.756,84.105 352.014,83.530 352.305,82.845 352.441,82.524 352.595,82.160 352.886,81.476 353.125,80.872 353.157,80.791 353.423,80.107 353.689,79.422 353.810,79.100 353.932,78.737 354.120,78.053 354.292,77.368 354.483,76.684 354.495,76.643 354.683,75.999 354.883,75.314 355.056,74.630 355.179,74.131 355.223,73.945 355.373,73.261 355.500,72.576 355.603,71.891 355.665,71.207 355.734,70.522 355.855,69.838 355.864,69.788 355.977,69.153 356.076,68.468 356.144,67.784 356.196,67.099 356.237,66.415 356.262,65.730 356.240,65.045 356.199,64.361 356.184,63.676 356.203,62.992 356.226,62.307 356.214,61.622 356.163,60.938 356.111,60.253 356.050,59.569 355.989,58.884 355.864,58.224 355.860,58.199 355.736,57.515 355.654,56.830 355.572,56.146 355.490,55.461 355.384,54.776 355.185,54.092 355.179,54.074 354.985,53.407 354.785,52.723 354.643,52.038 354.547,51.353 354.495,51.131 354.385,50.669 354.102,49.984 353.844,49.300 353.810,49.222 353.542,48.615 353.240,47.930 353.125,47.785 352.758,47.246 352.441,46.658 352.400,46.561 352.112,45.877 351.824,45.192 351.756,45.030 351.534,44.507 351.072,43.975 350.927,43.823 350.387,43.255 350.314,43.138 349.950,42.454 349.702,41.866 349.662,41.769 349.341,41.084 349.018,40.760 348.642,40.400 348.333,40.104 347.927,39.715 347.649,39.449 347.407,39.031 347.090,38.346 346.964,38.138 346.612,37.661 346.279,37.372 345.826,36.977 345.595,36.775 345.040,36.292 344.910,36.179 344.628,35.608 344.337,34.923 344.226,34.812 343.541,34.318 343.441,34.238 342.856,33.775 342.578,33.554 342.172,33.216 341.728,32.869 341.487,32.629 341.130,32.185 "/>
</g>
<g id="ID000026" clip-path="url(#ID000001)" >
      <polyline fill="none" fill-opacity="1.00" stroke="#f0f2f5" stroke-width="0.5pt" stroke-opacity="1.00" stroke-dasharray="none" points="224.082,32.185 224.079,32.869 224.076,33.554 224.073,34.238 224.071,34.923 224.068,35.608 224.067,36.292 224.060,36.977 224.052,37.661 224.045,38.346 224.038,39.031 224.031,39.715 224.024,40.400 224.014,41.084 224.002,41.769 223.988,42.454 223.975,43.138 223.962,43.823 223.949,44.507 223.936,45.192 224.421,45.225 224.448,45.192 225.105,44.568 225.157,44.507 225.790,43.875 225.822,43.823 226.449,43.138 226.475,43.119 226.921,42.454 227.159,42.251 227.536,41.769 227.844,41.493 228.185,41.084 228.528,40.769 228.772,40.400 229.213,39.980 229.517,39.715 229.898,39.355 230.274,39.031 230.582,38.740 231.047,38.346 231.267,38.140 231.589,37.661 231.951,37.314 232.636,36.990 232.651,36.977 233.321,36.379 233.420,36.292 234.005,35.713 234.130,35.608 234.690,35.054 234.742,34.923 235.374,34.293 235.461,34.238 236.059,33.644 236.270,33.554 236.744,33.088 237.428,32.907 237.477,32.869 238.113,32.235 238.154,32.185 "/>
</g>
<g id="ID000027" clip-path="url(#ID000001)" >
      <polyline fill="none" fill-opacity="1.00" stroke="#f0f2f5" stroke-width="0.5pt" stroke-opacity="1.00" stroke-dasharray="none" points="296.610,32.185 296.643,32.869 296.677,33.554 296.710,34.238 296.745,34.923 296.780,35.608 296.842,36.292 296.911,36.977 296.959,37.661 296.988,38.084 297.007,38.346 297.054,39.031 297.118,39.715 297.189,40.400 297.267,41.084 297.352,41.769 297.446,42.454 297.551,43.138 297.668,43.823 297.673,43.850 297.785,44.507 297.901,45.192 298.000,45.877 298.109,46.561 298.239,47.246 298.358,47.817 298.382,47.930 298.527,48.615 298.672,49.300 298.819,49.984 298.971,50.669 299.042,50.985 299.125,51.353 299.295,52.038 299.495,52.723 299.709,53.407 299.727,53.464 299.922,54.092 300.135,54.776 300.348,55.461 300.411,55.665 300.562,56.146 300.803,56.830 301.080,57.515 301.096,57.554 301.352,58.199 301.636,58.884 301.781,59.244 301.904,59.569 302.180,60.253 302.441,60.938 302.465,60.991 302.803,61.622 303.150,62.270 303.170,62.307 303.536,62.992 303.834,63.548 303.903,63.676 304.253,64.361 304.519,64.847 304.649,65.045 305.127,65.730 305.204,65.839 305.606,66.415 305.888,66.819 306.084,67.099 306.543,67.784 306.573,67.829 307.091,68.468 307.257,68.653 307.705,69.153 307.942,69.416 308.305,69.838 308.627,70.193 308.912,70.522 309.311,70.930 309.661,71.207 309.996,71.493 310.462,71.891 310.680,72.078 311.263,72.576 311.365,72.663 312.050,73.212 312.137,73.261 312.734,73.562 313.419,73.907 313.495,73.945 314.103,74.263 314.788,74.623 314.805,74.630 315.473,74.904 316.157,75.085 316.842,75.264 317.037,75.314 317.526,75.442 318.211,75.620 318.895,75.807 319.580,75.998 319.583,75.999 320.265,76.181 320.949,76.363 321.634,76.532 322.318,76.637 322.637,76.684 323.003,76.737 323.688,76.833 324.372,76.924 325.057,76.991 325.741,76.961 326.426,76.918 327.111,76.875 327.795,76.808 328.480,76.726 328.784,76.684 329.164,76.631 329.849,76.513 330.534,76.394 331.218,76.219 331.577,75.999 331.903,75.775 332.575,75.314 332.588,75.306 333.272,74.943 333.957,75.018 334.641,75.106 335.326,75.205 336.011,74.843 336.348,74.630 336.695,74.410 337.380,73.975 337.430,73.945 338.064,73.541 338.314,73.261 338.749,72.803 338.902,72.576 339.363,71.891 339.433,71.788 339.826,71.207 340.118,70.874 340.490,70.522 340.803,70.227 341.214,69.838 341.487,69.586 341.945,69.153 342.172,68.947 342.631,68.468 342.856,68.215 343.262,67.784 343.541,67.477 343.896,67.099 344.226,66.748 344.471,66.415 344.892,65.730 344.910,65.703 345.359,65.045 345.595,64.699 345.826,64.361 346.279,63.695 346.290,63.676 346.608,62.992 346.906,62.307 346.964,62.183 347.227,61.622 347.548,60.938 347.649,60.724 347.863,60.253 348.101,59.569 348.279,58.884 348.333,58.665 348.450,58.199 348.621,57.515 348.815,56.830 348.974,56.146 349.018,56.002 349.172,55.461 349.267,54.776 349.348,54.092 349.438,53.407 349.527,52.723 349.619,52.038 349.702,51.538 349.734,51.353 349.823,50.669 349.821,49.984 349.784,49.300 349.747,48.615 349.702,48.178 349.677,47.930 349.599,47.246 349.528,46.561 349.486,45.877 349.453,45.192 349.324,44.507 349.128,43.823 349.018,43.560 348.840,43.138 348.551,42.454 348.333,41.936 348.263,41.769 347.745,41.084 347.649,40.992 347.172,40.400 346.964,40.058 346.837,39.715 346.584,39.031 346.330,38.346 346.279,38.282 345.655,37.661 345.595,37.609 344.910,37.012 344.882,36.977 344.469,36.292 344.226,35.636 344.221,35.608 343.988,34.923 343.541,34.569 343.124,34.238 342.856,34.026 342.260,33.554 342.172,33.480 341.487,32.941 341.409,32.869 340.860,32.185 "/>
</g>
<g id="ID000028" clip-path="url(#ID000001)" >
      <polyline fill="none" fill-opacity="1.00" stroke="#e7eaf2" stroke-width="0.5pt" stroke-opacity="1.00" stroke-dasharray="none" points="302.546,32.185 302.605,32.869 302.661,33.554 302.716,34.238 302.771,34.923 302.827,35.608 302.926,36.292 303.034,36.977 303.141,37.661 303.150,37.714 303.251,38.346 303.367,39.031 303.523,39.715 303.691,40.400 303.834,40.949 303.868,41.084 304.012,41.769 304.166,42.454 304.329,43.138 304.519,43.784 304.531,43.823 304.755,44.507 304.980,45.192 305.204,45.874 305.204,45.877 305.437,46.561 305.685,47.246 305.888,47.804 305.938,47.930 306.245,48.615 306.567,49.300 306.573,49.312 306.890,49.984 307.218,50.669 307.257,50.751 307.546,51.353 307.887,52.038 307.942,52.134 308.320,52.723 308.627,53.201 308.759,53.407 309.183,54.092 309.311,54.299 309.606,54.776 309.996,55.406 310.036,55.461 310.612,56.146 310.680,56.226 311.196,56.830 311.365,57.038 311.753,57.515 312.050,57.883 312.311,58.199 312.734,58.638 313.030,58.884 313.419,59.207 313.855,59.569 314.103,59.775 314.680,60.253 314.788,60.351 315.473,60.916 315.507,60.938 316.157,61.308 316.660,61.622 316.842,61.731 317.526,62.170 317.740,62.307 318.211,62.609 318.895,62.937 319.037,62.992 319.580,63.201 320.265,63.464 320.815,63.676 320.949,63.734 321.634,64.027 322.318,64.202 323.003,64.163 323.688,64.117 324.372,64.062 325.057,64.026 325.741,64.018 326.426,64.136 327.111,64.294 327.358,64.361 327.795,64.478 328.480,64.639 329.164,64.577 329.849,64.467 330.534,64.375 331.218,64.389 331.840,64.361 331.903,64.358 332.588,64.210 333.272,64.062 333.957,63.900 334.323,63.676 334.641,63.434 335.223,62.992 335.326,62.913 336.011,62.415 336.181,62.307 336.695,61.979 337.204,61.622 337.380,61.500 338.064,60.991 338.136,60.938 338.749,60.589 339.268,60.253 339.433,60.151 340.053,59.569 340.118,59.493 340.649,58.884 340.803,58.706 341.247,58.199 341.487,57.924 341.824,57.515 342.172,56.989 342.264,56.830 342.800,56.146 342.856,56.076 343.354,55.461 343.541,55.230 343.895,54.776 344.226,54.110 344.232,54.092 344.489,53.407 344.779,52.723 344.910,52.466 345.129,52.038 345.478,51.353 345.595,51.047 345.708,50.669 345.858,49.984 346.009,49.300 346.252,48.615 346.279,48.540 346.506,47.930 346.760,47.246 346.836,46.561 346.862,45.877 346.878,45.192 346.887,44.507 346.896,43.823 346.910,43.138 346.923,42.454 346.856,41.769 346.589,41.084 346.335,40.400 346.279,40.250 346.081,39.715 345.828,39.031 345.595,38.532 345.485,38.346 344.910,37.845 344.699,37.661 344.226,37.012 344.220,36.977 344.112,36.292 344.005,35.608 343.670,34.923 343.541,34.821 342.856,34.278 342.807,34.238 342.172,33.735 341.943,33.554 341.487,33.193 341.136,32.869 340.803,32.454 340.657,32.185 "/>
</g>
<g id="ID000029" clip-path="url(#ID000001)" >
      <polyline fill="none" fill-opacity="1.00" stroke="#dee0ee" stroke-width="0.5pt" stroke-opacity="1.00" stroke-dasharray="none" points="307.890,32.185 307.942,32.524 307.995,32.869 308.100,33.554 308.188,34.238 308.277,34.923 308.352,35.608 308.489,36.292 308.627,36.904 308.643,36.977 308.804,37.661 308.965,38.346 309.126,39.031 309.311,39.639 309.334,39.715 309.564,40.400 309.794,41.084 309.996,41.648 310.042,41.769 310.315,42.454 310.614,43.138 310.680,43.278 310.938,43.823 311.261,44.507 311.365,44.727 311.587,45.192 311.951,45.877 312.050,46.043 312.367,46.561 312.734,47.139 312.802,47.246 313.237,47.930 313.419,48.216 313.672,48.615 314.103,49.221 314.171,49.300 314.766,49.984 314.788,50.011 315.337,50.669 315.473,50.831 315.909,51.353 316.157,51.651 316.538,52.038 316.842,52.302 317.372,52.723 317.526,52.846 318.211,53.396 318.224,53.407 318.895,54.023 318.976,54.092 319.580,54.541 319.981,54.776 320.265,54.943 320.949,55.348 321.129,55.461 321.634,55.772 322.224,56.146 322.318,56.196 323.003,56.380 323.688,56.548 324.372,56.716 324.835,56.830 325.057,56.887 325.741,57.058 326.426,57.159 327.111,57.287 327.795,57.419 328.281,57.515 328.480,57.553 329.164,57.682 329.849,57.791 330.534,57.685 330.988,57.515 331.218,57.403 331.903,57.061 332.366,56.830 332.588,56.720 333.272,56.463 333.957,56.296 334.570,56.146 334.641,56.128 335.326,55.891 336.011,55.565 336.181,55.461 336.695,55.102 337.125,54.776 337.380,54.647 338.064,54.232 338.259,54.092 338.749,53.835 339.306,53.407 339.433,53.289 340.083,52.723 340.118,52.691 340.803,52.102 340.877,52.038 341.487,51.454 341.556,51.353 341.883,50.669 342.172,50.110 342.235,49.984 342.720,49.300 342.856,49.108 343.198,48.615 343.513,47.930 343.541,47.853 343.762,47.246 344.010,46.561 344.226,46.055 344.298,45.877 344.662,45.192 344.839,44.507 344.910,43.823 344.910,43.820 344.977,43.138 345.045,42.454 345.274,41.769 345.540,41.084 345.570,40.400 345.326,39.715 345.072,39.031 344.910,38.792 344.528,38.346 344.226,38.082 344.115,37.661 344.003,36.977 343.896,36.292 343.788,35.608 343.541,35.157 343.353,34.923 342.856,34.529 342.489,34.238 342.172,33.987 341.626,33.554 341.487,33.444 340.862,32.869 340.803,32.795 340.473,32.185 "/>
</g>
<g id="ID000030" clip-path="url(#ID000001)" >
      <polyline fill="none" fill-opacity="1.00" stroke="#d5d7ea" stroke-width="0.5pt" stroke-opacity="1.00" stroke-dasharray="none" points="312.581,32.185 312.714,32.869 312.734,32.973 312.847,33.554 312.980,34.238 313.101,34.923 313.225,35.608 313.418,36.292 313.419,36.296 313.629,36.977 313.840,37.661 314.052,38.346 314.103,38.513 314.263,39.031 314.534,39.715 314.788,40.304 314.832,40.400 315.184,41.084 315.473,41.634 315.543,41.769 315.903,42.454 316.157,42.901 316.292,43.138 316.704,43.823 316.842,44.041 317.184,44.507 317.526,44.937 317.730,45.192 318.211,45.796 318.275,45.877 318.829,46.561 318.895,46.642 319.447,47.246 319.580,47.370 320.265,47.907 320.295,47.930 320.949,48.444 321.140,48.615 321.634,49.014 321.949,49.300 322.318,49.585 323.003,49.971 323.027,49.984 323.688,50.397 324.123,50.669 324.372,50.825 325.057,51.253 325.298,51.353 325.741,51.504 326.426,51.630 327.111,51.756 327.795,51.879 328.480,51.984 328.871,52.038 329.164,52.078 329.849,52.112 330.534,52.097 331.218,52.083 331.903,52.068 332.588,52.053 332.762,52.038 333.272,51.990 333.957,51.856 334.641,51.725 335.326,51.599 336.011,51.478 336.695,51.361 336.707,51.353 337.380,50.990 337.832,50.669 338.064,50.513 338.749,50.052 338.850,49.984 339.433,49.592 339.726,49.300 340.118,48.707 340.176,48.615 340.606,47.930 340.803,47.618 341.037,47.246 341.487,46.656 341.548,46.561 341.909,45.877 342.172,45.248 342.202,45.192 342.593,44.507 342.856,43.961 342.930,43.823 343.183,43.138 343.397,42.454 343.541,42.036 343.645,41.769 343.910,41.084 344.180,40.400 344.226,40.272 344.381,39.715 344.316,39.031 344.226,38.928 344.059,38.346 343.897,37.661 343.787,36.977 343.679,36.292 343.572,35.608 343.541,35.552 343.036,34.923 342.856,34.781 342.172,34.238 342.172,34.238 341.487,33.696 341.334,33.554 340.803,33.066 340.646,32.869 340.288,32.185 "/>
</g>
<g id="ID000031" clip-path="url(#ID000001)" >
      <polyline fill="none" fill-opacity="1.00" stroke="#cdcde5" stroke-width="0.5pt" stroke-opacity="1.00" stroke-dasharray="none" points="316.614,32.185 316.779,32.869 316.842,33.131 316.943,33.554 317.107,34.238 317.247,34.923 317.394,35.608 317.526,35.996 317.629,36.292 317.909,36.977 318.185,37.661 318.211,37.726 318.461,38.346 318.737,39.031 318.895,39.344 319.083,39.715 319.494,40.400 319.580,40.531 319.960,41.084 320.265,41.527 320.431,41.769 320.902,42.454 320.949,42.518 321.402,43.138 321.634,43.419 322.041,43.823 322.318,44.086 322.763,44.507 323.003,44.735 323.464,45.192 323.688,45.404 324.145,45.877 324.372,46.059 325.057,46.496 325.158,46.561 325.741,46.939 326.216,47.246 326.426,47.381 327.111,47.824 327.568,47.930 327.795,47.971 328.480,48.019 329.164,48.066 329.849,48.144 330.534,48.294 331.218,48.369 331.903,48.308 332.588,48.246 333.272,48.184 333.957,48.119 334.641,48.003 335.292,47.930 335.326,47.926 336.011,47.879 336.695,47.832 337.380,47.785 338.064,47.762 338.559,47.246 338.749,47.082 339.239,46.561 339.433,46.354 339.883,45.877 340.118,45.624 340.425,45.192 340.741,44.507 340.803,44.373 341.056,43.823 341.487,43.182 341.512,43.138 342.172,42.603 342.287,42.454 342.566,41.769 342.810,41.084 342.856,40.954 343.054,40.400 343.297,39.715 343.541,39.425 343.751,39.031 343.816,38.346 343.679,37.661 343.570,36.977 343.541,36.791 343.463,36.292 343.354,35.608 342.856,35.033 342.718,34.923 342.172,34.490 341.855,34.238 341.487,33.947 341.061,33.554 340.803,33.316 340.446,32.869 340.118,32.215 340.104,32.185 "/>
</g>
<g id="ID000032" clip-path="url(#ID000001)" >
      <polyline fill="none" fill-opacity="1.00" stroke="#c5c2df" stroke-width="0.5pt" stroke-opacity="1.00" stroke-dasharray="none" points="320.066,32.185 320.265,32.809 320.282,32.869 320.425,33.554 320.589,34.238 320.740,34.923 320.891,35.608 320.949,35.746 321.178,36.292 321.506,36.977 321.634,37.228 321.864,37.661 322.226,38.346 322.318,38.520 322.589,39.031 323.003,39.679 323.026,39.715 323.522,40.400 323.688,40.596 324.159,41.084 324.372,41.305 324.820,41.769 325.057,42.015 325.480,42.454 325.741,42.727 326.228,43.138 326.426,43.281 327.111,43.760 327.186,43.823 327.795,44.332 328.005,44.507 328.480,44.904 329.007,45.192 329.164,45.254 329.849,45.386 330.534,45.519 331.218,45.655 331.903,45.793 332.588,45.841 333.272,45.741 333.957,45.640 334.641,45.540 335.326,45.441 336.011,45.293 336.357,45.192 336.695,45.103 337.380,45.006 338.064,44.897 338.749,44.624 338.855,44.507 339.303,43.823 339.433,43.719 340.075,43.138 340.118,43.103 340.803,42.547 340.917,42.454 341.487,41.990 341.666,41.769 341.960,41.084 342.172,40.489 342.204,40.400 342.530,39.715 342.856,39.419 343.205,39.031 343.541,38.465 343.572,38.346 343.541,38.168 343.461,37.661 343.354,36.977 343.246,36.292 343.137,35.608 342.856,35.284 342.401,34.923 342.172,34.741 341.537,34.238 341.487,34.199 340.803,33.567 340.789,33.554 340.245,32.869 340.118,32.615 339.919,32.185 "/>
</g>
<g id="ID000033" clip-path="url(#ID000001)" >
      <polyline fill="none" fill-opacity="1.00" stroke="#b8b3d7" stroke-width="0.5pt" stroke-opacity="1.00" stroke-dasharray="none" points="322.825,32.185 323.003,32.777 323.031,32.869 323.235,33.554 323.434,34.238 323.629,34.923 323.688,35.129 323.824,35.608 324.181,36.292 324.372,36.639 324.559,36.977 324.937,37.661 325.057,37.854 325.409,38.346 325.741,38.806 325.904,39.031 326.426,39.661 326.471,39.715 327.054,40.400 327.111,40.466 327.752,41.084 327.795,41.121 328.480,41.673 328.599,41.769 329.164,42.225 329.449,42.454 329.849,42.787 330.513,43.138 330.534,43.146 331.218,43.266 331.903,43.366 332.588,43.466 333.272,43.565 333.957,43.630 334.641,43.562 335.326,43.428 336.011,43.242 336.526,43.138 336.695,43.117 337.380,43.093 338.064,43.069 338.749,42.856 339.433,42.479 339.465,42.454 340.118,41.936 340.323,41.769 340.803,41.379 341.051,41.084 341.356,40.400 341.487,40.283 341.912,39.715 342.172,39.475 342.654,39.031 342.856,38.843 343.218,38.346 343.245,37.661 343.137,36.977 343.030,36.292 342.919,35.608 342.856,35.536 342.172,34.993 342.084,34.923 341.487,34.450 341.259,34.238 340.803,33.817 340.531,33.554 340.118,32.997 340.051,32.869 339.735,32.185 "/>
</g>
<g id="ID000034" clip-path="url(#ID000001)" >
      <polyline fill="none" fill-opacity="1.00" stroke="#afa7d0" stroke-width="0.5pt" stroke-opacity="1.00" stroke-dasharray="none" points="325.129,32.185 325.391,32.869 325.654,33.554 325.741,33.783 325.916,34.238 326.164,34.923 326.426,35.565 326.444,35.608 326.853,36.292 327.111,36.619 327.354,36.977 327.795,37.626 327.819,37.661 328.269,38.346 328.480,38.634 328.779,39.031 329.164,39.436 329.430,39.715 329.849,40.144 330.100,40.400 330.534,40.844 330.769,41.084 331.218,41.447 331.903,41.562 332.588,41.626 333.272,41.691 333.957,41.755 334.641,41.767 334.664,41.769 335.326,41.813 336.011,41.892 336.695,41.872 337.380,41.847 337.925,41.769 338.064,41.745 338.749,41.375 339.287,41.084 339.433,41.021 340.118,40.701 340.403,40.400 340.803,40.230 341.361,39.715 341.487,39.598 342.102,39.031 342.172,38.966 342.844,38.346 342.856,38.327 343.028,37.661 342.921,36.977 342.856,36.567 342.813,36.292 342.630,35.608 342.172,35.244 341.766,34.923 341.487,34.702 340.987,34.238 340.803,34.068 340.272,33.554 340.118,33.346 339.866,32.869 339.551,32.185 "/>
</g>
<g id="ID000035" clip-path="url(#ID000001)" >
      <polyline fill="none" fill-opacity="1.00" stroke="#a49bc7" stroke-width="0.5pt" stroke-opacity="1.00" stroke-dasharray="none" points="326.993,32.185 327.111,32.493 327.255,32.869 327.521,33.554 327.795,34.217 327.804,34.238 328.098,34.923 328.391,35.608 328.480,35.746 328.832,36.292 329.164,36.782 329.298,36.977 329.809,37.661 329.849,37.712 330.371,38.346 330.534,38.543 330.936,39.031 331.218,39.329 331.583,39.715 331.903,40.002 332.588,40.162 333.272,40.212 333.957,40.191 334.641,40.168 335.326,40.148 336.011,40.253 336.695,40.378 336.764,40.400 337.380,40.608 338.064,40.494 338.279,40.400 338.749,40.229 339.433,39.981 340.118,39.851 340.803,39.721 340.809,39.715 341.487,39.089 341.551,39.031 342.172,38.457 342.293,38.346 342.777,37.661 342.704,36.977 342.597,36.292 342.313,35.608 342.172,35.496 341.487,34.953 341.455,34.923 340.803,34.319 340.720,34.238 340.118,33.655 340.038,33.554 339.682,32.869 339.433,32.331 339.366,32.185 "/>
</g>
<g id="ID000036" clip-path="url(#ID000001)" >
      <polyline fill="none" fill-opacity="1.00" stroke="#988fbf" stroke-width="0.5pt" stroke-opacity="1.00" stroke-dasharray="none" points="328.710,32.185 329.017,32.869 329.164,33.137 329.350,33.554 329.676,34.238 329.849,34.583 329.984,34.923 330.329,35.608 330.534,35.904 330.751,36.292 331.218,36.828 331.321,36.977 331.786,37.661 331.903,37.796 332.272,38.346 332.588,38.762 333.272,38.916 333.957,38.916 334.641,38.916 335.326,38.916 336.011,39.005 336.097,39.031 336.695,39.264 337.380,39.544 338.064,39.601 338.749,39.353 339.433,39.198 340.118,39.206 340.803,39.203 340.990,39.031 341.487,38.580 341.741,38.346 342.172,37.949 342.390,37.661 342.488,36.977 342.380,36.292 342.172,35.858 341.995,35.608 341.487,35.205 341.184,34.923 340.803,34.569 340.461,34.238 340.118,33.906 339.841,33.554 339.497,32.869 339.433,32.730 339.182,32.185 "/>
</g>
<g id="ID000037" clip-path="url(#ID000001)" >
      <polyline fill="none" fill-opacity="1.00" stroke="#8c82b5" stroke-width="0.5pt" stroke-opacity="1.00" stroke-dasharray="none" points="329.837,32.185 329.849,32.208 330.177,32.869 330.516,33.554 330.534,33.589 330.856,34.238 331.202,34.923 331.218,34.953 331.583,35.608 331.903,36.088 332.038,36.292 332.516,36.977 332.588,37.079 332.994,37.661 333.272,37.971 333.957,38.116 334.641,38.115 335.326,38.118 336.011,38.229 336.668,38.346 336.695,38.351 337.380,38.515 338.064,38.725 338.749,38.546 339.433,38.544 340.118,38.578 340.803,38.612 341.104,38.346 341.487,38.072 341.932,37.661 342.172,37.328 342.271,36.977 342.172,36.344 342.164,36.292 341.678,35.608 341.487,35.456 340.914,34.923 340.803,34.820 340.203,34.238 340.118,34.156 339.643,33.554 339.433,33.130 339.313,32.869 338.997,32.185 "/>
</g>
<g id="ID000038" clip-path="url(#ID000001)" >
      <polyline fill="none" fill-opacity="1.00" stroke="#8073ac" stroke-width="0.5pt" stroke-opacity="1.00" stroke-dasharray="none" points="330.958,32.185 331.218,32.709 331.298,32.869 331.637,33.554 331.903,34.059 332.002,34.238 332.384,34.923 332.588,35.287 332.766,35.608 333.212,36.292 333.272,36.378 333.690,36.977 333.957,37.212 334.641,37.315 335.326,37.332 336.011,37.453 336.695,37.580 337.182,37.661 337.380,37.696 338.064,37.988 338.749,37.882 339.433,37.916 340.118,37.950 340.803,37.984 341.300,37.661 341.487,37.563 341.953,36.977 341.947,36.292 341.487,35.716 341.380,35.608 340.803,35.070 340.651,34.923 340.118,34.407 339.944,34.238 339.445,33.554 339.433,33.530 339.129,32.869 338.813,32.185 "/>
</g>
<g id="ID000039" clip-path="url(#ID000001)" >
      <polyline fill="none" fill-opacity="1.00" stroke="#7561a3" stroke-width="0.5pt" stroke-opacity="1.00" stroke-dasharray="none" points="332.079,32.185 332.427,32.869 332.588,33.167 332.803,33.554 333.185,34.238 333.272,34.394 333.567,34.923 333.949,35.608 333.957,35.619 334.387,36.292 334.641,36.479 335.326,36.556 336.011,36.773 336.695,36.914 336.847,36.977 337.380,37.240 338.064,37.482 338.749,37.437 339.433,37.390 340.118,37.322 340.803,37.356 341.487,37.054 341.549,36.977 341.731,36.292 341.487,35.987 341.111,35.608 340.803,35.321 340.392,34.923 340.118,34.658 339.686,34.238 339.433,33.890 339.260,33.554 338.944,32.869 338.749,32.446 338.628,32.185 "/>
</g>
<g id="ID000040" clip-path="url(#ID000001)" >
      <polyline fill="none" fill-opacity="1.00" stroke="#664498" stroke-width="0.5pt" stroke-opacity="1.00" stroke-dasharray="none" points="332.949,32.185 333.272,32.660 333.391,32.869 333.722,33.554 333.957,33.880 334.156,34.238 334.521,34.923 334.641,35.098 334.914,35.608 335.326,35.941 336.011,36.257 336.092,36.292 336.695,36.543 337.380,36.827 337.740,36.977 338.064,37.112 338.749,37.091 339.280,36.977 339.433,36.945 340.118,36.819 340.803,36.793 341.487,36.380 341.514,36.292 341.487,36.258 340.841,35.608 340.803,35.572 340.133,34.923 340.118,34.908 339.433,34.245 339.429,34.238 339.075,33.554 338.760,32.869 338.749,32.846 338.444,32.185 "/>
</g>
<g id="ID000041" clip-path="url(#ID000001)" >
      <polyline fill="none" fill-opacity="1.00" stroke="#5b318f" stroke-width="0.5pt" stroke-opacity="1.00" stroke-dasharray="none" points="333.555,32.185 333.946,32.869 333.957,32.888 334.336,33.554 334.641,34.089 334.726,34.238 335.117,34.923 335.326,35.268 335.571,35.608 336.011,35.867 336.695,36.172 336.984,36.292 337.380,36.457 338.064,36.741 338.749,36.750 339.433,36.606 340.118,36.469 340.803,36.329 340.859,36.292 340.803,36.234 340.581,35.608 340.118,35.159 339.875,34.923 339.433,34.495 339.233,34.238 338.891,33.554 338.749,33.246 338.575,32.869 338.260,32.185 "/>
</g>
<g id="ID000042" clip-path="url(#ID000001)" >
      <polyline fill="none" fill-opacity="1.00" stroke="#512384" stroke-width="0.5pt" stroke-opacity="1.00" stroke-dasharray="none" points="334.110,32.185 334.500,32.869 334.641,33.117 334.890,33.554 335.281,34.238 335.326,34.318 335.712,34.923 336.011,35.327 336.277,35.608 336.695,35.802 337.380,36.086 337.876,36.292 338.064,36.370 338.749,36.411 339.315,36.292 339.433,36.267 340.118,36.028 340.323,35.608 340.118,35.409 339.616,34.923 339.433,34.746 339.038,34.238 338.749,33.645 338.707,33.554 338.391,32.869 338.075,32.185 "/>
</g>
<g id="ID000043" clip-path="url(#ID000001)" >
      <polyline fill="none" fill-opacity="1.00" stroke="#471778" stroke-width="0.5pt" stroke-opacity="1.00" stroke-dasharray="none" points="334.664,32.185 335.054,32.869 335.326,33.345 335.445,33.554 335.844,34.238 336.011,34.486 336.353,34.923 336.695,35.280 337.120,35.608 337.380,35.715 338.064,36.000 338.749,36.072 339.433,35.929 339.994,35.608 339.433,35.085 339.358,34.923 338.843,34.238 338.749,34.045 338.522,33.554 338.206,32.869 338.064,32.561 337.891,32.185 "/>
</g>
<g id="ID000044" clip-path="url(#ID000001)" >
      <polyline fill="none" fill-opacity="1.00" stroke="#3e0d6a" stroke-width="0.5pt" stroke-opacity="1.00" stroke-dasharray="none" points="335.218,32.185 335.326,32.373 335.609,32.869 335.999,33.554 336.011,33.573 336.475,34.238 336.695,34.519 337.012,34.923 337.380,35.224 338.012,35.608 338.064,35.629 338.749,35.734 339.351,35.608 339.099,34.923 338.749,34.428 338.628,34.238 338.338,33.554 338.064,32.961 338.016,32.869 337.706,32.185 "/>
</g>
<g id="ID000045" clip-path="url(#ID000001)" >
      <polyline fill="none" fill-opacity="1.00" stroke="#35055b" stroke-width="0.5pt" stroke-opacity="1.00" stroke-dasharray="none" points="335.773,32.185 336.011,32.602 336.163,32.869 336.606,33.554 336.695,33.678 337.135,34.238 337.380,34.551 337.672,34.923 338.064,35.188 338.749,35.170 338.840,34.923 338.749,34.793 338.394,34.238 338.153,33.554 338.064,33.361 337.804,32.869 337.522,32.185 "/>
</g>
<g id="ID000046" clip-path="url(#ID000001)" >
      <polyline fill="none" fill-opacity="1.00" stroke="#2d004b" stroke-width="0.5pt" stroke-opacity="1.00" stroke-dasharray="none" points="336.327,32.185 336.695,32.830 336.722,32.869 337.257,33.554 337.380,33.710 337.560,33.554 337.592,32.869 337.380,32.313 337.204,32.185 "/>
</g>
<g id="ID000047" clip-path="url(#ID000001)" >
      <polyline fill="none" fill-opacity="1.00" stroke="#2d004b" stroke-width="0.5pt" stroke-opacity="1.00" stroke-dasharray="none" points="338.064,34.583 338.160,34.238 338.064,33.936 337.794,34.238 338.064,34.583 "/>
</g>
</g><g id="ID000048" clip-path="url(#ID000001)" >
<rect x="203.883" y="14.271" width="171.150" height="171.150" rx="85.575" ry="85.575" fill="none" stroke="#000000" stroke-width="0.5pt" stroke-dasharray="none" />
</g>
<g id="ID000049" >
</g>
    </g>
  </g>
  </g>
</svg>
