<?xml version="1.0" encoding="utf-8" standalone="no"?><!DOCTYPE svg PUBLIC "-//W3C//DTD SVG 1.1//EN" "http://www.w3.org/Graphics/SVG/1.1/DTD/svg11.dtd">
<svg preserveAspectRatio="xMinYMin meet" width="100%" height="100%" viewBox="0 0 560.000 420.000"  version="1.1" xmlns="http://www.w3.org/2000/svg" xmlns:xlink="http://www.w3.org/1999/xlink">
  <desc>Matlab Figure Converted by PLOT2SVG written by Juerg Schwizer</desc>
  <g id="topgroup">
  <rect x="0" y="0" width="560.000" height="420.000" fill="#ffffff" stroke="none" />
  <g id ="ID000000">
  <clipPath id="ID000001">
    <rect x="72.800" y="31.500" width="434.000" height="342.300"/>
  </clipPath>
    <g>
<g id="ID000002" clip-path="url(#ID000001)" >
<image x="118.650" y="31.842" width="342.300" height="342.300" image-rendering="optimizeSpeed" preserveAspectRatio="none" xlink:href="pu5001.png" />
</g>
<g id="ID000003" clip-path="url(#ID000001)" >
<g id="ID000004" clip-path="url(#ID000001)" >
      <polyline fill="none" fill-opacity="1.00" stroke="#934406" stroke-width="0.5pt" stroke-opacity="1.00" stroke-dasharray="none" points="230.324,32.185 230.323,32.869 230.582,33.033 230.732,32.869 231.263,32.185 "/>
</g>
<g id="ID000005" clip-path="url(#ID000001)" >
      <polyline fill="none" fill-opacity="1.00" stroke="#934406" stroke-width="0.5pt" stroke-opacity="1.00" stroke-dasharray="none" points="229.898,33.705 229.847,33.554 229.898,33.308 230.051,33.554 229.898,33.705 "/>
</g>
<g id="ID000006" clip-path="url(#ID000001)" >
      <polyline fill="none" fill-opacity="1.00" stroke="#9f4b06" stroke-width="0.5pt" stroke-opacity="1.00" stroke-dasharray="none" points="230.066,32.185 229.898,32.522 229.759,32.869 229.574,33.554 229.213,34.234 229.211,34.238 229.114,34.923 229.213,35.201 229.496,34.923 229.898,34.529 230.194,34.238 230.582,33.857 230.891,33.554 231.267,33.139 231.464,32.869 231.943,32.185 "/>
</g>
<g id="ID000007" clip-path="url(#ID000001)" >
      <polyline fill="none" fill-opacity="1.00" stroke="#ab5306" stroke-width="0.5pt" stroke-opacity="1.00" stroke-dasharray="none" points="229.826,32.185 229.553,32.869 229.300,33.554 229.213,33.719 229.005,34.238 228.819,34.923 228.528,35.431 228.458,35.608 228.320,36.292 228.528,36.649 228.943,36.292 229.213,36.028 229.638,35.608 229.898,35.353 230.336,34.923 230.582,34.681 231.034,34.238 231.267,34.010 231.656,33.554 231.951,33.145 232.144,32.869 232.624,32.185 "/>
</g>
<g id="ID000008" clip-path="url(#ID000001)" >
      <polyline fill="none" fill-opacity="1.00" stroke="#b75b06" stroke-width="0.5pt" stroke-opacity="1.00" stroke-dasharray="none" points="229.620,32.185 229.346,32.869 229.213,33.203 229.073,33.554 228.799,34.238 228.528,34.915 228.525,34.923 228.251,35.608 227.894,36.292 227.889,36.977 228.528,37.312 229.138,36.977 229.213,36.915 229.798,36.292 229.898,36.194 230.478,35.608 230.582,35.506 231.176,34.923 231.267,34.834 231.851,34.238 231.951,34.117 232.346,33.554 232.636,33.139 232.825,32.869 233.304,32.185 "/>
</g>
<g id="ID000009" clip-path="url(#ID000001)" >
      <polyline fill="none" fill-opacity="1.00" stroke="#c36408" stroke-width="0.5pt" stroke-opacity="1.00" stroke-dasharray="none" points="229.414,32.185 229.213,32.687 229.140,32.869 228.866,33.554 228.593,34.238 228.528,34.400 228.319,34.923 228.045,35.608 227.844,35.968 227.582,36.292 227.551,36.977 227.844,37.465 228.169,37.661 228.528,37.920 229.084,37.661 229.213,37.596 229.898,37.098 230.013,36.977 230.582,36.371 230.656,36.292 231.267,35.662 231.318,35.608 231.951,34.987 232.009,34.923 232.547,34.238 232.636,34.111 233.026,33.554 233.321,33.133 233.505,32.869 233.985,32.185 "/>
</g>
<g id="ID000010" clip-path="url(#ID000001)" >
      <polyline fill="none" fill-opacity="1.00" stroke="#cf6f0b" stroke-width="0.5pt" stroke-opacity="1.00" stroke-dasharray="none" points="229.208,32.185 228.934,32.869 228.660,33.554 228.528,33.884 228.387,34.238 228.113,34.923 227.844,35.596 227.837,35.608 227.285,36.292 227.247,36.977 227.444,37.661 227.844,37.974 228.329,38.346 228.528,38.501 228.921,38.346 229.213,38.210 229.898,37.891 230.225,37.661 230.582,37.285 230.871,36.977 231.267,36.556 231.514,36.292 231.951,35.831 232.161,35.608 232.636,35.079 232.777,34.923 233.228,34.238 233.321,34.106 233.718,33.554 234.005,33.139 234.235,32.869 234.665,32.185 "/>
</g>
<g id="ID000011" clip-path="url(#ID000001)" >
      <polyline fill="none" fill-opacity="1.00" stroke="#dd7e12" stroke-width="0.5pt" stroke-opacity="1.00" stroke-dasharray="none" points="229.002,32.185 228.728,32.869 228.528,33.368 228.454,33.554 228.180,34.238 227.907,34.923 227.844,35.080 227.532,35.608 227.159,36.073 227.002,36.292 226.966,36.977 226.987,37.661 227.159,37.947 227.670,38.346 227.844,38.482 228.528,39.016 229.213,38.819 229.898,38.500 230.228,38.346 230.582,38.130 231.087,37.661 231.267,37.470 231.729,36.977 231.951,36.741 232.516,36.292 232.636,36.162 233.321,35.656 233.353,35.608 233.859,34.923 234.005,34.727 234.370,34.238 234.690,33.811 234.882,33.554 235.374,32.886 235.385,32.869 235.785,32.185 "/>
</g>
<g id="ID000012" clip-path="url(#ID000001)" >
      <polyline fill="none" fill-opacity="1.00" stroke="#e68a1a" stroke-width="0.5pt" stroke-opacity="1.00" stroke-dasharray="none" points="228.795,32.185 228.528,32.852 228.522,32.869 228.248,33.554 227.974,34.238 227.844,34.565 227.674,34.923 227.228,35.608 227.159,35.693 226.731,36.292 226.694,36.977 226.680,37.661 227.019,38.346 227.159,38.455 227.844,38.990 227.896,39.031 228.528,39.525 229.213,39.428 229.898,39.109 230.065,39.031 230.582,38.790 231.267,38.375 231.313,38.346 231.945,37.661 231.951,37.655 232.636,37.434 233.321,37.247 233.849,36.977 234.005,36.838 234.373,36.292 234.690,35.822 234.834,35.608 235.342,34.923 235.374,34.880 235.854,34.238 236.059,33.942 236.296,33.554 236.696,32.869 236.744,32.787 237.095,32.185 "/>
</g>
<g id="ID000013" clip-path="url(#ID000001)" >
      <polyline fill="none" fill-opacity="1.00" stroke="#ef972a" stroke-width="0.5pt" stroke-opacity="1.00" stroke-dasharray="none" points="228.589,32.185 228.528,32.337 228.315,32.869 228.042,33.554 227.844,34.049 227.768,34.238 227.431,34.923 227.159,35.327 226.920,35.608 226.475,36.266 226.459,36.292 226.422,36.977 226.385,37.661 226.424,38.346 226.475,38.429 227.159,38.964 227.245,39.031 227.844,39.498 228.121,39.715 228.528,40.033 229.213,40.037 229.898,39.718 229.903,39.715 230.582,39.415 231.267,39.116 231.559,39.031 231.951,38.893 232.636,38.707 233.321,38.521 233.966,38.346 234.005,38.335 234.690,38.013 234.932,37.661 235.374,37.004 235.393,36.977 235.854,36.292 236.059,35.988 236.315,35.608 236.744,35.021 236.807,34.923 237.206,34.238 237.428,33.859 237.606,33.554 238.006,32.869 238.113,32.687 238.406,32.185 "/>
</g>
<g id="ID000014" clip-path="url(#ID000001)" >
      <polyline fill="none" fill-opacity="1.00" stroke="#f6a43f" stroke-width="0.5pt" stroke-opacity="1.00" stroke-dasharray="none" points="228.383,32.185 228.109,32.869 227.844,33.533 227.835,33.554 227.562,34.238 227.187,34.923 227.159,34.965 226.612,35.608 226.475,35.810 226.187,36.292 226.151,36.977 226.114,37.661 226.116,38.346 226.475,38.937 226.594,39.031 227.159,39.472 227.471,39.715 227.844,40.007 228.347,40.400 228.528,40.579 229.213,40.731 229.898,40.458 230.272,40.400 230.582,40.351 231.267,40.244 231.951,40.134 232.636,39.963 233.321,39.780 233.562,39.715 234.005,39.597 234.690,39.415 235.374,39.257 235.694,39.031 236.059,38.548 236.209,38.346 236.700,37.661 236.744,37.601 237.192,36.977 237.428,36.649 237.683,36.292 238.113,35.683 238.166,35.608 238.543,34.923 238.797,34.461 238.920,34.238 239.297,33.554 239.482,33.218 239.662,32.869 239.980,32.185 "/>
</g>
<g id="ID000015" clip-path="url(#ID000001)" >
      <polyline fill="none" fill-opacity="1.00" stroke="#fcb056" stroke-width="0.5pt" stroke-opacity="1.00" stroke-dasharray="none" points="228.177,32.185 227.903,32.869 227.844,33.018 227.629,33.554 227.356,34.238 227.159,34.593 226.886,34.923 226.475,35.406 226.303,35.608 225.916,36.292 225.879,36.977 225.842,37.661 225.807,38.346 225.944,39.031 226.475,39.445 226.820,39.715 227.159,39.980 227.696,40.400 227.844,40.594 228.342,41.084 228.528,41.348 229.097,41.769 229.213,41.861 229.616,41.769 229.898,41.706 230.582,41.564 231.267,41.449 231.951,41.341 232.636,41.213 233.119,41.084 233.321,41.030 234.005,40.865 234.690,40.793 235.374,40.742 236.059,40.682 236.517,40.400 236.744,40.196 237.277,39.715 237.428,39.578 238.021,39.031 238.113,38.903 238.513,38.346 238.797,37.948 239.001,37.661 239.482,36.984 239.487,36.977 239.972,36.292 240.167,36.013 240.448,35.608 240.825,34.923 240.851,34.873 241.145,34.238 241.449,33.554 241.536,33.357 241.752,32.869 242.056,32.185 "/>
</g>
<g id="ID000016" clip-path="url(#ID000001)" >
      <polyline fill="none" fill-opacity="1.00" stroke="#fdbc69" stroke-width="0.5pt" stroke-opacity="1.00" stroke-dasharray="none" points="227.971,32.185 227.844,32.502 227.697,32.869 227.423,33.554 227.159,34.214 227.145,34.238 226.577,34.923 226.475,35.044 225.994,35.608 225.790,35.986 225.644,36.292 225.607,36.977 225.570,37.661 225.533,38.346 225.553,39.031 225.790,39.419 226.169,39.715 226.475,39.984 227.026,40.400 227.159,40.622 227.473,41.084 227.842,41.769 227.844,41.771 228.521,42.454 228.528,42.460 229.213,43.035 229.898,43.079 230.582,42.916 231.267,42.753 231.951,42.590 232.561,42.454 232.636,42.439 233.321,42.321 234.005,42.263 234.690,42.211 235.374,42.159 236.059,42.108 236.744,42.056 237.320,41.769 237.428,41.689 238.100,41.084 238.113,41.073 238.797,40.627 239.205,40.400 239.482,40.245 240.167,39.726 240.177,39.715 240.801,39.031 240.851,38.964 241.319,38.346 241.536,38.060 241.838,37.661 242.220,37.156 242.340,36.977 242.746,36.292 242.905,36.003 243.122,35.608 243.369,34.923 243.590,34.310 243.615,34.238 243.862,33.554 244.107,32.869 244.274,32.399 244.350,32.185 "/>
</g>
<g id="ID000017" clip-path="url(#ID000001)" >
      <polyline fill="none" fill-opacity="1.00" stroke="#fec984" stroke-width="0.5pt" stroke-opacity="1.00" stroke-dasharray="none" points="227.764,32.185 227.491,32.869 227.217,33.554 227.159,33.698 226.843,34.238 226.475,34.681 226.269,34.923 225.790,35.485 225.686,35.608 225.372,36.292 225.336,36.977 225.299,37.661 225.262,38.346 225.242,39.031 225.519,39.715 225.790,40.022 226.235,40.400 226.475,40.844 226.604,41.084 226.974,41.769 227.159,42.113 227.375,42.454 227.844,42.936 228.084,43.138 228.528,43.511 228.899,43.823 229.213,44.143 229.797,44.507 229.898,44.589 230.582,44.636 231.267,44.640 231.951,44.644 232.636,44.647 233.321,44.620 234.005,44.591 234.690,44.562 235.210,44.507 235.374,44.489 236.059,44.409 236.744,44.356 237.428,44.331 238.113,44.301 238.797,43.970 238.996,43.823 239.482,43.464 239.923,43.138 240.167,42.971 240.851,42.506 240.923,42.454 241.536,41.991 241.758,41.769 242.220,41.280 242.432,41.084 242.905,40.579 243.102,40.400 243.590,39.942 243.816,39.715 244.274,39.142 244.354,39.031 244.745,38.346 244.959,37.972 245.136,37.661 245.533,36.977 245.643,36.773 245.914,36.292 246.254,35.608 246.328,35.314 246.437,34.923 246.683,34.238 246.896,33.554 247.013,33.225 247.141,32.869 247.380,32.185 "/>
</g>
<g id="ID000018" clip-path="url(#ID000001)" >
      <polyline fill="none" fill-opacity="1.00" stroke="#fed397" stroke-width="0.5pt" stroke-opacity="1.00" stroke-dasharray="none" points="227.558,32.185 227.284,32.869 227.159,33.183 226.985,33.554 226.541,34.238 226.475,34.319 225.960,34.923 225.790,35.123 225.377,35.608 225.105,36.279 225.101,36.292 225.064,36.977 225.027,37.661 224.990,38.346 224.935,39.031 224.915,39.715 225.105,40.091 225.366,40.400 225.727,41.084 225.790,41.185 226.105,41.769 226.474,42.454 226.475,42.454 226.899,43.138 227.159,43.412 227.648,43.823 227.844,44.077 228.215,44.507 228.528,45.062 228.602,45.192 229.173,45.877 229.213,45.909 229.898,46.204 230.582,46.499 230.728,46.561 231.267,46.793 231.951,47.050 232.636,47.193 233.321,47.176 234.005,47.158 234.690,47.142 235.374,47.125 236.059,47.108 236.744,47.090 237.428,47.072 238.113,47.054 238.797,47.047 239.482,47.053 240.167,46.921 240.800,46.561 240.851,46.530 241.536,46.114 241.924,45.877 242.220,45.678 242.905,45.221 242.941,45.192 243.590,44.620 243.713,44.507 244.274,43.995 244.463,43.823 244.959,43.370 245.213,43.138 245.643,42.747 245.937,42.454 246.328,41.933 246.467,41.769 246.994,41.084 247.013,41.061 247.583,40.400 247.697,40.246 248.136,39.715 248.382,39.320 248.547,39.031 248.884,38.346 249.066,37.914 249.184,37.661 249.539,36.977 249.751,36.505 249.857,36.292 250.164,35.608 250.347,34.923 250.436,34.616 250.545,34.238 250.742,33.554 250.940,32.869 251.120,32.246 251.138,32.185 "/>
</g>
<g id="ID000019" clip-path="url(#ID000001)" >
      <polyline fill="none" fill-opacity="1.00" stroke="#fedbaa" stroke-width="0.5pt" stroke-opacity="1.00" stroke-dasharray="none" points="227.352,32.185 227.159,32.667 227.078,32.869 226.743,33.554 226.475,33.956 226.234,34.238 225.790,34.760 225.651,34.923 225.105,35.564 225.068,35.608 224.829,36.292 224.792,36.977 224.755,37.661 224.719,38.346 224.630,39.031 224.421,39.665 224.384,39.715 224.214,40.400 224.377,41.084 224.421,41.166 224.898,41.769 225.105,42.032 225.411,42.454 225.790,42.923 225.889,43.138 226.374,43.823 226.475,43.978 226.795,44.507 227.159,45.110 227.206,45.192 227.558,45.877 227.844,46.321 227.979,46.561 228.528,47.192 228.652,47.246 229.213,47.661 229.577,47.930 229.898,48.174 230.476,48.615 230.582,48.696 231.267,49.195 231.420,49.300 231.951,49.661 232.426,49.984 232.636,50.127 233.321,50.235 234.005,50.141 234.690,50.057 235.137,49.984 235.374,49.951 236.059,49.954 236.744,49.978 237.428,49.977 238.113,49.967 238.797,49.958 239.482,49.950 240.167,49.942 240.851,49.935 241.536,49.894 242.220,49.643 242.905,49.389 243.147,49.300 243.590,49.151 244.274,48.921 244.959,48.691 245.095,48.615 245.643,48.248 246.076,47.930 246.328,47.746 247.011,47.246 247.013,47.244 247.697,46.757 247.981,46.561 248.382,46.198 248.706,45.877 249.066,45.515 249.388,45.192 249.751,44.827 250.069,44.507 250.436,44.139 250.725,43.823 251.120,43.336 251.267,43.138 251.733,42.454 251.805,42.343 252.174,41.769 252.489,41.279 252.614,41.084 253.049,40.400 253.174,40.183 253.423,39.715 253.742,39.031 253.859,38.721 253.999,38.346 254.256,37.661 254.513,36.977 254.543,36.897 254.768,36.292 255.000,35.608 255.127,34.923 255.228,34.478 255.285,34.238 255.445,33.554 255.610,32.869 255.774,32.185 "/>
</g>
<g id="ID000020" clip-path="url(#ID000001)" >
      <polyline fill="none" fill-opacity="1.00" stroke="#fee2bc" stroke-width="0.5pt" stroke-opacity="1.00" stroke-dasharray="none" points="227.146,32.185 226.872,32.869 226.501,33.554 226.475,33.594 225.926,34.238 225.790,34.398 225.343,34.923 225.105,35.202 224.760,35.608 224.557,36.292 224.521,36.977 224.484,37.661 224.447,38.346 224.421,38.506 224.196,39.031 223.736,39.674 223.709,39.715 223.550,40.400 223.390,41.084 223.326,41.769 223.483,42.454 223.736,42.774 224.024,43.138 224.421,43.740 224.478,43.823 224.789,44.507 225.099,45.192 225.105,45.205 225.462,45.877 225.790,46.462 225.845,46.561 226.210,47.246 226.475,47.879 226.496,47.930 226.782,48.615 227.159,49.170 227.334,49.300 227.844,49.639 228.363,49.984 228.528,50.105 229.213,50.598 229.314,50.669 229.898,51.228 230.031,51.353 230.582,51.850 230.779,52.038 231.267,52.493 231.507,52.723 231.951,53.119 232.636,53.391 232.684,53.407 233.321,53.681 234.005,53.996 234.206,54.092 234.690,54.367 235.374,54.582 236.059,54.684 236.744,54.756 237.067,54.776 237.428,54.799 238.113,54.842 238.797,54.888 239.482,54.943 240.167,54.999 240.851,55.022 241.536,54.975 242.220,54.917 242.905,54.860 243.590,54.813 244.126,54.776 244.274,54.766 244.959,54.638 245.643,54.336 246.198,54.092 246.328,54.035 247.013,53.733 247.697,53.432 247.749,53.407 248.382,53.074 248.959,52.723 249.066,52.655 249.751,52.249 250.106,52.038 250.436,51.842 251.120,51.432 251.220,51.353 251.805,50.832 251.988,50.669 252.489,50.222 252.757,49.984 253.174,49.633 253.570,49.300 253.859,49.049 254.259,48.615 254.543,48.274 254.830,47.930 255.228,47.453 255.401,47.246 255.912,46.633 255.972,46.561 256.492,45.877 256.597,45.721 256.922,45.192 257.281,44.608 257.343,44.507 257.764,43.823 257.966,43.495 258.185,43.138 258.561,42.454 258.651,42.267 258.875,41.769 259.178,41.084 259.335,40.729 259.481,40.400 259.783,39.715 260.020,39.097 260.045,39.031 260.253,38.346 260.458,37.661 260.658,36.977 260.704,36.819 260.858,36.292 261.036,35.608 261.137,34.923 261.238,34.238 261.339,33.554 261.389,33.214 261.441,32.869 261.549,32.185 "/>
</g>
<g id="ID000021" clip-path="url(#ID000001)" >
      <polyline fill="none" fill-opacity="1.00" stroke="#fde9cf" stroke-width="0.5pt" stroke-opacity="1.00" stroke-dasharray="none" points="226.940,32.185 226.666,32.869 226.475,33.219 226.200,33.554 225.790,34.035 225.617,34.238 225.105,34.839 225.034,34.923 224.451,35.608 224.421,35.721 224.286,36.292 224.247,36.977 224.142,37.661 223.939,38.346 223.736,38.700 223.481,39.031 223.052,39.713 223.050,39.715 222.891,40.400 222.731,41.084 222.572,41.769 222.422,42.454 222.367,42.666 222.214,43.138 222.362,43.823 222.367,43.839 222.636,44.507 222.957,45.192 223.052,45.408 223.240,45.877 223.554,46.561 223.736,47.082 223.794,47.246 224.019,47.930 224.266,48.615 224.421,49.043 224.513,49.300 224.760,49.984 225.022,50.669 225.105,50.871 225.341,51.353 225.790,51.954 225.878,52.038 226.475,52.604 226.599,52.723 227.159,53.255 227.320,53.407 227.844,54.023 227.906,54.092 228.499,54.776 228.528,54.811 229.093,55.461 229.213,55.600 229.661,56.146 229.898,56.416 230.328,56.830 230.582,57.065 231.162,57.515 231.267,57.596 231.951,58.135 232.034,58.199 232.636,58.673 232.982,58.884 233.321,59.060 234.005,59.307 234.690,59.554 234.731,59.569 235.374,59.853 236.059,60.161 236.329,60.253 236.744,60.405 237.428,60.591 238.113,60.760 238.797,60.929 238.832,60.938 239.482,61.093 240.167,61.206 240.851,61.314 241.536,61.396 242.220,61.443 242.905,61.490 243.590,61.524 244.274,61.541 244.959,61.555 245.643,61.488 246.328,61.394 247.013,61.300 247.697,61.211 248.382,61.143 249.066,60.989 249.203,60.938 249.751,60.740 250.436,60.497 251.120,60.258 251.135,60.253 251.805,60.042 252.489,59.720 252.744,59.569 253.174,59.313 253.859,58.935 253.955,58.884 254.543,58.574 255.228,58.213 255.247,58.199 255.912,57.672 256.106,57.515 256.597,57.127 256.973,56.830 257.281,56.593 257.866,56.146 257.966,56.069 258.602,55.461 258.651,55.409 259.235,54.776 259.335,54.668 259.868,54.092 260.020,53.928 260.503,53.407 260.704,53.189 261.074,52.723 261.389,52.280 261.562,52.038 262.049,51.353 262.074,51.319 262.536,50.669 262.758,50.356 263.019,49.984 263.436,49.300 263.443,49.288 263.814,48.615 264.127,48.045 264.191,47.930 264.567,47.246 264.812,46.801 264.944,46.561 265.271,45.877 265.497,45.354 265.563,45.192 265.846,44.507 266.128,43.823 266.181,43.694 266.411,43.138 266.655,42.454 266.866,41.809 266.879,41.769 267.089,41.084 267.290,40.400 267.491,39.715 267.550,39.479 267.663,39.031 267.797,38.346 267.932,37.661 268.067,36.977 268.201,36.292 268.235,36.090 268.317,35.608 268.390,34.923 268.478,34.238 268.567,33.554 268.660,32.869 268.753,32.185 "/>
</g>
<g id="ID000022" clip-path="url(#ID000001)" >
      <polyline fill="none" fill-opacity="1.00" stroke="#fcf0e3" stroke-width="0.5pt" stroke-opacity="1.00" stroke-dasharray="none" points="226.733,32.185 226.475,32.832 226.453,32.869 225.891,33.554 225.790,33.673 225.308,34.238 225.105,34.477 224.725,34.923 224.421,35.281 224.143,35.608 224.014,36.292 223.972,36.977 223.780,37.661 223.736,37.773 223.294,38.346 223.052,38.661 222.767,39.031 222.391,39.715 222.367,39.818 222.231,40.400 222.072,41.084 221.912,41.769 221.682,42.375 221.631,42.454 221.163,43.138 220.998,43.812 220.995,43.823 220.833,44.507 220.672,45.192 220.642,45.877 220.745,46.561 220.949,47.246 220.998,47.444 221.116,47.930 221.271,48.615 221.408,49.300 221.546,49.984 221.664,50.669 221.682,50.749 221.849,51.353 222.080,52.038 222.312,52.723 222.367,52.885 222.543,53.407 222.775,54.092 223.005,54.776 223.052,54.913 223.270,55.461 223.642,56.146 223.736,56.285 224.106,56.830 224.421,57.357 224.515,57.515 224.887,58.199 225.105,58.600 225.269,58.884 225.714,59.569 225.790,59.674 226.228,60.253 226.475,60.611 226.699,60.938 227.159,61.609 227.168,61.622 227.646,62.307 227.844,62.550 228.329,62.992 228.528,63.193 228.999,63.676 229.213,63.908 229.632,64.361 229.898,64.647 230.323,65.045 230.582,65.260 231.267,65.717 231.286,65.730 231.951,66.242 232.169,66.415 232.636,66.797 233.111,67.099 233.321,67.219 234.005,67.537 234.538,67.784 234.690,67.857 235.374,68.202 236.059,68.458 236.093,68.468 236.744,68.707 237.428,68.957 237.962,69.153 238.113,69.223 238.786,69.838 238.797,69.848 239.482,70.478 239.530,70.522 240.167,71.065 240.645,71.207 240.851,71.253 241.536,71.331 242.220,71.409 242.905,71.486 243.590,71.564 244.274,71.683 244.654,71.891 244.959,72.142 245.643,71.901 245.994,71.891 246.328,71.884 247.013,71.868 247.697,71.853 248.382,71.838 249.066,71.823 249.751,71.809 250.436,71.804 251.120,71.679 251.805,71.554 252.489,71.429 253.174,71.304 253.710,71.207 253.859,71.183 254.543,71.036 255.228,70.811 255.912,70.615 256.236,70.522 256.597,70.419 257.281,70.223 257.966,70.027 258.352,69.838 258.651,69.670 259.335,69.283 259.566,69.153 260.020,68.896 260.704,68.511 260.785,68.468 261.389,68.126 261.838,67.784 262.074,67.613 262.758,67.114 262.779,67.099 263.443,66.616 263.720,66.415 264.127,66.118 264.560,65.730 264.812,65.471 265.211,65.045 265.497,64.740 265.852,64.361 266.181,64.033 266.541,63.676 266.866,63.354 267.176,62.992 267.550,62.491 267.685,62.307 268.184,61.622 268.235,61.553 268.684,60.938 268.920,60.625 269.200,60.253 269.604,59.660 269.658,59.569 270.050,58.884 270.289,58.466 270.441,58.199 270.833,57.515 270.974,57.270 271.226,56.830 271.608,56.146 271.658,56.044 271.918,55.461 272.224,54.776 272.343,54.510 272.529,54.092 272.831,53.407 273.027,52.949 273.125,52.723 273.405,52.038 273.653,51.353 273.712,51.181 273.887,50.669 274.118,49.984 274.331,49.300 274.397,49.089 274.544,48.615 274.758,47.930 274.960,47.246 275.081,46.786 275.138,46.561 275.287,45.877 275.440,45.192 275.593,44.507 275.756,43.823 275.766,43.782 275.926,43.138 276.069,42.454 276.193,41.769 276.310,41.084 276.426,40.400 276.450,40.256 276.542,39.715 276.640,39.031 276.716,38.346 276.792,37.661 276.869,36.977 276.943,36.292 277.010,35.608 277.048,34.923 277.102,34.238 277.135,33.827 277.157,33.554 277.211,32.869 277.266,32.185 "/>
</g>
<g id="ID000023" clip-path="url(#ID000001)" >
      <polyline fill="none" fill-opacity="1.00" stroke="#fcf0e3" stroke-width="0.5pt" stroke-opacity="1.00" stroke-dasharray="none" points="353.635,32.185 353.810,32.500 354.183,32.869 354.495,33.355 354.697,33.554 355.130,34.238 355.179,34.296 355.735,34.923 355.864,35.076 356.398,35.608 356.549,36.203 356.640,36.292 357.127,36.977 357.233,37.114 357.655,37.661 357.918,38.003 358.231,38.346 358.602,38.856 358.780,39.031 359.061,39.715 359.287,40.117 359.487,40.400 359.960,41.084 359.971,41.101 360.436,41.769 360.656,42.085 360.912,42.454 361.246,43.138 361.341,43.393 361.585,43.823 362.014,44.507 362.025,44.526 362.443,45.192 362.710,45.618 362.872,45.877 363.301,46.561 363.394,46.903 363.514,47.246 363.861,47.930 364.079,48.318 364.246,48.615 364.631,49.300 364.764,49.536 365.016,49.984 365.343,50.669 365.448,51.095 365.530,51.353 365.873,52.038 366.133,52.558 366.215,52.723 366.558,53.407 366.818,53.926 366.901,54.092 367.157,54.776 367.357,55.461 367.502,55.829 367.642,56.146 367.945,56.830 368.187,57.378 368.247,57.515 368.550,58.199 368.767,58.884 368.871,59.352 368.927,59.569 369.191,60.253 369.456,60.938 369.556,61.198 369.720,61.622 369.984,62.307 370.180,62.992 370.240,63.316 370.316,63.676 370.536,64.361 370.763,65.045 370.925,65.535 370.990,65.730 371.216,66.415 371.402,67.099 371.509,67.784 371.610,68.186 371.687,68.468 371.878,69.153 372.068,69.838 372.259,70.522 372.294,70.661 372.437,71.207 372.528,71.891 372.654,72.576 372.810,73.261 372.965,73.945 372.979,74.007 373.120,74.630 373.275,75.314 373.361,75.999 373.446,76.684 373.565,77.368 373.663,77.928 373.685,78.053 373.806,78.737 373.927,79.422 374.023,80.107 374.068,80.791 374.149,81.476 374.236,82.160 374.322,82.845 374.348,83.049 374.412,83.530 374.496,84.214 374.525,84.899 374.568,85.583 374.622,86.268 374.675,86.953 374.729,87.637 374.782,88.322 374.818,89.006 374.824,89.691 374.846,90.376 374.867,91.060 374.888,91.745 374.910,92.429 374.929,93.114 374.919,93.799 374.932,94.483 374.983,95.168 375.033,95.730 375.241,95.168 375.495,94.483 375.717,93.881 375.747,93.799 375.971,93.114 376.190,92.429 376.402,91.762 376.407,91.745 376.625,91.060 376.842,90.376 377.039,89.691 377.087,89.519 377.229,89.006 377.419,88.322 377.608,87.637 377.771,87.030 377.792,86.953 377.970,86.268 378.129,85.583 378.288,84.899 378.448,84.214 378.456,84.179 378.611,83.530 378.776,82.845 378.929,82.160 379.067,81.476 379.140,81.114 379.206,80.791 379.345,80.107 379.483,79.422 379.622,78.737 379.749,78.053 379.825,77.618 379.869,77.368 379.988,76.684 380.104,75.999 380.217,75.314 380.331,74.630 380.433,73.945 380.509,73.397 380.529,73.261 380.624,72.576 380.720,71.891 380.816,71.207 380.912,70.522 380.998,69.838 381.078,69.153 381.159,68.468 381.194,68.178 381.242,67.784 381.324,67.099 381.407,66.415 381.481,65.730 381.547,65.045 381.614,64.361 381.679,63.676 381.743,62.992 381.807,62.307 381.863,61.622 381.879,61.404 381.912,60.938 381.962,60.253 382.012,59.569 382.064,58.884 382.117,58.199 382.170,57.515 382.213,56.830 382.253,56.146 382.294,55.461 382.334,54.776 382.374,54.092 382.410,53.407 382.445,52.723 382.480,52.038 382.507,51.353 382.538,50.669 382.563,50.104 382.569,49.984 382.598,49.300 382.625,48.615 382.649,47.930 382.673,47.246 382.697,46.561 382.716,45.877 382.733,45.192 382.750,44.507 382.768,43.823 382.786,43.138 382.800,42.454 382.812,41.769 382.826,41.084 382.839,40.400 382.852,39.715 382.861,39.031 382.866,38.346 382.871,37.661 382.876,36.977 382.883,36.292 382.888,35.608 382.889,34.923 382.890,34.238 382.892,33.554 382.894,32.869 382.896,32.185 "/>
</g>
<g id="ID000024" clip-path="url(#ID000001)" >
      <polyline fill="none" fill-opacity="1.00" stroke="#faf5f1" stroke-width="0.5pt" stroke-opacity="1.00" stroke-dasharray="none" points="226.527,32.185 226.475,32.316 226.154,32.869 225.790,33.310 225.582,33.554 225.105,34.114 225.000,34.238 224.421,34.918 224.417,34.923 223.834,35.608 223.742,36.292 223.736,36.390 223.635,36.977 223.108,37.661 223.052,37.734 222.580,38.346 222.367,38.623 222.052,39.031 221.732,39.715 221.682,39.928 221.568,40.400 221.341,41.084 220.998,41.748 220.983,41.769 220.507,42.454 220.313,42.760 220.085,43.138 219.922,43.823 219.760,44.507 219.629,45.061 219.592,45.192 219.344,45.877 218.944,46.536 218.928,46.561 218.715,47.246 218.544,47.930 218.376,48.615 218.259,49.073 218.203,49.300 218.072,49.984 218.030,50.669 218.023,51.353 218.060,52.038 218.097,52.723 218.135,53.407 218.180,54.092 218.259,54.655 218.276,54.776 218.373,55.461 218.470,56.146 218.574,56.830 218.685,57.515 218.861,58.199 218.944,58.667 218.981,58.884 219.104,59.569 219.225,60.253 219.346,60.938 219.521,61.622 219.629,62.038 219.698,62.307 219.887,62.992 220.108,63.676 220.313,64.226 220.368,64.361 220.661,65.045 220.947,65.730 220.998,65.870 221.192,66.415 221.434,67.099 221.682,67.767 221.689,67.784 221.989,68.468 222.320,69.153 222.367,69.244 222.679,69.838 223.042,70.522 223.052,70.539 223.424,71.207 223.736,71.767 223.806,71.891 224.189,72.576 224.421,72.957 224.645,73.261 225.105,73.894 225.142,73.945 225.624,74.630 225.790,74.876 226.093,75.314 226.475,75.887 226.550,75.999 227.021,76.684 227.159,76.878 227.546,77.368 227.844,77.745 228.087,78.053 228.528,78.606 228.634,78.737 229.203,79.422 229.213,79.434 229.823,80.107 229.898,80.183 230.582,80.657 230.776,80.791 231.267,81.170 231.642,81.476 231.951,81.731 232.471,82.160 232.636,82.297 233.150,82.845 233.321,83.022 233.845,83.530 234.005,83.658 234.690,84.147 234.782,84.214 235.374,84.794 235.536,84.899 236.059,85.253 236.468,85.583 236.744,85.795 237.330,86.268 237.428,86.335 238.113,86.553 238.797,86.815 239.110,86.953 239.482,87.150 240.167,87.513 240.329,87.637 240.851,88.093 241.079,88.322 241.536,88.763 241.793,89.006 242.220,89.402 242.587,89.691 242.905,89.894 243.590,90.051 244.274,90.209 244.959,90.366 245.002,90.376 245.643,90.561 246.328,90.836 246.680,91.060 247.013,91.291 247.697,91.723 247.732,91.745 248.382,92.155 248.818,92.429 249.066,92.586 249.751,92.967 250.436,93.064 250.971,93.114 251.120,93.128 251.201,93.114 251.805,92.987 252.489,92.699 253.129,92.429 253.174,92.416 253.859,92.233 254.543,92.098 255.228,92.049 255.912,92.080 256.597,92.152 257.281,92.276 257.753,92.429 257.966,92.653 258.123,93.114 258.337,93.799 258.651,94.467 258.719,94.483 259.335,94.528 260.020,94.578 260.704,94.628 261.189,94.483 261.389,94.406 262.074,93.940 262.281,93.799 262.758,93.473 263.285,93.114 263.443,92.976 264.127,92.804 264.812,92.758 265.497,92.712 266.181,92.666 266.866,92.621 267.550,92.576 267.877,92.429 268.235,92.230 268.920,91.799 269.004,91.745 269.604,91.363 270.080,91.060 270.289,90.927 270.974,90.455 271.077,90.376 271.658,89.930 271.969,89.691 272.343,89.417 272.901,89.006 273.027,88.917 273.712,88.424 273.819,88.322 274.397,87.691 274.445,87.637 275.071,86.953 275.081,86.942 275.697,86.268 275.766,86.197 276.342,85.583 276.450,85.455 276.823,84.899 277.135,84.432 277.290,84.214 277.738,83.530 277.820,83.408 278.204,82.845 278.504,82.399 278.651,82.160 279.008,81.476 279.189,81.107 279.350,80.791 279.680,80.107 279.873,79.713 280.017,79.422 280.353,78.737 280.558,78.356 280.696,78.053 280.942,77.368 281.183,76.684 281.242,76.513 281.424,75.999 281.665,75.314 281.922,74.630 281.927,74.616 282.177,73.945 282.386,73.261 282.557,72.576 282.612,72.347 282.721,71.891 282.893,71.207 283.071,70.522 283.248,69.838 283.296,69.653 283.425,69.153 283.576,68.468 283.696,67.784 283.815,67.099 283.937,66.415 283.981,66.203 284.080,65.730 284.221,65.045 284.363,64.361 284.510,63.676 284.643,62.992 284.666,62.832 284.732,62.307 284.819,61.622 284.906,60.938 284.993,60.253 285.081,59.569 285.168,58.884 285.258,58.199 285.344,57.515 285.350,57.469 285.430,56.830 285.498,56.146 285.571,55.461 285.643,54.776 285.715,54.092 285.785,53.407 285.853,52.723 285.921,52.038 285.989,51.353 286.035,50.689 286.036,50.669 286.068,49.984 286.096,49.300 286.142,48.615 286.193,47.930 286.249,47.246 286.305,46.561 286.353,45.877 286.400,45.192 286.437,44.507 286.468,43.823 286.491,43.138 286.511,42.454 286.530,41.769 286.552,41.084 286.583,40.400 286.621,39.715 286.652,39.031 286.677,38.346 286.698,37.661 286.712,36.977 286.719,36.590 286.725,36.292 286.737,35.608 286.744,34.923 286.750,34.238 286.758,33.554 286.775,32.869 286.792,32.185 "/>
</g>
<g id="ID000025" clip-path="url(#ID000001)" >
      <polyline fill="none" fill-opacity="1.00" stroke="#faf5f1" stroke-width="0.5pt" stroke-opacity="1.00" stroke-dasharray="none" points="353.311,32.185 353.725,32.869 353.810,32.975 354.302,33.554 354.495,33.780 354.884,34.238 355.179,34.585 355.479,34.923 355.864,35.380 356.093,35.608 356.197,36.292 356.450,36.977 356.549,37.122 356.964,37.661 357.233,38.010 357.492,38.346 357.918,38.899 358.019,39.031 358.288,39.715 358.466,40.400 358.602,40.722 358.854,41.084 359.287,41.706 359.331,41.769 359.807,42.454 359.971,42.746 360.184,43.138 360.342,43.823 360.500,44.507 360.656,44.919 360.815,45.192 361.244,45.877 361.341,46.031 361.673,46.561 361.876,47.246 362.025,47.858 362.043,47.930 362.211,48.615 362.449,49.300 362.710,49.833 362.795,49.984 363.097,50.669 363.265,51.353 363.394,51.880 363.433,52.038 363.602,52.723 363.774,53.407 364.033,54.092 364.079,54.257 364.218,54.776 364.358,55.461 364.449,56.146 364.626,56.830 364.647,57.515 364.618,58.199 364.562,58.884 364.554,59.569 364.578,60.253 364.602,60.938 364.623,61.622 364.547,62.307 364.469,62.992 364.391,63.676 364.322,64.361 364.283,65.045 364.224,65.730 364.141,66.415 364.079,66.911 364.055,67.099 363.968,67.784 363.882,68.468 363.744,69.153 363.580,69.838 363.420,70.522 363.394,70.717 363.331,71.207 363.250,71.891 363.114,72.576 362.952,73.261 362.790,73.945 362.710,74.283 362.619,74.630 362.423,75.314 362.182,75.999 362.025,76.495 361.964,76.684 361.774,77.368 361.587,78.053 361.390,78.737 361.341,78.872 361.138,79.422 360.885,80.107 360.656,80.726 360.631,80.791 360.370,81.476 360.102,82.160 359.971,82.484 359.820,82.845 359.533,83.530 359.287,84.115 359.245,84.214 358.933,84.899 358.602,85.504 358.559,85.583 358.185,86.268 357.918,86.756 357.810,86.953 357.482,87.637 357.233,88.158 357.145,88.322 356.779,89.006 356.549,89.438 356.413,89.691 356.101,90.376 355.866,91.060 355.864,91.068 355.630,91.745 355.361,92.429 355.179,92.837 355.043,93.114 354.610,93.799 354.495,93.981 354.132,94.483 353.810,94.944 353.619,95.168 353.125,95.558 352.672,95.852 352.441,96.032 351.756,96.458 351.633,96.537 351.072,97.089 350.974,97.222 350.784,97.906 350.573,98.591 350.387,99.240 350.378,99.275 350.192,99.960 349.702,100.598 349.671,100.645 349.147,101.329 349.018,101.497 348.622,102.014 348.333,102.410 348.132,102.698 347.670,103.383 347.649,103.431 347.324,104.068 347.018,104.752 346.964,104.830 346.435,105.437 346.279,105.615 345.838,106.121 345.595,106.393 345.233,106.806 344.910,107.211 344.649,107.491 344.226,108.041 344.055,108.175 343.541,108.581 343.188,108.860 342.856,109.146 342.441,109.544 342.172,109.929 341.973,110.229 341.546,110.914 341.487,111.012 341.145,111.598 340.803,111.901 340.251,112.283 340.118,112.357 339.433,112.740 339.024,112.967 338.749,113.120 338.064,113.492 337.769,113.652 337.386,114.337 337.380,114.354 337.154,115.021 336.932,115.706 336.695,116.189 336.530,116.390 336.011,116.639 335.326,116.968 335.059,117.075 334.641,117.266 333.957,117.597 333.600,117.760 333.385,118.444 333.298,119.129 333.272,119.336 333.231,119.813 333.125,120.498 332.588,120.808 331.903,121.027 331.470,121.183 331.218,121.302 330.534,121.575 329.849,121.853 329.836,121.867 329.819,122.552 329.808,123.236 329.796,123.921 329.732,124.606 329.164,124.978 328.480,125.159 327.920,125.290 327.795,125.334 327.111,125.615 326.531,125.975 326.516,126.659 326.532,127.344 326.547,128.029 326.559,128.713 326.426,128.959 325.741,129.364 325.613,129.398 325.057,129.544 324.372,129.723 323.688,129.903 323.553,130.082 323.684,130.767 323.688,130.786 323.825,131.452 323.893,132.136 323.883,132.821 323.873,133.505 323.688,134.125 323.645,134.190 323.003,134.732 322.834,134.875 322.556,135.559 322.318,136.223 322.312,136.244 322.194,136.928 322.037,137.613 321.634,138.024 321.388,138.298 320.949,138.765 320.792,138.982 320.538,139.667 320.285,140.351 320.265,140.400 319.938,141.036 319.580,141.576 319.471,141.721 318.895,142.368 318.863,142.405 318.271,143.090 318.211,143.192 317.976,143.774 317.890,144.459 317.806,145.144 317.724,145.828 317.626,146.513 317.526,146.756 317.306,147.197 317.019,147.882 316.842,148.315 316.739,148.567 316.469,149.251 316.289,149.936 316.157,150.525 316.136,150.620 315.980,151.305 315.803,151.990 315.626,152.674 315.473,153.291 315.456,153.359 315.287,154.043 315.119,154.728 314.950,155.413 314.788,156.097 314.788,156.099 314.650,156.782 314.512,157.466 314.373,158.151 314.235,158.836 314.103,159.486 314.096,159.520 313.966,160.205 313.842,160.889 313.720,161.574 313.597,162.259 313.474,162.943 313.419,163.288 313.364,163.628 313.285,164.312 313.210,164.997 313.134,165.682 313.058,166.366 312.982,167.051 312.734,167.624 312.694,167.735 312.321,168.420 312.050,168.941 311.957,169.105 311.584,169.789 311.365,170.211 311.219,170.474 310.838,171.158 310.680,171.484 310.518,171.843 310.680,172.210 310.876,172.528 311.342,173.212 311.365,173.244 311.835,173.897 312.050,174.194 312.329,174.581 312.734,175.159 312.808,175.266 313.259,175.951 313.419,176.193 313.752,176.635 314.103,177.070 314.310,177.320 314.788,177.898 314.875,178.004 315.415,178.689 315.473,178.765 315.933,179.374 316.157,179.671 316.467,180.058 316.842,180.499 317.074,180.743 317.526,181.218 317.726,181.427 318.211,181.965 318.341,182.112 318.895,182.757 318.930,182.797 319.519,183.481 319.580,183.552 320.180,184.166 320.265,184.248 320.923,184.850 320.949,184.875 321.634,185.534 321.635,185.535 322.318,186.218 322.320,186.220 323.003,186.903 323.004,186.904 323.688,187.477 323.822,187.589 324.372,188.087 324.578,188.273 325.057,188.716 325.349,188.958 325.741,189.280 326.197,189.643 326.426,189.828 327.030,190.327 327.111,190.395 327.795,190.917 327.922,191.012 328.480,191.424 328.842,191.696 329.164,191.936 329.780,192.381 329.849,192.432 330.534,192.901 330.769,193.066 331.218,193.379 331.750,193.750 331.903,193.857 332.588,194.284 332.845,194.435 333.272,194.693 333.956,195.119 333.957,195.120 334.641,195.554 335.100,195.804 335.326,195.927 336.011,196.302 336.348,196.489 336.695,196.681 337.380,197.056 337.627,197.173 338.064,197.380 338.749,197.705 339.063,197.858 339.433,198.040 340.118,198.376 340.508,198.542 340.803,198.669 341.487,198.943 342.172,199.224 342.179,199.227 342.856,199.518 343.541,199.782 343.921,199.912 344.226,200.016 344.910,200.249 345.595,200.490 345.900,200.596 346.279,200.731 346.964,200.923 347.649,201.116 348.233,201.281 348.333,201.309 349.018,201.505 349.702,201.678 350.387,201.830 351.005,201.965 351.072,201.980 351.756,202.145 352.441,202.294 353.125,202.407 353.810,202.526 354.495,202.645 354.522,202.650 355.179,202.764 355.864,202.859 356.549,202.924 357.233,202.996 357.918,203.074 358.602,203.152 359.287,203.191 359.971,203.214 360.656,203.237 361.341,203.265 362.025,203.300 362.710,203.286 363.394,203.268 364.079,203.250 364.764,203.234 365.448,203.223 366.133,203.168 366.818,203.119 367.502,203.071 368.187,203.023 368.871,202.961 369.556,202.855 370.240,202.749 370.878,202.650 370.925,202.643 371.610,202.550 372.294,202.435 372.979,202.284 373.663,202.138 374.348,201.997 374.503,201.965 375.033,201.862 375.717,201.698 376.402,201.509 377.087,201.328 377.264,201.281 377.771,201.146 378.456,200.965 379.140,200.743 379.558,200.596 379.825,200.503 380.509,200.262 381.194,200.022 381.514,199.912 381.879,199.787 382.563,199.513 383.248,199.236 383.269,199.227 383.933,198.961 384.617,198.687 384.977,198.542 385.302,198.408 385.986,198.075 386.423,197.858 386.671,197.735 387.356,197.395 387.804,197.173 388.040,197.056 388.725,196.699 389.091,196.489 389.409,196.316 390.094,195.943 390.348,195.804 390.779,195.570 391.463,195.186 391.569,195.119 392.148,194.748 392.636,194.435 392.832,194.309 393.517,193.870 393.706,193.750 394.202,193.437 394.728,193.066 394.886,192.953 395.571,192.474 395.703,192.381 396.255,191.995 396.681,191.696 396.940,191.515 397.611,191.012 397.625,191.001 398.309,190.446 398.455,190.327 398.994,189.890 399.299,189.643 399.678,189.337 400.126,188.958 400.363,188.759 400.903,188.273 401.048,188.147 401.684,187.589 401.732,187.547 402.417,186.947 402.465,186.904 403.101,186.320 403.206,186.220 403.786,185.659 403.911,185.535 404.471,184.982 404.604,184.850 405.155,184.306 405.294,184.166 405.840,183.593 405.946,183.481 406.524,182.874 406.595,182.797 407.209,182.127 407.222,182.112 407.835,181.427 407.894,181.359 408.411,180.743 408.578,180.543 408.985,180.058 409.263,179.728 409.560,179.374 409.947,178.913 410.131,178.689 410.632,178.063 410.676,178.004 411.207,177.320 411.316,177.179 411.740,176.635 412.001,176.299 412.272,175.951 412.686,175.404 412.788,175.266 413.275,174.581 413.370,174.448 413.759,173.897 414.055,173.478 414.239,173.212 414.711,172.528 414.739,172.485 415.150,171.843 415.424,171.404 415.578,171.158 416.010,170.474 416.109,170.325 416.462,169.789 416.793,169.292 416.914,169.105 417.326,168.420 417.478,168.167 417.732,167.735 418.136,167.051 418.162,167.007 418.540,166.366 418.847,165.831 418.930,165.682 419.292,164.997 419.532,164.543 419.653,164.312 420.019,163.628 420.216,163.277 420.401,162.943 420.770,162.259 420.901,162.001 421.116,161.574 421.460,160.889 421.585,160.640 421.804,160.205 422.147,159.520 422.270,159.263 422.469,158.836 422.773,158.151 422.955,157.741 423.077,157.466 423.396,156.782 423.639,156.276 423.725,156.097 424.035,155.413 424.324,154.734 424.327,154.728 424.617,154.043 424.907,153.359 425.009,153.119 425.197,152.674 425.471,151.990 425.693,151.389 425.724,151.305 425.998,150.620 426.275,149.936 426.378,149.681 426.551,149.251 426.820,148.567 427.062,147.884 427.063,147.882 427.304,147.197 427.546,146.513 427.747,145.943 427.787,145.828 428.036,145.144 428.273,144.459 428.431,143.986 428.502,143.774 428.732,143.090 428.962,142.405 429.116,141.947 429.192,141.721 429.406,141.036 429.603,140.351 429.801,139.689 429.807,139.667 430.026,138.982 430.244,138.298 430.460,137.613 430.485,137.524 430.648,136.928 430.835,136.244 431.023,135.559 431.170,135.021 431.210,134.875 431.406,134.190 431.597,133.505 431.775,132.821 431.854,132.512 431.952,132.136 432.130,131.452 432.307,130.767 432.485,130.082 432.539,129.841 432.636,129.398 432.800,128.713 432.968,128.029 433.135,127.344 433.224,126.984 433.303,126.659 433.463,125.975 433.604,125.290 433.745,124.606 433.890,123.921 433.908,123.843 434.048,123.236 434.206,122.552 434.349,121.867 434.481,121.183 434.593,120.604 434.613,120.498 434.746,119.813 434.879,119.129 435.023,118.444 435.151,117.760 435.275,117.075 435.278,117.062 435.399,116.390 435.524,115.706 435.648,115.021 435.770,114.337 435.882,113.652 435.962,113.177 435.998,112.967 436.114,112.283 436.230,111.598 436.347,110.914 436.458,110.229 436.555,109.544 436.647,108.910 436.654,108.860 436.762,108.175 436.870,107.491 436.978,106.806 437.080,106.121 437.169,105.437 437.258,104.752 437.331,104.195 437.348,104.068 437.448,103.383 437.548,102.698 437.642,102.014 437.723,101.329 437.805,100.645 437.886,99.960 437.969,99.275 438.016,98.927 438.061,98.591 438.148,97.906 438.223,97.222 438.297,96.537 438.372,95.852 438.447,95.168 438.523,94.483 438.603,93.799 438.671,93.114 438.700,92.822 438.740,92.429 438.808,91.745 438.877,91.060 438.945,90.376 439.013,89.691 439.076,89.006 439.138,88.322 439.200,87.637 439.262,86.953 439.324,86.268 439.385,85.590 439.386,85.583 439.438,84.899 439.494,84.214 439.550,83.530 439.606,82.845 439.662,82.160 439.717,81.476 439.764,80.791 439.812,80.107 439.862,79.422 439.912,78.737 439.962,78.053 440.012,77.368 440.055,76.684 440.070,76.435 440.095,75.999 440.138,75.314 440.182,74.630 440.227,73.945 440.271,73.261 440.312,72.576 440.346,71.891 440.382,71.207 440.420,70.522 440.458,69.838 440.497,69.153 440.534,68.468 440.565,67.784 440.595,67.099 440.627,66.415 440.660,65.730 440.693,65.045 440.726,64.361 440.754,63.676 440.754,63.669 440.780,62.992 440.805,62.307 440.833,61.622 440.861,60.938 440.890,60.253 440.914,59.569 440.936,58.884 440.957,58.199 440.979,57.515 441.003,56.830 441.026,56.146 441.049,55.461 441.067,54.776 441.085,54.092 441.103,53.407 441.119,52.723 441.136,52.038 441.152,51.353 441.169,50.669 441.185,49.984 441.197,49.300 441.210,48.615 441.224,47.930 441.238,47.246 441.252,46.561 441.263,45.877 441.272,45.192 441.282,44.507 441.291,43.823 441.300,43.138 441.308,42.454 441.314,41.769 441.320,41.084 441.328,40.400 441.335,39.715 441.341,39.031 441.344,38.346 441.347,37.661 441.350,36.977 441.353,36.292 441.356,35.608 441.356,34.923 441.357,34.238 441.358,33.554 441.359,32.869 441.361,32.185 "/>
</g>
<g id="ID000026" clip-path="url(#ID000001)" >
      <polyline fill="none" fill-opacity="1.00" stroke="#f6f7f7" stroke-width="0.5pt" stroke-opacity="1.00" stroke-dasharray="none" points="162.013,32.185 162.015,32.869 162.018,33.554 162.020,34.238 162.022,34.923 162.022,35.608 162.028,36.292 162.037,36.977 162.043,37.661 162.049,38.346 162.055,39.031 162.065,39.715 162.080,40.400 162.094,41.084 162.109,41.769 162.121,42.454 162.122,42.492 162.136,43.138 162.157,43.823 162.178,44.507 162.196,45.192 162.215,45.877 162.233,46.561 162.260,47.246 162.288,47.930 162.315,48.615 162.342,49.300 162.368,49.984 162.400,50.669 162.436,51.353 162.470,52.038 162.503,52.723 162.535,53.407 162.571,54.092 162.612,54.776 162.653,55.461 162.694,56.146 162.734,56.830 162.776,57.515 162.807,57.929 162.827,58.199 162.877,58.884 162.928,59.569 162.976,60.253 163.024,60.938 163.079,61.622 163.135,62.307 163.191,62.992 163.248,63.676 163.304,64.361 163.366,65.045 163.432,65.730 163.491,66.340 163.499,66.415 163.565,67.099 163.631,67.784 163.698,68.468 163.774,69.153 163.850,69.838 163.925,70.522 164.001,71.207 164.076,71.891 164.154,72.576 164.176,72.747 164.241,73.261 164.329,73.945 164.415,74.630 164.501,75.314 164.595,75.999 164.689,76.684 164.784,77.368 164.861,77.920 164.879,78.053 164.975,78.737 165.079,79.422 165.183,80.107 165.286,80.791 165.391,81.476 165.503,82.160 165.545,82.420 165.615,82.845 165.732,83.530 165.848,84.214 165.968,84.899 166.089,85.583 166.211,86.268 166.230,86.366 166.341,86.953 166.473,87.637 166.606,88.322 166.739,89.006 166.872,89.691 166.914,89.898 167.012,90.376 167.159,91.060 167.307,91.745 167.455,92.429 167.599,93.093 167.604,93.114 167.756,93.799 167.918,94.483 168.082,95.168 168.247,95.852 168.284,96.005 168.411,96.537 168.577,97.222 168.752,97.906 168.933,98.591 168.968,98.723 169.115,99.275 169.297,99.960 169.478,100.645 169.653,101.264 169.671,101.329 169.869,102.014 170.066,102.698 170.264,103.383 170.337,103.634 170.464,104.068 170.679,104.752 170.895,105.437 171.022,105.830 171.115,106.121 171.328,106.806 171.546,107.491 171.707,107.961 171.780,108.175 172.019,108.860 172.258,109.544 172.391,109.929 172.495,110.229 172.734,110.914 172.982,111.598 173.076,111.845 173.243,112.283 173.506,112.967 173.760,113.631 173.768,113.652 174.031,114.337 174.307,115.021 174.445,115.353 174.592,115.706 174.878,116.390 175.130,116.993 175.164,117.075 175.455,117.760 175.759,118.444 175.814,118.567 176.068,119.129 176.378,119.813 176.499,120.073 176.697,120.498 177.018,121.183 177.183,121.526 177.351,121.867 177.689,122.552 177.868,122.907 178.034,123.236 178.382,123.921 178.553,124.257 178.733,124.606 179.107,125.290 179.237,125.527 179.484,125.975 179.858,126.659 179.922,126.775 180.236,127.344 180.606,127.977 180.637,128.029 181.047,128.713 181.291,129.122 181.456,129.398 181.867,130.082 181.976,130.260 182.290,130.767 182.660,131.324 182.745,131.452 183.201,132.136 183.345,132.354 183.654,132.821 184.029,133.393 184.105,133.505 184.587,134.190 184.714,134.365 185.076,134.875 185.399,135.318 185.571,135.559 186.064,136.244 186.083,136.269 186.591,136.928 186.768,137.155 187.122,137.613 187.452,138.040 187.652,138.298 188.137,138.892 188.213,138.982 188.794,139.667 188.822,139.701 189.371,140.351 189.506,140.508 189.974,141.036 190.191,141.281 190.580,141.721 190.875,142.055 191.193,142.405 191.560,142.784 191.862,143.090 192.245,143.477 192.538,143.774 192.929,144.179 193.212,144.459 193.614,144.844 193.932,145.144 194.298,145.484 194.661,145.828 194.983,146.128 195.394,146.513 195.668,146.759 196.179,147.197 196.352,147.347 196.978,147.882 197.037,147.933 197.721,148.514 197.788,148.567 198.406,149.061 198.643,149.251 199.091,149.611 199.517,149.936 199.775,150.124 200.460,150.619 200.462,150.620 201.144,151.129 201.396,151.305 201.829,151.594 202.433,151.990 202.514,152.042 203.198,152.496 203.470,152.674 203.883,152.939 204.567,153.355 204.574,153.359 205.252,153.774 205.691,154.043 205.937,154.191 206.621,154.569 206.920,154.728 207.306,154.927 207.990,155.280 208.246,155.413 208.675,155.634 209.360,155.981 209.601,156.097 210.044,156.301 210.729,156.608 211.115,156.782 211.413,156.916 212.098,157.219 212.762,157.466 212.782,157.474 213.467,157.729 214.152,157.984 214.599,158.151 214.836,158.243 215.521,158.503 216.206,158.724 216.610,158.836 216.890,158.913 217.575,159.114 218.259,159.317 218.942,159.520 218.944,159.521 219.629,159.724 220.313,159.917 220.998,160.039 221.682,160.159 221.942,160.205 222.367,160.280 223.052,160.400 223.736,160.523 224.421,160.654 225.105,160.725 225.790,160.803 226.475,160.883 226.525,160.889 227.159,160.963 227.844,161.044 228.528,161.124 229.213,161.149 229.898,161.148 230.582,161.147 231.267,161.151 231.951,161.168 232.636,161.196 233.321,161.178 234.005,161.126 234.690,161.074 235.374,161.024 236.059,160.972 236.744,160.922 236.989,160.889 237.428,160.836 238.113,160.741 238.797,160.645 239.482,160.550 240.167,160.455 240.851,160.361 241.480,160.205 241.536,160.191 241.973,159.520 241.537,158.836 241.536,158.834 241.067,158.151 240.851,157.833 240.616,157.466 240.178,156.782 240.167,156.765 239.739,156.097 239.482,155.708 239.284,155.413 238.808,154.728 238.797,154.713 238.332,154.043 238.113,153.729 237.875,153.359 237.443,152.674 237.428,152.652 236.985,151.990 236.744,151.630 236.525,151.305 236.070,150.620 236.059,150.590 235.797,149.936 235.623,149.251 235.443,148.567 235.374,148.300 235.270,147.882 235.101,147.197 234.933,146.513 234.762,145.828 234.690,145.562 234.576,145.144 234.390,144.459 234.192,143.774 234.005,143.180 233.977,143.090 233.743,142.405 233.498,141.721 233.321,141.210 233.262,141.036 233.030,140.351 232.799,139.667 232.636,139.210 232.554,138.982 232.298,138.298 232.041,137.613 231.951,137.373 231.790,136.928 231.549,136.244 231.288,135.559 231.267,135.504 231.024,134.875 230.761,134.190 230.582,133.727 230.497,133.505 230.218,132.821 229.924,132.136 229.898,132.072 229.651,131.452 229.380,130.767 229.213,130.347 229.108,130.082 228.823,129.398 228.530,128.713 228.528,128.709 228.256,128.029 227.992,127.344 227.844,126.960 227.728,126.659 227.427,125.975 227.159,125.369 227.125,125.290 226.836,124.606 226.572,123.921 226.475,123.673 226.303,123.236 226.003,122.552 225.790,122.063 225.704,121.867 225.411,121.183 225.141,120.498 225.105,120.412 224.858,119.813 224.556,119.129 224.421,118.822 224.254,118.444 223.958,117.760 223.736,117.182 223.697,117.075 223.416,116.390 223.123,115.706 223.052,115.540 222.829,115.021 222.541,114.337 222.367,113.875 222.286,113.652 222.005,112.967 221.711,112.283 221.682,112.215 221.418,111.598 221.141,110.914 220.998,110.505 220.905,110.229 220.645,109.544 220.369,108.860 220.313,108.722 220.092,108.175 219.835,107.491 219.629,106.883 219.602,106.806 219.352,106.121 219.065,105.437 218.944,105.149 218.780,104.752 218.539,104.068 218.325,103.383 218.259,103.171 218.112,102.698 217.858,102.014 217.598,101.329 217.575,101.258 217.379,100.645 217.165,99.960 216.951,99.275 216.890,99.097 216.723,98.591 216.465,97.906 216.265,97.222 216.206,97.011 216.073,96.537 215.881,95.852 215.689,95.168 215.521,94.585 215.494,94.483 215.311,93.799 215.127,93.114 214.942,92.429 214.836,92.037 214.758,91.745 214.598,91.060 214.470,90.376 214.296,89.691 214.152,89.145 214.115,89.006 213.935,88.322 213.784,87.637 213.679,86.953 213.572,86.268 213.467,85.780 213.427,85.583 213.250,84.899 213.098,84.214 213.003,83.530 212.908,82.845 212.813,82.160 212.782,81.944 212.717,81.476 212.575,80.791 212.483,80.107 212.392,79.422 212.301,78.737 212.208,78.053 212.114,77.368 212.098,76.693 212.098,76.684 212.047,75.999 211.964,75.314 211.880,74.630 211.795,73.945 211.756,73.261 211.772,72.576 211.789,71.891 211.768,71.207 211.700,70.522 211.626,69.838 211.646,69.153 211.673,68.468 211.699,67.784 211.726,67.099 211.735,66.415 211.817,65.730 211.895,65.045 211.946,64.361 212.052,63.676 212.098,63.431 212.204,62.992 212.323,62.307 212.501,61.622 212.670,60.938 212.782,60.409 212.816,60.253 212.962,59.569 213.108,58.884 213.257,58.199 213.467,57.712 213.545,57.515 213.777,56.830 213.936,56.146 214.095,55.461 214.152,55.216 214.254,54.776 214.465,54.092 214.808,53.407 214.836,53.351 215.101,52.723 215.298,52.038 215.463,51.353 215.521,51.112 215.627,50.669 215.938,49.984 216.206,49.507 216.322,49.300 216.707,48.615 216.890,48.082 216.928,47.930 217.099,47.246 217.297,46.561 217.575,46.118 217.726,45.877 218.155,45.192 218.259,45.026 218.570,44.507 218.834,43.823 218.944,43.424 219.012,43.138 219.383,42.454 219.629,42.100 219.859,41.769 220.313,41.117 220.335,41.084 220.812,40.400 220.998,39.994 221.073,39.715 221.338,39.031 221.682,38.584 221.866,38.346 222.367,37.696 222.393,37.661 222.921,36.977 223.052,36.808 223.300,36.292 223.474,35.608 223.736,35.348 224.095,34.923 224.421,34.556 224.691,34.238 225.105,33.752 225.274,33.554 225.790,32.948 225.855,32.869 226.206,32.185 "/>
</g>
<g id="ID000027" clip-path="url(#ID000001)" >
      <polyline fill="none" fill-opacity="1.00" stroke="#f6f7f7" stroke-width="0.5pt" stroke-opacity="1.00" stroke-dasharray="none" points="296.609,32.185 296.638,32.869 296.664,33.554 296.687,34.238 296.710,34.923 296.732,35.608 296.770,36.292 296.813,36.977 296.855,37.661 296.897,38.346 296.947,39.031 296.988,39.470 297.012,39.715 297.086,40.400 297.143,41.084 297.202,41.769 297.257,42.454 297.317,43.138 297.389,43.823 297.463,44.507 297.551,45.192 297.645,45.877 297.673,46.069 297.743,46.561 297.857,47.246 297.970,47.930 298.083,48.615 298.188,49.300 298.291,49.984 298.358,50.413 298.400,50.669 298.538,51.353 298.676,52.038 298.814,52.723 298.952,53.407 299.042,53.837 299.095,54.092 299.241,54.776 299.389,55.461 299.564,56.146 299.727,56.720 299.759,56.830 299.960,57.515 300.163,58.199 300.365,58.884 300.411,59.039 300.568,59.569 300.769,60.253 301.001,60.938 301.096,61.192 301.258,61.622 301.518,62.307 301.775,62.992 301.781,63.008 302.026,63.676 302.277,64.361 302.465,64.893 302.525,65.045 302.850,65.730 303.150,66.331 303.191,66.415 303.532,67.099 303.834,67.706 303.873,67.784 304.198,68.468 304.519,69.135 304.529,69.153 304.978,69.838 305.204,70.180 305.428,70.522 305.877,71.207 305.888,71.224 306.308,71.891 306.573,72.329 306.746,72.576 307.257,73.194 307.315,73.261 307.908,73.945 307.942,73.984 308.502,74.630 308.627,74.778 309.077,75.314 309.311,75.581 309.767,75.999 309.996,76.201 310.530,76.684 310.680,76.817 311.280,77.368 311.365,77.443 312.027,78.053 312.050,78.071 312.734,78.476 313.176,78.737 313.419,78.907 314.103,79.386 314.155,79.422 314.788,79.864 315.234,80.107 315.473,80.219 316.157,80.477 316.842,80.735 316.988,80.791 317.526,80.997 318.211,81.280 318.730,81.476 318.895,81.535 319.580,81.773 320.265,82.009 320.706,82.160 320.949,82.243 321.634,82.447 322.318,82.505 323.003,82.527 323.688,82.540 324.372,82.553 325.057,82.566 325.741,82.579 326.426,82.623 327.111,82.550 327.795,82.545 328.480,82.584 329.164,82.622 329.849,82.661 330.534,82.703 331.218,82.754 331.903,82.796 332.443,82.845 332.588,82.856 332.666,82.845 333.272,82.681 333.826,82.160 333.957,82.029 334.504,81.476 334.641,81.337 335.236,80.791 335.326,80.743 336.011,80.560 336.695,80.350 337.373,80.107 337.380,80.105 338.064,79.951 338.749,79.866 339.433,79.779 340.118,79.692 340.803,79.605 341.468,79.422 341.487,79.416 342.145,78.737 342.172,78.710 342.832,78.053 342.856,78.029 343.541,77.371 343.545,77.368 344.226,76.820 344.469,76.684 344.910,76.395 345.504,75.999 345.595,75.938 346.279,75.441 346.417,75.314 346.964,74.812 347.167,74.630 347.649,74.245 348.026,73.945 348.333,73.701 348.813,73.261 349.018,73.059 349.466,72.576 349.702,72.339 350.161,71.891 350.387,71.686 350.914,71.207 351.072,71.063 351.543,70.522 351.756,70.255 352.080,69.838 352.441,69.398 352.644,69.153 353.125,68.583 353.222,68.468 353.791,67.784 353.810,67.758 354.203,67.099 354.495,66.618 354.618,66.415 355.039,65.730 355.179,65.501 355.459,65.045 355.864,64.387 355.878,64.361 356.237,63.676 356.519,62.992 356.549,62.928 356.837,62.307 357.152,61.622 357.233,61.448 357.469,60.938 357.779,60.253 357.918,59.942 358.060,59.569 358.279,58.884 358.480,58.199 358.602,57.784 358.681,57.515 358.869,56.830 359.053,56.146 359.236,55.461 359.287,55.272 359.413,54.776 359.563,54.092 359.682,53.407 359.771,52.723 359.900,52.038 359.971,51.658 360.029,51.353 360.157,50.669 360.280,49.984 360.397,49.300 360.513,48.615 360.357,47.930 360.264,47.246 360.045,46.561 359.971,46.438 359.753,45.877 359.595,45.192 359.437,44.507 359.287,43.855 359.280,43.823 359.122,43.138 358.702,42.454 358.602,42.311 358.237,41.769 357.965,41.084 357.918,40.923 357.798,40.400 357.642,39.715 357.329,39.031 357.233,38.906 356.802,38.346 356.549,38.017 356.274,37.661 355.864,37.020 355.855,36.977 355.835,36.292 355.803,35.608 355.222,34.923 355.179,34.874 354.638,34.238 354.495,34.069 354.056,33.554 353.810,33.264 353.494,32.869 353.125,32.329 353.047,32.185 "/>
</g>
<g id="ID000028" clip-path="url(#ID000001)" >
      <polyline fill="none" fill-opacity="1.00" stroke="#f0f2f5" stroke-width="0.5pt" stroke-opacity="1.00" stroke-dasharray="none" points="217.479,32.185 217.475,32.869 217.475,33.554 217.475,34.238 217.475,34.923 217.475,35.608 217.471,36.292 217.467,36.977 217.462,37.661 217.456,38.346 217.451,39.031 217.443,39.715 217.434,40.400 217.426,41.084 217.419,41.769 217.413,42.454 217.409,43.138 217.575,43.156 217.582,43.138 218.092,42.454 218.259,42.413 218.313,41.769 218.944,41.176 218.993,41.084 219.629,40.468 219.676,40.400 219.791,39.715 220.313,39.228 220.377,39.031 220.998,38.423 221.054,38.346 221.637,37.661 221.682,37.623 221.860,36.977 222.367,36.490 222.483,36.292 223.052,35.737 223.091,35.608 223.736,34.967 223.773,34.923 224.066,34.238 224.421,33.901 224.571,33.554 225.105,33.030 225.209,32.869 225.790,32.296 225.845,32.185 "/>
</g>
<g id="ID000029" clip-path="url(#ID000001)" >
      <polyline fill="none" fill-opacity="1.00" stroke="#f0f2f5" stroke-width="0.5pt" stroke-opacity="1.00" stroke-dasharray="none" points="305.821,32.185 305.888,32.798 305.896,32.869 305.964,33.554 306.019,34.238 306.073,34.923 306.126,35.608 306.215,36.292 306.316,36.977 306.419,37.661 306.523,38.346 306.573,38.666 306.629,39.031 306.763,39.715 306.921,40.400 307.079,41.084 307.237,41.769 307.257,41.856 307.397,42.454 307.565,43.138 307.788,43.823 307.942,44.341 307.989,44.507 308.193,45.192 308.396,45.877 308.601,46.561 308.627,46.635 308.840,47.246 309.102,47.930 309.311,48.435 309.386,48.615 309.672,49.300 309.958,49.984 309.996,50.069 310.264,50.669 310.572,51.353 310.680,51.584 310.915,52.038 311.303,52.723 311.365,52.831 311.691,53.407 312.050,54.030 312.085,54.092 312.482,54.776 312.734,55.211 312.896,55.461 313.400,56.146 313.419,56.171 313.917,56.830 314.103,57.079 314.429,57.515 314.788,57.999 314.936,58.199 315.473,58.853 315.502,58.884 316.157,59.533 316.193,59.569 316.842,60.211 316.884,60.253 317.526,60.898 317.566,60.938 318.211,61.546 318.312,61.622 318.895,62.057 319.212,62.307 319.580,62.585 320.089,62.992 320.265,63.129 320.949,63.671 320.959,63.676 321.634,64.022 322.296,64.361 322.318,64.374 323.003,64.772 323.475,65.045 323.688,65.169 324.372,65.505 325.057,65.716 325.102,65.730 325.741,65.925 326.426,66.173 327.047,66.415 327.111,66.440 327.795,66.681 328.480,66.810 329.164,66.930 329.849,67.049 330.135,67.099 330.534,67.169 331.218,67.289 331.903,67.332 332.588,67.272 333.272,67.211 333.957,67.151 334.539,67.099 334.641,67.090 335.326,67.055 335.453,67.099 336.011,67.335 336.695,67.593 337.258,67.784 337.380,67.809 337.455,67.784 338.064,67.404 338.301,67.099 338.749,66.488 338.803,66.415 339.433,65.730 339.433,65.730 340.118,65.620 340.803,65.514 341.487,65.412 342.172,65.310 342.856,65.045 342.856,65.045 343.541,64.749 344.226,64.453 344.438,64.361 344.910,64.156 345.595,63.762 345.721,63.676 346.279,63.294 346.721,62.992 346.964,62.851 347.649,62.462 347.886,62.307 348.333,61.986 348.760,61.622 349.018,61.403 349.564,60.938 349.702,60.819 350.367,60.253 350.387,60.239 351.050,59.569 351.072,59.544 351.624,58.884 351.756,58.721 352.198,58.199 352.441,57.897 352.762,57.515 353.125,57.039 353.250,56.830 353.631,56.146 353.810,55.815 354.015,55.461 354.377,54.776 354.495,54.565 354.766,54.092 355.147,53.407 355.179,53.341 355.449,52.723 355.748,52.038 355.864,51.771 356.046,51.353 356.345,50.669 356.549,50.324 356.747,49.984 357.086,49.300 357.233,48.854 357.300,48.615 357.493,47.930 357.685,47.246 357.901,46.561 357.918,46.515 358.151,45.877 358.401,45.192 358.305,44.507 358.217,43.823 358.059,43.138 357.918,42.923 357.694,42.454 357.465,41.769 357.309,41.084 357.233,40.752 357.153,40.400 356.997,39.715 356.639,39.031 356.549,38.913 356.112,38.346 355.864,38.024 355.749,37.661 355.623,36.977 355.604,36.292 355.557,35.608 355.179,35.163 354.975,34.923 354.495,34.358 354.393,34.238 353.810,33.554 353.810,33.554 353.263,32.869 353.125,32.667 352.862,32.185 "/>
</g>
<g id="ID000030" clip-path="url(#ID000001)" >
      <polyline fill="none" fill-opacity="1.00" stroke="#e7eaf2" stroke-width="0.5pt" stroke-opacity="1.00" stroke-dasharray="none" points="313.858,32.185 313.955,32.869 314.040,33.554 314.103,34.071 314.124,34.238 314.208,34.923 314.293,35.608 314.439,36.292 314.604,36.977 314.768,37.661 314.788,37.741 314.936,38.346 315.107,39.031 315.322,39.715 315.473,40.127 315.572,40.400 315.823,41.084 316.074,41.769 316.157,41.996 316.329,42.454 316.617,43.138 316.842,43.567 316.972,43.823 317.305,44.507 317.526,44.923 317.662,45.192 317.993,45.877 318.211,46.294 318.353,46.561 318.820,47.246 318.895,47.355 319.265,47.930 319.580,48.374 319.741,48.615 320.206,49.300 320.265,49.384 320.685,49.984 320.949,50.287 321.286,50.669 321.634,51.062 321.891,51.353 322.318,51.837 322.496,52.038 323.003,52.612 323.112,52.723 323.688,53.240 323.892,53.407 324.372,53.811 324.706,54.092 325.057,54.390 325.511,54.776 325.741,54.972 326.426,55.452 326.443,55.461 327.111,55.830 327.683,56.146 327.795,56.207 328.480,56.585 328.916,56.830 329.164,56.969 329.849,57.251 330.534,57.490 330.603,57.515 331.218,57.741 331.903,57.993 332.463,58.199 332.588,58.240 333.272,58.299 333.957,58.318 334.641,58.363 335.326,58.442 336.011,58.523 336.695,58.575 337.380,58.576 338.064,58.578 338.749,58.567 339.433,58.514 340.118,58.452 340.803,58.331 341.384,58.199 341.487,58.176 342.172,58.016 342.856,57.795 343.541,57.559 343.670,57.515 344.226,57.323 344.910,57.084 345.530,56.830 345.595,56.809 346.279,56.494 346.964,56.185 347.052,56.146 347.649,55.890 348.333,55.597 348.533,55.461 349.018,55.050 349.280,54.776 349.702,54.334 349.934,54.092 350.387,53.657 350.649,53.407 351.072,53.031 351.297,52.723 351.704,52.038 351.756,51.949 352.110,51.353 352.441,50.796 352.516,50.669 353.048,49.984 353.125,49.882 353.520,49.300 353.810,48.862 353.974,48.615 354.427,47.930 354.495,47.828 354.881,47.246 355.179,46.940 355.417,46.561 355.679,45.877 355.864,45.420 355.965,45.192 356.233,44.507 356.510,43.823 356.549,43.733 356.802,43.138 356.870,42.454 356.819,41.769 356.663,41.084 356.549,40.580 356.507,40.400 356.351,39.715 355.949,39.031 355.864,38.920 355.611,38.346 355.465,37.661 355.392,36.977 355.373,36.292 355.311,35.608 355.179,35.453 354.729,34.923 354.495,34.648 354.147,34.238 353.810,33.843 353.565,33.554 353.125,32.995 353.051,32.869 352.677,32.185 "/>
</g>
<g id="ID000031" clip-path="url(#ID000001)" >
      <polyline fill="none" fill-opacity="1.00" stroke="#dee0ee" stroke-width="0.5pt" stroke-opacity="1.00" stroke-dasharray="none" points="320.444,32.185 320.581,32.869 320.718,33.554 320.854,34.238 320.949,34.714 320.990,34.923 321.114,35.608 321.329,36.292 321.566,36.977 321.634,37.165 321.802,37.661 322.022,38.346 322.248,39.031 322.318,39.212 322.521,39.715 322.869,40.400 323.003,40.658 323.225,41.084 323.582,41.769 323.688,41.971 323.939,42.454 324.318,43.138 324.372,43.226 324.788,43.823 325.057,44.168 325.323,44.507 325.741,45.042 325.856,45.192 326.395,45.877 326.426,45.916 326.939,46.561 327.111,46.745 327.640,47.246 327.795,47.384 328.351,47.930 328.480,48.047 329.057,48.615 329.164,48.721 329.775,49.300 329.849,49.360 330.534,49.802 330.815,49.984 331.218,50.259 331.818,50.669 331.903,50.727 332.588,51.194 332.916,51.353 333.272,51.503 333.957,51.757 334.641,52.012 334.697,52.038 335.326,52.318 336.011,52.663 336.398,52.723 336.695,52.759 337.380,52.816 338.064,52.874 338.749,52.932 339.433,52.990 340.118,53.020 340.803,52.956 341.487,52.879 342.172,52.802 342.856,52.727 342.893,52.723 343.541,52.654 344.226,52.614 344.910,52.515 345.595,52.386 346.279,52.258 346.964,52.129 347.106,52.038 347.649,51.592 347.925,51.353 348.333,51.002 348.720,50.669 349.018,50.498 349.702,50.036 349.749,49.984 350.275,49.300 350.387,49.155 350.822,48.615 351.072,48.289 351.377,47.930 351.756,47.485 351.948,47.246 352.441,46.774 352.663,46.561 353.125,46.119 353.379,45.877 353.810,45.464 354.051,45.192 354.445,44.507 354.495,44.386 354.723,43.823 355.051,43.138 355.179,42.898 355.416,42.454 355.781,41.769 355.864,41.613 355.976,41.084 355.864,40.413 355.861,40.400 355.706,39.715 355.294,39.031 355.215,38.346 355.181,37.661 355.179,37.608 355.161,36.977 355.142,36.292 355.065,35.608 354.495,34.937 354.483,34.923 353.901,34.238 353.810,34.132 353.319,33.554 353.125,33.308 352.866,32.869 352.492,32.185 "/>
</g>
<g id="ID000032" clip-path="url(#ID000001)" >
      <polyline fill="none" fill-opacity="1.00" stroke="#d5d7ea" stroke-width="0.5pt" stroke-opacity="1.00" stroke-dasharray="none" points="325.816,32.185 325.977,32.869 326.136,33.554 326.285,34.238 326.426,34.909 326.429,34.923 326.571,35.608 326.829,36.292 327.111,36.959 327.118,36.977 327.407,37.661 327.698,38.346 327.795,38.563 328.014,39.031 328.408,39.715 328.480,39.826 328.854,40.400 329.164,40.877 329.300,41.084 329.746,41.769 329.849,41.917 330.284,42.454 330.534,42.739 330.883,43.138 331.218,43.506 331.506,43.823 331.903,44.258 332.130,44.507 332.588,44.959 332.902,45.192 333.272,45.454 333.869,45.877 333.957,45.940 334.641,46.435 334.816,46.561 335.326,46.950 335.872,47.246 336.011,47.312 336.695,47.651 337.194,47.930 337.380,48.031 338.064,48.423 338.401,48.615 338.749,48.772 339.433,48.838 340.118,48.890 340.803,48.941 341.487,48.993 342.172,49.084 342.856,49.191 343.541,49.186 344.226,49.169 344.910,49.151 345.595,49.134 346.279,48.998 346.964,48.745 347.314,48.615 347.649,48.491 348.333,48.194 348.645,47.930 349.018,47.725 349.663,47.246 349.702,47.217 350.387,46.730 350.599,46.561 351.072,46.093 351.248,45.877 351.756,45.254 351.807,45.192 352.365,44.507 352.441,44.430 352.953,43.823 353.125,43.671 353.527,43.138 353.776,42.454 353.810,42.379 354.197,41.769 354.445,41.084 354.495,40.968 354.863,40.400 355.044,39.715 354.987,39.031 354.969,38.346 354.950,37.661 354.930,36.977 354.910,36.292 354.820,35.608 354.495,35.226 354.237,34.923 353.810,34.421 353.655,34.238 353.125,33.616 353.084,33.554 352.681,32.869 352.441,32.430 352.307,32.185 "/>
</g>
<g id="ID000033" clip-path="url(#ID000001)" >
      <polyline fill="none" fill-opacity="1.00" stroke="#cdcde5" stroke-width="0.5pt" stroke-opacity="1.00" stroke-dasharray="none" points="330.092,32.185 330.282,32.869 330.472,33.554 330.534,33.786 330.651,34.238 330.824,34.923 330.998,35.608 331.218,36.094 331.308,36.292 331.652,36.977 331.903,37.476 331.996,37.661 332.360,38.346 332.588,38.747 332.752,39.031 333.238,39.715 333.272,39.759 333.777,40.400 333.957,40.628 334.316,41.084 334.641,41.458 335.007,41.769 335.326,42.021 335.875,42.454 336.011,42.564 336.695,43.122 336.716,43.138 337.380,43.695 337.598,43.823 338.064,44.057 338.749,44.381 338.983,44.507 339.433,44.735 340.118,45.170 340.150,45.192 340.803,45.575 341.487,45.703 342.172,45.799 342.726,45.877 342.856,45.898 343.541,46.010 344.226,46.122 344.910,46.232 345.595,46.217 346.279,46.155 346.964,46.106 347.649,46.058 348.333,46.010 349.018,45.953 349.129,45.877 349.702,45.523 350.063,45.192 350.387,44.821 350.643,44.507 351.072,44.188 351.488,43.823 351.756,43.624 352.413,43.138 352.441,43.118 352.959,42.454 353.125,42.104 353.280,41.769 353.595,41.084 353.810,40.617 353.910,40.400 354.334,39.715 354.495,39.589 354.754,39.031 354.738,38.346 354.719,37.661 354.699,36.977 354.679,36.292 354.574,35.608 354.495,35.515 353.992,34.923 353.810,34.710 353.409,34.238 353.125,33.905 352.890,33.554 352.496,32.869 352.441,32.768 352.122,32.185 "/>
</g>
<g id="ID000034" clip-path="url(#ID000001)" >
      <polyline fill="none" fill-opacity="1.00" stroke="#c5c2df" stroke-width="0.5pt" stroke-opacity="1.00" stroke-dasharray="none" points="333.474,32.185 333.704,32.869 333.933,33.554 333.957,33.623 334.163,34.238 334.388,34.923 334.607,35.608 334.641,35.671 334.979,36.292 335.326,36.877 335.385,36.977 335.791,37.661 336.011,38.030 336.204,38.346 336.678,39.031 336.695,39.049 337.327,39.715 337.380,39.767 338.026,40.400 338.064,40.437 338.725,41.084 338.749,41.107 339.433,41.603 339.706,41.769 340.118,42.021 340.803,42.440 340.825,42.454 341.487,42.895 341.849,43.138 342.172,43.315 342.856,43.433 343.541,43.525 344.226,43.610 344.910,43.695 345.595,43.780 345.941,43.823 346.279,43.863 346.964,43.848 347.611,43.823 347.649,43.821 348.333,43.798 348.569,43.823 349.018,43.870 349.702,43.975 349.923,43.823 350.387,43.558 350.954,43.138 351.072,43.051 351.756,42.544 351.879,42.454 352.441,41.825 352.469,41.769 352.784,41.084 353.099,40.400 353.125,40.376 353.695,39.715 353.810,39.625 354.495,39.086 354.521,39.031 354.507,38.346 354.495,37.916 354.487,37.661 354.468,36.977 354.448,36.292 354.328,35.608 353.810,34.999 353.746,34.923 353.163,34.238 353.125,34.194 352.697,33.554 352.441,33.107 352.311,32.869 351.937,32.185 "/>
</g>
<g id="ID000035" clip-path="url(#ID000001)" >
      <polyline fill="none" fill-opacity="1.00" stroke="#b8b3d7" stroke-width="0.5pt" stroke-opacity="1.00" stroke-dasharray="none" points="336.345,32.185 336.603,32.869 336.695,33.091 336.868,33.554 337.102,34.238 337.354,34.923 337.380,35.003 337.571,35.608 337.976,36.292 338.064,36.418 338.492,36.977 338.749,37.313 339.000,37.661 339.433,38.218 339.519,38.346 340.062,39.031 340.118,39.082 340.803,39.644 340.886,39.715 341.487,40.218 341.705,40.400 342.172,40.791 342.523,41.084 342.856,41.363 343.541,41.598 344.226,41.626 344.910,41.653 345.595,41.681 346.279,41.709 346.964,41.767 346.980,41.769 347.649,41.883 348.333,41.960 349.018,42.122 349.702,42.285 350.387,42.448 351.072,41.971 351.345,41.769 351.756,41.418 351.973,41.084 352.291,40.400 352.441,40.288 353.056,39.715 353.125,39.661 353.810,39.122 353.927,39.031 354.235,38.346 354.256,37.661 354.237,36.977 354.217,36.292 354.082,35.608 353.810,35.288 353.500,34.923 353.125,34.483 352.944,34.238 352.503,33.554 352.441,33.445 352.126,32.869 351.756,32.193 351.752,32.185 "/>
</g>
<g id="ID000036" clip-path="url(#ID000001)" >
      <polyline fill="none" fill-opacity="1.00" stroke="#afa7d0" stroke-width="0.5pt" stroke-opacity="1.00" stroke-dasharray="none" points="338.537,32.185 338.749,32.720 338.808,32.869 339.079,33.554 339.361,34.238 339.433,34.408 339.657,34.923 339.953,35.608 340.118,35.841 340.442,36.292 340.803,36.792 340.936,36.977 341.458,37.661 341.487,37.698 342.017,38.346 342.172,38.532 342.594,39.031 342.856,39.250 343.412,39.715 343.541,39.823 344.226,40.123 344.910,40.151 345.595,40.210 346.279,40.363 346.422,40.400 346.964,40.541 347.649,40.715 348.333,40.750 349.018,40.755 349.702,40.760 350.387,40.813 351.072,40.849 351.421,40.400 351.756,40.235 352.417,39.715 352.441,39.697 353.125,39.158 353.288,39.031 353.810,38.620 353.960,38.346 354.025,37.661 354.005,36.977 353.986,36.292 353.836,35.608 353.810,35.577 353.254,34.923 353.125,34.772 352.729,34.238 352.441,33.783 352.315,33.554 351.941,32.869 351.756,32.531 351.567,32.185 "/>
</g>
<g id="ID000037" clip-path="url(#ID000001)" >
      <polyline fill="none" fill-opacity="1.00" stroke="#a49bc7" stroke-width="0.5pt" stroke-opacity="1.00" stroke-dasharray="none" points="340.520,32.185 340.803,32.670 340.903,32.869 341.179,33.554 341.487,34.068 341.570,34.238 341.834,34.923 342.172,35.495 342.230,35.608 342.786,36.292 342.856,36.378 343.249,36.977 343.541,37.315 343.789,37.661 344.226,38.180 344.368,38.346 344.910,38.776 345.595,38.957 345.871,39.031 346.279,39.137 346.964,39.315 347.649,39.493 348.333,39.639 349.018,39.648 349.702,39.672 349.973,39.715 350.387,39.793 351.072,39.988 351.756,39.733 351.779,39.715 352.441,39.194 352.649,39.031 353.125,38.656 353.520,38.346 353.787,37.661 353.774,36.977 353.755,36.292 353.590,35.608 353.125,35.061 353.011,34.923 352.515,34.238 352.441,34.122 352.130,33.554 351.756,32.869 351.756,32.869 351.382,32.185 "/>
</g>
<g id="ID000038" clip-path="url(#ID000001)" >
      <polyline fill="none" fill-opacity="1.00" stroke="#988fbf" stroke-width="0.5pt" stroke-opacity="1.00" stroke-dasharray="none" points="341.803,32.185 342.148,32.869 342.172,32.917 342.492,33.554 342.836,34.238 342.856,34.277 343.228,34.923 343.541,35.404 343.674,35.608 344.185,36.292 344.226,36.346 344.697,36.977 344.910,37.263 345.503,37.661 345.595,37.704 346.279,37.888 346.964,38.072 347.649,38.256 347.984,38.346 348.333,38.438 349.018,38.732 349.702,38.925 350.033,39.031 350.387,39.144 351.072,39.362 351.756,39.230 352.010,39.031 352.441,38.692 352.881,38.346 353.125,38.154 353.453,37.661 353.543,36.977 353.524,36.292 353.345,35.608 353.125,35.350 352.770,34.923 352.441,34.460 352.320,34.238 351.945,33.554 351.756,33.208 351.571,32.869 351.197,32.185 "/>
</g>
<g id="ID000039" clip-path="url(#ID000001)" >
      <polyline fill="none" fill-opacity="1.00" stroke="#8c82b5" stroke-width="0.5pt" stroke-opacity="1.00" stroke-dasharray="none" points="343.048,32.185 343.392,32.869 343.541,33.165 343.751,33.554 344.167,34.238 344.226,34.333 344.594,34.923 344.910,35.405 345.044,35.608 345.555,36.292 345.595,36.336 346.279,36.630 346.964,36.820 347.393,36.977 347.649,37.064 348.333,37.372 348.736,37.661 349.018,37.877 349.702,38.295 349.848,38.346 350.387,38.518 351.072,38.737 351.756,38.728 352.242,38.346 352.441,38.190 353.113,37.661 353.125,37.645 353.312,36.977 353.292,36.292 353.125,35.697 353.099,35.608 352.529,34.923 352.441,34.799 352.135,34.238 351.761,33.554 351.756,33.546 351.386,32.869 351.072,32.294 351.012,32.185 "/>
</g>
<g id="ID000040" clip-path="url(#ID000001)" >
      <polyline fill="none" fill-opacity="1.00" stroke="#8073ac" stroke-width="0.5pt" stroke-opacity="1.00" stroke-dasharray="none" points="344.274,32.185 344.678,32.869 344.910,33.241 345.032,33.554 345.533,34.238 345.595,34.337 345.803,34.923 346.279,35.447 346.728,35.608 346.964,35.710 347.649,36.024 348.231,36.292 348.333,36.339 349.018,36.782 349.187,36.977 349.702,37.570 349.828,37.661 350.387,37.893 351.072,38.111 351.756,38.221 352.441,37.687 352.474,37.661 353.043,36.977 353.061,36.292 352.853,35.608 352.441,35.110 352.324,34.923 351.950,34.238 351.756,33.884 351.576,33.554 351.201,32.869 351.072,32.632 350.827,32.185 "/>
</g>
<g id="ID000041" clip-path="url(#ID000001)" >
      <polyline fill="none" fill-opacity="1.00" stroke="#7561a3" stroke-width="0.5pt" stroke-opacity="1.00" stroke-dasharray="none" points="345.051,32.185 345.380,32.869 345.595,33.233 345.762,33.554 346.105,34.238 346.279,34.552 346.572,34.923 346.964,35.174 347.649,35.337 348.333,35.482 348.807,35.608 349.018,35.738 349.543,36.292 349.702,36.475 350.138,36.977 350.387,37.178 351.072,37.486 351.622,37.661 351.756,37.697 351.802,37.661 352.441,37.185 352.618,36.977 352.830,36.292 352.607,35.608 352.441,35.407 352.139,34.923 351.765,34.238 351.756,34.223 351.391,33.554 351.072,32.970 351.016,32.869 350.642,32.185 "/>
</g>
<g id="ID000042" clip-path="url(#ID000001)" >
      <polyline fill="none" fill-opacity="1.00" stroke="#664498" stroke-width="0.5pt" stroke-opacity="1.00" stroke-dasharray="none" points="345.547,32.185 345.595,32.277 345.902,32.869 346.257,33.554 346.279,33.596 346.613,34.238 346.964,34.647 347.649,34.885 347.807,34.923 348.333,35.052 349.018,35.233 349.702,35.578 349.762,35.608 350.387,36.201 350.495,36.292 351.072,36.816 351.437,36.977 351.756,37.079 351.905,36.977 352.441,36.661 352.599,36.292 352.441,35.827 352.358,35.608 351.954,34.923 351.756,34.561 351.580,34.238 351.206,33.554 351.072,33.309 350.831,32.869 350.457,32.185 "/>
</g>
<g id="ID000043" clip-path="url(#ID000001)" >
      <polyline fill="none" fill-opacity="1.00" stroke="#5b318f" stroke-width="0.5pt" stroke-opacity="1.00" stroke-dasharray="none" points="346.043,32.185 346.279,32.641 346.398,32.869 346.753,33.554 346.964,33.960 347.208,34.238 347.649,34.461 348.333,34.626 349.018,34.803 349.256,34.923 349.702,35.148 350.387,35.492 350.616,35.608 351.072,36.002 351.486,36.292 351.756,36.453 352.064,36.292 352.100,35.608 351.769,34.923 351.756,34.900 351.395,34.238 351.072,33.647 351.021,33.554 350.646,32.869 350.387,32.395 350.272,32.185 "/>
</g>
<g id="ID000044" clip-path="url(#ID000001)" >
      <polyline fill="none" fill-opacity="1.00" stroke="#512384" stroke-width="0.5pt" stroke-opacity="1.00" stroke-dasharray="none" points="346.539,32.185 346.894,32.869 346.964,33.004 347.249,33.554 347.649,33.985 348.333,34.202 348.480,34.238 349.018,34.373 349.702,34.718 350.110,34.923 350.387,35.062 351.072,35.407 351.470,35.608 351.756,35.820 351.843,35.608 351.756,35.426 351.446,34.923 351.210,34.238 351.072,33.985 350.836,33.554 350.462,32.869 350.387,32.733 350.087,32.185 "/>
</g>
<g id="ID000045" clip-path="url(#ID000001)" >
      <polyline fill="none" fill-opacity="1.00" stroke="#471778" stroke-width="0.5pt" stroke-opacity="1.00" stroke-dasharray="none" points="347.034,32.185 347.390,32.869 347.649,33.368 347.832,33.554 348.333,33.779 349.018,33.946 349.605,34.238 349.702,34.288 350.387,34.632 350.964,34.923 351.072,34.977 351.114,34.923 351.072,34.696 350.924,34.238 350.651,33.554 350.387,33.071 350.277,32.869 349.902,32.185 "/>
</g>
<g id="ID000046" clip-path="url(#ID000001)" >
      <polyline fill="none" fill-opacity="1.00" stroke="#3e0d6a" stroke-width="0.5pt" stroke-opacity="1.00" stroke-dasharray="none" points="347.530,32.185 347.649,32.413 347.886,32.869 348.333,33.320 349.018,33.520 349.088,33.554 349.702,33.858 350.387,34.126 350.466,33.554 350.387,33.410 350.092,32.869 349.717,32.185 "/>
</g>
<g id="ID000047" clip-path="url(#ID000001)" >
      <polyline fill="none" fill-opacity="1.00" stroke="#35055b" stroke-width="0.5pt" stroke-opacity="1.00" stroke-dasharray="none" points="348.026,32.185 348.333,32.776 348.438,32.869 349.018,33.096 349.702,33.410 349.907,32.869 349.702,32.496 349.487,32.185 "/>
</g>
<g id="ID000048" clip-path="url(#ID000001)" >
      <polyline fill="none" fill-opacity="1.00" stroke="#2d004b" stroke-width="0.5pt" stroke-opacity="1.00" stroke-dasharray="none" points="348.522,32.185 349.018,32.652 349.252,32.185 "/>
</g>
<g id="ID000049" clip-path="url(#ID000001)" >
      <polyline fill="none" fill-opacity="1.00" stroke="#2d004b" stroke-width="0.5pt" stroke-opacity="1.00" stroke-dasharray="none" points="349.702,32.920 349.722,32.869 349.702,32.834 349.577,32.869 349.702,32.920 "/>
</g>
</g><g id="ID000050" clip-path="url(#ID000001)" >
<rect x="203.883" y="2.907" width="171.150" height="171.150" rx="85.575" ry="85.575" fill="none" stroke="#000000" stroke-width="0.5pt" stroke-dasharray="none" />
</g>
<g id="ID000051" >
</g>
    </g>
  </g>
  </g>
</svg>
