<?xml version="1.0" encoding="utf-8" standalone="no"?><!DOCTYPE svg PUBLIC "-//W3C//DTD SVG 1.1//EN" "http://www.w3.org/Graphics/SVG/1.1/DTD/svg11.dtd">
<svg preserveAspectRatio="xMinYMin meet" width="100%" height="100%" viewBox="0 0 560.000 420.000"  version="1.1" xmlns="http://www.w3.org/2000/svg" xmlns:xlink="http://www.w3.org/1999/xlink">
  <desc>Matlab Figure Converted by PLOT2SVG written by Juerg Schwizer</desc>
  <g id="topgroup">
  <rect x="0" y="0" width="560.000" height="420.000" fill="#ffffff" stroke="none" />
  <g id ="ID000000">
  <clipPath id="ID000001">
    <rect x="72.800" y="31.500" width="434.000" height="342.300"/>
  </clipPath>
    <g>
<g id="ID000002" clip-path="url(#ID000001)" >
<image x="118.650" y="31.842" width="342.300" height="342.300" image-rendering="optimizeSpeed" preserveAspectRatio="none" xlink:href="pu6001.png" />
</g>
<g id="ID000003" clip-path="url(#ID000001)" >
<g id="ID000004" clip-path="url(#ID000001)" >
      <polyline fill="none" fill-opacity="1.00" stroke="#934406" stroke-width="0.5pt" stroke-opacity="1.00" stroke-dasharray="none" points="250.673,32.185 250.436,32.320 250.266,32.869 250.254,33.554 250.311,34.238 250.436,34.398 250.500,34.238 250.777,33.554 251.043,32.869 251.120,32.721 251.384,32.185 "/>
</g>
<g id="ID000005" clip-path="url(#ID000001)" >
      <polyline fill="none" fill-opacity="1.00" stroke="#934406" stroke-width="0.5pt" stroke-opacity="1.00" stroke-dasharray="none" points="249.751,35.475 249.606,34.923 249.751,34.542 250.184,34.923 249.751,35.475 "/>
</g>
<g id="ID000006" clip-path="url(#ID000001)" >
      <polyline fill="none" fill-opacity="1.00" stroke="#9f4b06" stroke-width="0.5pt" stroke-opacity="1.00" stroke-dasharray="none" points="250.308,32.185 250.097,32.869 249.974,33.554 249.751,33.992 249.675,34.238 249.396,34.923 249.066,35.476 248.665,35.608 249.066,35.713 249.751,35.836 250.260,35.608 250.436,35.385 250.749,34.923 251.025,34.238 251.120,34.004 251.304,33.554 251.613,32.869 251.805,32.482 251.953,32.185 "/>
</g>
<g id="ID000007" clip-path="url(#ID000001)" >
      <polyline fill="none" fill-opacity="1.00" stroke="#ab5306" stroke-width="0.5pt" stroke-opacity="1.00" stroke-dasharray="none" points="250.139,32.185 249.928,32.869 249.751,33.443 249.717,33.554 249.506,34.238 249.187,34.923 249.066,35.125 248.382,35.446 248.103,35.608 248.382,35.826 249.066,35.994 249.751,36.111 250.436,35.953 250.810,35.608 251.120,35.150 251.274,34.923 251.550,34.238 251.805,33.628 251.838,33.554 252.180,32.869 252.489,32.252 252.523,32.185 "/>
</g>
<g id="ID000008" clip-path="url(#ID000001)" >
      <polyline fill="none" fill-opacity="1.00" stroke="#b75b06" stroke-width="0.5pt" stroke-opacity="1.00" stroke-dasharray="none" points="249.969,32.185 249.758,32.869 249.751,32.894 249.548,33.554 249.337,34.238 249.066,34.779 248.905,34.923 248.382,35.226 247.724,35.608 248.382,36.123 249.066,36.275 249.169,36.292 249.751,36.385 250.436,36.390 250.595,36.292 251.120,35.807 251.336,35.608 251.799,34.923 251.805,34.909 252.085,34.238 252.407,33.554 252.489,33.390 252.750,32.869 253.092,32.185 "/>
</g>
<g id="ID000009" clip-path="url(#ID000001)" >
      <polyline fill="none" fill-opacity="1.00" stroke="#c36408" stroke-width="0.5pt" stroke-opacity="1.00" stroke-dasharray="none" points="249.800,32.185 249.751,32.344 249.589,32.869 249.378,33.554 249.167,34.238 249.066,34.440 248.526,34.923 248.382,35.007 247.697,35.403 247.345,35.608 247.697,36.239 247.802,36.292 248.382,36.413 249.066,36.556 249.751,36.660 250.436,36.715 251.120,36.292 251.120,36.292 251.805,35.660 251.862,35.608 252.324,34.923 252.489,34.545 252.634,34.238 252.977,33.554 253.174,33.160 253.319,32.869 253.662,32.185 "/>
</g>
<g id="ID000010" clip-path="url(#ID000001)" >
      <polyline fill="none" fill-opacity="1.00" stroke="#cf6f0b" stroke-width="0.5pt" stroke-opacity="1.00" stroke-dasharray="none" points="249.631,32.185 249.420,32.869 249.209,33.554 249.066,34.017 248.971,34.238 248.382,34.787 248.147,34.923 247.697,35.184 247.013,35.580 246.967,35.608 246.593,36.292 247.013,36.456 247.697,36.551 248.382,36.695 249.066,36.836 249.751,36.934 250.054,36.977 250.436,37.030 250.655,36.977 251.120,36.778 251.646,36.292 251.805,36.146 252.388,35.608 252.489,35.457 252.870,34.923 253.174,34.299 253.211,34.238 253.546,33.554 253.859,32.930 253.895,32.869 254.231,32.185 "/>
</g>
<g id="ID000011" clip-path="url(#ID000001)" >
      <polyline fill="none" fill-opacity="1.00" stroke="#dd7e12" stroke-width="0.5pt" stroke-opacity="1.00" stroke-dasharray="none" points="249.462,32.185 249.251,32.869 249.066,33.468 249.040,33.554 248.735,34.238 248.382,34.567 247.768,34.923 247.697,34.964 247.013,35.361 246.595,35.608 246.328,35.945 246.161,36.292 246.328,36.619 247.013,36.854 247.697,36.833 248.382,36.976 248.386,36.977 249.066,37.113 249.751,37.209 250.436,37.304 251.120,37.239 251.431,36.977 251.805,36.631 252.180,36.292 252.489,36.007 253.174,35.629 253.199,35.608 253.626,34.923 253.859,34.406 253.939,34.238 254.294,33.554 254.543,32.980 254.596,32.869 254.956,32.185 "/>
</g>
<g id="ID000012" clip-path="url(#ID000001)" >
      <polyline fill="none" fill-opacity="1.00" stroke="#e68a1a" stroke-width="0.5pt" stroke-opacity="1.00" stroke-dasharray="none" points="249.292,32.185 249.081,32.869 249.066,32.918 248.870,33.554 248.499,34.238 248.382,34.348 247.697,34.744 247.389,34.923 247.013,35.141 246.328,35.546 246.256,35.608 245.936,36.292 246.263,36.977 246.328,37.060 247.013,37.288 247.697,37.189 248.382,37.269 249.066,37.388 249.751,37.483 250.436,37.579 251.026,37.661 251.120,37.680 251.153,37.661 251.805,37.136 252.119,36.977 252.489,36.672 253.174,36.541 253.653,36.292 253.859,36.132 254.278,35.608 254.543,35.155 254.678,34.923 255.006,34.238 255.228,33.777 255.333,33.554 255.649,32.869 255.912,32.283 255.957,32.185 "/>
</g>
<g id="ID000013" clip-path="url(#ID000001)" >
      <polyline fill="none" fill-opacity="1.00" stroke="#ef972a" stroke-width="0.5pt" stroke-opacity="1.00" stroke-dasharray="none" points="249.123,32.185 249.066,32.369 248.912,32.869 248.701,33.554 248.382,34.095 248.191,34.238 247.697,34.525 247.013,34.922 247.010,34.923 246.328,35.327 246.002,35.608 245.711,36.292 245.920,36.977 246.328,37.501 246.794,37.661 247.013,37.738 247.468,37.661 247.697,37.624 248.382,37.562 249.058,37.661 249.066,37.663 249.751,37.823 250.436,37.953 251.120,38.062 251.805,37.703 252.008,37.661 252.489,37.570 253.174,37.439 253.859,37.308 254.259,36.977 254.543,36.624 254.809,36.292 255.228,35.769 255.357,35.608 255.745,34.923 255.912,34.574 256.070,34.238 256.380,33.554 256.597,33.071 256.688,32.869 256.996,32.185 "/>
</g>
<g id="ID000014" clip-path="url(#ID000001)" >
      <polyline fill="none" fill-opacity="1.00" stroke="#f6a43f" stroke-width="0.5pt" stroke-opacity="1.00" stroke-dasharray="none" points="248.954,32.185 248.743,32.869 248.532,33.554 248.382,33.808 247.812,34.238 247.697,34.305 247.013,34.702 246.641,34.923 246.328,35.108 245.748,35.608 245.643,35.860 245.506,36.292 245.577,36.977 245.643,37.063 246.109,37.661 246.328,37.943 247.013,38.188 247.697,38.073 248.382,38.037 249.066,38.173 249.751,38.281 250.240,38.346 250.436,38.397 251.120,38.593 251.805,38.726 252.489,38.517 253.128,38.346 253.174,38.337 253.859,38.206 254.543,37.958 254.792,37.661 255.228,37.117 255.342,36.977 255.888,36.292 255.912,36.261 256.435,35.608 256.597,35.313 256.818,34.923 257.111,34.238 257.281,33.859 257.419,33.554 257.727,32.869 257.966,32.337 258.035,32.185 "/>
</g>
<g id="ID000015" clip-path="url(#ID000001)" >
      <polyline fill="none" fill-opacity="1.00" stroke="#fcb056" stroke-width="0.5pt" stroke-opacity="1.00" stroke-dasharray="none" points="248.785,32.185 248.574,32.869 248.382,33.492 248.351,33.554 247.697,34.086 247.433,34.238 247.013,34.482 246.328,34.889 246.272,34.923 245.643,35.434 245.528,35.608 245.310,36.292 245.233,36.977 245.643,37.504 245.766,37.661 246.298,38.346 246.328,38.387 247.013,38.674 247.697,38.646 248.382,38.759 249.066,38.940 249.415,39.031 249.751,39.118 250.436,39.312 251.120,39.574 251.465,39.715 251.805,39.854 252.371,39.715 252.489,39.681 253.174,39.472 253.859,39.262 254.543,39.058 254.625,39.031 255.228,38.734 255.645,38.346 255.912,38.081 256.336,37.661 256.597,37.402 257.026,36.977 257.281,36.724 257.622,36.292 257.966,35.776 258.078,35.608 258.323,34.923 258.541,34.238 258.651,33.893 258.759,33.554 258.977,32.869 259.227,32.185 "/>
</g>
<g id="ID000016" clip-path="url(#ID000001)" >
      <polyline fill="none" fill-opacity="1.00" stroke="#fdbc69" stroke-width="0.5pt" stroke-opacity="1.00" stroke-dasharray="none" points="248.615,32.185 248.404,32.869 248.382,32.943 248.081,33.554 247.697,33.866 247.054,34.238 247.013,34.263 246.328,34.670 245.911,34.923 245.643,35.141 245.332,35.608 245.114,36.292 244.959,36.838 244.918,36.977 244.959,37.065 245.422,37.661 245.643,37.945 245.955,38.346 246.328,38.862 246.701,39.031 247.013,39.343 247.697,39.477 248.382,39.658 248.596,39.715 249.066,39.839 249.751,40.029 250.436,40.286 250.715,40.400 251.120,40.566 251.805,40.846 252.489,40.845 253.174,40.656 253.859,40.550 254.543,40.512 255.228,40.474 255.408,40.400 255.912,40.127 256.414,39.715 256.597,39.565 257.249,39.031 257.281,39.000 257.955,38.346 257.966,38.335 258.511,37.661 258.651,37.457 258.971,36.977 259.335,36.431 259.428,36.292 259.879,35.608 260.020,35.169 260.098,34.923 260.319,34.238 260.544,33.554 260.704,33.065 260.769,32.869 260.994,32.185 "/>
</g>
<g id="ID000017" clip-path="url(#ID000001)" >
      <polyline fill="none" fill-opacity="1.00" stroke="#fec984" stroke-width="0.5pt" stroke-opacity="1.00" stroke-dasharray="none" points="248.446,32.185 248.382,32.393 248.235,32.869 247.811,33.554 247.697,33.646 247.013,34.043 246.686,34.238 246.328,34.452 245.643,34.866 245.565,34.923 245.136,35.608 244.959,36.164 244.918,36.292 244.715,36.977 244.959,37.507 245.079,37.661 245.603,38.346 245.643,38.453 245.941,39.031 246.145,39.715 246.328,39.991 246.843,40.400 247.013,40.552 247.697,40.641 248.382,40.731 249.066,40.927 249.625,41.084 249.751,41.139 250.436,41.459 251.120,41.725 251.294,41.769 251.805,41.973 252.489,42.200 253.174,42.122 253.859,42.053 254.543,41.994 255.228,41.942 255.912,41.900 256.173,41.769 256.597,41.489 257.091,41.084 257.281,40.928 257.941,40.400 257.966,40.380 258.651,39.963 259.015,39.715 259.335,39.444 259.687,39.031 260.020,38.537 260.149,38.346 260.610,37.661 260.704,37.522 261.072,36.977 261.389,36.506 261.517,36.292 261.853,35.608 262.012,34.923 262.074,34.625 262.160,34.238 262.378,33.554 262.565,32.869 262.758,32.283 262.793,32.185 "/>
</g>
<g id="ID000018" clip-path="url(#ID000001)" >
      <polyline fill="none" fill-opacity="1.00" stroke="#fed397" stroke-width="0.5pt" stroke-opacity="1.00" stroke-dasharray="none" points="248.277,32.185 248.066,32.869 247.697,33.410 247.478,33.554 247.013,33.823 246.328,34.233 246.318,34.238 245.643,34.647 245.264,34.923 244.959,35.548 244.940,35.608 244.722,36.292 244.512,36.977 244.736,37.661 244.959,38.057 245.166,38.346 245.342,39.031 245.441,39.715 245.643,40.173 245.785,40.400 246.290,41.084 246.328,41.148 246.889,41.769 247.013,41.928 247.697,42.331 247.938,42.454 248.382,42.679 249.066,43.027 249.331,43.138 249.751,43.312 250.436,43.562 251.120,43.782 251.251,43.823 251.805,43.996 252.489,44.211 253.174,44.306 253.859,44.185 254.543,44.064 255.228,43.946 255.912,43.847 256.106,43.823 256.597,43.761 257.281,43.482 257.782,43.138 257.966,43.017 258.651,42.569 258.828,42.454 259.335,42.149 259.970,41.769 260.020,41.737 260.669,41.084 260.704,41.044 261.268,40.400 261.389,40.262 261.867,39.715 262.074,39.468 262.436,39.031 262.758,38.539 262.869,38.346 263.224,37.661 263.443,37.239 263.579,36.977 263.933,36.292 264.127,35.888 264.262,35.608 264.415,34.923 264.575,34.238 264.745,33.554 264.812,33.291 264.920,32.869 265.096,32.185 "/>
</g>
<g id="ID000019" clip-path="url(#ID000001)" >
      <polyline fill="none" fill-opacity="1.00" stroke="#fedbaa" stroke-width="0.5pt" stroke-opacity="1.00" stroke-dasharray="none" points="248.108,32.185 247.897,32.869 247.697,33.162 247.099,33.554 247.013,33.604 246.328,34.014 245.957,34.238 245.643,34.429 244.963,34.923 244.959,34.932 244.744,35.608 244.526,36.292 244.309,36.977 244.392,37.661 244.644,38.346 244.743,39.031 244.842,39.715 244.945,40.400 244.959,40.426 245.444,41.084 245.643,41.515 245.780,41.769 245.981,42.454 246.328,42.975 246.556,43.138 247.013,43.465 247.511,43.823 247.697,44.004 248.244,44.507 248.382,44.741 248.804,45.192 249.066,45.385 249.751,45.625 250.436,45.786 250.819,45.877 251.120,45.948 251.805,46.109 252.489,46.297 253.174,46.462 253.859,46.472 254.543,46.385 255.228,46.299 255.912,46.212 256.597,46.126 257.281,46.039 257.966,45.948 258.093,45.877 258.651,45.494 259.141,45.192 259.335,45.063 260.020,44.706 260.422,44.507 260.704,44.368 261.389,44.021 261.615,43.823 262.074,43.325 262.246,43.138 262.758,42.599 262.897,42.454 263.443,41.897 263.568,41.769 264.127,41.198 264.219,41.084 264.685,40.400 264.812,40.201 265.123,39.715 265.497,39.082 265.527,39.031 265.849,38.346 266.170,37.661 266.181,37.637 266.472,36.977 266.745,36.292 266.866,35.956 266.992,35.608 267.108,34.923 267.223,34.238 267.339,33.554 267.466,32.869 267.550,32.438 267.605,32.185 "/>
</g>
<g id="ID000020" clip-path="url(#ID000001)" >
      <polyline fill="none" fill-opacity="1.00" stroke="#fee2bc" stroke-width="0.5pt" stroke-opacity="1.00" stroke-dasharray="none" points="247.938,32.185 247.727,32.869 247.697,32.914 247.013,33.384 246.730,33.554 246.328,33.795 245.643,34.210 245.596,34.238 244.959,34.678 244.766,34.923 244.548,35.608 244.330,36.292 244.274,36.468 243.993,36.977 243.844,37.661 243.931,38.346 244.066,39.031 244.221,39.715 244.274,39.933 244.342,40.400 244.573,41.084 244.773,41.769 244.959,42.331 244.994,42.454 245.192,43.138 245.492,43.823 245.643,44.076 246.037,44.507 246.328,45.044 246.408,45.192 246.780,45.877 247.013,46.306 247.209,46.561 247.697,46.964 248.080,47.246 248.382,47.468 249.010,47.930 249.066,47.978 249.751,48.461 250.154,48.615 250.436,48.755 251.120,49.090 251.546,49.300 251.805,49.427 252.489,49.764 253.174,49.846 253.859,49.840 254.543,49.834 255.228,49.828 255.912,49.773 256.597,49.662 257.281,49.573 257.966,49.483 258.651,49.394 259.335,49.304 259.347,49.300 260.020,48.965 260.556,48.615 260.704,48.518 261.389,48.071 261.605,47.930 262.074,47.625 262.660,47.246 262.758,47.182 263.443,46.597 263.475,46.561 264.127,45.892 264.143,45.877 264.812,45.199 264.819,45.192 265.495,44.507 265.497,44.505 266.109,43.823 266.181,43.728 266.587,43.138 266.866,42.715 267.038,42.454 267.473,41.769 267.550,41.646 267.907,41.084 268.235,40.568 268.330,40.400 268.670,39.715 268.920,39.139 268.967,39.031 269.198,38.346 269.429,37.661 269.604,37.141 269.660,36.977 269.889,36.292 270.103,35.608 270.202,34.923 270.289,34.472 270.335,34.238 270.466,33.554 270.599,32.869 270.731,32.185 "/>
</g>
<g id="ID000021" clip-path="url(#ID000001)" >
      <polyline fill="none" fill-opacity="1.00" stroke="#fde9cf" stroke-width="0.5pt" stroke-opacity="1.00" stroke-dasharray="none" points="247.769,32.185 247.697,32.418 247.438,32.869 247.013,33.165 246.365,33.554 246.328,33.576 245.643,33.991 245.235,34.238 244.959,34.429 244.570,34.923 244.352,35.608 244.274,35.852 244.028,36.292 243.653,36.977 243.590,37.138 243.183,37.661 242.905,38.217 242.839,38.346 242.905,38.908 242.933,39.031 243.088,39.715 243.240,40.400 243.284,41.084 243.322,41.769 243.463,42.454 243.590,42.929 243.645,43.138 243.798,43.823 243.843,44.507 243.901,45.192 244.131,45.877 244.274,46.109 244.552,46.561 244.959,47.232 244.967,47.246 245.299,47.930 245.643,48.514 245.733,48.615 246.328,49.127 246.522,49.300 247.013,49.724 247.286,49.984 247.697,50.376 248.012,50.669 248.382,51.005 248.767,51.353 249.066,51.676 249.413,52.038 249.751,52.384 250.234,52.723 250.436,52.857 251.120,53.314 251.441,53.407 251.805,53.505 252.112,53.407 252.489,53.300 253.174,53.108 253.859,52.953 254.543,52.972 255.228,53.089 255.912,53.205 256.597,53.322 257.281,53.338 257.966,53.396 258.062,53.407 258.651,53.473 259.335,53.550 260.020,53.627 260.613,53.407 260.704,53.374 261.389,53.060 262.074,52.747 262.118,52.723 262.758,52.306 263.137,52.038 263.443,51.821 264.103,51.353 264.127,51.336 264.812,50.883 265.208,50.669 265.497,50.466 265.915,49.984 266.181,49.712 266.584,49.300 266.866,49.011 267.252,48.615 267.550,48.310 267.921,47.930 268.235,47.574 268.467,47.246 268.920,46.563 268.921,46.561 269.394,45.877 269.604,45.575 269.872,45.192 270.289,44.594 270.347,44.507 270.754,43.823 270.974,43.393 271.101,43.138 271.422,42.454 271.658,41.926 271.728,41.769 272.035,41.084 272.341,40.400 272.343,40.396 272.616,39.715 272.825,39.031 272.992,38.346 273.027,38.195 273.161,37.661 273.360,36.977 273.550,36.292 273.712,35.679 273.731,35.608 273.820,34.923 273.917,34.238 274.017,33.554 274.116,32.869 274.215,32.185 "/>
</g>
<g id="ID000022" clip-path="url(#ID000001)" >
      <polyline fill="none" fill-opacity="1.00" stroke="#fcf0e3" stroke-width="0.5pt" stroke-opacity="1.00" stroke-dasharray="none" points="247.599,32.185 247.121,32.869 247.013,32.945 246.328,33.357 246.003,33.554 245.643,33.772 244.959,34.187 244.874,34.238 244.374,34.923 244.274,35.236 244.063,35.608 243.683,36.292 243.590,36.463 242.905,36.943 242.871,36.977 242.519,37.661 242.220,38.242 242.167,38.346 241.864,39.031 241.779,39.715 241.820,40.400 241.831,41.084 241.818,41.769 241.802,42.454 241.806,43.138 241.793,43.823 241.802,44.507 241.782,45.192 241.763,45.877 241.756,46.561 241.798,47.246 241.931,47.930 242.220,48.542 242.260,48.615 242.635,49.300 242.905,49.791 243.011,49.984 243.310,50.669 243.590,51.165 243.740,51.353 244.274,51.950 244.344,52.038 244.908,52.723 244.959,52.780 245.460,53.407 245.643,53.608 246.163,54.092 246.328,54.317 246.679,54.776 247.013,55.283 247.130,55.461 247.590,56.146 247.697,56.262 248.382,56.767 248.468,56.830 249.066,57.271 249.456,57.515 249.751,57.716 250.436,57.954 251.120,58.171 251.214,58.199 251.805,58.380 252.489,58.589 253.174,58.655 253.859,58.737 254.543,58.871 254.612,58.884 255.228,59.004 255.912,59.376 256.312,59.569 256.597,59.659 257.281,59.609 257.827,59.569 257.966,59.558 258.651,59.508 259.335,59.384 260.020,59.046 260.347,58.884 260.704,58.707 261.389,58.414 262.025,58.199 262.074,58.183 262.758,57.896 263.443,57.587 263.602,57.515 264.127,57.346 264.812,57.124 265.497,56.870 265.568,56.830 266.181,56.486 266.843,56.146 266.866,56.133 267.550,55.786 268.190,55.461 268.235,55.438 268.920,54.905 269.034,54.776 269.604,54.134 269.642,54.092 270.253,53.407 270.289,53.367 270.867,52.723 270.974,52.604 271.393,52.038 271.658,51.616 271.822,51.353 272.248,50.669 272.343,50.519 272.680,49.984 273.027,49.465 273.138,49.300 273.545,48.615 273.712,48.290 273.884,47.930 274.213,47.246 274.397,46.862 274.541,46.561 274.866,45.877 275.081,45.424 275.189,45.192 275.478,44.507 275.727,43.823 275.766,43.715 275.969,43.138 276.188,42.454 276.395,41.769 276.450,41.588 276.603,41.084 276.810,40.400 276.993,39.715 277.135,39.040 277.137,39.031 277.247,38.346 277.388,37.661 277.521,36.977 277.666,36.292 277.794,35.608 277.820,35.324 277.856,34.923 277.920,34.238 277.988,33.554 278.056,32.869 278.125,32.185 "/>
</g>
<g id="ID000023" clip-path="url(#ID000001)" >
      <polyline fill="none" fill-opacity="1.00" stroke="#faf5f1" stroke-width="0.5pt" stroke-opacity="1.00" stroke-dasharray="none" points="247.430,32.185 247.013,32.725 246.775,32.869 246.328,33.138 245.643,33.553 245.642,33.554 244.959,33.968 244.512,34.238 244.274,34.630 244.099,34.923 243.713,35.608 243.590,35.830 242.905,36.283 242.891,36.292 242.220,36.957 242.206,36.977 241.854,37.661 241.536,38.281 241.485,38.346 240.934,39.031 240.851,39.157 240.392,39.715 240.167,40.123 240.014,40.400 239.743,41.084 239.685,41.769 239.618,42.454 239.493,43.138 239.482,43.197 239.360,43.823 239.209,44.507 239.036,45.192 238.878,45.877 238.797,46.535 238.794,46.561 238.772,47.246 238.750,47.930 238.728,48.615 238.717,49.300 238.736,49.984 238.756,50.669 238.797,51.163 238.819,51.353 239.077,52.038 239.334,52.723 239.482,53.325 239.503,53.407 239.649,54.092 239.796,54.776 240.035,55.461 240.167,55.734 240.377,56.146 240.712,56.830 240.851,57.164 240.998,57.515 241.283,58.199 241.536,58.675 241.682,58.884 242.220,59.529 242.253,59.569 242.825,60.253 242.905,60.361 243.377,60.938 243.590,61.330 243.792,61.622 244.274,62.198 244.376,62.307 244.959,62.932 245.014,62.992 245.643,63.663 245.656,63.676 246.328,64.230 246.525,64.361 247.013,64.685 247.554,65.045 247.697,65.137 248.382,65.586 248.563,65.730 249.066,66.205 249.276,66.415 249.751,66.898 249.948,67.099 250.436,67.595 250.646,67.784 251.120,68.064 251.805,68.275 252.478,68.468 252.489,68.472 252.509,68.468 253.174,68.345 253.859,68.218 254.543,68.091 255.228,67.978 255.912,67.998 256.597,68.009 257.281,68.004 257.966,68.000 258.651,67.995 259.335,67.968 260.020,67.860 260.488,67.784 260.704,67.761 261.389,67.690 262.074,67.621 262.758,67.558 263.443,67.462 264.127,67.211 264.454,67.099 264.812,66.977 265.497,66.743 266.181,66.508 266.456,66.415 266.866,66.252 267.550,65.777 267.617,65.730 268.235,65.300 268.601,65.045 268.920,64.826 269.601,64.361 269.604,64.359 270.289,63.836 270.474,63.676 270.974,63.238 271.260,62.992 271.658,62.649 272.055,62.307 272.343,62.059 272.763,61.622 273.027,61.286 273.271,60.938 273.712,60.392 273.824,60.253 274.387,59.569 274.397,59.557 274.949,58.884 275.081,58.708 275.385,58.199 275.748,57.515 275.766,57.485 276.145,56.830 276.450,56.325 276.558,56.146 276.971,55.461 277.135,55.190 277.345,54.776 277.622,54.092 277.820,53.605 277.900,53.407 278.184,52.723 278.468,52.038 278.504,51.951 278.752,51.353 279.021,50.669 279.189,50.138 279.232,49.984 279.429,49.300 279.643,48.615 279.846,47.930 279.873,47.847 280.073,47.246 280.293,46.561 280.504,45.877 280.558,45.660 280.664,45.192 280.819,44.507 280.975,43.823 281.130,43.138 281.242,42.577 281.267,42.454 281.397,41.769 281.526,41.084 281.642,40.400 281.746,39.715 281.827,39.031 281.891,38.346 281.927,37.969 281.957,37.661 282.052,36.977 282.142,36.292 282.224,35.608 282.265,34.923 282.305,34.238 282.345,33.554 282.386,32.869 282.426,32.185 "/>
</g>
<g id="ID000024" clip-path="url(#ID000001)" >
      <polyline fill="none" fill-opacity="1.00" stroke="#f6f7f7" stroke-width="0.5pt" stroke-opacity="1.00" stroke-dasharray="none" points="247.260,32.185 247.013,32.505 246.411,32.869 246.328,32.919 245.643,33.274 245.281,33.554 244.959,33.749 244.274,34.108 244.143,34.238 243.744,34.923 243.590,35.197 242.969,35.608 242.905,35.650 242.220,36.103 241.976,36.292 241.542,36.977 241.536,36.988 241.031,37.661 240.851,37.891 240.218,38.346 240.167,38.383 239.482,39.016 239.470,39.031 239.091,39.715 238.797,40.247 238.690,40.400 238.166,41.084 238.113,41.151 237.479,41.769 237.428,41.854 237.067,42.454 236.744,42.991 236.655,43.138 236.275,43.823 236.059,44.252 235.895,44.507 235.647,45.192 235.402,45.877 235.374,45.945 235.111,46.561 234.818,47.246 234.690,47.545 234.529,47.930 234.359,48.615 234.200,49.300 234.041,49.984 234.005,50.138 233.860,50.669 233.641,51.353 233.502,52.038 233.383,52.723 233.321,53.100 233.269,53.407 233.155,54.092 233.041,54.776 232.987,55.461 232.941,56.146 232.896,56.830 232.853,57.515 232.839,58.199 232.867,58.884 232.906,59.569 232.940,60.253 232.960,60.938 232.980,61.622 233.038,62.307 233.106,62.992 233.248,63.676 233.321,63.962 233.425,64.361 233.605,65.045 233.772,65.730 233.938,66.415 234.005,66.692 234.120,67.099 234.426,67.784 234.690,68.311 234.770,68.468 234.988,69.153 235.207,69.838 235.374,70.364 235.427,70.522 235.687,71.207 236.059,71.812 236.108,71.891 236.566,72.576 236.744,72.853 237.013,73.261 237.428,73.895 237.452,73.945 237.876,74.630 238.113,75.037 238.270,75.314 238.659,75.999 238.797,76.243 239.048,76.684 239.482,77.250 239.596,77.368 240.167,77.894 240.338,78.053 240.851,78.557 241.048,78.737 241.536,79.333 241.611,79.422 242.121,80.107 242.220,80.242 242.653,80.791 242.905,81.091 243.590,81.440 243.720,81.476 244.274,81.639 244.959,81.817 245.643,82.005 246.113,82.160 246.328,82.260 247.013,82.690 247.296,82.845 247.697,83.229 248.011,83.530 248.382,83.884 248.730,84.214 249.066,84.458 249.751,84.783 249.994,84.899 250.436,85.109 251.120,85.438 251.388,85.583 251.805,85.802 252.489,86.047 253.174,86.196 253.505,86.268 253.859,86.348 254.543,86.501 255.228,86.653 255.912,86.788 256.597,86.923 256.699,86.953 257.281,87.065 257.966,87.177 258.651,87.302 259.335,87.442 260.020,87.521 260.704,87.390 261.389,87.229 262.074,87.065 262.532,86.953 262.758,86.889 263.443,86.718 264.127,86.666 264.812,86.421 265.047,86.268 265.497,85.976 266.100,85.583 266.181,85.531 266.866,85.086 267.110,84.899 267.550,84.493 267.835,84.214 268.235,83.822 268.657,83.530 268.920,83.287 269.512,82.845 269.604,82.795 270.289,82.339 270.536,82.160 270.974,81.944 271.658,81.607 271.915,81.476 272.343,81.251 273.027,80.863 273.149,80.791 273.712,80.467 274.301,80.107 274.397,80.049 275.081,79.585 275.234,79.422 275.765,78.737 275.766,78.736 276.307,78.053 276.450,77.872 276.849,77.368 277.135,77.008 277.363,76.684 277.758,75.999 277.820,75.880 278.110,75.314 278.504,74.659 278.522,74.630 278.948,73.945 279.189,73.558 279.366,73.261 279.700,72.576 279.873,72.140 279.969,71.891 280.273,71.207 280.558,70.625 280.608,70.522 280.944,69.838 281.242,69.228 281.276,69.153 281.538,68.468 281.744,67.784 281.927,67.245 281.977,67.099 282.210,66.415 282.456,65.730 282.612,65.279 282.697,65.045 282.939,64.361 283.152,63.676 283.296,63.129 283.332,62.992 283.509,62.307 283.687,61.622 283.865,60.938 283.981,60.536 284.063,60.253 284.255,59.569 284.407,58.884 284.526,58.199 284.637,57.515 284.666,57.348 284.754,56.830 284.875,56.146 284.995,55.461 285.118,54.776 285.246,54.092 285.350,53.474 285.361,53.407 285.456,52.723 285.550,52.038 285.645,51.353 285.740,50.669 285.835,49.984 285.930,49.300 286.024,48.615 286.035,48.539 286.113,47.930 286.173,47.246 286.216,46.561 286.256,45.877 286.305,45.192 286.367,44.507 286.437,43.823 286.514,43.138 286.580,42.454 286.643,41.769 286.687,41.084 286.719,40.406 286.720,40.400 286.751,39.715 286.778,39.031 286.798,38.346 286.819,37.661 286.846,36.977 286.887,36.292 286.925,35.608 286.943,34.923 286.960,34.238 286.973,33.554 286.986,32.869 286.999,32.185 "/>
</g>
<g id="ID000025" clip-path="url(#ID000001)" >
      <polyline fill="none" fill-opacity="1.00" stroke="#f6f7f7" stroke-width="0.5pt" stroke-opacity="1.00" stroke-dasharray="none" points="332.543,32.185 332.588,32.245 333.272,32.338 333.804,32.869 333.957,32.945 334.641,33.200 334.997,33.554 335.326,33.656 335.910,34.238 336.011,34.406 336.695,34.817 336.803,34.923 337.380,35.175 337.815,35.608 338.064,35.787 338.665,36.292 338.749,36.406 339.433,36.825 339.588,36.977 340.118,37.320 340.497,37.661 340.803,37.881 341.340,38.346 341.487,38.567 342.079,39.031 342.172,39.103 342.856,39.613 342.960,39.715 343.541,40.163 343.828,40.400 344.226,40.828 344.503,41.084 344.910,41.525 345.196,41.769 345.595,42.111 345.996,42.454 346.279,42.697 346.795,43.138 346.964,43.302 347.434,43.823 347.649,44.139 348.033,44.507 348.333,44.789 348.763,45.192 349.018,45.432 349.492,45.877 349.702,46.074 350.221,46.561 350.387,46.808 350.708,47.246 351.072,47.690 351.305,47.930 351.756,48.395 351.970,48.615 352.441,49.099 352.635,49.300 353.125,49.842 353.245,49.984 353.691,50.669 353.810,50.831 354.273,51.353 354.495,51.604 354.879,52.038 355.179,52.377 355.486,52.723 355.864,53.196 356.025,53.407 356.448,54.092 356.549,54.238 356.983,54.776 357.233,55.087 357.535,55.461 357.918,55.936 358.087,56.146 358.600,56.830 358.602,56.835 358.996,57.515 359.287,57.951 359.469,58.199 359.970,58.884 359.971,58.886 360.471,59.569 360.656,59.822 360.972,60.253 361.325,60.938 361.341,60.967 361.755,61.622 362.025,62.031 362.208,62.307 362.662,62.992 362.710,63.065 363.115,63.676 363.394,64.170 363.506,64.361 363.863,65.045 364.079,65.414 364.267,65.730 364.675,66.415 364.764,66.563 365.083,67.099 365.448,67.712 365.492,67.784 365.814,68.468 366.133,69.099 366.164,69.153 366.526,69.838 366.818,70.384 366.904,70.522 367.256,71.207 367.502,71.677 367.648,71.891 367.904,72.576 368.187,73.178 368.256,73.261 368.549,73.945 368.871,74.628 368.874,74.630 369.268,75.314 369.512,75.999 369.556,76.115 369.985,76.684 370.104,77.368 370.240,77.737 370.859,78.053 370.919,78.737 370.925,79.058 370.949,78.737 370.999,78.053 371.050,77.368 371.100,76.684 371.146,75.999 371.186,75.314 371.227,74.630 371.264,73.945 371.300,73.261 371.335,72.576 371.362,71.891 371.389,71.207 371.416,70.522 371.448,69.838 371.479,69.153 371.511,68.468 371.536,67.784 371.560,67.099 371.581,66.415 371.602,65.730 371.610,65.487 371.623,65.045 371.641,64.361 371.655,63.676 371.670,62.992 371.684,62.307 371.702,61.622 371.722,60.938 371.738,60.253 371.752,59.569 371.764,58.884 371.775,58.199 371.786,57.515 371.797,56.830 371.804,56.146 371.810,55.461 371.817,54.776 371.825,54.092 371.835,53.407 371.846,52.723 371.854,52.038 371.861,51.353 371.865,50.669 371.869,49.984 371.873,49.300 371.878,48.615 371.884,47.930 371.888,47.246 371.891,46.561 371.895,45.877 371.897,45.192 371.900,44.507 371.903,43.823 371.906,43.138 371.910,42.454 371.912,41.769 371.914,41.084 371.916,40.400 371.918,39.715 371.919,39.031 371.920,38.346 371.921,37.661 371.922,36.977 371.924,36.292 371.925,35.608 371.925,34.923 371.926,34.238 371.926,33.554 371.927,32.869 371.927,32.185 "/>
</g>
<g id="ID000026" clip-path="url(#ID000001)" >
      <polyline fill="none" fill-opacity="1.00" stroke="#f0f2f5" stroke-width="0.5pt" stroke-opacity="1.00" stroke-dasharray="none" points="179.556,32.185 179.558,32.869 179.559,33.554 179.559,34.238 179.559,34.923 179.559,35.608 179.564,36.292 179.569,36.977 179.575,37.661 179.580,38.346 179.585,39.031 179.593,39.715 179.602,40.400 179.610,41.084 179.618,41.769 179.627,42.454 179.637,43.138 179.652,43.823 179.666,44.507 179.680,45.192 179.693,45.877 179.708,46.561 179.726,47.246 179.744,47.930 179.761,48.615 179.778,49.300 179.795,49.984 179.819,50.669 179.843,51.353 179.867,52.038 179.890,52.723 179.914,53.407 179.922,53.606 179.941,54.092 179.968,54.776 179.995,55.461 180.023,56.146 180.050,56.830 180.080,57.515 180.116,58.199 180.152,58.884 180.187,59.569 180.223,60.253 180.258,60.938 180.293,61.622 180.335,62.307 180.377,62.992 180.420,63.676 180.462,64.361 180.504,65.045 180.547,65.730 180.595,66.415 180.606,66.563 180.645,67.099 180.695,67.784 180.744,68.468 180.796,69.153 180.851,69.838 180.906,70.522 180.960,71.207 181.018,71.891 181.079,72.576 181.142,73.261 181.204,73.945 181.267,74.630 181.291,74.882 181.333,75.314 181.404,75.999 181.474,76.684 181.545,77.368 181.616,78.053 181.695,78.737 181.774,79.422 181.854,80.107 181.935,80.791 181.976,81.123 182.018,81.476 182.101,82.160 182.187,82.845 182.279,83.530 182.370,84.214 182.462,84.899 182.553,85.583 182.657,86.268 182.660,86.290 182.761,86.953 182.864,87.637 182.965,88.322 183.072,89.006 183.186,89.691 183.301,90.376 183.345,90.639 183.414,91.060 183.528,91.745 183.653,92.429 183.778,93.114 183.902,93.799 184.026,94.483 184.029,94.502 184.156,95.168 184.293,95.852 184.433,96.537 184.572,97.222 184.714,97.906 184.714,97.907 184.863,98.591 185.010,99.275 185.159,99.960 185.322,100.645 185.399,100.967 185.485,101.329 185.647,102.014 185.809,102.698 185.985,103.383 186.083,103.768 186.159,104.068 186.332,104.752 186.508,105.437 186.695,106.121 186.768,106.386 186.883,106.806 187.081,107.491 187.286,108.175 187.452,108.733 187.490,108.860 187.693,109.544 187.893,110.229 188.101,110.914 188.137,111.022 188.330,111.598 188.564,112.283 188.799,112.967 188.822,113.032 189.029,113.652 189.259,114.337 189.490,115.021 189.506,115.067 189.739,115.706 190.001,116.390 190.191,116.886 190.263,117.075 190.524,117.760 190.785,118.444 190.875,118.680 191.047,119.129 191.320,119.813 191.560,120.359 191.621,120.498 191.924,121.183 192.226,121.867 192.245,121.910 192.526,122.552 192.826,123.236 192.929,123.471 193.136,123.921 193.481,124.606 193.614,124.868 193.827,125.290 194.173,125.975 194.298,126.224 194.518,126.659 194.864,127.344 194.983,127.576 195.222,128.029 195.620,128.713 195.668,128.796 195.999,129.398 196.352,130.023 196.385,130.082 196.767,130.767 197.037,131.252 197.151,131.452 197.572,132.136 197.721,132.371 198.009,132.821 198.406,133.445 198.445,133.505 198.880,134.190 199.091,134.520 199.316,134.875 199.775,135.555 199.778,135.559 200.279,136.244 200.460,136.491 200.780,136.928 201.144,137.427 201.281,137.613 201.779,138.298 201.829,138.366 202.307,138.982 202.514,139.229 202.881,139.667 203.198,140.044 203.447,140.351 203.883,140.870 204.017,141.036 204.567,141.717 204.570,141.721 205.181,142.405 205.252,142.482 205.818,143.090 205.937,143.217 206.454,143.774 206.621,143.954 207.090,144.459 207.306,144.691 207.758,145.144 207.990,145.362 208.496,145.828 208.675,145.993 209.238,146.513 209.360,146.625 209.980,147.197 210.044,147.257 210.729,147.865 210.750,147.882 211.413,148.407 211.606,148.567 212.098,148.964 212.444,149.251 212.782,149.532 213.268,149.936 213.467,150.098 214.152,150.593 214.191,150.620 214.836,151.071 215.172,151.305 215.521,151.551 216.144,151.990 216.206,152.033 216.890,152.495 217.198,152.674 217.575,152.892 218.259,153.283 218.469,152.674 218.259,152.187 218.120,151.990 217.879,151.305 217.579,150.620 217.575,150.609 217.311,149.936 217.044,149.251 216.890,148.858 216.776,148.567 216.508,147.882 216.235,147.197 216.206,147.126 215.960,146.513 215.705,145.828 215.521,145.304 215.465,145.144 215.225,144.459 214.985,143.774 214.836,143.370 214.734,143.090 214.483,142.405 214.249,141.721 214.152,141.412 214.035,141.036 213.824,140.351 213.607,139.667 213.467,139.234 213.385,138.982 213.163,138.298 212.950,137.613 212.782,137.007 212.762,136.928 212.579,136.244 212.387,135.559 212.194,134.875 212.098,134.532 212.002,134.190 211.814,133.505 211.648,132.821 211.492,132.136 211.413,131.806 211.329,131.452 211.165,130.767 211.002,130.082 210.838,129.398 210.729,128.873 210.697,128.713 210.568,128.029 210.434,127.344 210.300,126.659 210.181,125.975 210.044,125.349 210.033,125.290 209.912,124.606 209.811,123.921 209.731,123.236 209.658,122.552 209.560,121.867 209.420,121.183 209.360,120.949 209.296,120.498 209.249,119.813 209.222,119.129 209.189,118.444 209.147,117.760 209.092,117.075 209.019,116.390 208.952,115.706 208.908,115.021 208.896,114.337 208.884,113.652 208.872,112.967 208.847,112.283 208.830,111.598 208.840,110.914 208.851,110.229 208.861,109.544 208.871,108.860 208.861,108.175 208.854,107.491 208.885,106.806 208.917,106.121 208.949,105.437 208.981,104.752 208.987,104.068 208.993,103.383 209.051,102.698 209.109,102.014 209.166,101.329 209.224,100.645 209.252,99.960 209.275,99.275 209.353,98.591 209.360,98.535 209.431,97.906 209.509,97.222 209.587,96.537 209.634,95.852 209.673,95.168 209.777,94.483 209.882,93.799 209.986,93.114 210.044,92.729 210.089,92.429 210.170,91.745 210.239,91.060 210.369,90.376 210.499,89.691 210.629,89.006 210.729,88.483 210.759,88.322 210.871,87.637 210.971,86.953 211.127,86.268 211.298,85.583 211.413,85.019 211.441,84.899 211.598,84.214 211.735,83.530 211.917,82.845 212.076,82.160 212.098,82.042 212.249,81.476 212.476,80.791 212.662,80.107 212.782,79.472 212.794,79.422 213.040,78.737 213.272,78.053 213.427,77.368 213.467,77.242 213.710,76.684 213.929,75.999 214.105,75.314 214.152,75.200 214.421,74.630 214.639,73.945 214.836,73.402 214.903,73.261 215.171,72.576 215.405,71.891 215.521,71.635 215.720,71.207 215.998,70.522 216.206,70.030 216.296,69.838 216.575,69.153 216.864,68.468 216.890,68.408 217.153,67.784 217.530,67.099 217.575,67.011 217.851,66.415 218.168,65.730 218.259,65.533 218.485,65.045 218.802,64.361 218.944,64.112 219.191,63.676 219.589,62.992 219.629,62.918 219.934,62.307 220.277,61.622 220.313,61.550 220.619,60.938 220.998,60.259 221.001,60.253 221.496,59.569 221.682,59.273 221.890,58.884 222.256,58.199 222.367,57.992 222.622,57.515 223.003,56.830 223.052,56.770 223.555,56.146 223.736,55.921 224.043,55.461 224.421,54.812 224.441,54.776 224.825,54.092 225.105,53.599 225.219,53.407 225.790,52.763 225.826,52.723 226.432,52.038 226.475,51.984 226.853,51.353 227.159,50.831 227.254,50.669 227.693,49.984 227.844,49.829 228.358,49.300 228.528,49.124 229.023,48.615 229.213,48.405 229.515,47.930 229.898,47.289 229.923,47.246 230.460,46.561 230.582,46.447 231.190,45.877 231.267,45.804 231.919,45.192 231.951,45.162 232.427,44.507 232.636,44.180 232.851,43.823 233.321,43.367 233.588,43.138 234.005,42.781 234.388,42.454 234.690,42.195 235.122,41.769 235.374,41.494 235.621,41.084 236.059,40.627 236.323,40.400 236.744,40.070 237.197,39.715 237.428,39.535 238.072,39.031 238.113,38.999 238.546,38.346 238.797,38.128 239.447,37.661 239.482,37.630 240.167,37.144 240.399,36.977 240.851,36.652 241.116,36.292 241.536,35.938 241.991,35.608 242.220,35.379 242.905,35.017 243.048,34.923 243.590,34.538 243.759,34.238 244.274,33.724 244.825,33.554 244.959,33.421 245.643,32.995 245.896,32.869 246.328,32.438 247.013,32.285 247.090,32.185 "/>
</g>
<g id="ID000027" clip-path="url(#ID000001)" >
      <polyline fill="none" fill-opacity="1.00" stroke="#f0f2f5" stroke-width="0.5pt" stroke-opacity="1.00" stroke-dasharray="none" points="291.681,32.185 291.694,32.869 291.708,33.554 291.721,34.238 291.735,34.923 291.741,35.608 291.752,36.292 291.767,36.977 291.788,37.661 291.808,38.346 291.829,39.031 291.855,39.715 291.886,40.400 291.916,41.084 291.947,41.769 291.973,42.454 292.013,43.138 292.048,43.823 292.087,44.507 292.126,45.192 292.165,45.877 292.196,46.416 292.204,46.561 292.246,47.246 292.288,47.930 292.330,48.615 292.383,49.300 292.451,49.984 292.536,50.669 292.612,51.353 292.673,52.038 292.725,52.723 292.776,53.407 292.827,54.092 292.876,54.776 292.881,54.844 292.929,55.461 293.012,56.146 293.128,56.830 293.242,57.515 293.349,58.199 293.455,58.884 293.564,59.569 293.565,59.578 293.643,60.253 293.714,60.938 293.792,61.622 293.909,62.307 294.047,62.992 294.185,63.676 294.250,63.999 294.323,64.361 294.448,65.045 294.572,65.730 294.695,66.415 294.842,67.099 294.935,67.413 295.060,67.784 295.270,68.468 295.468,69.153 295.619,69.678 295.665,69.838 295.856,70.522 296.033,71.207 296.226,71.891 296.304,72.136 296.463,72.576 296.715,73.261 296.966,73.945 296.988,74.007 297.216,74.630 297.449,75.314 297.648,75.999 297.673,76.067 297.952,76.684 298.303,77.368 298.358,77.475 298.654,78.053 298.980,78.737 299.042,78.901 299.238,79.422 299.522,80.107 299.727,80.511 299.887,80.791 300.280,81.476 300.411,81.708 300.667,82.160 301.023,82.845 301.096,82.985 301.416,83.530 301.781,83.972 302.038,84.214 302.465,84.614 302.768,84.899 303.150,85.272 303.465,85.583 303.834,85.956 304.242,86.268 304.519,86.464 305.119,86.953 305.204,87.015 305.886,87.637 305.888,87.639 306.413,88.322 306.573,88.588 306.825,89.006 307.235,89.691 307.257,89.727 307.646,90.376 307.942,90.717 308.627,90.955 308.952,91.060 309.311,91.274 309.933,91.745 309.996,91.801 310.680,92.253 311.365,92.273 312.050,92.248 312.734,92.166 313.419,92.085 314.103,92.004 314.788,92.132 315.473,92.394 315.579,92.429 316.157,92.711 316.842,93.045 317.036,93.114 317.526,93.261 318.211,93.407 318.895,93.650 319.265,93.799 319.580,93.921 320.265,93.993 320.949,94.002 321.634,94.010 322.318,94.075 323.003,94.097 323.688,94.081 324.372,94.185 325.057,94.289 325.741,94.393 326.426,93.982 326.617,93.799 327.111,93.327 327.388,93.114 327.795,92.846 328.435,92.429 328.480,92.401 329.164,91.968 329.517,91.745 329.849,91.538 330.534,91.201 331.090,91.060 331.218,91.028 331.903,90.923 332.588,90.876 333.272,90.832 333.957,90.788 334.465,90.376 334.641,90.126 334.849,89.691 335.177,89.006 335.326,88.902 336.011,88.563 336.483,88.322 336.695,88.215 337.380,87.727 337.506,87.637 338.064,87.171 338.287,86.953 338.749,86.440 338.903,86.268 339.433,85.679 339.527,85.583 340.118,84.968 340.185,84.899 340.703,84.214 340.803,84.067 341.165,83.530 341.487,83.059 341.632,82.845 342.106,82.160 342.172,82.060 342.540,81.476 342.856,80.923 342.930,80.791 343.316,80.107 343.541,79.712 343.702,79.422 344.076,78.737 344.226,78.401 344.366,78.053 344.830,77.368 344.910,77.250 345.298,76.684 345.595,76.250 345.767,75.999 346.220,75.314 346.279,75.201 346.538,74.630 346.722,73.945 346.908,73.261 346.964,73.049 347.086,72.576 347.261,71.891 347.502,71.207 347.649,70.724 347.696,70.522 347.857,69.838 348.018,69.153 348.180,68.468 348.330,67.784 348.333,67.771 348.475,67.099 348.587,66.415 348.654,65.730 348.702,65.045 348.714,64.361 348.714,63.676 348.729,62.992 348.754,62.307 348.788,61.622 348.813,60.938 348.786,60.253 348.736,59.569 348.684,58.884 348.632,58.199 348.525,57.515 348.396,56.830 348.333,56.499 348.267,56.146 348.159,55.461 348.071,54.776 347.945,54.092 347.799,53.407 347.649,52.803 347.629,52.723 347.459,52.038 347.289,51.353 347.028,50.669 346.964,50.532 346.709,49.984 346.389,49.300 346.279,48.985 346.188,48.615 346.022,47.930 345.765,47.246 345.595,46.861 345.463,46.561 345.111,45.877 344.910,45.514 344.732,45.192 344.338,44.507 344.226,44.392 343.803,43.823 343.541,43.443 343.366,43.138 342.974,42.454 342.856,42.248 342.582,41.769 342.172,41.269 341.987,41.084 341.487,40.693 341.253,40.400 340.803,39.772 340.772,39.715 340.400,39.031 340.118,38.690 339.739,38.346 339.433,38.127 338.785,37.661 338.749,37.635 338.244,36.977 338.064,36.731 337.782,36.292 337.380,35.984 336.810,35.608 336.695,35.532 336.011,35.079 335.920,34.923 335.500,34.238 335.326,34.064 334.641,33.724 334.360,33.554 333.957,33.242 333.272,32.895 333.230,32.869 332.588,32.478 332.372,32.185 "/>
</g>
<g id="ID000028" clip-path="url(#ID000001)" >
      <polyline fill="none" fill-opacity="1.00" stroke="#e7eaf2" stroke-width="0.5pt" stroke-opacity="1.00" stroke-dasharray="none" points="296.290,32.185 296.304,32.411 296.331,32.869 296.371,33.554 296.412,34.238 296.452,34.923 296.492,35.608 296.550,36.292 296.621,36.977 296.684,37.661 296.747,38.346 296.811,39.031 296.890,39.715 296.984,40.400 296.988,40.432 297.078,41.084 297.180,41.769 297.301,42.454 297.436,43.138 297.590,43.823 297.673,44.189 297.745,44.507 297.888,45.192 298.022,45.877 298.151,46.561 298.296,47.246 298.358,47.484 298.484,47.930 298.679,48.615 298.873,49.300 299.042,49.894 299.068,49.984 299.260,50.669 299.452,51.353 299.651,52.038 299.727,52.246 299.924,52.723 300.207,53.407 300.411,53.918 300.481,54.092 300.748,54.776 301.015,55.461 301.096,55.670 301.292,56.146 301.629,56.830 301.781,57.102 302.012,57.515 302.370,58.199 302.465,58.382 302.727,58.884 303.085,59.569 303.150,59.693 303.490,60.253 303.834,60.724 304.002,60.938 304.457,61.622 304.519,61.716 304.912,62.307 305.204,62.746 305.368,62.992 305.888,63.643 305.921,63.676 306.573,64.338 306.595,64.361 307.234,65.045 307.257,65.071 307.873,65.730 307.942,65.801 308.627,66.295 308.829,66.415 309.311,66.698 309.994,67.099 309.996,67.100 310.680,67.539 311.216,67.784 311.365,67.848 312.050,68.042 312.734,68.235 313.419,68.429 313.517,68.468 314.103,68.754 314.601,69.153 314.788,69.303 315.453,69.838 315.473,69.855 316.157,70.416 316.581,70.522 316.842,70.578 317.526,70.702 318.211,70.791 318.895,70.876 319.580,70.857 320.265,70.805 320.949,70.753 321.634,70.742 322.318,70.796 323.003,70.812 323.688,70.839 324.372,70.878 325.057,70.924 325.741,70.877 326.426,70.830 327.111,70.802 327.795,70.774 328.480,70.682 329.003,70.522 329.164,70.457 329.849,70.061 330.100,69.838 330.534,69.342 330.702,69.153 331.218,68.574 331.312,68.468 331.903,67.915 332.026,67.784 332.588,67.430 333.045,67.099 333.272,66.932 333.957,66.440 333.992,66.415 334.641,65.948 334.872,65.730 335.326,65.174 335.421,65.045 335.927,64.361 336.011,64.257 336.453,63.676 336.695,63.411 337.063,62.992 337.380,62.557 337.541,62.307 337.984,61.622 338.064,61.497 338.432,60.938 338.749,60.443 338.874,60.253 339.272,59.569 339.433,59.201 339.590,58.884 339.938,58.199 340.118,57.812 340.264,57.515 340.603,56.830 340.803,56.147 340.803,56.146 340.926,55.461 341.062,54.776 341.214,54.092 341.337,53.407 341.458,52.723 341.487,52.550 341.571,52.038 341.559,51.353 341.549,50.669 341.544,49.984 341.538,49.300 341.534,48.615 341.534,47.930 341.526,47.246 341.487,47.007 341.415,46.561 341.270,45.877 341.105,45.192 340.897,44.507 340.803,44.198 340.722,43.823 340.595,43.138 340.504,42.454 340.431,41.769 340.233,41.084 340.118,40.874 339.861,40.400 339.489,39.715 339.433,39.620 338.980,39.031 338.749,38.865 338.321,38.346 338.064,38.020 337.880,37.661 337.527,36.977 337.380,36.771 336.882,36.292 336.695,36.169 336.011,35.716 335.948,35.608 335.552,34.923 335.326,34.570 335.105,34.238 334.641,33.958 333.975,33.554 333.957,33.540 333.272,33.128 332.848,32.869 332.588,32.711 332.201,32.185 "/>
</g>
<g id="ID000029" clip-path="url(#ID000001)" >
      <polyline fill="none" fill-opacity="1.00" stroke="#dee0ee" stroke-width="0.5pt" stroke-opacity="1.00" stroke-dasharray="none" points="300.660,32.185 300.729,32.869 300.797,33.554 300.866,34.238 300.934,34.923 300.997,35.608 301.096,36.159 301.119,36.292 301.227,36.977 301.341,37.661 301.451,38.346 301.561,39.031 301.698,39.715 301.781,40.067 301.859,40.400 302.032,41.084 302.225,41.769 302.429,42.454 302.465,42.568 302.644,43.138 302.885,43.823 303.127,44.507 303.150,44.573 303.368,45.192 303.638,45.877 303.834,46.313 303.952,46.561 304.281,47.246 304.519,47.742 304.609,47.930 304.938,48.615 305.204,49.168 305.268,49.300 305.649,49.984 305.888,50.372 306.079,50.669 306.511,51.353 306.573,51.449 306.946,52.038 307.257,52.531 307.379,52.723 307.861,53.407 307.942,53.511 308.457,54.092 308.627,54.295 309.030,54.776 309.311,55.113 309.603,55.461 309.996,55.931 310.207,56.146 310.680,56.542 311.081,56.830 311.365,57.041 312.005,57.515 312.050,57.551 312.734,58.110 312.855,58.199 313.419,58.528 314.103,58.761 314.444,58.884 314.788,59.006 315.473,59.266 316.157,59.527 316.289,59.569 316.842,59.727 317.526,59.855 318.211,59.984 318.895,60.119 319.290,60.253 319.580,60.350 320.265,60.494 320.949,60.547 321.634,60.600 322.318,60.653 323.003,60.662 323.688,60.412 324.070,60.253 324.372,60.142 325.057,59.892 325.741,59.641 326.426,59.748 327.111,59.690 327.795,59.606 328.224,59.569 328.480,59.553 328.865,59.569 329.164,59.589 329.241,59.569 329.849,59.408 330.318,58.884 330.534,58.691 331.074,58.199 331.218,58.070 331.836,57.515 331.903,57.456 332.588,56.882 332.651,56.830 333.272,56.319 333.504,56.146 333.957,55.799 334.412,55.461 334.641,55.259 335.012,54.776 335.326,54.255 335.424,54.092 335.889,53.407 336.011,53.238 336.379,52.723 336.695,52.224 336.777,52.038 336.923,51.353 337.069,50.669 337.218,49.984 337.380,49.481 337.438,49.300 337.660,48.615 337.804,47.930 337.871,47.246 337.924,46.561 338.064,45.965 338.084,45.877 338.278,45.192 338.473,44.507 338.519,43.823 338.461,43.138 338.386,42.454 338.309,41.769 338.232,41.084 338.204,40.400 338.171,39.715 338.064,39.533 337.907,39.031 337.568,38.346 337.380,37.980 337.216,37.661 336.863,36.977 336.695,36.813 336.011,36.353 335.975,36.292 335.580,35.608 335.326,35.169 335.248,34.923 334.720,34.238 334.641,34.191 333.957,33.776 333.590,33.554 333.272,33.361 332.588,32.943 332.490,32.869 332.030,32.185 "/>
</g>
<g id="ID000030" clip-path="url(#ID000001)" >
      <polyline fill="none" fill-opacity="1.00" stroke="#d5d7ea" stroke-width="0.5pt" stroke-opacity="1.00" stroke-dasharray="none" points="304.667,32.185 304.765,32.869 304.864,33.554 304.962,34.238 305.056,34.923 305.155,35.608 305.204,35.850 305.290,36.292 305.460,36.977 305.624,37.661 305.788,38.346 305.888,38.762 305.953,39.031 306.156,39.715 306.391,40.400 306.573,40.899 306.646,41.084 306.942,41.769 307.237,42.454 307.257,42.498 307.548,43.138 307.890,43.823 307.942,43.927 308.232,44.507 308.623,45.192 308.627,45.198 309.106,45.877 309.311,46.168 309.587,46.561 309.996,47.167 310.049,47.246 310.511,47.930 310.680,48.177 311.063,48.615 311.365,48.909 311.766,49.300 312.050,49.576 312.468,49.984 312.734,50.275 313.094,50.669 313.419,51.030 313.809,51.353 314.103,51.562 314.774,52.038 314.788,52.048 315.473,52.537 315.719,52.723 316.157,53.041 316.739,53.407 316.842,53.462 317.526,53.655 318.211,53.842 318.895,54.022 319.168,54.092 319.580,54.217 320.265,54.430 320.949,54.650 321.634,54.507 322.318,54.441 323.003,54.380 323.688,54.319 324.372,54.258 325.057,54.197 325.741,54.138 326.426,54.223 326.715,54.092 327.111,53.921 327.795,53.705 328.480,53.523 328.913,53.407 329.164,53.340 329.849,53.158 330.534,52.954 330.871,52.723 331.218,52.485 331.775,52.038 331.903,51.882 332.236,51.353 332.588,50.850 332.710,50.669 333.272,49.997 333.283,49.984 333.856,49.300 333.957,49.160 334.222,48.615 334.456,47.930 334.641,47.388 334.690,47.246 335.191,46.561 335.326,46.382 335.643,45.877 335.889,45.192 336.011,44.768 336.085,44.507 336.293,43.823 336.588,43.138 336.695,42.901 336.839,42.454 336.841,41.769 336.843,41.084 336.846,40.400 336.940,39.715 337.045,39.031 336.904,38.346 336.695,37.940 336.551,37.661 336.011,36.994 336.003,36.977 335.608,36.292 335.326,35.804 335.264,35.608 335.048,34.923 334.641,34.431 334.335,34.238 333.957,34.009 333.272,33.595 333.206,33.554 332.588,33.175 332.186,32.869 331.903,32.333 331.859,32.185 "/>
</g>
<g id="ID000031" clip-path="url(#ID000001)" >
      <polyline fill="none" fill-opacity="1.00" stroke="#cdcde5" stroke-width="0.5pt" stroke-opacity="1.00" stroke-dasharray="none" points="308.266,32.185 308.399,32.869 308.524,33.554 308.627,34.112 308.649,34.238 308.735,34.923 308.826,35.608 309.004,36.292 309.221,36.977 309.311,37.250 309.450,37.661 309.681,38.346 309.913,39.031 309.996,39.232 310.195,39.715 310.514,40.400 310.680,40.755 310.851,41.084 311.261,41.769 311.365,41.937 311.685,42.454 312.050,43.016 312.129,43.138 312.600,43.823 312.734,44.017 313.108,44.507 313.419,44.849 313.785,45.192 314.103,45.490 314.516,45.877 314.788,46.136 315.233,46.561 315.473,46.815 315.924,47.246 316.157,47.430 316.842,47.839 316.984,47.930 317.526,48.265 318.031,48.615 318.211,48.731 318.895,49.223 319.065,49.300 319.580,49.481 320.265,49.606 320.949,49.740 321.634,49.879 322.132,49.984 322.318,50.039 323.003,50.238 323.688,50.248 324.372,50.173 325.057,50.096 325.741,50.018 326.045,49.984 326.426,49.945 327.111,49.861 327.795,49.617 328.480,49.353 328.612,49.300 329.164,49.075 329.849,48.796 330.073,48.615 330.534,48.168 330.729,47.930 331.218,47.376 331.352,47.246 331.903,46.987 332.588,46.645 332.666,46.561 333.139,45.877 333.272,45.683 333.611,45.192 333.957,44.770 334.139,44.507 334.507,43.823 334.641,43.443 334.791,43.138 335.102,42.454 335.326,41.854 335.362,41.769 335.531,41.084 335.615,40.400 335.733,39.715 335.848,39.031 335.945,38.346 335.907,37.661 335.636,36.977 335.326,36.439 335.280,36.292 335.064,35.608 334.847,34.923 334.641,34.674 333.957,34.243 333.950,34.238 333.272,33.828 332.826,33.554 332.588,33.408 331.903,32.887 331.891,32.869 331.689,32.185 "/>
</g>
<g id="ID000032" clip-path="url(#ID000001)" >
      <polyline fill="none" fill-opacity="1.00" stroke="#c5c2df" stroke-width="0.5pt" stroke-opacity="1.00" stroke-dasharray="none" points="311.428,32.185 311.559,32.869 311.677,33.554 311.793,34.238 311.910,34.923 312.026,35.608 312.050,35.676 312.265,36.292 312.535,36.977 312.734,37.482 312.809,37.661 313.123,38.346 313.419,38.964 313.451,39.031 313.844,39.715 314.103,40.132 314.270,40.400 314.697,41.084 314.788,41.228 315.201,41.769 315.473,42.080 315.800,42.454 316.157,42.844 316.426,43.138 316.842,43.578 317.073,43.823 317.526,44.296 317.833,44.507 318.211,44.727 318.895,45.126 319.009,45.192 319.580,45.525 320.184,45.877 320.265,45.928 320.949,46.339 321.634,46.504 321.885,46.561 322.318,46.672 323.003,46.848 323.688,47.023 324.372,47.198 324.678,47.246 325.057,47.294 325.480,47.246 325.741,47.216 326.426,47.096 327.111,46.722 327.405,46.561 327.795,46.403 328.480,46.183 329.164,45.998 329.502,45.877 329.849,45.750 330.534,45.415 330.991,45.192 331.218,45.087 331.903,44.798 332.211,44.507 332.588,44.194 333.033,43.823 333.272,43.589 333.555,43.138 333.808,42.454 333.957,42.054 334.062,41.769 334.489,41.084 334.641,40.795 334.791,40.400 334.882,39.715 334.976,39.031 335.071,38.346 335.326,37.723 335.347,37.661 335.326,37.527 335.295,36.977 335.079,36.292 334.863,35.608 334.647,34.923 334.641,34.916 333.957,34.476 333.565,34.238 333.272,34.061 332.588,33.640 332.455,33.554 331.903,33.150 331.721,32.869 331.518,32.185 "/>
</g>
<g id="ID000033" clip-path="url(#ID000001)" >
      <polyline fill="none" fill-opacity="1.00" stroke="#b8b3d7" stroke-width="0.5pt" stroke-opacity="1.00" stroke-dasharray="none" points="314.032,32.185 314.103,32.466 314.205,32.869 314.378,33.554 314.551,34.238 314.719,34.923 314.788,35.223 314.875,35.608 315.198,36.292 315.473,36.822 315.553,36.977 315.908,37.661 316.157,38.142 316.264,38.346 316.659,39.031 316.842,39.273 317.189,39.715 317.526,40.133 317.742,40.400 318.211,40.981 318.295,41.084 318.848,41.769 318.895,41.821 319.580,42.350 319.722,42.454 320.265,42.853 320.652,43.138 320.949,43.357 321.581,43.823 321.634,43.861 322.318,44.154 323.003,44.264 323.688,44.374 324.372,44.485 324.479,44.507 325.057,44.627 325.741,44.796 326.426,44.690 327.031,44.507 327.111,44.483 327.795,44.277 328.480,44.085 329.164,43.871 329.294,43.823 329.849,43.652 330.534,43.427 331.218,43.206 331.431,43.138 331.903,42.989 332.588,42.498 332.616,42.454 333.021,41.769 333.272,41.423 333.517,41.084 333.957,40.478 334.004,40.400 334.199,39.715 334.294,39.031 334.490,38.346 334.641,38.170 335.002,37.661 335.095,36.977 334.879,36.292 334.663,35.608 334.641,35.539 334.289,34.923 333.957,34.709 333.272,34.294 333.182,34.238 332.588,33.872 332.097,33.554 331.903,33.412 331.550,32.869 331.348,32.185 "/>
</g>
<g id="ID000034" clip-path="url(#ID000001)" >
      <polyline fill="none" fill-opacity="1.00" stroke="#afa7d0" stroke-width="0.5pt" stroke-opacity="1.00" stroke-dasharray="none" points="316.451,32.185 316.657,32.869 316.839,33.554 316.842,33.564 316.994,34.238 317.149,34.923 317.303,35.608 317.526,36.055 317.650,36.292 318.058,36.977 318.211,37.208 318.517,37.661 318.895,38.224 318.978,38.346 319.440,39.031 319.580,39.204 320.020,39.715 320.265,39.952 320.878,40.400 320.949,40.452 321.634,40.962 321.772,41.084 322.318,41.512 322.603,41.769 323.003,42.046 323.688,42.183 324.372,42.329 324.899,42.454 325.057,42.494 325.741,42.668 326.426,42.801 327.111,42.598 327.589,42.454 327.795,42.396 328.480,42.242 329.164,42.093 329.849,41.940 330.382,41.769 330.534,41.721 331.218,41.494 331.903,41.265 332.392,41.084 332.588,41.014 333.006,40.400 333.272,40.082 333.476,39.715 333.627,39.031 333.957,38.605 334.082,38.346 334.641,37.695 334.665,37.661 334.895,36.977 334.679,36.292 334.641,36.174 334.463,35.608 333.957,34.945 333.925,34.923 333.272,34.528 332.805,34.238 332.588,34.104 331.903,33.660 331.782,33.554 331.380,32.869 331.218,32.323 331.177,32.185 "/>
</g>
<g id="ID000035" clip-path="url(#ID000001)" >
      <polyline fill="none" fill-opacity="1.00" stroke="#a49bc7" stroke-width="0.5pt" stroke-opacity="1.00" stroke-dasharray="none" points="318.294,32.185 318.515,32.869 318.736,33.554 318.895,34.047 318.957,34.238 319.173,34.923 319.388,35.608 319.580,35.899 319.839,36.292 320.265,36.938 320.290,36.977 320.741,37.661 320.949,37.968 321.285,38.346 321.634,38.674 322.014,39.031 322.318,39.308 322.766,39.715 323.003,39.932 323.517,40.400 323.688,40.515 324.372,40.614 325.057,40.713 325.741,40.811 326.426,40.973 327.111,41.071 327.795,40.906 328.480,40.766 329.164,40.620 329.849,40.418 329.889,40.400 330.534,40.170 331.218,39.944 331.701,39.715 331.903,39.637 332.588,39.455 332.893,39.031 333.272,38.858 333.724,38.346 333.957,38.082 334.328,37.661 334.641,37.129 334.694,36.977 334.641,36.809 334.478,36.292 334.262,35.608 333.957,35.207 333.540,34.923 333.272,34.761 332.588,34.336 332.436,34.238 331.903,33.893 331.518,33.554 331.218,32.899 331.209,32.869 331.007,32.185 "/>
</g>
<g id="ID000036" clip-path="url(#ID000001)" >
      <polyline fill="none" fill-opacity="1.00" stroke="#988fbf" stroke-width="0.5pt" stroke-opacity="1.00" stroke-dasharray="none" points="320.113,32.185 320.265,32.656 320.332,32.869 320.541,33.554 320.750,34.238 320.949,34.893 320.959,34.923 321.195,35.608 321.634,36.273 321.647,36.292 322.221,36.977 322.318,37.072 322.939,37.661 323.003,37.722 323.661,38.346 323.688,38.371 324.372,38.993 324.477,39.031 325.057,39.168 325.741,39.451 326.338,39.715 326.426,39.754 327.111,40.058 327.795,40.022 328.480,39.857 329.069,39.715 329.164,39.691 329.849,39.448 330.534,39.124 330.768,39.031 331.218,38.848 331.903,38.754 332.588,38.778 333.272,38.476 333.387,38.346 333.957,37.701 333.992,37.661 334.450,36.977 334.278,36.292 334.062,35.608 333.957,35.470 333.272,34.994 333.158,34.923 332.588,34.569 332.078,34.238 331.903,34.125 331.254,33.554 331.218,33.475 331.039,32.869 330.837,32.185 "/>
</g>
<g id="ID000037" clip-path="url(#ID000001)" >
      <polyline fill="none" fill-opacity="1.00" stroke="#8c82b5" stroke-width="0.5pt" stroke-opacity="1.00" stroke-dasharray="none" points="321.388,32.185 321.634,32.764 321.678,32.869 321.968,33.554 322.246,34.238 322.318,34.381 322.548,34.923 322.858,35.608 323.003,35.756 323.430,36.292 323.688,36.579 324.012,36.977 324.372,37.419 324.570,37.661 325.057,38.087 325.741,38.297 325.914,38.346 326.426,38.546 327.111,38.839 327.543,39.031 327.795,39.115 328.195,39.031 328.480,38.972 329.164,38.741 329.849,38.417 329.999,38.346 330.534,38.235 331.218,38.108 331.903,38.199 332.458,38.346 332.588,38.380 332.667,38.346 333.272,38.095 333.655,37.661 333.957,37.319 334.190,36.977 334.078,36.292 333.957,35.909 333.802,35.608 333.272,35.227 332.784,34.923 332.588,34.801 331.903,34.357 331.720,34.238 331.218,33.815 331.071,33.554 330.869,32.869 330.666,32.185 "/>
</g>
<g id="ID000038" clip-path="url(#ID000001)" >
      <polyline fill="none" fill-opacity="1.00" stroke="#8073ac" stroke-width="0.5pt" stroke-opacity="1.00" stroke-dasharray="none" points="322.407,32.185 322.697,32.869 322.987,33.554 323.003,33.593 323.278,34.238 323.579,34.923 323.688,35.123 323.954,35.608 324.372,36.120 324.512,36.292 325.057,36.960 325.074,36.977 325.741,37.416 326.426,37.613 326.595,37.661 327.111,37.812 327.795,38.025 328.480,38.225 329.164,38.109 329.849,37.960 330.534,37.785 331.181,37.661 331.218,37.657 331.247,37.661 331.903,37.801 332.588,37.983 333.272,37.713 333.318,37.661 333.922,36.977 333.877,36.292 333.477,35.608 333.272,35.461 332.588,35.033 332.418,34.923 331.903,34.589 331.362,34.238 331.218,34.117 330.901,33.554 330.698,32.869 330.534,32.313 330.496,32.185 "/>
</g>
<g id="ID000039" clip-path="url(#ID000001)" >
      <polyline fill="none" fill-opacity="1.00" stroke="#7561a3" stroke-width="0.5pt" stroke-opacity="1.00" stroke-dasharray="none" points="323.425,32.185 323.688,32.804 323.715,32.869 324.009,33.554 324.314,34.238 324.372,34.368 324.622,34.923 325.013,35.608 325.057,35.661 325.571,36.292 325.741,36.459 326.426,36.733 327.111,36.929 327.171,36.977 327.795,37.304 328.206,37.661 328.480,37.824 329.164,37.725 329.417,37.661 329.849,37.582 330.534,37.456 331.218,37.386 331.903,37.437 332.588,37.585 333.272,37.332 333.586,36.977 333.677,36.292 333.272,35.714 333.135,35.608 332.588,35.265 332.060,34.923 331.903,34.821 331.218,34.377 331.079,34.238 330.730,33.554 330.534,32.889 330.528,32.869 330.325,32.185 "/>
</g>
<g id="ID000040" clip-path="url(#ID000001)" >
      <polyline fill="none" fill-opacity="1.00" stroke="#664498" stroke-width="0.5pt" stroke-opacity="1.00" stroke-dasharray="none" points="324.436,32.185 324.741,32.869 325.048,33.554 325.057,33.573 325.356,34.238 325.664,34.923 325.741,35.055 326.103,35.608 326.426,35.853 327.111,36.157 327.263,36.292 327.795,36.762 328.036,36.977 328.480,37.373 329.164,37.425 329.849,37.299 330.534,37.174 331.218,37.115 331.903,37.091 332.588,37.187 333.194,36.977 333.272,36.934 333.476,36.292 333.272,36.000 332.764,35.608 332.588,35.497 331.903,35.053 331.702,34.923 331.218,34.610 330.846,34.238 330.560,33.554 330.534,33.465 330.357,32.869 330.155,32.185 "/>
</g>
<g id="ID000041" clip-path="url(#ID000001)" >
      <polyline fill="none" fill-opacity="1.00" stroke="#5b318f" stroke-width="0.5pt" stroke-opacity="1.00" stroke-dasharray="none" points="325.241,32.185 325.535,32.869 325.741,33.241 325.889,33.554 326.176,34.238 326.426,34.686 326.535,34.923 327.013,35.608 327.111,35.667 327.795,36.277 327.813,36.292 328.480,36.887 328.644,36.977 329.164,37.143 329.849,37.017 330.067,36.977 330.534,36.894 331.218,36.844 331.903,36.796 332.588,36.827 333.272,36.305 333.276,36.292 333.272,36.286 332.588,35.771 332.399,35.608 331.903,35.286 331.343,34.923 331.218,34.842 330.613,34.238 330.534,34.042 330.389,33.554 330.187,32.869 329.985,32.185 "/>
</g>
<g id="ID000042" clip-path="url(#ID000001)" >
      <polyline fill="none" fill-opacity="1.00" stroke="#512384" stroke-width="0.5pt" stroke-opacity="1.00" stroke-dasharray="none" points="325.826,32.185 326.151,32.869 326.426,33.451 326.475,33.554 326.799,34.238 327.105,34.923 327.111,34.931 327.589,35.608 327.795,35.791 328.357,36.292 328.480,36.402 329.164,36.828 329.849,36.734 330.534,36.622 331.218,36.573 331.903,36.525 332.588,36.508 332.868,36.292 332.588,36.081 332.041,35.608 331.903,35.518 331.218,35.074 330.985,34.923 330.534,34.473 330.421,34.238 330.219,33.554 330.017,32.869 329.849,32.303 329.814,32.185 "/>
</g>
<g id="ID000043" clip-path="url(#ID000001)" >
      <polyline fill="none" fill-opacity="1.00" stroke="#471778" stroke-width="0.5pt" stroke-opacity="1.00" stroke-dasharray="none" points="326.412,32.185 326.426,32.215 326.736,32.869 327.060,33.554 327.111,33.660 327.374,34.238 327.656,34.923 327.795,35.121 328.134,35.608 328.480,35.916 328.902,36.292 329.164,36.467 329.849,36.452 330.534,36.350 331.218,36.302 331.356,36.292 331.683,35.608 331.218,35.306 330.627,34.923 330.534,34.830 330.251,34.238 330.049,33.554 329.849,32.879 329.846,32.869 329.644,32.185 "/>
</g>
<g id="ID000044" clip-path="url(#ID000001)" >
      <polyline fill="none" fill-opacity="1.00" stroke="#3e0d6a" stroke-width="0.5pt" stroke-opacity="1.00" stroke-dasharray="none" points="326.997,32.185 327.111,32.424 327.322,32.869 327.646,33.554 327.795,33.900 327.933,34.238 328.207,34.923 328.480,35.318 328.678,35.608 329.164,36.041 329.849,36.169 330.534,36.079 331.218,35.769 331.325,35.608 331.218,35.538 330.534,35.127 330.380,34.923 330.081,34.238 329.878,33.554 329.849,33.455 329.676,32.869 329.473,32.185 "/>
</g>
<g id="ID000045" clip-path="url(#ID000001)" >
      <polyline fill="none" fill-opacity="1.00" stroke="#35055b" stroke-width="0.5pt" stroke-opacity="1.00" stroke-dasharray="none" points="327.583,32.185 327.795,32.633 327.906,32.869 328.208,33.554 328.480,34.229 328.483,34.238 328.757,34.923 329.164,35.521 329.231,35.608 329.849,35.887 330.534,35.808 330.885,35.608 330.534,35.403 330.171,34.923 329.910,34.238 329.849,34.032 329.628,33.554 329.505,32.869 329.303,32.185 "/>
</g>
<g id="ID000046" clip-path="url(#ID000001)" >
      <polyline fill="none" fill-opacity="1.00" stroke="#2d004b" stroke-width="0.5pt" stroke-opacity="1.00" stroke-dasharray="none" points="328.168,32.185 328.480,32.854 328.488,32.869 328.760,33.554 329.034,34.238 329.164,34.564 329.349,34.238 329.360,33.554 329.335,32.869 329.164,32.293 328.986,32.185 "/>
</g>
<g id="ID000047" clip-path="url(#ID000001)" >
      <polyline fill="none" fill-opacity="1.00" stroke="#2d004b" stroke-width="0.5pt" stroke-opacity="1.00" stroke-dasharray="none" points="329.849,35.593 329.963,34.923 329.849,34.608 329.386,34.923 329.849,35.593 "/>
</g>
</g><g id="ID000048" clip-path="url(#ID000001)" >
<rect x="203.883" y="20.090" width="171.150" height="171.150" rx="85.575" ry="85.575" fill="none" stroke="#000000" stroke-width="0.5pt" stroke-dasharray="none" />
</g>
<g id="ID000049" >
</g>
    </g>
  </g>
  </g>
</svg>
