<?xml version="1.0" encoding="UTF-8" standalone="no"?>
<!-- Created with Inkscape (http://www.inkscape.org/) -->

<svg
   xmlns:ns0="http://www.iki.fi/pav/software/textext/"
   xmlns:dc="http://purl.org/dc/elements/1.1/"
   xmlns:cc="http://creativecommons.org/ns#"
   xmlns:rdf="http://www.w3.org/1999/02/22-rdf-syntax-ns#"
   xmlns:svg="http://www.w3.org/2000/svg"
   xmlns="http://www.w3.org/2000/svg"
   xmlns:xlink="http://www.w3.org/1999/xlink"
   xmlns:sodipodi="http://sodipodi.sourceforge.net/DTD/sodipodi-0.dtd"
   xmlns:inkscape="http://www.inkscape.org/namespaces/inkscape"
   width="17.522999"
   height="13.089386"
   id="svg2"
   version="1.1"
   inkscape:version="0.48.5 r10040"
   sodipodi:docname="circuit.svg">
  <sodipodi:namedview
     id="base"
     pagecolor="#ffffff"
     bordercolor="#666666"
     borderopacity="1.0"
     inkscape:pageopacity="0.0"
     inkscape:pageshadow="2"
     inkscape:zoom="2.8"
     inkscape:cx="-7.9969666"
     inkscape:cy="-29.715161"
     inkscape:document-units="px"
     inkscape:current-layer="layer1"
     showgrid="true"
     inkscape:window-width="1440"
     inkscape:window-height="847"
     inkscape:window-x="0"
     inkscape:window-y="31"
     inkscape:window-maximized="1"
     fit-margin-top="0"
     fit-margin-left="0"
     fit-margin-right="0"
     fit-margin-bottom="0">
    <inkscape:grid
       id="grid7775"
       type="xygrid"
       empspacing="5"
       visible="true"
       enabled="true"
       snapvisiblegridlinesonly="true"
       originx="207.324px"
       originy="-552.96705px" />
  </sodipodi:namedview>
  <defs
     id="defs4">
    <marker
       style="overflow:visible"
       id="marker11344"
       refX="0"
       refY="0"
       orient="auto"
       inkscape:stockid="TriangleOutS">
      <path
         transform="scale(0.2,0.2)"
         style="fill-rule:evenodd;stroke:#000000;stroke-width:1pt;marker-start:none"
         d="m 5.77,0 -8.65,5 0,-10 8.65,5 z"
         id="path11346"
         inkscape:connector-curvature="0" />
    </marker>
    <radialGradient
       inkscape:collect="always"
       xlink:href="#linearGradient4423"
       id="radialGradient4481"
       gradientUnits="userSpaceOnUse"
       gradientTransform="translate(0,-8.40408e-4)"
       cx="329.58322"
       cy="314.35028"
       fx="329.58322"
       fy="314.35028"
       r="21.449848" />
    <radialGradient
       inkscape:collect="always"
       xlink:href="#linearGradient4423"
       id="radialGradient4479"
       gradientUnits="userSpaceOnUse"
       gradientTransform="translate(0,-8.40408e-4)"
       cx="329.58322"
       cy="314.35028"
       fx="329.58322"
       fy="314.35028"
       r="21.449848" />
    <radialGradient
       inkscape:collect="always"
       xlink:href="#linearGradient4423"
       id="radialGradient4477"
       gradientUnits="userSpaceOnUse"
       gradientTransform="translate(0,-8.40408e-4)"
       cx="329.58322"
       cy="314.35028"
       fx="329.58322"
       fy="314.35028"
       r="21.449848" />
    <radialGradient
       inkscape:collect="always"
       xlink:href="#linearGradient4423"
       id="radialGradient4475"
       gradientUnits="userSpaceOnUse"
       gradientTransform="translate(0,-8.40408e-4)"
       cx="329.58322"
       cy="314.35028"
       fx="329.58322"
       fy="314.35028"
       r="21.449848" />
    <radialGradient
       inkscape:collect="always"
       xlink:href="#linearGradient4423"
       id="radialGradient4473"
       gradientUnits="userSpaceOnUse"
       gradientTransform="translate(0,-8.40408e-4)"
       cx="329.58322"
       cy="314.35028"
       fx="329.58322"
       fy="314.35028"
       r="21.449848" />
    <radialGradient
       inkscape:collect="always"
       xlink:href="#linearGradient4423"
       id="radialGradient4471"
       gradientUnits="userSpaceOnUse"
       gradientTransform="translate(0,-8.40408e-4)"
       cx="329.58322"
       cy="314.35028"
       fx="329.58322"
       fy="314.35028"
       r="21.449848" />
    <radialGradient
       inkscape:collect="always"
       xlink:href="#linearGradient4423"
       id="radialGradient4469"
       gradientUnits="userSpaceOnUse"
       gradientTransform="translate(0,-8.40408e-4)"
       cx="329.58322"
       cy="314.35028"
       fx="329.58322"
       fy="314.35028"
       r="21.449848" />
    <radialGradient
       inkscape:collect="always"
       xlink:href="#linearGradient4423"
       id="radialGradient4467"
       gradientUnits="userSpaceOnUse"
       gradientTransform="translate(0,-8.40408e-4)"
       cx="329.58322"
       cy="314.35028"
       fx="329.58322"
       fy="314.35028"
       r="21.449848" />
    <radialGradient
       inkscape:collect="always"
       xlink:href="#linearGradient4423"
       id="radialGradient4465"
       gradientUnits="userSpaceOnUse"
       gradientTransform="translate(0,-8.40408e-4)"
       cx="329.58322"
       cy="314.35028"
       fx="329.58322"
       fy="314.35028"
       r="21.449848" />
    <radialGradient
       inkscape:collect="always"
       xlink:href="#linearGradient4423"
       id="radialGradient4463"
       gradientUnits="userSpaceOnUse"
       gradientTransform="translate(0,-8.40408e-4)"
       cx="329.58322"
       cy="314.35028"
       fx="329.58322"
       fy="314.35028"
       r="21.449848" />
    <radialGradient
       inkscape:collect="always"
       xlink:href="#linearGradient4423"
       id="radialGradient4461"
       gradientUnits="userSpaceOnUse"
       gradientTransform="translate(0,-8.40408e-4)"
       cx="329.58322"
       cy="314.35028"
       fx="329.58322"
       fy="314.35028"
       r="21.449848" />
    <radialGradient
       inkscape:collect="always"
       xlink:href="#linearGradient4423"
       id="radialGradient4459"
       gradientUnits="userSpaceOnUse"
       gradientTransform="translate(0,-8.40408e-4)"
       cx="329.58322"
       cy="314.35028"
       fx="329.58322"
       fy="314.35028"
       r="21.449848" />
    <radialGradient
       inkscape:collect="always"
       xlink:href="#linearGradient4423"
       id="radialGradient4457"
       gradientUnits="userSpaceOnUse"
       gradientTransform="translate(0,-8.40408e-4)"
       cx="329.58322"
       cy="314.35028"
       fx="329.58322"
       fy="314.35028"
       r="21.449848" />
    <radialGradient
       inkscape:collect="always"
       xlink:href="#linearGradient4423"
       id="radialGradient4455"
       gradientUnits="userSpaceOnUse"
       gradientTransform="translate(0,-8.40408e-4)"
       cx="329.58322"
       cy="314.35028"
       fx="329.58322"
       fy="314.35028"
       r="21.449848" />
    <radialGradient
       inkscape:collect="always"
       xlink:href="#linearGradient4423"
       id="radialGradient4453"
       gradientUnits="userSpaceOnUse"
       gradientTransform="translate(0,-8.40408e-4)"
       cx="329.58322"
       cy="314.35028"
       fx="329.58322"
       fy="314.35028"
       r="21.449848" />
    <radialGradient
       inkscape:collect="always"
       xlink:href="#linearGradient4423"
       id="radialGradient4451"
       gradientUnits="userSpaceOnUse"
       gradientTransform="translate(0,-8.40408e-4)"
       cx="329.58322"
       cy="314.35028"
       fx="329.58322"
       fy="314.35028"
       r="21.449848" />
    <radialGradient
       inkscape:collect="always"
       xlink:href="#linearGradient4423"
       id="radialGradient4449"
       gradientUnits="userSpaceOnUse"
       gradientTransform="translate(0,-8.40408e-4)"
       cx="329.58322"
       cy="314.35028"
       fx="329.58322"
       fy="314.35028"
       r="21.449848" />
    <radialGradient
       inkscape:collect="always"
       xlink:href="#linearGradient4423"
       id="radialGradient4447"
       gradientUnits="userSpaceOnUse"
       gradientTransform="translate(0,-8.40408e-4)"
       cx="329.58322"
       cy="314.35028"
       fx="329.58322"
       fy="314.35028"
       r="21.449848" />
    <radialGradient
       inkscape:collect="always"
       xlink:href="#linearGradient4423"
       id="radialGradient4429"
       cx="329.58322"
       cy="314.35028"
       fx="329.58322"
       fy="314.35028"
       r="21.449848"
       gradientTransform="translate(0,-8.40408e-4)"
       gradientUnits="userSpaceOnUse" />
    <marker
       inkscape:stockid="TriangleOutS"
       orient="auto"
       refY="0"
       refX="0"
       id="TriangleOutS"
       style="overflow:visible">
      <path
         id="path3548"
         d="m 5.77,0 -8.65,5 0,-10 8.65,5 z"
         style="fill-rule:evenodd;stroke:#000000;stroke-width:1pt;marker-start:none"
         transform="scale(0.2,0.2)"
         inkscape:connector-curvature="0" />
    </marker>
    <linearGradient
       inkscape:collect="always"
       id="linearGradient4423">
      <stop
         style="stop-color:#ff6600;stop-opacity:1;"
         offset="0"
         id="stop4425" />
      <stop
         style="stop-color:#ff6600;stop-opacity:0;"
         offset="1"
         id="stop4427" />
    </linearGradient>
    <radialGradient
       r="21.449848"
       fy="314.35028"
       fx="329.58322"
       cy="314.35028"
       cx="329.58322"
       gradientTransform="translate(0,-8.40408e-4)"
       gradientUnits="userSpaceOnUse"
       id="radialGradient5529"
       xlink:href="#linearGradient4423"
       inkscape:collect="always" />
    <radialGradient
       r="21.449848"
       fy="314.35028"
       fx="329.58322"
       cy="314.35028"
       cx="329.58322"
       gradientTransform="translate(0,-8.40408e-4)"
       gradientUnits="userSpaceOnUse"
       id="radialGradient5531"
       xlink:href="#linearGradient4423"
       inkscape:collect="always" />
    <radialGradient
       r="21.449848"
       fy="314.35028"
       fx="329.58322"
       cy="314.35028"
       cx="329.58322"
       gradientTransform="translate(0,-8.40408e-4)"
       gradientUnits="userSpaceOnUse"
       id="radialGradient5533"
       xlink:href="#linearGradient4423"
       inkscape:collect="always" />
    <radialGradient
       r="21.449848"
       fy="314.35028"
       fx="329.58322"
       cy="314.35028"
       cx="329.58322"
       gradientTransform="translate(0,-8.40408e-4)"
       gradientUnits="userSpaceOnUse"
       id="radialGradient5535"
       xlink:href="#linearGradient4423"
       inkscape:collect="always" />
    <radialGradient
       r="21.449848"
       fy="314.35028"
       fx="329.58322"
       cy="314.35028"
       cx="329.58322"
       gradientTransform="translate(0,-8.40408e-4)"
       gradientUnits="userSpaceOnUse"
       id="radialGradient5537"
       xlink:href="#linearGradient4423"
       inkscape:collect="always" />
    <radialGradient
       r="21.449848"
       fy="314.35028"
       fx="329.58322"
       cy="314.35028"
       cx="329.58322"
       gradientTransform="translate(0,-8.40408e-4)"
       gradientUnits="userSpaceOnUse"
       id="radialGradient5539"
       xlink:href="#linearGradient4423"
       inkscape:collect="always" />
    <radialGradient
       r="21.449848"
       fy="314.35028"
       fx="329.58322"
       cy="314.35028"
       cx="329.58322"
       gradientTransform="translate(0,-8.40408e-4)"
       gradientUnits="userSpaceOnUse"
       id="radialGradient5541"
       xlink:href="#linearGradient4423"
       inkscape:collect="always" />
  </defs>
  <metadata
     id="metadata7">
    <rdf:RDF>
      <cc:Work
         rdf:about="">
        <dc:format>image/svg+xml</dc:format>
        <dc:type
           rdf:resource="http://purl.org/dc/dcmitype/StillImage" />
        <dc:title></dc:title>
      </cc:Work>
    </rdf:RDF>
  </metadata>
  <g
     id="layer1"
     inkscape:groupmode="layer"
     inkscape:label="Layer 1"
     transform="translate(207.324,-486.30575)">
    <g
       id="g8636"
       ns0:preamble=""
       ns0:text="$\\frac{1}{\\mathrm{i} \\omega C_0}$"
       transform="translate(-431.75391,360.08875)">
      <defs
         id="defs8638">
        <g
           id="g8640">
          <symbol
             id="textext-ecdfd325-0"
             overflow="visible"
             style="overflow:visible">
            <path
               id="path8643"
               d=""
               style="stroke:none"
               inkscape:connector-curvature="0" />
          </symbol>
          <symbol
             id="textext-ecdfd325-1"
             overflow="visible"
             style="overflow:visible">
            <path
               id="path8646"
               d="m 2.328125,-4.4375 c 0,-0.1875 0,-0.1875 -0.203125,-0.1875 -0.453125,0.4375 -1.078125,0.4375 -1.359375,0.4375 l 0,0.25 c 0.15625,0 0.625,0 1,-0.1875 l 0,3.546875 c 0,0.234375 0,0.328125 -0.6875,0.328125 l -0.265625,0 0,0.25 c 0.125,0 0.984375,-0.03125 1.234375,-0.03125 0.21875,0 1.09375,0.03125 1.25,0.03125 l 0,-0.25 -0.265625,0 c -0.703125,0 -0.703125,-0.09375 -0.703125,-0.328125 z m 0,0"
               style="stroke:none"
               inkscape:connector-curvature="0" />
          </symbol>
          <symbol
             id="textext-ecdfd325-2"
             overflow="visible"
             style="overflow:visible">
            <path
               id="path8649"
               d="m 1.46875,-4.296875 c 0,-0.203125 -0.171875,-0.40625 -0.40625,-0.40625 -0.203125,0 -0.390625,0.171875 -0.390625,0.40625 0,0.25 0.203125,0.40625 0.390625,0.40625 0.234375,0 0.40625,-0.171875 0.40625,-0.40625 z M 0.40625,-3 l 0,0.25 c 0.4375,0 0.5,0.046875 0.5,0.390625 l 0,1.8125 C 0.90625,-0.25 0.84375,-0.25 0.390625,-0.25 l 0,0.25 c 0.015625,0 0.5,-0.03125 0.78125,-0.03125 0.25,0 0.5,0.015625 0.734375,0.03125 l 0,-0.25 C 1.5,-0.25 1.4375,-0.25 1.4375,-0.546875 l 0,-2.53125 z m 0,0"
               style="stroke:none"
               inkscape:connector-curvature="0" />
          </symbol>
          <symbol
             id="textext-ecdfd325-3"
             overflow="visible"
             style="overflow:visible">
            <path
               id="path8652"
               d=""
               style="stroke:none"
               inkscape:connector-curvature="0" />
          </symbol>
          <symbol
             id="textext-ecdfd325-4"
             overflow="visible"
             style="overflow:visible">
            <path
               id="path8655"
               d="m 4.765625,-2.578125 c 0,-0.203125 -0.09375,-0.5 -0.375,-0.5 -0.171875,0 -0.359375,0.21875 -0.359375,0.390625 0,0.234375 0.375,0.28125 0.375,0.75 0,0.453125 -0.453125,1.453125 -1.234375,1.453125 -0.328125,0 -0.609375,-0.234375 -0.703125,-0.546875 0.09375,-0.140625 0.25,-0.625 0.25,-0.8125 0,-0.09375 -0.0625,-0.203125 -0.171875,-0.203125 -0.359375,0 -0.390625,0.75 -0.390625,1 -0.1875,0.25 -0.546875,0.5625 -1,0.5625 -0.375,0 -0.640625,-0.34375 -0.640625,-0.8125 0,-0.8125 0.703125,-1.484375 0.703125,-1.59375 0,-0.078125 -0.0625,-0.15625 -0.140625,-0.15625 -0.0625,0 -0.109375,0.03125 -0.15625,0.09375 -0.09375,0.109375 -0.1875,0.265625 -0.265625,0.40625 -0.25,0.421875 -0.421875,1 -0.421875,1.515625 0,0.546875 0.21875,1.09375 0.859375,1.09375 0.46875,0 0.875,-0.296875 1.125,-0.671875 0.140625,0.421875 0.4375,0.671875 0.890625,0.671875 1.21875,0 1.65625,-2.0625 1.65625,-2.640625 z m 0,0"
               style="stroke:none"
               inkscape:connector-curvature="0" />
          </symbol>
          <symbol
             id="textext-ecdfd325-5"
             overflow="visible"
             style="overflow:visible">
            <path
               id="path8658"
               d="m 5.875,-4.8125 c 0,-0.03125 -0.015625,-0.09375 -0.09375,-0.09375 -0.046875,0 -0.0625,0.015625 -0.125,0.09375 l -0.5,0.53125 c -0.0625,-0.078125 -0.453125,-0.625 -1.3125,-0.625 -1.703125,0 -3.359375,1.5 -3.359375,3.078125 0,1.140625 0.890625,1.96875 2.140625,1.96875 0.375,0 1.046875,-0.078125 1.765625,-0.6875 0.546875,-0.46875 0.703125,-1.0625 0.703125,-1.125 0,-0.09375 -0.078125,-0.09375 -0.125,-0.09375 -0.078125,0 -0.09375,0.03125 -0.125,0.109375 -0.28125,0.953125 -1.25,1.546875 -2.09375,1.546875 -0.75,0 -1.5625,-0.40625 -1.5625,-1.5 0,-0.203125 0.046875,-1.296875 0.84375,-2.1875 0.484375,-0.53125 1.21875,-0.84375 1.875,-0.84375 0.8125,0 1.28125,0.578125 1.28125,1.359375 0,0.1875 -0.015625,0.25 -0.015625,0.28125 0,0.09375 0.09375,0.09375 0.125,0.09375 0.109375,0 0.109375,-0.015625 0.140625,-0.15625 z m 0,0"
               style="stroke:none"
               inkscape:connector-curvature="0" />
          </symbol>
          <symbol
             id="textext-ecdfd325-6"
             overflow="visible"
             style="overflow:visible">
            <path
               id="path8661"
               d=""
               style="stroke:none"
               inkscape:connector-curvature="0" />
          </symbol>
          <symbol
             id="textext-ecdfd325-7"
             overflow="visible"
             style="overflow:visible">
            <path
               id="path8664"
               d="M 3,-1.59375 C 3,-1.953125 3,-3.3125 1.6875,-3.3125 c -1.296875,0 -1.296875,1.359375 -1.296875,1.71875 0,0.359375 0,1.703125 1.296875,1.703125 C 3,0.109375 3,-1.234375 3,-1.59375 z M 1.6875,-0.0625 C 1.515625,-0.0625 1.09375,-0.125 0.96875,-0.625 0.890625,-0.890625 0.890625,-1.25 0.890625,-1.65625 c 0,-0.375 0,-0.71875 0.078125,-1 0.125,-0.421875 0.515625,-0.5 0.71875,-0.5 0.375,0 0.640625,0.1875 0.734375,0.546875 C 2.5,-2.359375 2.5,-1.953125 2.5,-1.65625 c 0,0.34375 0,0.75 -0.078125,1.046875 C 2.296875,-0.125 1.890625,-0.0625 1.6875,-0.0625 z m 0,0"
               style="stroke:none"
               inkscape:connector-curvature="0" />
          </symbol>
        </g>
      </defs>
      <g
         id="textext-ecdfd325-8">
        <g
           id="g8667"
           style="fill:#000000;fill-opacity:1">
          <use
             id="use8669"
             y="130.842"
             x="231.20599"
             xlink:href="#textext-ecdfd325-1"
             width="744.09448"
             height="1052.3622" />
        </g>
        <path
           id="path8671"
           transform="matrix(1,0,0,-1,224.628,132.274)"
           d="m 9.0625e-4,5.625e-4 17.12499975,0"
           style="fill:none;stroke:#000000;stroke-width:0.398;stroke-linecap:butt;stroke-linejoin:miter;stroke-miterlimit:10;stroke-opacity:1"
           inkscape:connector-curvature="0" />
        <g
           id="g8673"
           style="fill:#000000;fill-opacity:1">
          <use
             id="use8675"
             y="138.2"
             x="224.62801"
             xlink:href="#textext-ecdfd325-2"
             width="744.09448"
             height="1052.3622" />
        </g>
        <g
           id="g8677"
           style="fill:#000000;fill-opacity:1">
          <use
             id="use8679"
             y="138.2"
             x="226.883"
             xlink:href="#textext-ecdfd325-4"
             width="744.09448"
             height="1052.3622" />
        </g>
        <g
           id="g8681"
           style="fill:#000000;fill-opacity:1">
          <use
             id="use8683"
             y="138.2"
             x="232.15311"
             xlink:href="#textext-ecdfd325-5"
             width="744.09448"
             height="1052.3622" />
        </g>
        <g
           id="g8685"
           style="fill:#000000;fill-opacity:1">
          <use
             id="use8687"
             y="139.19701"
             x="237.867"
             xlink:href="#textext-ecdfd325-7"
             width="744.09448"
             height="1052.3622" />
        </g>
      </g>
    </g>
  </g>
</svg>
