<?xml version="1.0" encoding="UTF-8" standalone="no"?>
<!-- Created with Inkscape (http://www.inkscape.org/) -->

<svg
   xmlns:ns0="http://www.iki.fi/pav/software/textext/"
   xmlns:dc="http://purl.org/dc/elements/1.1/"
   xmlns:cc="http://creativecommons.org/ns#"
   xmlns:rdf="http://www.w3.org/1999/02/22-rdf-syntax-ns#"
   xmlns:svg="http://www.w3.org/2000/svg"
   xmlns="http://www.w3.org/2000/svg"
   xmlns:xlink="http://www.w3.org/1999/xlink"
   xmlns:sodipodi="http://sodipodi.sourceforge.net/DTD/sodipodi-0.dtd"
   xmlns:inkscape="http://www.inkscape.org/namespaces/inkscape"
   width="163.21097"
   height="132.93916"
   id="svg2"
   version="1.1"
   inkscape:version="0.48.5 r10040"
   sodipodi:docname="hyperbolageo.svg">
  <sodipodi:namedview
     id="base"
     pagecolor="#ffffff"
     bordercolor="#666666"
     borderopacity="1.0"
     inkscape:pageopacity="0.0"
     inkscape:pageshadow="2"
     inkscape:zoom="3.959798"
     inkscape:cx="90.237246"
     inkscape:cy="65.915842"
     inkscape:document-units="px"
     inkscape:current-layer="layer1"
     showgrid="false"
     inkscape:snap-bbox="true"
     inkscape:bbox-paths="true"
     inkscape:bbox-nodes="true"
     inkscape:snap-bbox-edge-midpoints="true"
     inkscape:snap-bbox-midpoints="true"
     inkscape:object-paths="true"
     inkscape:snap-intersection-paths="true"
     inkscape:object-nodes="true"
     inkscape:snap-smooth-nodes="true"
     inkscape:snap-midpoints="true"
     inkscape:snap-object-midpoints="true"
     inkscape:snap-center="true"
     inkscape:window-width="1280"
     inkscape:window-height="974"
     inkscape:window-x="0"
     inkscape:window-y="26"
     inkscape:window-maximized="1"
     inkscape:snap-global="true"
     showguides="true"
     inkscape:guide-bbox="true"
     fit-margin-top="0"
     fit-margin-left="0"
     fit-margin-right="0"
     fit-margin-bottom="0" />
  <defs
     id="defs4">
    <marker
       inkscape:stockid="Arrow1Mend"
       orient="auto"
       refY="0"
       refX="0"
       id="Arrow1Mend"
       style="overflow:visible">
      <path
         id="path5300"
         d="M 0,0 5,-5 -12.5,0 5,5 0,0 z"
         style="fill-rule:evenodd;stroke:#000000;stroke-width:1pt"
         transform="matrix(-0.4,0,0,-0.4,-4,0)"
         inkscape:connector-curvature="0" />
    </marker>
    <marker
       style="overflow:visible"
       id="StopM"
       refX="0"
       refY="0"
       orient="auto"
       inkscape:stockid="StopM">
      <path
         transform="scale(0.4,0.4)"
         style="fill:none;stroke:#000000;stroke-width:1pt"
         d="M 0,5.65 0,-5.65"
         id="path5463"
         inkscape:connector-curvature="0" />
    </marker>
    <marker
       inkscape:stockid="Arrow1Mstart"
       orient="auto"
       refY="0"
       refX="0"
       id="Arrow1Mstart"
       style="overflow:visible">
      <path
         id="path5297"
         d="M 0,0 5,-5 -12.5,0 5,5 0,0 z"
         style="fill-rule:evenodd;stroke:#000000;stroke-width:1pt"
         transform="matrix(0.4,0,0,0.4,4,0)"
         inkscape:connector-curvature="0" />
    </marker>
    <marker
       inkscape:stockid="Arrow2Mend"
       orient="auto"
       refY="0"
       refX="0"
       id="Arrow2Mend"
       style="overflow:visible">
      <path
         id="path5318"
         style="fill-rule:evenodd;stroke-width:0.625;stroke-linejoin:round"
         d="M 8.7185878,4.0337352 -2.2072895,0.01601326 8.7185884,-4.0017078 c -1.7454984,2.3720609 -1.7354408,5.6174519 -6e-7,8.035443 z"
         transform="scale(-0.6,-0.6)"
         inkscape:connector-curvature="0" />
    </marker>
    <inkscape:perspective
       sodipodi:type="inkscape:persp3d"
       inkscape:vp_x="-141.42857 : 523.32395 : 1"
       inkscape:vp_y="0 : 1000 : 0"
       inkscape:vp_z="602.66591 : 523.32395 : 1"
       inkscape:persp3d-origin="230.61867 : 347.93025 : 1"
       id="perspective2985" />
    <inkscape:path-effect
       is_visible="true"
       id="path-effect3287"
       effect="spiro" />
    <inkscape:path-effect
       is_visible="true"
       id="path-effect4981-9"
       effect="spiro" />
    <inkscape:path-effect
       is_visible="true"
       id="path-effect4981"
       effect="spiro" />
    <inkscape:path-effect
       is_visible="true"
       id="path-effect4981-9-1"
       effect="spiro" />
    <marker
       inkscape:stockid="Arrow2Mend"
       orient="auto"
       refY="0"
       refX="0"
       id="Arrow2Mend-6"
       style="overflow:visible">
      <path
         inkscape:connector-curvature="0"
         id="path5318-4"
         style="fill-rule:evenodd;stroke-width:0.625;stroke-linejoin:round"
         d="M 8.7185878,4.0337352 -2.2072895,0.01601326 8.7185884,-4.0017078 c -1.7454984,2.3720609 -1.7354408,5.6174519 -6e-7,8.035443 z"
         transform="scale(-0.6,-0.6)" />
    </marker>
    <inkscape:path-effect
       is_visible="true"
       id="path-effect4981-9-1-5"
       effect="spiro" />
    <inkscape:path-effect
       is_visible="true"
       id="path-effect4981-9-1-8"
       effect="spiro" />
    <inkscape:path-effect
       is_visible="true"
       id="path-effect4981-3"
       effect="spiro" />
    <marker
       inkscape:stockid="Arrow1Mstart"
       orient="auto"
       refY="0"
       refX="0"
       id="Arrow1Mstart-3"
       style="overflow:visible">
      <path
         id="path5297-7"
         d="M 0,0 5,-5 -12.5,0 5,5 0,0 z"
         style="fill-rule:evenodd;stroke:#000000;stroke-width:1pt"
         transform="matrix(0.4,0,0,0.4,4,0)"
         inkscape:connector-curvature="0" />
    </marker>
    <inkscape:path-effect
       is_visible="true"
       id="path-effect4981-3-7"
       effect="spiro" />
  </defs>
  <metadata
     id="metadata7">
    <rdf:RDF>
      <cc:Work
         rdf:about="">
        <dc:format>image/svg+xml</dc:format>
        <dc:type
           rdf:resource="http://purl.org/dc/dcmitype/StillImage" />
        <dc:title />
      </cc:Work>
    </rdf:RDF>
  </metadata>
  <g
     inkscape:label="Layer 1"
     inkscape:groupmode="layer"
     id="layer1"
     transform="translate(-189.80684,-815.97174)">
    <rect
       style="fill:#eeeeec;fill-opacity:1;stroke:#000000;stroke-width:0.5;stroke-linecap:square;stroke-linejoin:round;stroke-miterlimit:4;stroke-opacity:1;stroke-dasharray:none;stroke-dashoffset:0"
       id="rect6545"
       width="5.3937616"
       height="5.3938351"
       x="-187.5202"
       y="945.70184"
       transform="matrix(0.87461971,-0.48480962,0.48480962,0.87461971,0,0)" />
    <path
       sodipodi:type="arc"
       style="fill:#eeeeec;stroke:#000000;stroke-width:0.5;stroke-linecap:square;stroke-linejoin:round;stroke-miterlimit:4;stroke-opacity:1;stroke-dasharray:none;stroke-dashoffset:0"
       id="path6505-7"
       sodipodi:cx="144.10715"
       sodipodi:cy="821.4693"
       sodipodi:rx="12.678572"
       sodipodi:ry="12.678572"
       d="m 133.12718,815.13001 c 2.26481,-3.92276 6.45035,-6.33928 10.97997,-6.33928 l 0,12.67857 z"
       transform="translate(121.61255,118.67891)"
       sodipodi:start="3.6651914"
       sodipodi:end="4.712389" />
    <path
       sodipodi:type="arc"
       style="fill:#eeeeec;stroke:#000000;stroke-width:0.5;stroke-linecap:square;stroke-linejoin:round;stroke-miterlimit:4;stroke-opacity:1;stroke-dasharray:none;stroke-dashoffset:0"
       id="path6505-9"
       sodipodi:cx="144.10715"
       sodipodi:cy="821.4693"
       sodipodi:rx="12.678572"
       sodipodi:ry="12.678572"
       d="m 137.76786,810.48933 c 1.92739,-1.11277 4.11373,-1.6986 6.33929,-1.6986 l 0,12.67857 z"
       transform="translate(121.61255,33.624203)"
       sodipodi:start="4.1887902"
       sodipodi:end="4.712389" />
    <path
       sodipodi:nodetypes="cc"
       inkscape:connector-curvature="0"
       inkscape:original-d="M 265.7197,940.14822 193.0412,899.97579"
       inkscape:path-effect="#path-effect4981"
       id="path4979"
       d="M 265.7197,940.14822 193.0412,899.97579"
       style="fill:none;stroke:#000000;stroke-width:0.5;stroke-linecap:round;stroke-linejoin:miter;stroke-miterlimit:4;stroke-opacity:1;stroke-dasharray:none;marker-mid:none;marker-end:url(#Arrow1Mstart-3)" />
    <path
       sodipodi:nodetypes="cc"
       inkscape:connector-curvature="0"
       inkscape:original-d="M 338.39822,899.97578 265.7197,940.14821"
       inkscape:path-effect="#path-effect4981-9"
       id="path4979-2"
       d="M 338.39822,899.97578 265.7197,940.14821"
       style="fill:none;stroke:#000000;stroke-width:0.5;stroke-linecap:round;stroke-linejoin:miter;stroke-miterlimit:4;stroke-opacity:1;stroke-dasharray:none" />
    <path
       sodipodi:nodetypes="cc"
       inkscape:connector-curvature="0"
       inkscape:original-d="m 265.71972,940.20619 0,-123.98445"
       inkscape:path-effect="#path-effect3287"
       id="path3285"
       d="m 265.71972,940.20619 0,-123.98445"
       style="fill:none;stroke:#000000;stroke-width:0.50000006;stroke-linecap:butt;stroke-linejoin:miter;stroke-miterlimit:4;stroke-opacity:1;stroke-dasharray:none;stroke-dashoffset:0" />
    <g
       transform="translate(24.54173,788.4584)"
       ns0:text="$\\theta_\\mathrm{sp}$"
       ns0:preamble=""
       id="g3035">
      <defs
         id="defs3037">
        <g
           id="g3039">
          <symbol
             style="overflow:visible"
             overflow="visible"
             id="textext-f6f5a5e4-0">
            <path
               inkscape:connector-curvature="0"
               style="stroke:none"
               d=""
               id="path3042" />
          </symbol>
          <symbol
             style="overflow:visible"
             overflow="visible"
             id="textext-f6f5a5e4-1">
            <path
               inkscape:connector-curvature="0"
               style="stroke:none"
               d="m 4.53125,-4.984375 c 0,-0.65625 -0.171875,-2.046875 -1.1875,-2.046875 -1.390625,0 -2.921875,2.8125 -2.921875,5.09375 0,0.9375 0.28125,2.046875 1.1875,2.046875 1.40625,0 2.921875,-2.859375 2.921875,-5.09375 z M 1.46875,-3.625 C 1.640625,-4.25 1.84375,-5.046875 2.25,-5.765625 2.515625,-6.25 2.875,-6.8125 3.328125,-6.8125 c 0.484375,0 0.546875,0.640625 0.546875,1.203125 0,0.5 -0.078125,1 -0.3125,1.984375 z m 2,0.328125 C 3.359375,-2.84375 3.15625,-2 2.765625,-1.28125 c -0.34375,0.6875 -0.71875,1.171875 -1.15625,1.171875 -0.328125,0 -0.53125,-0.296875 -0.53125,-1.21875 0,-0.421875 0.0625,-1 0.3125,-1.96875 z"
               id="path3045" />
          </symbol>
          <symbol
             style="overflow:visible"
             overflow="visible"
             id="textext-f6f5a5e4-2">
            <path
               inkscape:connector-curvature="0"
               style="stroke:none"
               d=""
               id="path3048" />
          </symbol>
          <symbol
             style="overflow:visible"
             overflow="visible"
             id="textext-f6f5a5e4-3">
            <path
               inkscape:connector-curvature="0"
               style="stroke:none"
               d="m 2.640625,-2.921875 c 0,-0.125 0,-0.1875 -0.09375,-0.1875 -0.03125,0 -0.046875,0 -0.140625,0.078125 -0.015625,0.015625 -0.078125,0.078125 -0.125,0.109375 -0.21875,-0.140625 -0.46875,-0.1875 -0.734375,-0.1875 -1,0 -1.234375,0.53125 -1.234375,0.875 0,0.21875 0.09375,0.40625 0.265625,0.546875 0.265625,0.21875 0.53125,0.265625 0.96875,0.34375 0.34375,0.0625 0.90625,0.15625 0.90625,0.625 0,0.265625 -0.1875,0.59375 -0.859375,0.59375 -0.671875,0 -0.90625,-0.4375 -1.03125,-0.90625 -0.03125,-0.09375 -0.03125,-0.125 -0.125,-0.125 -0.125,0 -0.125,0.046875 -0.125,0.1875 l 0,0.859375 C 0.3125,0 0.3125,0.0625 0.40625,0.0625 0.46875,0.0625 0.609375,-0.078125 0.75,-0.234375 1.046875,0.0625 1.421875,0.0625 1.59375,0.0625 c 0.90625,0 1.25,-0.484375 1.25,-0.96875 0,-0.265625 -0.125,-0.484375 -0.3125,-0.640625 -0.265625,-0.25 -0.578125,-0.3125 -0.828125,-0.34375 -0.546875,-0.109375 -1,-0.1875 -1,-0.5625 0,-0.21875 0.1875,-0.484375 0.84375,-0.484375 0.8125,0 0.84375,0.5625 0.859375,0.765625 0,0.078125 0.09375,0.078125 0.109375,0.078125 0.125,0 0.125,-0.046875 0.125,-0.1875 z"
               id="path3051" />
          </symbol>
          <symbol
             style="overflow:visible"
             overflow="visible"
             id="textext-f6f5a5e4-4">
            <path
               inkscape:connector-curvature="0"
               style="stroke:none"
               d="m 1.9375,1.09375 c -0.453125,0 -0.515625,0 -0.515625,-0.296875 l 0,-1.125 C 1.453125,-0.296875 1.78125,0.0625 2.359375,0.0625 3.28125,0.0625 4.0625,-0.625 4.0625,-1.5 c 0,-0.859375 -0.703125,-1.578125 -1.59375,-1.578125 -0.390625,0 -0.796875,0.15625 -1.078125,0.4375 l 0,-0.4375 L 0.34375,-3 l 0,0.25 c 0.484375,0 0.515625,0.046875 0.515625,0.328125 l 0,3.21875 c 0,0.296875 -0.0625,0.296875 -0.515625,0.296875 l 0,0.265625 c 0.015625,0 0.5,-0.03125 0.796875,-0.03125 0.25,0 0.734375,0.015625 0.796875,0.03125 z M 1.421875,-2.328125 C 1.625,-2.671875 2.03125,-2.84375 2.390625,-2.84375 c 0.59375,0 1.046875,0.609375 1.046875,1.34375 0,0.796875 -0.53125,1.375 -1.109375,1.375 -0.625,0 -0.890625,-0.53125 -0.90625,-0.578125 z"
               id="path3054" />
          </symbol>
        </g>
      </defs>
      <g
         id="textext-f6f5a5e4-5">
        <g
           style="fill:#000000;fill-opacity:1"
           id="g3057">
          <use
             height="1052.3622"
             width="744.09448"
             xlink:href="#textext-f6f5a5e4-1"
             x="223.43201"
             y="134.765"
             id="use3059" />
        </g>
        <g
           style="fill:#000000;fill-opacity:1"
           id="g3061">
          <use
             height="1052.3622"
             width="744.09448"
             xlink:href="#textext-f6f5a5e4-3"
             x="228.10899"
             y="136.259"
             id="use3063" />
          <use
             height="1052.3622"
             width="744.09448"
             xlink:href="#textext-f6f5a5e4-4"
             x="231.26534"
             y="136.259"
             id="use3065" />
        </g>
      </g>
    </g>
    <path
       sodipodi:nodetypes="cc"
       inkscape:connector-curvature="0"
       inkscape:original-d="m 246.64724,820.74514 61.73791,111.47947"
       inkscape:path-effect="#path-effect4981-9-1"
       id="path4979-2-4"
       d="m 246.64724,820.74514 61.73791,111.47947"
       style="fill:none;stroke:#000000;stroke-width:0.5000003;stroke-linecap:square;stroke-linejoin:miter;stroke-miterlimit:4;stroke-opacity:1;stroke-dasharray:none" />
    <g
       id="g4239"
       transform="translate(34.113584,701.42449)"
       ns0:preamble=""
       ns0:text="$\\phi$">
      <defs
         id="defs4241">
        <g
           id="g4243">
          <symbol
             id="textext-f0c48d3e-0"
             overflow="visible"
             style="overflow:visible">
            <path
               id="path4246"
               d=""
               style="stroke:none"
               inkscape:connector-curvature="0" />
          </symbol>
          <symbol
             id="textext-f0c48d3e-1"
             overflow="visible"
             style="overflow:visible">
            <path
               id="path4249"
               d="m 4.359375,-6.671875 c 0,-0.03125 0.03125,-0.140625 0.03125,-0.140625 0,-0.015625 0,-0.109375 -0.125,-0.109375 -0.09375,0 -0.109375,0.03125 -0.15625,0.203125 L 3.53125,-4.421875 c -1.578125,0.0625 -3.046875,1.375 -3.046875,2.734375 0,0.953125 0.703125,1.734375 1.921875,1.8125 C 2.328125,0.421875 2.25,0.75 2.171875,1.0625 c -0.125,0.46875 -0.21875,0.84375 -0.21875,0.875 0,0.09375 0.078125,0.109375 0.125,0.109375 C 2.125,2.046875 2.140625,2.03125 2.171875,2 2.1875,1.984375 2.25,1.75 2.28125,1.609375 L 2.65625,0.125 c 1.609375,-0.0625 3.0625,-1.40625 3.0625,-2.734375 0,-0.796875 -0.53125,-1.703125 -1.921875,-1.8125 z m -1.90625,6.578125 c -0.59375,-0.03125 -1.3125,-0.390625 -1.3125,-1.375 0,-1.203125 0.859375,-2.59375 2.34375,-2.734375 z m 1.28125,-4.109375 c 0.765625,0.046875 1.328125,0.5 1.328125,1.375 0,1.1875 -0.859375,2.609375 -2.34375,2.734375 z"
               style="stroke:none"
               inkscape:connector-curvature="0" />
          </symbol>
        </g>
      </defs>
      <g
         id="textext-f0c48d3e-2">
        <g
           id="g4252"
           style="fill:#000000;fill-opacity:1">
          <use
             id="use4254"
             y="134.765"
             x="223.43201"
             xlink:href="#textext-f0c48d3e-1"
             width="744.09448"
             height="1052.3622" />
        </g>
      </g>
    </g>
    <g
       ns0:text="detector"
       ns0:preamble=""
       transform="translate(94.41324,796.59477)"
       id="g6621">
      <defs
         id="defs6623">
        <g
           id="g6625">
          <symbol
             style="overflow:visible"
             overflow="visible"
             id="textext-633dd30e-0">
            <path
               inkscape:connector-curvature="0"
               style="stroke:none"
               d=""
               id="path6628" />
          </symbol>
          <symbol
             style="overflow:visible"
             overflow="visible"
             id="textext-633dd30e-1">
            <path
               inkscape:connector-curvature="0"
               style="stroke:none"
               d="m 3.78125,-0.546875 0,0.65625 L 5.25,0 l 0,-0.3125 c -0.6875,0 -0.78125,-0.0625 -0.78125,-0.5625 l 0,-6.046875 -1.421875,0.109375 0,0.3125 c 0.6875,0 0.765625,0.0625 0.765625,0.5625 l 0,2.15625 c -0.28125,-0.359375 -0.71875,-0.625 -1.25,-0.625 -1.171875,0 -2.21875,0.984375 -2.21875,2.265625 0,1.265625 0.96875,2.25 2.109375,2.25 0.640625,0 1.078125,-0.34375 1.328125,-0.65625 z m 0,-2.671875 0,2.046875 c 0,0.171875 0,0.1875 -0.109375,0.359375 C 3.375,-0.328125 2.9375,-0.109375 2.5,-0.109375 2.046875,-0.109375 1.6875,-0.375 1.453125,-0.75 1.203125,-1.15625 1.171875,-1.71875 1.171875,-2.140625 1.171875,-2.5 1.1875,-3.09375 1.46875,-3.546875 1.6875,-3.859375 2.0625,-4.1875 2.609375,-4.1875 c 0.34375,0 0.765625,0.15625 1.0625,0.59375 0.109375,0.171875 0.109375,0.1875 0.109375,0.375 z"
               id="path6631" />
          </symbol>
          <symbol
             style="overflow:visible"
             overflow="visible"
             id="textext-633dd30e-2">
            <path
               inkscape:connector-curvature="0"
               style="stroke:none"
               d="M 1.109375,-2.515625 C 1.171875,-4 2.015625,-4.25 2.359375,-4.25 c 1.015625,0 1.125,1.34375 1.125,1.734375 z m 0,0.21875 2.78125,0 c 0.21875,0 0.25,0 0.25,-0.21875 0,-0.984375 -0.546875,-1.953125 -1.78125,-1.953125 -1.15625,0 -2.078125,1.03125 -2.078125,2.28125 0,1.328125 1.046875,2.296875 2.1875,2.296875 C 3.6875,0.109375 4.140625,-1 4.140625,-1.1875 4.140625,-1.28125 4.0625,-1.3125 4,-1.3125 c -0.078125,0 -0.109375,0.0625 -0.125,0.140625 -0.34375,1.03125 -1.25,1.03125 -1.34375,1.03125 -0.5,0 -0.890625,-0.296875 -1.125,-0.671875 -0.296875,-0.46875 -0.296875,-1.125 -0.296875,-1.484375 z"
               id="path6634" />
          </symbol>
          <symbol
             style="overflow:visible"
             overflow="visible"
             id="textext-633dd30e-3">
            <path
               inkscape:connector-curvature="0"
               style="stroke:none"
               d="m 1.71875,-3.984375 1.4375,0 0,-0.3125 -1.4375,0 0,-1.828125 -0.25,0 c 0,0.8125 -0.296875,1.875 -1.28125,1.921875 l 0,0.21875 0.84375,0 0,2.75 c 0,1.21875 0.9375,1.34375 1.296875,1.34375 0.703125,0 0.984375,-0.703125 0.984375,-1.34375 l 0,-0.5625 -0.25,0 0,0.546875 c 0,0.734375 -0.296875,1.109375 -0.671875,1.109375 -0.671875,0 -0.671875,-0.90625 -0.671875,-1.078125 z"
               id="path6637" />
          </symbol>
          <symbol
             style="overflow:visible"
             overflow="visible"
             id="textext-633dd30e-4">
            <path
               inkscape:connector-curvature="0"
               style="stroke:none"
               d="m 1.171875,-2.171875 c 0,-1.625 0.8125,-2.046875 1.34375,-2.046875 0.09375,0 0.71875,0.015625 1.0625,0.375 -0.40625,0.03125 -0.46875,0.328125 -0.46875,0.453125 0,0.265625 0.1875,0.453125 0.453125,0.453125 0.265625,0 0.46875,-0.15625 0.46875,-0.46875 0,-0.671875 -0.765625,-1.0625 -1.53125,-1.0625 -1.25,0 -2.15625,1.078125 -2.15625,2.3125 0,1.28125 0.984375,2.265625 2.140625,2.265625 1.328125,0 1.65625,-1.203125 1.65625,-1.296875 0,-0.09375 -0.109375,-0.09375 -0.140625,-0.09375 -0.078125,0 -0.109375,0.03125 -0.125,0.09375 -0.28125,0.921875 -0.9375,1.046875 -1.296875,1.046875 -0.53125,0 -1.40625,-0.421875 -1.40625,-2.03125 z"
               id="path6640" />
          </symbol>
          <symbol
             style="overflow:visible"
             overflow="visible"
             id="textext-633dd30e-5">
            <path
               inkscape:connector-curvature="0"
               style="stroke:none"
               d="M 4.6875,-2.140625 C 4.6875,-3.40625 3.703125,-4.46875 2.5,-4.46875 c -1.25,0 -2.21875,1.09375 -2.21875,2.328125 0,1.296875 1.03125,2.25 2.203125,2.25 1.203125,0 2.203125,-0.984375 2.203125,-2.25 z m -2.1875,2 c -0.4375,0 -0.875,-0.203125 -1.140625,-0.671875 -0.25,-0.4375 -0.25,-1.046875 -0.25,-1.40625 0,-0.390625 0,-0.921875 0.234375,-1.359375 C 1.609375,-4.03125 2.078125,-4.25 2.484375,-4.25 c 0.4375,0 0.859375,0.21875 1.125,0.65625 0.265625,0.421875 0.265625,1 0.265625,1.375 0,0.359375 0,0.90625 -0.21875,1.34375 C 3.421875,-0.421875 2.984375,-0.140625 2.5,-0.140625 z"
               id="path6643" />
          </symbol>
          <symbol
             style="overflow:visible"
             overflow="visible"
             id="textext-633dd30e-6">
            <path
               inkscape:connector-curvature="0"
               style="stroke:none"
               d="m 1.671875,-3.3125 0,-1.09375 -1.390625,0.109375 0,0.3125 c 0.703125,0 0.78125,0.0625 0.78125,0.5625 l 0,2.671875 c 0,0.4375 -0.109375,0.4375 -0.78125,0.4375 l 0,0.3125 c 0.390625,-0.015625 0.859375,-0.03125 1.140625,-0.03125 0.390625,0 0.859375,0 1.265625,0.03125 l 0,-0.3125 -0.21875,0 c -0.734375,0 -0.75,-0.109375 -0.75,-0.46875 l 0,-1.53125 c 0,-0.984375 0.421875,-1.875 1.171875,-1.875 0.0625,0 0.09375,0 0.109375,0.015625 -0.03125,0 -0.234375,0.125 -0.234375,0.390625 0,0.265625 0.21875,0.421875 0.4375,0.421875 0.171875,0 0.421875,-0.125 0.421875,-0.4375 0,-0.3125 -0.3125,-0.609375 -0.734375,-0.609375 -0.734375,0 -1.09375,0.671875 -1.21875,1.09375 z"
               id="path6646" />
          </symbol>
        </g>
      </defs>
      <g
         id="textext-633dd30e-7">
        <g
           style="fill:#000000;fill-opacity:1"
           id="g6649">
          <use
             height="1052.3622"
             width="744.09448"
             xlink:href="#textext-633dd30e-1"
             x="223.43201"
             y="134.765"
             id="use6651" />
          <use
             height="1052.3622"
             width="744.09448"
             xlink:href="#textext-633dd30e-2"
             x="228.96722"
             y="134.765"
             id="use6653" />
          <use
             height="1052.3622"
             width="744.09448"
             xlink:href="#textext-633dd30e-3"
             x="233.39461"
             y="134.765"
             id="use6655" />
          <use
             height="1052.3622"
             width="744.09448"
             xlink:href="#textext-633dd30e-2"
             x="237.26906"
             y="134.765"
             id="use6657" />
          <use
             height="1052.3622"
             width="744.09448"
             xlink:href="#textext-633dd30e-4"
             x="241.69644"
             y="134.765"
             id="use6659" />
          <use
             height="1052.3622"
             width="744.09448"
             xlink:href="#textext-633dd30e-3"
             x="246.12381"
             y="134.765"
             id="use6661" />
          <use
             height="1052.3622"
             width="744.09448"
             xlink:href="#textext-633dd30e-5"
             x="249.99828"
             y="134.765"
             id="use6663" />
          <use
             height="1052.3622"
             width="744.09448"
             xlink:href="#textext-633dd30e-6"
             x="254.97957"
             y="134.765"
             id="use6665" />
        </g>
      </g>
    </g>
    <path
       sodipodi:nodetypes="cc"
       inkscape:connector-curvature="0"
       inkscape:original-d="m 294.01221,906.19364 14.62654,26.38698"
       inkscape:path-effect="#path-effect4981-9-1-8"
       id="path4979-2-4-7"
       d="m 294.01221,906.19364 14.62654,26.38698"
       style="fill:#ffffff;fill-opacity:1;stroke:#000000;stroke-width:1;stroke-linecap:square;stroke-linejoin:miter;stroke-miterlimit:4;stroke-opacity:1;stroke-dasharray:1, 2;stroke-dashoffset:0;marker-start:url(#StopM);marker-end:url(#StopM)" />
    <g
       ns0:text="$A$"
       ns0:preamble=""
       transform="translate(44.114451,719.0706)"
       id="g8073">
      <defs
         id="defs8075">
        <g
           id="g8077">
          <symbol
             style="overflow:visible"
             overflow="visible"
             id="textext-ee65654d-0">
            <path
               inkscape:connector-curvature="0"
               style="stroke:none"
               d=""
               id="path8080" />
          </symbol>
          <symbol
             style="overflow:visible"
             overflow="visible"
             id="textext-ee65654d-1">
            <path
               inkscape:connector-curvature="0"
               style="stroke:none"
               d="M 1.78125,-1.140625 C 1.390625,-0.484375 1,-0.34375 0.5625,-0.3125 0.4375,-0.296875 0.34375,-0.296875 0.34375,-0.109375 0.34375,-0.046875 0.40625,0 0.484375,0 0.75,0 1.0625,-0.03125 1.328125,-0.03125 c 0.34375,0 0.6875,0.03125 1,0.03125 0.0625,0 0.1875,0 0.1875,-0.1875 0,-0.109375 -0.078125,-0.125 -0.15625,-0.125 -0.21875,-0.015625 -0.46875,-0.09375 -0.46875,-0.34375 0,-0.125 0.0625,-0.234375 0.140625,-0.375 l 0.765625,-1.265625 2.5,0 c 0.015625,0.203125 0.15625,1.5625 0.15625,1.65625 0,0.296875 -0.515625,0.328125 -0.71875,0.328125 C 4.59375,-0.3125 4.5,-0.3125 4.5,-0.109375 4.5,0 4.609375,0 4.640625,0 5.046875,0 5.46875,-0.03125 5.875,-0.03125 6.125,-0.03125 6.765625,0 7.015625,0 7.0625,0 7.1875,0 7.1875,-0.203125 7.1875,-0.3125 7.09375,-0.3125 6.953125,-0.3125 6.34375,-0.3125 6.34375,-0.375 6.3125,-0.671875 l -0.609375,-6.21875 c -0.015625,-0.203125 -0.015625,-0.25 -0.1875,-0.25 -0.15625,0 -0.203125,0.078125 -0.265625,0.171875 z M 2.984375,-2.609375 4.9375,-5.90625 5.265625,-2.609375 z"
               id="path8083" />
          </symbol>
        </g>
      </defs>
      <g
         id="textext-ee65654d-2">
        <g
           style="fill:#000000;fill-opacity:1"
           id="g8086">
          <use
             height="1052.3622"
             width="744.09448"
             xlink:href="#textext-ee65654d-1"
             x="223.43201"
             y="134.765"
             id="use8088" />
        </g>
      </g>
    </g>
    <g
       id="g8321"
       transform="translate(43.222083,813.92715)"
       ns0:preamble=""
       ns0:text="$O$">
      <defs
         id="defs8323">
        <g
           id="g8325">
          <symbol
             style="overflow:visible"
             id="textext-e788bdae-0"
             overflow="visible">
            <path
               inkscape:connector-curvature="0"
               id="path8328"
               d=""
               style="stroke:none" />
          </symbol>
          <symbol
             style="overflow:visible"
             id="textext-e788bdae-1"
             overflow="visible">
            <path
               inkscape:connector-curvature="0"
               id="path8331"
               d="m 7.375,-4.34375 c 0,-1.609375 -1.0625,-2.6875 -2.546875,-2.6875 -2.140625,0 -4.34375,2.265625 -4.34375,4.59375 0,1.65625 1.125,2.65625 2.5625,2.65625 2.109375,0 4.328125,-2.1875 4.328125,-4.5625 z m -4.28125,4.296875 c -0.984375,0 -1.671875,-0.796875 -1.671875,-2.109375 0,-0.453125 0.140625,-1.90625 0.90625,-3.0625 0.6875,-1.046875 1.65625,-1.5625 2.453125,-1.5625 0.8125,0 1.703125,0.5625 1.703125,2.046875 0,0.71875 -0.265625,2.265625 -1.25,3.5 C 4.75,-0.625 3.9375,-0.046875 3.09375,-0.046875 z"
               style="stroke:none" />
          </symbol>
        </g>
      </defs>
      <g
         id="textext-e788bdae-2">
        <g
           id="g8334"
           style="fill:#000000;fill-opacity:1">
          <use
             height="1052.3622"
             width="744.09448"
             id="use8336"
             y="134.765"
             x="223.43201"
             xlink:href="#textext-e788bdae-1" />
        </g>
      </g>
    </g>
    <g
       ns0:text="$d$"
       ns0:preamble=""
       transform="translate(62.299554,803.06812)"
       id="g8589">
      <defs
         id="defs8591">
        <g
           id="g8593">
          <symbol
             style="overflow:visible"
             overflow="visible"
             id="textext-72f9cd52-0">
            <path
               inkscape:connector-curvature="0"
               style="stroke:none"
               d=""
               id="path8596" />
          </symbol>
          <symbol
             style="overflow:visible"
             overflow="visible"
             id="textext-72f9cd52-1">
            <path
               inkscape:connector-curvature="0"
               style="stroke:none"
               d="m 5.140625,-6.8125 c 0,0 0,-0.109375 -0.125,-0.109375 -0.15625,0 -1.09375,0.09375 -1.265625,0.109375 -0.078125,0.015625 -0.140625,0.0625 -0.140625,0.1875 0,0.125 0.09375,0.125 0.234375,0.125 0.484375,0 0.5,0.0625 0.5,0.171875 L 4.3125,-6.125 3.71875,-3.765625 C 3.53125,-4.140625 3.25,-4.40625 2.796875,-4.40625 c -1.15625,0 -2.390625,1.46875 -2.390625,2.921875 0,0.9375 0.546875,1.59375 1.3125,1.59375 0.203125,0 0.703125,-0.046875 1.296875,-0.75 0.078125,0.421875 0.4375,0.75 0.90625,0.75 0.359375,0 0.578125,-0.234375 0.75,-0.546875 0.15625,-0.359375 0.296875,-0.96875 0.296875,-0.984375 0,-0.109375 -0.09375,-0.109375 -0.125,-0.109375 -0.09375,0 -0.109375,0.046875 -0.140625,0.1875 -0.171875,0.640625 -0.34375,1.234375 -0.75,1.234375 -0.28125,0 -0.296875,-0.265625 -0.296875,-0.453125 0,-0.25 0.015625,-0.3125 0.046875,-0.484375 z m -2.0625,5.625 C 3.015625,-1 3.015625,-0.984375 2.875,-0.8125 2.4375,-0.265625 2.03125,-0.109375 1.75,-0.109375 c -0.5,0 -0.640625,-0.546875 -0.640625,-0.9375 0,-0.5 0.3125,-1.71875 0.546875,-2.1875 0.3125,-0.578125 0.75,-0.953125 1.15625,-0.953125 0.640625,0 0.78125,0.8125 0.78125,0.875 0,0.0625 -0.015625,0.125 -0.03125,0.171875 z"
               id="path8599" />
          </symbol>
        </g>
      </defs>
      <g
         id="textext-72f9cd52-2">
        <g
           style="fill:#000000;fill-opacity:1"
           id="g8602">
          <use
             height="1052.3622"
             width="744.09448"
             xlink:href="#textext-72f9cd52-1"
             x="223.43201"
             y="134.765"
             id="use8604" />
        </g>
      </g>
    </g>
    <g
       id="g8877"
       transform="translate(78.373513,780.75629)"
       ns0:preamble=""
       ns0:text="$B$">
      <defs
         id="defs8879">
        <g
           id="g8881">
          <symbol
             id="textext-45618403-0"
             overflow="visible"
             style="overflow:visible">
            <path
               id="path8884"
               d=""
               style="stroke:none"
               inkscape:connector-curvature="0" />
          </symbol>
          <symbol
             id="textext-45618403-1"
             overflow="visible"
             style="overflow:visible">
            <path
               id="path8887"
               d="M 1.59375,-0.78125 C 1.5,-0.390625 1.46875,-0.3125 0.6875,-0.3125 c -0.171875,0 -0.265625,0 -0.265625,0.203125 C 0.421875,0 0.515625,0 0.6875,0 L 4.25,0 C 5.828125,0 7,-1.171875 7,-2.15625 7,-2.875 6.421875,-3.453125 5.453125,-3.5625 6.484375,-3.75 7.53125,-4.484375 7.53125,-5.4375 c 0,-0.734375 -0.65625,-1.375 -1.84375,-1.375 l -3.359375,0 c -0.1875,0 -0.28125,0 -0.28125,0.203125 0,0.109375 0.09375,0.109375 0.28125,0.109375 0.015625,0 0.203125,0 0.375,0.015625 0.171875,0.03125 0.265625,0.03125 0.265625,0.171875 0,0.03125 -0.015625,0.0625 -0.03125,0.1875 z m 1.5,-2.875 0.625,-2.46875 C 3.8125,-6.46875 3.828125,-6.5 4.25,-6.5 l 1.296875,0 c 0.875,0 1.078125,0.59375 1.078125,1.03125 0,0.875 -0.859375,1.8125 -2.0625,1.8125 z m -0.4375,3.34375 c -0.140625,0 -0.15625,0 -0.21875,0 -0.109375,-0.015625 -0.140625,-0.03125 -0.140625,-0.109375 0,-0.03125 0,-0.046875 0.0625,-0.21875 l 0.6875,-2.78125 1.875,0 c 0.953125,0 1.15625,0.734375 1.15625,1.15625 C 6.078125,-1.28125 5.1875,-0.3125 4,-0.3125 z"
               style="stroke:none"
               inkscape:connector-curvature="0" />
          </symbol>
        </g>
      </defs>
      <g
         id="textext-45618403-2">
        <g
           id="g8890"
           style="fill:#000000;fill-opacity:1">
          <use
             id="use8892"
             y="134.765"
             x="223.43201"
             xlink:href="#textext-45618403-1"
             width="744.09448"
             height="1052.3622" />
        </g>
      </g>
    </g>
    <path
       sodipodi:type="arc"
       style="fill:#555753;fill-opacity:1;stroke:none"
       id="path9016"
       sodipodi:cx="197.35855"
       sodipodi:cy="862.07471"
       sodipodi:rx="4.4194174"
       sodipodi:ry="4.4194174"
       d="m 201.77797,862.07471 c 0,2.44077 -1.97864,4.41941 -4.41942,4.41941 -2.44078,0 -4.41942,-1.97864 -4.41942,-4.41941 0,-2.44078 1.97864,-4.41942 4.41942,-4.41942 2.44078,0 4.41942,1.97864 4.41942,4.41942 z"
       transform="matrix(0.19970264,0,0,0.19970264,226.30667,682.93491)" />
    <path
       sodipodi:type="arc"
       style="fill:#555753;fill-opacity:1;stroke:none"
       id="path9016-7"
       sodipodi:cx="197.35855"
       sodipodi:cy="862.07471"
       sodipodi:rx="4.4194174"
       sodipodi:ry="4.4194174"
       d="m 201.77797,862.07471 c 0,2.44077 -1.97864,4.41941 -4.41942,4.41941 -2.44078,0 -4.41942,-1.97864 -4.41942,-4.41941 0,-2.44078 1.97864,-4.41942 4.41942,-4.41942 2.44078,0 4.41942,1.97864 4.41942,4.41942 z"
       transform="matrix(0.19970264,0,0,0.19970264,226.3067,767.9896)" />
    <path
       sodipodi:type="arc"
       style="fill:#555753;fill-opacity:1;stroke:none"
       id="path9016-7-4"
       sodipodi:cx="197.35855"
       sodipodi:cy="862.07471"
       sodipodi:rx="4.4194174"
       sodipodi:ry="4.4194174"
       d="m 201.77797,862.07471 c 0,2.44077 -1.97864,4.41941 -4.41942,4.41941 -2.44078,0 -4.41942,-1.97864 -4.41942,-4.41941 0,-2.44078 1.97864,-4.41942 4.41942,-4.41942 2.44078,0 4.41942,1.97864 4.41942,4.41942 z"
       transform="matrix(0.19970264,0,0,0.19970264,262.37083,748.05546)" />
    <path
       sodipodi:nodetypes="cc"
       inkscape:connector-curvature="0"
       inkscape:original-d="m 338.39822,899.97578 -11.06606,6.11668"
       inkscape:path-effect="#path-effect4981-3-7"
       id="path4979-9-6"
       d="m 338.39822,899.97578 -11.06606,6.11668"
       style="fill:none;stroke:#000000;stroke-width:0.5;stroke-linecap:round;stroke-linejoin:miter;stroke-miterlimit:4;stroke-opacity:1;stroke-dasharray:none;marker-start:url(#Arrow1Mstart);marker-mid:none" />
  </g>
</svg>
